<?xml version="1.0" encoding="utf-8" standalone="no"?>
<!DOCTYPE svg PUBLIC "-//W3C//DTD SVG 1.1//EN"
  "http://www.w3.org/Graphics/SVG/1.1/DTD/svg11.dtd">
<svg xmlns:xlink="http://www.w3.org/1999/xlink" width="710.82pt" height="412.661563pt" viewBox="0 0 710.82 412.661563" xmlns="http://www.w3.org/2000/svg" version="1.1">
 <metadata>
  <rdf:RDF xmlns:dc="http://purl.org/dc/elements/1.1/" xmlns:cc="http://creativecommons.org/ns#" xmlns:rdf="http://www.w3.org/1999/02/22-rdf-syntax-ns#">
   <cc:Work>
    <dc:type rdf:resource="http://purl.org/dc/dcmitype/StillImage"/>
    <dc:date>2026-06-28T00:08:32.669250</dc:date>
    <dc:format>image/svg+xml</dc:format>
    <dc:creator>
     <cc:Agent>
      <dc:title>Matplotlib v3.10.9, https://matplotlib.org/</dc:title>
     </cc:Agent>
    </dc:creator>
   </cc:Work>
  </rdf:RDF>
 </metadata>
 <defs>
  <style type="text/css">*{stroke-linejoin: round; stroke-linecap: butt}</style>
 </defs>
 <g id="figure_1">
  <g id="patch_1">
   <path d="M 0 412.661563 
L 710.82 412.661563 
L 710.82 0 
L 0 0 
z
" style="fill: #ffffff"/>
  </g>
  <g id="axes_1">
   <g id="patch_2">
    <path d="M 39.84 325.72 
L 691.12 325.72 
L 691.12 7.2 
L 39.84 7.2 
z
" style="fill: #ffffff"/>
   </g>
   <g id="matplotlib.axis_1">
    <g id="xtick_1">
     <g id="line2d_1">
      <path d="M 169.051864 325.72 
L 169.051864 7.2 
" clip-path="url(#p81965a375e)" style="fill: none; stroke-dasharray: 2.96,1.28; stroke-dashoffset: 0; stroke: #b0b0b0; stroke-opacity: 0.3; stroke-width: 0.8"/>
     </g>
     <g id="line2d_2">
      <defs>
       <path id="m42a9606e73" d="M 0 0 
L 0 3.5 
" style="stroke: #000000; stroke-width: 0.8"/>
      </defs>
      <g>
       <use xlink:href="#m42a9606e73" x="169.051864" y="325.72" style="stroke: #000000; stroke-width: 0.8"/>
      </g>
     </g>
     <g id="text_1">
      <text style="font-size: 10px; font-family: 'Times New Roman', 'SimHei', 'Microsoft YaHei', 'DejaVu Serif', serif; text-anchor: middle" x="169.051864" y="339.66375" transform="rotate(-0 169.051864 339.66375)">19600</text>
     </g>
    </g>
    <g id="xtick_2">
     <g id="line2d_3">
      <path d="M 299.568898 325.72 
L 299.568898 7.2 
" clip-path="url(#p81965a375e)" style="fill: none; stroke-dasharray: 2.96,1.28; stroke-dashoffset: 0; stroke: #b0b0b0; stroke-opacity: 0.3; stroke-width: 0.8"/>
     </g>
     <g id="line2d_4">
      <g>
       <use xlink:href="#m42a9606e73" x="299.568898" y="325.72" style="stroke: #000000; stroke-width: 0.8"/>
      </g>
     </g>
     <g id="text_2">
      <text style="font-size: 10px; font-family: 'Times New Roman', 'SimHei', 'Microsoft YaHei', 'DejaVu Serif', serif; text-anchor: middle" x="299.568898" y="339.66375" transform="rotate(-0 299.568898 339.66375)">19700</text>
     </g>
    </g>
    <g id="xtick_3">
     <g id="line2d_5">
      <path d="M 430.085932 325.72 
L 430.085932 7.2 
" clip-path="url(#p81965a375e)" style="fill: none; stroke-dasharray: 2.96,1.28; stroke-dashoffset: 0; stroke: #b0b0b0; stroke-opacity: 0.3; stroke-width: 0.8"/>
     </g>
     <g id="line2d_6">
      <g>
       <use xlink:href="#m42a9606e73" x="430.085932" y="325.72" style="stroke: #000000; stroke-width: 0.8"/>
      </g>
     </g>
     <g id="text_3">
      <text style="font-size: 10px; font-family: 'Times New Roman', 'SimHei', 'Microsoft YaHei', 'DejaVu Serif', serif; text-anchor: middle" x="430.085932" y="339.66375" transform="rotate(-0 430.085932 339.66375)">19800</text>
     </g>
    </g>
    <g id="xtick_4">
     <g id="line2d_7">
      <path d="M 560.602966 325.72 
L 560.602966 7.2 
" clip-path="url(#p81965a375e)" style="fill: none; stroke-dasharray: 2.96,1.28; stroke-dashoffset: 0; stroke: #b0b0b0; stroke-opacity: 0.3; stroke-width: 0.8"/>
     </g>
     <g id="line2d_8">
      <g>
       <use xlink:href="#m42a9606e73" x="560.602966" y="325.72" style="stroke: #000000; stroke-width: 0.8"/>
      </g>
     </g>
     <g id="text_4">
      <text style="font-size: 10px; font-family: 'Times New Roman', 'SimHei', 'Microsoft YaHei', 'DejaVu Serif', serif; text-anchor: middle" x="560.602966" y="339.66375" transform="rotate(-0 560.602966 339.66375)">19900</text>
     </g>
    </g>
    <g id="xtick_5">
     <g id="line2d_9">
      <path d="M 691.12 325.72 
L 691.12 7.2 
" clip-path="url(#p81965a375e)" style="fill: none; stroke-dasharray: 2.96,1.28; stroke-dashoffset: 0; stroke: #b0b0b0; stroke-opacity: 0.3; stroke-width: 0.8"/>
     </g>
     <g id="line2d_10">
      <g>
       <use xlink:href="#m42a9606e73" x="691.12" y="325.72" style="stroke: #000000; stroke-width: 0.8"/>
      </g>
     </g>
     <g id="text_5">
      <text style="font-size: 10px; font-family: 'Times New Roman', 'SimHei', 'Microsoft YaHei', 'DejaVu Serif', serif; text-anchor: middle" x="691.12" y="339.66375" transform="rotate(-0 691.12 339.66375)">20000</text>
     </g>
    </g>
    <g id="text_6">
     <!-- 周期 / Period $t$ -->
     <g transform="translate(335.24 354.135312)">
      <text>
       <tspan x="0" y="-0.578125" style="font-size: 12px; font-family: 'STIXGeneral'">¤</tspan>
       <tspan x="5.999985" y="-0.578125" style="font-size: 12px; font-family: 'STIXGeneral'">¤</tspan>
       <tspan x="11.999969" y="-0.578125" style="font-size: 12px; font-family: 'Times New Roman'"> </tspan>
       <tspan x="14.999969" y="-0.578125" style="font-size: 12px; font-family: 'Times New Roman'">/</tspan>
       <tspan x="18.333954" y="-0.578125" style="font-size: 12px; font-family: 'Times New Roman'"> </tspan>
       <tspan x="21.333954" y="-0.578125" style="font-size: 12px; font-family: 'Times New Roman'">P</tspan>
       <tspan x="28.007782" y="-0.578125" style="font-size: 12px; font-family: 'Times New Roman'">e</tspan>
       <tspan x="33.333954" y="-0.578125" style="font-size: 12px; font-family: 'Times New Roman'">r</tspan>
       <tspan x="37.330048" y="-0.578125" style="font-size: 12px; font-family: 'Times New Roman'">i</tspan>
       <tspan x="40.664032" y="-0.578125" style="font-size: 12px; font-family: 'Times New Roman'">o</tspan>
       <tspan x="46.664032" y="-0.578125" style="font-size: 12px; font-family: 'Times New Roman'">d</tspan>
       <tspan x="52.664032" y="-0.578125" style="font-size: 12px; font-family: 'Times New Roman'"> </tspan>
       <tspan x="55.664032" y="-0.578125" style="font-style: oblique; font-size: 12px; font-family: 'DejaVu Sans'">t</tspan>
      </text>
     </g>
    </g>
   </g>
   <g id="matplotlib.axis_2">
    <g id="ytick_1">
     <g id="line2d_11">
      <path d="M 39.84 325.72 
L 691.12 325.72 
" clip-path="url(#p81965a375e)" style="fill: none; stroke-dasharray: 2.96,1.28; stroke-dashoffset: 0; stroke: #b0b0b0; stroke-opacity: 0.3; stroke-width: 0.8"/>
     </g>
     <g id="line2d_12">
      <defs>
       <path id="m52cabb161f" d="M 0 0 
L -3.5 0 
" style="stroke: #000000; stroke-width: 0.8"/>
      </defs>
      <g>
       <use xlink:href="#m52cabb161f" x="39.84" y="325.72" style="stroke: #000000; stroke-width: 0.8"/>
      </g>
     </g>
     <g id="text_7">
      <text style="font-size: 10px; font-family: 'Times New Roman', 'SimHei', 'Microsoft YaHei', 'DejaVu Serif', serif; text-anchor: end" x="32.84" y="329.191875" transform="rotate(-0 32.84 329.191875)">0</text>
     </g>
    </g>
    <g id="ytick_2">
     <g id="line2d_13">
      <path d="M 39.84 275.487613 
L 691.12 275.487613 
" clip-path="url(#p81965a375e)" style="fill: none; stroke-dasharray: 2.96,1.28; stroke-dashoffset: 0; stroke: #b0b0b0; stroke-opacity: 0.3; stroke-width: 0.8"/>
     </g>
     <g id="line2d_14">
      <g>
       <use xlink:href="#m52cabb161f" x="39.84" y="275.487613" style="stroke: #000000; stroke-width: 0.8"/>
      </g>
     </g>
     <g id="text_8">
      <text style="font-size: 10px; font-family: 'Times New Roman', 'SimHei', 'Microsoft YaHei', 'DejaVu Serif', serif; text-anchor: end" x="32.84" y="278.959488" transform="rotate(-0 32.84 278.959488)">5</text>
     </g>
    </g>
    <g id="ytick_3">
     <g id="line2d_15">
      <path d="M 39.84 225.255225 
L 691.12 225.255225 
" clip-path="url(#p81965a375e)" style="fill: none; stroke-dasharray: 2.96,1.28; stroke-dashoffset: 0; stroke: #b0b0b0; stroke-opacity: 0.3; stroke-width: 0.8"/>
     </g>
     <g id="line2d_16">
      <g>
       <use xlink:href="#m52cabb161f" x="39.84" y="225.255225" style="stroke: #000000; stroke-width: 0.8"/>
      </g>
     </g>
     <g id="text_9">
      <text style="font-size: 10px; font-family: 'Times New Roman', 'SimHei', 'Microsoft YaHei', 'DejaVu Serif', serif; text-anchor: end" x="32.84" y="228.7271" transform="rotate(-0 32.84 228.7271)">10</text>
     </g>
    </g>
    <g id="ytick_4">
     <g id="line2d_17">
      <path d="M 39.84 175.022838 
L 691.12 175.022838 
" clip-path="url(#p81965a375e)" style="fill: none; stroke-dasharray: 2.96,1.28; stroke-dashoffset: 0; stroke: #b0b0b0; stroke-opacity: 0.3; stroke-width: 0.8"/>
     </g>
     <g id="line2d_18">
      <g>
       <use xlink:href="#m52cabb161f" x="39.84" y="175.022838" style="stroke: #000000; stroke-width: 0.8"/>
      </g>
     </g>
     <g id="text_10">
      <text style="font-size: 10px; font-family: 'Times New Roman', 'SimHei', 'Microsoft YaHei', 'DejaVu Serif', serif; text-anchor: end" x="32.84" y="178.494713" transform="rotate(-0 32.84 178.494713)">15</text>
     </g>
    </g>
    <g id="ytick_5">
     <g id="line2d_19">
      <path d="M 39.84 124.790451 
L 691.12 124.790451 
" clip-path="url(#p81965a375e)" style="fill: none; stroke-dasharray: 2.96,1.28; stroke-dashoffset: 0; stroke: #b0b0b0; stroke-opacity: 0.3; stroke-width: 0.8"/>
     </g>
     <g id="line2d_20">
      <g>
       <use xlink:href="#m52cabb161f" x="39.84" y="124.790451" style="stroke: #000000; stroke-width: 0.8"/>
      </g>
     </g>
     <g id="text_11">
      <text style="font-size: 10px; font-family: 'Times New Roman', 'SimHei', 'Microsoft YaHei', 'DejaVu Serif', serif; text-anchor: end" x="32.84" y="128.262326" transform="rotate(-0 32.84 128.262326)">20</text>
     </g>
    </g>
    <g id="ytick_6">
     <g id="line2d_21">
      <path d="M 39.84 74.558064 
L 691.12 74.558064 
" clip-path="url(#p81965a375e)" style="fill: none; stroke-dasharray: 2.96,1.28; stroke-dashoffset: 0; stroke: #b0b0b0; stroke-opacity: 0.3; stroke-width: 0.8"/>
     </g>
     <g id="line2d_22">
      <g>
       <use xlink:href="#m52cabb161f" x="39.84" y="74.558064" style="stroke: #000000; stroke-width: 0.8"/>
      </g>
     </g>
     <g id="text_12">
      <text style="font-size: 10px; font-family: 'Times New Roman', 'SimHei', 'Microsoft YaHei', 'DejaVu Serif', serif; text-anchor: end" x="32.84" y="78.029939" transform="rotate(-0 32.84 78.029939)">25</text>
     </g>
    </g>
    <g id="ytick_7">
     <g id="line2d_23">
      <path d="M 39.84 24.325676 
L 691.12 24.325676 
" clip-path="url(#p81965a375e)" style="fill: none; stroke-dasharray: 2.96,1.28; stroke-dashoffset: 0; stroke: #b0b0b0; stroke-opacity: 0.3; stroke-width: 0.8"/>
     </g>
     <g id="line2d_24">
      <g>
       <use xlink:href="#m52cabb161f" x="39.84" y="24.325676" style="stroke: #000000; stroke-width: 0.8"/>
      </g>
     </g>
     <g id="text_13">
      <text style="font-size: 10px; font-family: 'Times New Roman', 'SimHei', 'Microsoft YaHei', 'DejaVu Serif', serif; text-anchor: end" x="32.84" y="27.797551" transform="rotate(-0 32.84 27.797551)">30</text>
     </g>
    </g>
    <g id="text_14">
     <!-- 方差比 / BWE  $var(q_k)/var(D)$ -->
     <g transform="translate(16.273125 238.28) rotate(-90)">
      <text>
       <tspan x="0" y="-0.890625" style="font-size: 12px; font-family: 'STIXGeneral'">¤</tspan>
       <tspan x="5.999985" y="-0.890625" style="font-size: 12px; font-family: 'STIXGeneral'">¤</tspan>
       <tspan x="11.999969" y="-0.890625" style="font-size: 12px; font-family: 'STIXGeneral'">¤</tspan>
       <tspan x="17.999954" y="-0.890625" style="font-size: 12px; font-family: 'Times New Roman'"> </tspan>
       <tspan x="20.999954" y="-0.890625" style="font-size: 12px; font-family: 'Times New Roman'">/</tspan>
       <tspan x="24.333939" y="-0.890625" style="font-size: 12px; font-family: 'Times New Roman'"> </tspan>
       <tspan x="27.333939" y="-0.890625" style="font-size: 12px; font-family: 'Times New Roman'">B</tspan>
       <tspan x="35.337845" y="-0.890625" style="font-size: 12px; font-family: 'Times New Roman'">W</tspan>
       <tspan x="46.664017" y="-0.890625" style="font-size: 12px; font-family: 'Times New Roman'">E</tspan>
       <tspan x="53.994095" y="-0.890625" style="font-size: 12px; font-family: 'Times New Roman'"> </tspan>
       <tspan x="56.994095" y="-0.890625" style="font-size: 12px; font-family: 'Times New Roman'"> </tspan>
       <tspan x="59.994095" y="-0.890625" style="font-style: oblique; font-size: 12px; font-family: 'DejaVu Sans'">v</tspan>
       <tspan x="67.095657" y="-0.890625" style="font-style: oblique; font-size: 12px; font-family: 'DejaVu Sans'">a</tspan>
       <tspan x="74.449173" y="-0.890625" style="font-style: oblique; font-size: 12px; font-family: 'DejaVu Sans'">r</tspan>
       <tspan x="84.064407" y="-0.890625" style="font-style: oblique; font-size: 12px; font-family: 'DejaVu Sans'">q</tspan>
       <tspan x="105.598782" y="-0.890625" style="font-style: oblique; font-size: 12px; font-family: 'DejaVu Sans'">v</tspan>
       <tspan x="112.700345" y="-0.890625" style="font-style: oblique; font-size: 12px; font-family: 'DejaVu Sans'">a</tspan>
       <tspan x="120.05386" y="-0.890625" style="font-style: oblique; font-size: 12px; font-family: 'DejaVu Sans'">r</tspan>
       <tspan x="129.669095" y="-0.890625" style="font-style: oblique; font-size: 12px; font-family: 'DejaVu Sans'">D</tspan>
       <tspan x="79.382767" y="-0.890625" style="font-size: 12px; font-family: 'DejaVu Sans'">(</tspan>
       <tspan x="96.874173" y="-0.890625" style="font-size: 12px; font-family: 'DejaVu Sans'">)</tspan>
       <tspan x="101.555814" y="-0.890625" style="font-size: 12px; font-family: 'DejaVu Sans'">/</tspan>
       <tspan x="124.987454" y="-0.890625" style="font-size: 12px; font-family: 'DejaVu Sans'">(</tspan>
       <tspan x="138.909329" y="-0.890625" style="font-size: 12px; font-family: 'DejaVu Sans'">)</tspan>
       <tspan x="91.681595" y="1.078125" style="font-style: oblique; font-size: 8.4px; font-family: 'DejaVu Sans'">k</tspan>
      </text>
     </g>
    </g>
   </g>
   <g id="line2d_25">
    <path d="M 39.84 279.356294 
L 41.14517 278.587136 
L 42.450341 278.910748 
L 43.755511 276.654664 
L 45.060681 279.749554 
L 46.365852 277.894134 
L 47.671022 278.880215 
L 48.976192 278.155329 
L 50.281363 279.139355 
L 52.891703 273.370652 
L 54.196874 272.263162 
L 55.502044 273.961205 
L 58.112385 273.72126 
L 59.417555 266.921353 
L 62.027896 267.409365 
L 63.333066 266.097357 
L 64.638236 265.134263 
L 67.248577 270.203109 
L 69.858918 270.620089 
L 72.469259 263.385999 
L 73.774429 263.13433 
L 75.079599 263.460094 
L 76.38477 263.472928 
L 77.68994 264.991319 
L 78.99511 264.92783 
L 80.300281 264.173542 
L 82.910621 264.192926 
L 84.215792 263.859892 
L 85.520962 265.014862 
L 86.826132 263.433218 
L 88.131303 265.718895 
L 90.741643 254.877997 
L 92.046814 255.526253 
L 93.351984 255.119082 
L 94.657154 254.378792 
L 95.962325 255.927499 
L 97.267495 256.620978 
L 98.572665 257.553439 
L 99.877836 262.554335 
L 101.183006 262.358325 
L 102.488176 262.762021 
L 103.793347 267.51542 
L 105.098517 268.052112 
L 106.403687 267.994112 
L 107.708858 267.441149 
L 109.014028 265.991837 
L 110.319198 266.641329 
L 111.624369 265.724453 
L 112.929539 265.74769 
L 114.234709 262.924443 
L 115.53988 263.687278 
L 116.84505 261.703271 
L 119.455391 266.96154 
L 120.760561 268.194307 
L 122.065731 270.598544 
L 123.370902 271.010776 
L 124.676072 269.123192 
L 125.981242 272.488217 
L 127.286413 271.604741 
L 128.591583 268.43799 
L 129.896754 268.695899 
L 131.201924 271.07079 
L 132.507094 271.093104 
L 133.812265 271.422663 
L 135.117435 271.581917 
L 136.422605 271.053714 
L 137.727776 276.691954 
L 139.032946 276.337236 
L 140.338116 276.534356 
L 141.643287 276.419488 
L 142.948457 277.703329 
L 144.253627 274.020998 
L 145.558798 274.564387 
L 146.863968 279.435662 
L 148.169138 279.222595 
L 149.474309 280.691151 
L 150.779479 279.712459 
L 152.084649 279.862632 
L 153.38982 282.102939 
L 154.69499 278.659498 
L 157.305331 279.785779 
L 158.610501 279.189743 
L 159.915671 279.207263 
L 161.220842 280.71447 
L 163.831182 282.212467 
L 165.136353 285.474149 
L 166.441523 285.474604 
L 167.746693 284.69528 
L 169.051864 283.688032 
L 170.357034 282.167831 
L 171.662204 282.690548 
L 172.967375 282.464814 
L 174.272545 284.562816 
L 175.577715 285.490138 
L 176.882886 285.307544 
L 178.188056 285.429154 
L 179.493226 287.330152 
L 180.798397 286.941865 
L 182.103567 286.322992 
L 183.408737 288.470336 
L 184.713908 289.037972 
L 186.019078 290.264369 
L 187.324248 290.003241 
L 188.629419 288.226963 
L 189.934589 288.147809 
L 191.23976 289.307784 
L 192.54493 289.620558 
L 193.8501 293.056764 
L 195.155271 293.768085 
L 196.460441 293.524025 
L 197.765611 292.443705 
L 199.070782 292.951504 
L 200.375952 290.943338 
L 201.681122 290.895154 
L 202.986293 291.725966 
L 204.291463 292.748938 
L 205.596633 292.290921 
L 206.901804 292.434111 
L 208.206974 292.212774 
L 209.512144 291.367683 
L 210.817315 290.228733 
L 212.122485 291.963305 
L 213.427655 290.983691 
L 214.732826 291.90902 
L 216.037996 291.667089 
L 217.343166 290.986362 
L 218.648337 290.808892 
L 219.953507 293.523602 
L 221.258677 294.585481 
L 222.563848 293.769048 
L 223.869018 293.32536 
L 225.174188 293.66622 
L 226.479359 292.307367 
L 227.784529 291.623319 
L 229.089699 291.211376 
L 230.39487 290.34148 
L 231.70004 288.778621 
L 233.00521 285.933171 
L 234.310381 288.100788 
L 235.615551 287.462935 
L 236.920721 285.214956 
L 238.225892 286.571263 
L 239.531062 286.099901 
L 240.836232 282.148808 
L 242.141403 277.446437 
L 243.446573 277.131116 
L 244.751743 277.888659 
L 246.056914 278.085432 
L 248.667255 279.765218 
L 249.972425 279.369367 
L 251.277595 280.46169 
L 252.582766 280.959579 
L 253.887936 280.985028 
L 255.193106 283.435976 
L 256.498277 287.389502 
L 257.803447 288.973294 
L 259.108617 289.673556 
L 260.413788 287.570218 
L 261.718958 289.958899 
L 263.024128 291.308205 
L 264.329299 291.430028 
L 265.634469 291.248456 
L 266.939639 293.479974 
L 268.24481 291.597987 
L 269.54998 292.422588 
L 270.85515 290.699304 
L 272.160321 291.629777 
L 273.465491 294.364103 
L 274.770661 292.399787 
L 276.075832 291.220666 
L 277.381002 291.74335 
L 278.686172 291.962919 
L 279.991343 291.719584 
L 281.296513 289.792533 
L 282.601683 289.104728 
L 285.212024 289.788404 
L 286.517194 284.829024 
L 287.822365 283.460709 
L 289.127535 281.911254 
L 290.432705 282.114393 
L 291.737876 283.12482 
L 293.043046 286.216784 
L 294.348216 286.005577 
L 295.653387 286.034274 
L 296.958557 285.859203 
L 298.263727 285.537843 
L 299.568898 285.056729 
L 300.874068 285.698893 
L 302.179238 284.330811 
L 303.484409 286.653753 
L 304.789579 283.866454 
L 306.094749 283.922686 
L 307.39992 284.402711 
L 308.70509 285.307181 
L 312.620601 284.781822 
L 313.925772 286.788174 
L 315.230942 286.65165 
L 316.536112 287.77564 
L 317.841283 288.721503 
L 319.146453 288.563269 
L 320.451623 288.263147 
L 321.756794 288.474704 
L 323.061964 289.634646 
L 324.367134 292.912204 
L 325.672305 291.833166 
L 326.977475 291.422385 
L 328.282645 292.056251 
L 329.587816 289.72791 
L 330.892986 290.78463 
L 333.503327 290.73619 
L 334.808497 292.614868 
L 336.113667 289.272977 
L 337.418838 288.518436 
L 338.724008 286.616975 
L 340.029178 281.962955 
L 341.334349 280.549052 
L 342.639519 280.934749 
L 343.944689 282.616269 
L 345.24986 282.497761 
L 346.55503 284.323683 
L 347.8602 283.303274 
L 349.165371 283.285514 
L 350.470541 282.058658 
L 351.775711 281.734701 
L 353.080882 284.102339 
L 354.386052 284.726124 
L 355.691222 286.313589 
L 356.996393 285.836541 
L 358.301563 286.282491 
L 359.606733 284.536031 
L 360.911904 284.674507 
L 362.217074 286.196426 
L 363.522244 288.569451 
L 364.827415 286.672522 
L 366.132585 287.774628 
L 367.437756 286.732649 
L 368.742926 286.430139 
L 370.048096 287.149405 
L 373.963607 286.905328 
L 375.268778 285.188447 
L 376.573948 282.798868 
L 377.879118 282.889952 
L 379.184289 281.229363 
L 381.794629 285.043595 
L 384.40497 286.112481 
L 385.71014 285.975672 
L 388.320481 285.427804 
L 389.625651 283.741309 
L 390.930822 278.800018 
L 392.235992 279.645588 
L 393.541162 279.652002 
L 394.846333 277.376936 
L 396.151503 280.485254 
L 397.456673 277.467502 
L 398.761844 278.561464 
L 400.067014 277.401246 
L 401.372184 277.357751 
L 402.677355 278.416099 
L 403.982525 274.911792 
L 405.287695 276.994732 
L 406.592866 278.069372 
L 407.898036 281.436031 
L 409.203206 285.812377 
L 410.508377 285.262392 
L 411.813547 288.123285 
L 413.118717 287.161111 
L 414.423888 289.384299 
L 415.729058 289.700665 
L 417.034228 291.3146 
L 418.339399 289.826393 
L 419.644569 291.891209 
L 420.949739 291.914956 
L 423.56008 292.435618 
L 424.865251 291.936323 
L 426.170421 295.002105 
L 427.475591 294.999654 
L 428.780762 294.838755 
L 430.085932 292.171801 
L 431.391102 294.021838 
L 432.696273 293.378533 
L 434.001443 296.132315 
L 435.306613 295.431688 
L 436.611784 297.367199 
L 437.916954 297.426719 
L 439.222124 297.634442 
L 440.527295 296.9901 
L 441.832465 297.64062 
L 443.137635 299.952119 
L 444.442806 299.024903 
L 445.747976 299.589268 
L 447.053146 298.131698 
L 448.358317 295.601052 
L 449.663487 295.253964 
L 450.968657 294.077938 
L 452.273828 294.344841 
L 453.578998 293.926931 
L 454.884168 295.521207 
L 457.494509 296.066817 
L 458.799679 296.008095 
L 460.10485 295.39917 
L 461.41002 293.002885 
L 462.71519 292.039755 
L 464.020361 289.645463 
L 465.325531 288.996914 
L 466.630701 289.1245 
L 467.935872 285.971399 
L 469.241042 285.272417 
L 470.546212 287.059197 
L 471.851383 286.649227 
L 473.156553 285.027847 
L 474.461723 287.532169 
L 475.766894 287.034586 
L 477.072064 288.478592 
L 478.377234 287.053785 
L 479.682405 286.030036 
L 480.987575 285.906467 
L 482.292745 287.177337 
L 483.597916 287.27093 
L 484.903086 288.393924 
L 486.208257 286.491651 
L 487.513427 288.000892 
L 488.818597 287.976079 
L 490.123768 287.163918 
L 491.428938 285.362862 
L 492.734108 282.64828 
L 494.039279 282.764669 
L 495.344449 281.171654 
L 496.649619 280.636683 
L 497.95479 283.794565 
L 499.25996 285.864251 
L 500.56513 282.519618 
L 501.870301 283.780605 
L 503.175471 276.543964 
L 504.480641 277.036857 
L 505.785812 277.713494 
L 507.090982 277.681368 
L 508.396152 276.705515 
L 509.701323 272.884223 
L 511.006493 271.89741 
L 512.311663 271.088081 
L 513.616834 273.713594 
L 514.922004 274.979237 
L 516.227174 272.83493 
L 517.532345 273.871577 
L 518.837515 273.980661 
L 520.142685 273.66275 
L 521.447856 272.821137 
L 524.058196 272.928314 
L 525.363367 270.453305 
L 526.668537 273.502675 
L 527.973707 276.003579 
L 529.278878 275.611923 
L 530.584048 277.55426 
L 531.889218 277.779338 
L 533.194389 276.267112 
L 534.499559 276.818113 
L 535.804729 274.801983 
L 537.1099 277.718238 
L 538.41507 274.704648 
L 539.72024 275.195537 
L 541.025411 275.007118 
L 544.940922 275.07662 
L 546.246092 277.788758 
L 547.551263 277.739312 
L 548.856433 277.405293 
L 550.161603 275.845665 
L 551.466774 276.3771 
L 552.771944 278.008233 
L 554.077114 277.572046 
L 555.382285 280.536917 
L 556.687455 283.990205 
L 557.992625 289.097711 
L 559.297796 290.309932 
L 560.602966 289.576969 
L 561.908136 287.488367 
L 563.213307 288.415822 
L 564.518477 285.448492 
L 565.823647 280.478201 
L 567.128818 280.581054 
L 568.433988 276.890382 
L 569.739158 280.653694 
L 571.044329 277.47842 
L 572.349499 277.182319 
L 573.654669 277.608073 
L 574.95984 276.381929 
L 576.26501 278.707009 
L 577.57018 282.289239 
L 578.875351 282.922009 
L 580.180521 281.898282 
L 581.485691 282.718887 
L 582.790862 284.708192 
L 584.096032 284.599991 
L 585.401202 285.854174 
L 586.706373 286.239369 
L 588.011543 284.833886 
L 589.316713 285.374066 
L 590.621884 285.347623 
L 593.232224 283.07747 
L 594.537395 283.187049 
L 595.842565 284.307906 
L 597.147735 284.79808 
L 598.452906 281.648741 
L 599.758076 288.117095 
L 601.063246 291.61159 
L 602.368417 288.622149 
L 603.673587 288.334134 
L 604.978758 291.694679 
L 606.283928 291.73296 
L 607.589098 291.240881 
L 611.504609 290.79493 
L 612.80978 289.763187 
L 614.11495 287.61622 
L 615.42012 288.447505 
L 616.725291 288.703522 
L 618.030461 289.22395 
L 619.335631 290.055002 
L 620.640802 290.027563 
L 621.945972 290.608136 
L 623.251142 290.023831 
L 624.556313 287.368477 
L 625.861483 285.385744 
L 627.166653 285.796253 
L 628.471824 291.600636 
L 629.776994 291.879737 
L 631.082164 288.916718 
L 632.387335 288.674794 
L 633.692505 286.660703 
L 634.997675 289.337575 
L 636.302846 289.467287 
L 637.608016 291.710002 
L 638.913186 291.806275 
L 640.218357 296.402203 
L 641.523527 298.37686 
L 642.828697 296.975713 
L 645.439038 295.991683 
L 646.744208 295.320131 
L 648.049379 296.081987 
L 649.354549 292.432658 
L 650.659719 292.48625 
L 651.96489 290.422065 
L 653.27006 290.193018 
L 654.57523 290.72876 
L 655.880401 288.485722 
L 657.185571 288.107786 
L 658.490741 288.018949 
L 659.795912 287.607881 
L 661.101082 286.342436 
L 662.406253 289.153823 
L 663.711423 289.668142 
L 665.016593 289.191936 
L 666.321764 289.067651 
L 667.626934 286.637681 
L 668.932104 290.148233 
L 670.237275 289.781857 
L 671.542445 289.977986 
L 672.847615 289.433442 
L 674.152786 287.497109 
L 675.457956 282.416379 
L 676.763126 283.047432 
L 678.068297 284.148739 
L 679.373467 283.310032 
L 680.678637 286.400422 
L 681.983808 284.97286 
L 683.288978 286.010311 
L 684.594148 286.328469 
L 685.899319 285.532603 
L 687.204489 285.294988 
L 688.509659 283.120303 
L 689.81483 286.85252 
L 691.12 286.493905 
L 691.12 286.493905 
" clip-path="url(#p81965a375e)" style="fill: none; stroke: #4e79a7; stroke-opacity: 0.85; stroke-width: 1.5; stroke-linecap: square"/>
   </g>
   <g id="line2d_26">
    <path d="M 39.84 99.4326 
L 41.14517 91.088637 
L 42.450341 98.660322 
L 43.755511 87.357491 
L 45.060681 98.696454 
L 46.365852 93.107687 
L 47.671022 93.275857 
L 48.976192 98.669865 
L 50.281363 101.070142 
L 51.586533 97.894213 
L 52.891703 88.810854 
L 54.196874 77.564114 
L 55.502044 86.909675 
L 56.807214 87.591282 
L 58.112385 87.243992 
L 59.417555 61.769431 
L 60.722725 60.272856 
L 62.027896 60.80898 
L 63.333066 55.155463 
L 64.638236 50.481783 
L 65.943407 47.662856 
L 67.248577 48.443415 
L 68.553747 48.650602 
L 69.858918 49.01034 
L 71.164088 46.878239 
L 72.469259 35.762951 
L 73.774429 32.459711 
L 75.079599 34.47932 
L 76.38477 38.800703 
L 77.68994 45.418583 
L 78.99511 42.876708 
L 80.300281 50.998678 
L 81.605451 45.478999 
L 82.910621 53.258733 
L 84.215792 53.786739 
L 85.520962 57.660195 
L 86.826132 63.6211 
L 88.131303 81.800558 
L 89.436473 59.630086 
L 90.741643 40.85227 
L 92.046814 129.492363 
L 93.351984 142.080397 
L 94.657154 139.938813 
L 95.962325 149.69558 
L 97.267495 151.076436 
L 98.572665 154.793804 
L 99.877836 158.907399 
L 101.183006 158.820811 
L 102.488176 160.482721 
L 103.793347 168.194609 
L 105.098517 166.77448 
L 106.403687 168.24696 
L 107.708858 152.962208 
L 109.014028 142.947457 
L 110.319198 146.926878 
L 111.624369 146.30763 
L 112.929539 147.53746 
L 114.234709 144.553098 
L 115.53988 140.6611 
L 116.84505 142.65789 
L 118.15022 122.539168 
L 119.455391 129.913024 
L 120.760561 142.461121 
L 122.065731 151.079382 
L 123.370902 148.380012 
L 124.676072 144.550415 
L 125.981242 143.218547 
L 127.286413 140.549994 
L 128.591583 144.782048 
L 129.896754 143.449806 
L 131.201924 153.690895 
L 132.507094 156.246865 
L 133.812265 157.393445 
L 135.117435 162.357051 
L 136.422605 163.71618 
L 137.727776 171.517649 
L 139.032946 168.218821 
L 140.338116 169.651112 
L 141.643287 172.266595 
L 142.948457 172.197756 
L 144.253627 167.588943 
L 145.558798 174.259097 
L 146.863968 178.107586 
L 148.169138 187.339896 
L 149.474309 192.304347 
L 150.779479 186.96056 
L 152.084649 184.837974 
L 153.38982 190.216685 
L 154.69499 175.610138 
L 156.00016 176.540805 
L 157.305331 176.778487 
L 158.610501 168.556014 
L 159.915671 166.960348 
L 161.220842 167.888841 
L 162.526012 179.337665 
L 163.831182 181.337855 
L 165.136353 185.231626 
L 166.441523 186.009017 
L 167.746693 188.242525 
L 169.051864 184.148067 
L 170.357034 178.455402 
L 171.662204 181.267448 
L 172.967375 178.223639 
L 174.272545 193.679373 
L 175.577715 198.859079 
L 176.882886 196.832067 
L 178.188056 197.213535 
L 179.493226 199.385006 
L 180.798397 194.656158 
L 183.408737 199.448848 
L 184.713908 218.829182 
L 186.019078 224.02451 
L 187.324248 223.184831 
L 188.629419 214.754889 
L 189.934589 215.513903 
L 191.23976 217.656892 
L 192.54493 220.194936 
L 193.8501 229.908264 
L 195.155271 231.389794 
L 196.460441 230.613405 
L 197.765611 226.037708 
L 199.070782 226.518256 
L 200.375952 227.341708 
L 201.681122 224.500601 
L 202.986293 223.364062 
L 205.596633 229.089189 
L 206.901804 230.698759 
L 208.206974 228.081078 
L 209.512144 226.070115 
L 210.817315 225.689599 
L 212.122485 225.135689 
L 213.427655 221.047476 
L 214.732826 218.82992 
L 216.037996 217.805442 
L 217.343166 217.646302 
L 218.648337 217.706784 
L 219.953507 223.246723 
L 221.258677 227.384395 
L 222.563848 231.11695 
L 223.869018 230.096156 
L 225.174188 232.620679 
L 226.479359 236.090863 
L 227.784529 236.158356 
L 229.089699 229.744108 
L 230.39487 228.399191 
L 233.00521 213.896484 
L 234.310381 211.913013 
L 235.615551 212.132487 
L 236.920721 198.063884 
L 238.225892 201.151431 
L 239.531062 201.898662 
L 240.836232 188.957998 
L 242.141403 174.524713 
L 243.446573 171.355742 
L 244.751743 169.483261 
L 246.056914 167.309068 
L 247.362084 185.757399 
L 248.667255 185.274985 
L 249.972425 174.197724 
L 251.277595 166.251733 
L 252.582766 166.625656 
L 253.887936 167.523136 
L 256.498277 195.612593 
L 257.803447 199.804655 
L 259.108617 204.89241 
L 260.413788 200.135395 
L 261.718958 203.115239 
L 263.024128 207.401405 
L 264.329299 207.542495 
L 265.634469 206.412565 
L 266.939639 206.356725 
L 268.24481 193.470131 
L 269.54998 199.424335 
L 270.85515 186.200419 
L 272.160321 183.155723 
L 273.465491 192.699722 
L 274.770661 194.010764 
L 276.075832 196.208185 
L 277.381002 194.277727 
L 278.686172 193.712473 
L 279.991343 192.516449 
L 281.296513 186.217626 
L 282.601683 182.678508 
L 283.906854 181.609697 
L 285.212024 182.605442 
L 286.517194 167.556344 
L 287.822365 161.089339 
L 289.127535 152.229441 
L 290.432705 156.706032 
L 291.737876 160.270063 
L 293.043046 163.475671 
L 294.348216 164.115914 
L 295.653387 163.197231 
L 296.958557 163.336221 
L 298.263727 162.293026 
L 299.568898 162.804409 
L 300.874068 165.827533 
L 302.179238 160.883259 
L 303.484409 170.54759 
L 304.789579 161.906612 
L 306.094749 159.118662 
L 307.39992 161.938142 
L 308.70509 161.673373 
L 310.010261 163.016429 
L 311.315431 163.843667 
L 312.620601 165.424059 
L 315.230942 165.682694 
L 316.536112 179.770338 
L 317.841283 191.534519 
L 319.146453 192.812712 
L 320.451623 189.332958 
L 321.756794 190.420396 
L 323.061964 194.720741 
L 324.367134 208.067685 
L 325.672305 207.601777 
L 326.977475 204.894342 
L 328.282645 207.860665 
L 329.587816 197.036239 
L 330.892986 199.885242 
L 332.198156 202.363775 
L 333.503327 202.594208 
L 334.808497 214.778794 
L 336.113667 208.951524 
L 337.418838 217.020814 
L 338.724008 214.944151 
L 340.029178 204.339402 
L 341.334349 167.894578 
L 342.639519 160.077557 
L 343.944689 162.804016 
L 345.24986 164.996303 
L 346.55503 177.01607 
L 347.8602 184.475802 
L 349.165371 186.26232 
L 350.470541 190.419185 
L 351.775711 189.88601 
L 353.080882 197.088551 
L 354.386052 198.462644 
L 355.691222 201.207859 
L 356.996393 199.270396 
L 358.301563 200.88239 
L 359.606733 197.585737 
L 360.911904 195.992 
L 362.217074 203.359247 
L 363.522244 210.085142 
L 364.827415 208.847787 
L 366.132585 208.456558 
L 367.437756 202.478826 
L 368.742926 202.809613 
L 370.048096 204.027043 
L 371.353267 205.502228 
L 372.658437 205.410224 
L 373.963607 203.988235 
L 375.268778 203.676711 
L 376.573948 204.879778 
L 380.489459 196.748045 
L 381.794629 202.611532 
L 383.0998 206.954195 
L 384.40497 208.563098 
L 385.71014 208.861834 
L 387.015311 212.809591 
L 388.320481 208.717332 
L 389.625651 202.266184 
L 390.930822 188.365294 
L 393.541162 185.606296 
L 394.846333 175.025939 
L 396.151503 191.930664 
L 397.456673 187.005277 
L 398.761844 184.80502 
L 400.067014 181.935415 
L 401.372184 180.102107 
L 402.677355 175.757501 
L 403.982525 162.686433 
L 405.287695 154.43198 
L 406.592866 156.879177 
L 407.898036 196.201027 
L 409.203206 210.380629 
L 411.813547 224.50011 
L 413.118717 223.477254 
L 414.423888 223.513757 
L 415.729058 226.13645 
L 417.034228 227.607955 
L 418.339399 226.604911 
L 419.644569 226.238543 
L 420.949739 228.63429 
L 422.25491 229.114132 
L 423.56008 227.964964 
L 424.865251 226.398489 
L 426.170421 233.693822 
L 427.475591 234.675944 
L 428.780762 234.384282 
L 430.085932 230.637113 
L 431.391102 231.144263 
L 432.696273 229.555065 
L 434.001443 224.022449 
L 435.306613 220.146769 
L 436.611784 225.685262 
L 437.916954 224.894978 
L 439.222124 225.546694 
L 440.527295 222.974808 
L 441.832465 221.908318 
L 443.137635 223.102112 
L 444.442806 223.158577 
L 445.747976 222.936243 
L 447.053146 228.204745 
L 448.358317 219.090664 
L 449.663487 208.134955 
L 450.968657 204.434945 
L 452.273828 203.63528 
L 453.578998 199.473699 
L 454.884168 205.672884 
L 456.189339 205.521773 
L 457.494509 205.851697 
L 458.799679 204.306857 
L 460.10485 204.178679 
L 461.41002 180.392798 
L 462.71519 172.908155 
L 464.020361 157.63569 
L 465.325531 147.728477 
L 466.630701 145.762652 
L 467.935872 139.448542 
L 469.241042 134.71401 
L 470.546212 135.722723 
L 471.851383 138.956173 
L 473.156553 143.930474 
L 474.461723 147.389214 
L 477.072064 147.233102 
L 478.377234 140.974289 
L 479.682405 142.351794 
L 480.987575 142.73217 
L 482.292745 145.056453 
L 483.597916 146.293832 
L 484.903086 148.461363 
L 486.208257 145.325088 
L 487.513427 145.448342 
L 488.818597 144.02199 
L 490.123768 147.194002 
L 491.428938 118.367781 
L 492.734108 100.319691 
L 494.039279 100.25148 
L 496.649619 87.571952 
L 497.95479 103.680941 
L 499.25996 114.949145 
L 500.56513 111.744738 
L 501.870301 115.86174 
L 503.175471 98.011307 
L 504.480641 93.332985 
L 505.785812 96.972888 
L 507.090982 99.643501 
L 508.396152 99.693949 
L 509.701323 92.807559 
L 511.006493 91.385671 
L 512.311663 87.873045 
L 513.616834 85.094905 
L 514.922004 86.338672 
L 516.227174 80.793303 
L 517.532345 79.656107 
L 518.837515 77.33309 
L 520.142685 81.993754 
L 521.447856 79.479494 
L 522.753026 81.930369 
L 524.058196 84.732073 
L 525.363367 81.619212 
L 526.668537 94.221268 
L 527.973707 119.745309 
L 529.278878 120.772237 
L 530.584048 140.151188 
L 531.889218 147.404278 
L 533.194389 148.790868 
L 535.804729 139.488476 
L 537.1099 142.011758 
L 538.41507 143.434762 
L 539.72024 129.229225 
L 541.025411 130.551652 
L 542.330581 129.532144 
L 544.940922 131.680784 
L 546.246092 131.995053 
L 547.551263 131.595969 
L 548.856433 135.450567 
L 550.161603 130.183539 
L 551.466774 131.783311 
L 552.771944 133.034789 
L 554.077114 133.904237 
L 555.382285 148.795968 
L 556.687455 157.275533 
L 557.992625 211.607498 
L 559.297796 220.675237 
L 560.602966 219.522776 
L 561.908136 214.477351 
L 563.213307 206.050724 
L 564.518477 199.326877 
L 565.823647 188.045245 
L 567.128818 186.315015 
L 568.433988 189.240807 
L 569.739158 196.195101 
L 571.044329 198.200599 
L 572.349499 194.062315 
L 573.654669 191.105482 
L 574.95984 184.782311 
L 576.26501 179.39697 
L 577.57018 185.479671 
L 578.875351 189.006718 
L 580.180521 190.4966 
L 581.485691 191.770551 
L 582.790862 195.481731 
L 584.096032 194.123201 
L 585.401202 199.207119 
L 586.706373 197.780635 
L 588.011543 197.454154 
L 589.316713 197.32104 
L 590.621884 196.834716 
L 591.927054 200.914261 
L 593.232224 193.332418 
L 594.537395 193.923595 
L 595.842565 190.185123 
L 597.147735 191.326316 
L 598.452906 181.761738 
L 599.758076 194.378009 
L 601.063246 209.842484 
L 602.368417 211.283667 
L 603.673587 208.17105 
L 604.978758 207.739968 
L 606.283928 211.048915 
L 607.589098 213.235715 
L 608.894269 212.3024 
L 610.199439 212.936147 
L 611.504609 215.043237 
L 612.80978 212.328334 
L 614.11495 214.939859 
L 615.42012 212.447933 
L 616.725291 211.553377 
L 618.030461 211.905941 
L 619.335631 214.803906 
L 620.640802 212.570935 
L 621.945972 212.130793 
L 623.251142 210.702156 
L 624.556313 197.241737 
L 625.861483 188.931747 
L 627.166653 189.216126 
L 628.471824 202.516992 
L 629.776994 220.666927 
L 631.082164 218.015964 
L 632.387335 214.59676 
L 633.692505 207.049595 
L 634.997675 198.685098 
L 636.302846 199.981458 
L 637.608016 199.966652 
L 638.913186 206.890195 
L 640.218357 223.875239 
L 641.523527 235.465923 
L 642.828697 238.777217 
L 644.133868 234.332868 
L 646.744208 227.081971 
L 648.049379 229.85022 
L 649.354549 221.0596 
L 650.659719 221.964774 
L 651.96489 217.790987 
L 653.27006 218.236803 
L 654.57523 217.26886 
L 655.880401 208.411942 
L 657.185571 204.284329 
L 658.490741 202.000824 
L 659.795912 200.705874 
L 661.101082 191.471781 
L 662.406253 205.09556 
L 663.711423 211.131057 
L 666.321764 208.887661 
L 667.626934 200.251254 
L 668.932104 200.989069 
L 670.237275 200.019828 
L 671.542445 201.449434 
L 672.847615 201.1063 
L 674.152786 191.454529 
L 675.457956 101.536815 
L 676.763126 99.927019 
L 678.068297 109.044459 
L 679.373467 108.4266 
L 680.678637 108.26136 
L 681.983808 110.476146 
L 683.288978 115.017062 
L 684.594148 114.18244 
L 685.899319 110.444532 
L 687.204489 107.856677 
L 688.509659 104.899598 
L 689.81483 123.578448 
L 691.12 121.162817 
L 691.12 121.162817 
" clip-path="url(#p81965a375e)" style="fill: none; stroke: #f28e2b; stroke-opacity: 0.85; stroke-width: 1.5; stroke-linecap: square"/>
   </g>
   <g id="line2d_27">
    <path d="M 39.84 188.118468 
L 41.14517 186.111762 
L 42.450341 192.704966 
L 43.755511 191.642813 
L 45.060681 190.843042 
L 46.365852 183.734954 
L 47.671022 183.142058 
L 48.976192 187.893528 
L 50.281363 193.334327 
L 51.586533 190.956938 
L 52.891703 193.340344 
L 54.196874 188.36712 
L 55.502044 188.356922 
L 56.807214 187.434524 
L 58.112385 189.437008 
L 59.417555 179.488738 
L 60.722725 179.917343 
L 62.027896 180.211821 
L 63.333066 177.153068 
L 64.638236 177.547263 
L 65.943407 177.552119 
L 67.248577 177.082899 
L 68.553747 179.398082 
L 69.858918 179.734983 
L 71.164088 178.512938 
L 72.469259 170.230479 
L 73.774429 167.568426 
L 75.079599 166.415831 
L 76.38477 169.565636 
L 77.68994 176.520503 
L 78.99511 176.489954 
L 80.300281 183.639698 
L 81.605451 181.623108 
L 82.910621 175.108936 
L 84.215792 174.205984 
L 85.520962 178.941015 
L 86.826132 184.689159 
L 88.131303 197.091074 
L 89.436473 186.438923 
L 90.741643 171.518508 
L 92.046814 139.267965 
L 93.351984 128.146752 
L 94.657154 130.710359 
L 95.962325 140.229664 
L 97.267495 146.929083 
L 98.572665 149.341787 
L 99.877836 153.586593 
L 101.183006 153.497243 
L 102.488176 155.212163 
L 103.793347 163.170036 
L 106.403687 160.133737 
L 107.708858 158.074029 
L 109.014028 147.898994 
L 110.319198 144.622275 
L 111.624369 141.901428 
L 112.929539 145.293655 
L 114.234709 146.49585 
L 115.53988 144.426666 
L 116.84505 145.635754 
L 118.15022 156.077784 
L 119.455391 143.537642 
L 120.760561 146.815864 
L 122.065731 159.141617 
L 123.370902 163.977505 
L 124.676072 163.765093 
L 125.981242 162.574481 
L 127.286413 160.188953 
L 128.591583 160.679847 
L 129.896754 161.553406 
L 131.201924 161.775861 
L 132.507094 161.764763 
L 133.812265 161.883445 
L 135.117435 168.078131 
L 136.422605 169.617121 
L 137.727776 174.711256 
L 139.032946 171.175576 
L 140.338116 170.644724 
L 141.643287 172.789846 
L 142.948457 175.448175 
L 144.253627 169.29235 
L 145.558798 173.08391 
L 146.863968 180.445759 
L 148.169138 182.678073 
L 149.474309 188.748116 
L 150.779479 188.302251 
L 152.084649 188.817412 
L 153.38982 196.427956 
L 154.69499 185.230056 
L 156.00016 183.464347 
L 157.305331 187.725477 
L 158.610501 188.058619 
L 159.915671 197.381606 
L 161.220842 197.391403 
L 162.526012 209.533741 
L 163.831182 212.898477 
L 165.136353 214.383721 
L 166.441523 213.512219 
L 167.746693 212.994424 
L 169.051864 209.117142 
L 170.357034 202.809756 
L 171.662204 202.575706 
L 172.967375 201.666242 
L 174.272545 206.416606 
L 175.577715 210.099803 
L 176.882886 211.522054 
L 178.188056 214.067292 
L 179.493226 215.95707 
L 180.798397 215.464163 
L 182.103567 214.135923 
L 183.408737 215.821663 
L 184.713908 213.774968 
L 186.019078 221.810059 
L 187.324248 223.16994 
L 188.629419 218.233512 
L 189.934589 217.926857 
L 191.23976 216.246008 
L 192.54493 215.718707 
L 193.8501 224.996713 
L 195.155271 226.639792 
L 196.460441 226.514189 
L 197.765611 224.802258 
L 199.070782 226.559665 
L 200.375952 229.199233 
L 201.681122 225.147905 
L 202.986293 224.287029 
L 206.901804 237.089102 
L 208.206974 238.719918 
L 209.512144 236.736837 
L 210.817315 236.416143 
L 212.122485 236.334652 
L 213.427655 235.672091 
L 214.732826 236.603657 
L 216.037996 235.819028 
L 218.648337 229.583935 
L 219.953507 234.514701 
L 221.258677 236.710878 
L 222.563848 238.492666 
L 223.869018 237.551458 
L 225.174188 236.834235 
L 226.479359 230.675209 
L 227.784529 227.523078 
L 229.089699 212.354126 
L 230.39487 206.083904 
L 231.70004 201.051577 
L 233.00521 192.152735 
L 234.310381 191.090169 
L 235.615551 189.056431 
L 236.920721 183.715779 
L 238.225892 188.243666 
L 239.531062 191.705809 
L 240.836232 177.545475 
L 242.141403 161.731817 
L 243.446573 158.294714 
L 246.056914 158.196675 
L 247.362084 164.872308 
L 248.667255 170.715321 
L 249.972425 191.996723 
L 251.277595 191.755947 
L 252.582766 186.39164 
L 253.887936 182.02815 
L 255.193106 190.678404 
L 256.498277 204.298879 
L 257.803447 212.663147 
L 259.108617 219.454991 
L 260.413788 213.200716 
L 261.718958 211.437777 
L 263.024128 211.846747 
L 264.329299 212.58998 
L 265.634469 212.291436 
L 266.939639 212.652606 
L 268.24481 217.329292 
L 269.54998 222.890817 
L 270.85515 215.113549 
L 272.160321 208.982793 
L 273.465491 215.357567 
L 274.770661 214.825119 
L 276.075832 217.118789 
L 277.381002 215.500017 
L 278.686172 215.026028 
L 279.991343 218.80802 
L 281.296513 218.443136 
L 282.601683 217.366031 
L 283.906854 217.03581 
L 285.212024 217.80903 
L 286.517194 206.461738 
L 287.822365 203.398777 
L 289.127535 198.708675 
L 290.432705 202.260626 
L 291.737876 204.64714 
L 293.043046 208.793172 
L 294.348216 207.404486 
L 295.653387 206.731889 
L 296.958557 206.833648 
L 298.263727 206.287315 
L 299.568898 206.470171 
L 300.874068 208.714472 
L 302.179238 210.182978 
L 303.484409 213.693467 
L 304.789579 205.414504 
L 306.094749 198.867587 
L 307.39992 197.377623 
L 308.70509 199.054799 
L 310.010261 199.027638 
L 311.315431 197.356236 
L 312.620601 196.472715 
L 313.925772 196.854669 
L 315.230942 193.227862 
L 316.536112 186.048111 
L 317.841283 186.049579 
L 319.146453 188.83676 
L 320.451623 190.907359 
L 321.756794 191.056608 
L 323.061964 193.109612 
L 324.367134 201.684716 
L 325.672305 199.418526 
L 326.977475 198.720782 
L 328.282645 204.66716 
L 329.587816 211.511363 
L 330.892986 211.881446 
L 332.198156 210.549736 
L 333.503327 208.872278 
L 334.808497 207.836713 
L 336.113667 202.771634 
L 337.418838 207.444405 
L 338.724008 210.070235 
L 340.029178 198.411945 
L 341.334349 197.457243 
L 342.639519 189.675658 
L 343.944689 188.193609 
L 345.24986 185.782226 
L 346.55503 179.472372 
L 347.8602 180.285751 
L 349.165371 183.636394 
L 350.470541 190.325941 
L 351.775711 193.223454 
L 353.080882 200.778802 
L 354.386052 196.420451 
L 355.691222 194.349002 
L 356.996393 189.83011 
L 358.301563 191.404941 
L 359.606733 189.95176 
L 360.911904 193.599032 
L 362.217074 198.493587 
L 363.522244 205.486937 
L 364.827415 205.470695 
L 366.132585 205.776155 
L 367.437756 200.131286 
L 368.742926 196.114231 
L 370.048096 198.090953 
L 371.353267 201.630983 
L 372.658437 202.083595 
L 373.963607 201.482509 
L 375.268778 196.236243 
L 376.573948 196.02828 
L 377.879118 196.339899 
L 379.184289 193.203069 
L 380.489459 204.348133 
L 381.794629 210.911505 
L 383.0998 214.989326 
L 384.40497 217.692477 
L 387.015311 220.652504 
L 388.320481 219.165823 
L 389.625651 214.060052 
L 390.930822 202.918881 
L 392.235992 202.075241 
L 393.541162 201.368277 
L 394.846333 194.072762 
L 396.151503 192.483775 
L 397.456673 187.395295 
L 398.761844 195.669422 
L 400.067014 193.337633 
L 401.372184 190.176466 
L 402.677355 180.778895 
L 403.982525 167.99717 
L 405.287695 164.888705 
L 406.592866 166.879616 
L 407.898036 173.63088 
L 409.203206 186.467071 
L 410.508377 193.160871 
L 411.813547 204.569582 
L 413.118717 206.71338 
L 414.423888 206.755868 
L 415.729058 209.808582 
L 417.034228 211.521357 
L 418.339399 212.141384 
L 419.644569 211.151796 
L 420.949739 217.803814 
L 422.25491 221.436563 
L 423.56008 222.84005 
L 424.865251 221.075731 
L 426.170421 226.826688 
L 427.475591 225.800362 
L 428.780762 223.095044 
L 430.085932 214.556155 
L 432.696273 211.855993 
L 434.001443 228.977171 
L 435.306613 227.329012 
L 436.611784 231.117636 
L 437.916954 229.338288 
L 439.222124 230.262853 
L 440.527295 230.214704 
L 443.137635 234.810822 
L 444.442806 234.288357 
L 445.747976 234.563674 
L 447.053146 227.76482 
L 448.358317 222.844194 
L 449.663487 220.168034 
L 450.968657 215.843761 
L 452.273828 212.462032 
L 453.578998 208.708466 
L 454.884168 214.454189 
L 456.189339 215.592886 
L 458.799679 219.278836 
L 460.10485 220.113606 
L 461.41002 218.650723 
L 462.71519 211.463484 
L 464.020361 220.262896 
L 465.325531 212.151148 
L 466.630701 210.654502 
L 467.935872 207.643852 
L 469.241042 208.150801 
L 470.546212 205.889512 
L 471.851383 202.435205 
L 473.156553 212.273312 
L 474.461723 214.416385 
L 475.766894 213.168274 
L 477.072064 213.910466 
L 478.377234 209.982625 
L 480.987575 210.498809 
L 482.292745 211.126474 
L 483.597916 210.700656 
L 484.903086 211.067353 
L 486.208257 209.03878 
L 487.513427 209.118502 
L 488.818597 208.195923 
L 490.123768 209.944833 
L 491.428938 212.350137 
L 492.734108 203.25685 
L 494.039279 201.597835 
L 495.344449 198.861407 
L 496.649619 197.069034 
L 497.95479 207.675286 
L 499.25996 214.10183 
L 500.56513 200.950353 
L 501.870301 203.918867 
L 503.175471 204.269676 
L 504.480641 208.189276 
L 505.785812 206.618511 
L 507.090982 203.719918 
L 509.701323 195.874428 
L 511.006493 195.699761 
L 512.311663 194.763599 
L 513.616834 194.659144 
L 514.922004 195.767827 
L 516.227174 192.286299 
L 518.837515 199.947826 
L 520.142685 202.276827 
L 521.447856 200.274485 
L 522.753026 196.194175 
L 524.058196 192.723177 
L 525.363367 193.586404 
L 526.668537 198.039585 
L 527.973707 197.921741 
L 529.278878 199.461803 
L 530.584048 185.305604 
L 531.889218 186.503042 
L 533.194389 191.071977 
L 534.499559 188.081348 
L 535.804729 182.404329 
L 537.1099 186.365105 
L 538.41507 185.99516 
L 539.72024 164.765598 
L 541.025411 165.244513 
L 543.635752 172.6525 
L 544.940922 167.871076 
L 546.246092 166.370207 
L 547.551263 161.103397 
L 548.856433 163.868514 
L 550.161603 164.682699 
L 551.466774 163.934969 
L 554.077114 154.993989 
L 555.382285 165.155373 
L 556.687455 173.120865 
L 557.992625 189.193948 
L 559.297796 197.322929 
L 560.602966 195.833247 
L 561.908136 199.19363 
L 563.213307 199.292521 
L 564.518477 187.822696 
L 565.823647 171.539324 
L 567.128818 166.328097 
L 568.433988 166.649525 
L 569.739158 157.780117 
L 571.044329 154.9066 
L 572.349499 156.059162 
L 573.654669 158.697086 
L 574.95984 165.330035 
L 576.26501 162.082396 
L 577.57018 169.201862 
L 578.875351 169.266157 
L 580.180521 164.622073 
L 581.485691 166.139791 
L 582.790862 170.501534 
L 584.096032 168.882433 
L 585.401202 173.989495 
L 586.706373 174.226467 
L 588.011543 173.310269 
L 589.316713 175.324754 
L 590.621884 175.046827 
L 591.927054 163.302353 
L 593.232224 160.179974 
L 594.537395 160.955192 
L 595.842565 171.747012 
L 597.147735 175.509258 
L 598.452906 163.050173 
L 599.758076 174.332037 
L 601.063246 190.145174 
L 602.368417 192.002384 
L 603.673587 190.982682 
L 604.978758 190.417846 
L 606.283928 190.53464 
L 608.894269 189.05657 
L 611.504609 190.557432 
L 612.80978 185.978059 
L 614.11495 190.251923 
L 615.42012 189.96052 
L 616.725291 186.623385 
L 618.030461 186.921236 
L 619.335631 192.100092 
L 621.945972 197.51355 
L 623.251142 197.39839 
L 624.556313 178.408557 
L 625.861483 167.517415 
L 627.166653 166.695563 
L 628.471824 166.379429 
L 629.776994 168.207705 
L 631.082164 169.756827 
L 632.387335 168.222392 
L 633.692505 166.966345 
L 634.997675 164.823573 
L 636.302846 160.592303 
L 637.608016 158.024564 
L 638.913186 169.949363 
L 640.218357 190.993418 
L 641.523527 196.955085 
L 642.828697 193.674009 
L 644.133868 179.048766 
L 645.439038 172.402793 
L 646.744208 167.913765 
L 648.049379 172.302805 
L 649.354549 162.462461 
L 650.659719 160.011494 
L 651.96489 157.921052 
L 653.27006 156.358071 
L 654.57523 158.832822 
L 655.880401 150.001176 
L 657.185571 150.781042 
L 658.490741 153.275822 
L 659.795912 151.470875 
L 661.101082 142.883321 
L 662.406253 139.737762 
L 663.711423 145.409681 
L 665.016593 146.102691 
L 666.321764 148.912914 
L 667.626934 131.576929 
L 668.932104 128.176282 
L 670.237275 120.764936 
L 671.542445 125.42586 
L 672.847615 129.567989 
L 674.152786 117.774754 
L 675.457956 145.223757 
L 676.763126 142.621387 
L 678.068297 145.611271 
L 679.373467 145.745381 
L 680.678637 145.385099 
L 681.983808 147.221785 
L 683.288978 150.996198 
L 684.594148 152.834045 
L 685.899319 151.075635 
L 687.204489 148.343048 
L 688.509659 145.935494 
L 689.81483 161.143182 
L 691.12 160.411658 
L 691.12 160.411658 
" clip-path="url(#p81965a375e)" style="fill: none; stroke: #e15759; stroke-opacity: 0.85; stroke-width: 1.5; stroke-linecap: square"/>
   </g>
   <g id="line2d_28">
    <path d="M 39.84 145.00044 
L 41.14517 137.34951 
L 42.450341 140.805065 
L 43.755511 133.029631 
L 45.060681 140.848388 
L 46.365852 134.872285 
L 47.671022 117.16006 
L 48.976192 108.075741 
L 50.281363 124.455809 
L 51.586533 119.079729 
L 52.891703 122.734348 
L 54.196874 119.184955 
L 55.502044 122.448198 
L 56.807214 114.832676 
L 58.112385 118.356089 
L 59.417555 118.538215 
L 60.722725 126.936602 
L 62.027896 125.765302 
L 63.333066 121.56202 
L 64.638236 122.103716 
L 65.943407 122.110388 
L 67.248577 119.781051 
L 68.553747 128.377386 
L 69.858918 133.786773 
L 71.164088 132.080058 
L 72.469259 125.894784 
L 73.774429 126.407484 
L 76.38477 109.000038 
L 77.68994 114.479832 
L 78.99511 114.076849 
L 80.300281 124.216861 
L 81.605451 124.164784 
L 84.215792 102.348602 
L 85.520962 101.896574 
L 88.131303 148.348103 
L 89.436473 151.984462 
L 90.741643 137.80217 
L 92.046814 104.735204 
L 93.351984 76.234533 
L 94.657154 69.811468 
L 95.962325 82.786865 
L 97.267495 84.473845 
L 98.572665 103.696804 
L 99.877836 109.040125 
L 101.183006 108.927652 
L 102.488176 111.086377 
L 103.793347 121.103671 
L 106.403687 117.281607 
L 107.708858 120.373206 
L 109.014028 112.925335 
L 110.319198 95.058359 
L 111.624369 70.650308 
L 112.929539 43.527049 
L 114.234709 64.331795 
L 115.53988 77.894042 
L 116.84505 77.574707 
L 118.15022 97.345756 
L 119.455391 85.210965 
L 120.760561 89.006285 
L 122.065731 98.312332 
L 123.370902 110.630775 
L 124.676072 114.079014 
L 127.286413 107.73135 
L 128.591583 108.377811 
L 129.896754 109.528204 
L 131.201924 114.823172 
L 132.507094 114.808897 
L 133.812265 96.663151 
L 135.117435 92.502798 
L 136.422605 95.389856 
L 137.727776 105.655702 
L 139.032946 100.503171 
L 140.338116 99.729564 
L 141.643287 111.348334 
L 142.948457 109.957984 
L 144.253627 101.206945 
L 145.558798 106.648788 
L 146.863968 121.791286 
L 148.169138 118.259228 
L 149.474309 128.535573 
L 150.779479 135.57405 
L 152.084649 138.783313 
L 153.38982 147.78597 
L 154.69499 132.375218 
L 156.00016 129.945218 
L 157.305331 132.01038 
L 158.610501 126.243232 
L 159.915671 145.563833 
L 161.220842 154.234221 
L 162.526012 174.019645 
L 163.831182 158.782612 
L 165.136353 151.30233 
L 166.441523 134.245019 
L 167.746693 133.361438 
L 169.051864 126.745119 
L 170.357034 115.981991 
L 171.662204 118.285002 
L 172.967375 118.761408 
L 174.272545 125.75837 
L 175.577715 129.407075 
L 176.882886 138.3496 
L 178.188056 151.866528 
L 179.493226 173.516778 
L 180.798397 175.851572 
L 182.103567 172.930712 
L 183.408737 163.33072 
L 184.713908 152.800459 
L 186.019078 164.054679 
L 187.324248 162.804266 
L 188.629419 156.488935 
L 189.934589 154.803622 
L 191.23976 155.542799 
L 192.54493 157.477337 
L 193.8501 168.43555 
L 195.155271 167.485936 
L 196.460441 168.773582 
L 197.765611 163.96784 
L 199.070782 164.144258 
L 200.375952 174.699744 
L 201.681122 180.247437 
L 202.986293 179.62566 
L 204.291463 184.295909 
L 205.596633 187.757688 
L 206.901804 191.551662 
L 208.206974 190.576694 
L 209.512144 197.507539 
L 210.817315 196.173297 
L 212.122485 196.055083 
L 213.427655 190.050642 
L 214.732826 198.138493 
L 216.037996 201.005123 
L 217.343166 179.462039 
L 218.648337 165.594298 
L 219.953507 158.268021 
L 221.258677 162.300179 
L 222.563848 165.571523 
L 223.869018 163.843475 
L 225.174188 162.526661 
L 226.479359 155.361284 
L 227.784529 149.711391 
L 229.089699 117.118727 
L 230.39487 124.390288 
L 231.70004 127.506222 
L 233.00521 139.450677 
L 234.310381 137.968851 
L 235.615551 141.202687 
L 236.920721 136.643024 
L 238.225892 121.657389 
L 239.531062 112.376367 
L 240.836232 90.389344 
L 242.141403 65.274106 
L 243.446573 59.815302 
L 244.751743 59.795562 
L 246.056914 59.659596 
L 247.362084 61.858071 
L 248.667255 67.507565 
L 249.972425 116.390501 
L 251.277595 135.733924 
L 252.582766 134.55571 
L 253.887936 128.133335 
L 255.193106 124.385359 
L 256.498277 145.680934 
L 257.803447 152.568465 
L 259.108617 156.803 
L 260.413788 155.958796 
L 261.718958 167.212435 
L 263.024128 162.957927 
L 264.329299 160.221651 
L 266.939639 161.328776 
L 268.24481 163.003843 
L 269.54998 172.283144 
L 270.85515 166.410114 
L 272.160321 151.863283 
L 273.465491 157.783626 
L 274.770661 158.162095 
L 276.075832 161.627742 
L 277.381002 159.18184 
L 278.686172 158.465659 
L 279.991343 164.180105 
L 281.296513 163.628779 
L 282.601683 160.838125 
L 283.906854 169.858536 
L 285.212024 172.261053 
L 286.517194 156.124198 
L 287.822365 151.768397 
L 289.127535 145.098657 
L 290.432705 150.149846 
L 291.737876 153.543679 
L 293.043046 159.439705 
L 294.348216 157.46487 
L 295.653387 156.508377 
L 296.958557 156.653088 
L 298.263727 155.876154 
L 299.568898 156.136191 
L 300.874068 159.327786 
L 302.179238 156.867927 
L 303.484409 156.435497 
L 306.094749 169.263038 
L 307.39992 146.911788 
L 308.70509 132.765563 
L 310.010261 134.086442 
L 311.315431 131.558297 
L 312.620601 130.221892 
L 313.925772 130.799632 
L 315.230942 129.796255 
L 316.536112 123.622069 
L 317.841283 112.909442 
L 319.146453 106.289392 
L 320.451623 109.713142 
L 321.756794 122.546867 
L 323.061964 124.222104 
L 324.367134 141.46722 
L 325.672305 141.606545 
L 326.977475 133.273198 
L 328.282645 136.599634 
L 329.587816 150.875266 
L 330.892986 157.785387 
L 332.198156 157.832844 
L 333.503327 159.073414 
L 334.808497 155.138119 
L 336.113667 145.065087 
L 337.418838 147.199382 
L 338.724008 156.655348 
L 340.029178 143.173482 
L 341.334349 140.659668 
L 342.639519 133.822602 
L 343.944689 117.210148 
L 345.24986 98.542371 
L 347.8602 55.178136 
L 349.165371 57.335081 
L 350.470541 77.495464 
L 351.775711 90.695045 
L 353.080882 124.988628 
L 354.386052 122.632856 
L 355.691222 123.234828 
L 358.301563 114.046626 
L 359.606733 110.296461 
L 360.911904 112.091885 
L 362.217074 118.862104 
L 363.522244 130.232617 
L 364.827415 129.118204 
L 366.132585 132.808052 
L 367.437756 126.820267 
L 368.742926 122.133466 
L 370.048096 128.855491 
L 371.353267 132.574411 
L 372.658437 131.808755 
L 373.963607 149.676845 
L 375.268778 150.233199 
L 376.573948 140.283432 
L 377.879118 142.243709 
L 379.184289 137.795312 
L 380.489459 153.600332 
L 381.794629 162.90797 
L 383.0998 165.174791 
L 384.40497 169.094012 
L 385.71014 174.998578 
L 387.015311 172.071553 
L 388.320481 169.897463 
L 389.625651 162.430893 
L 390.930822 143.577593 
L 392.235992 141.880641 
L 393.541162 148.732204 
L 394.846333 142.296773 
L 396.151503 138.586428 
L 397.456673 127.950341 
L 398.761844 135.736392 
L 400.067014 130.900931 
L 401.372184 133.149303 
L 403.982525 77.6091 
L 405.287695 78.815646 
L 406.592866 85.674204 
L 407.898036 97.6211 
L 409.203206 118.445572 
L 410.508377 144.003991 
L 411.813547 125.694114 
L 413.118717 139.342757 
L 414.423888 157.60836 
L 415.729058 161.922237 
L 417.034228 164.342609 
L 418.339399 165.218787 
L 419.644569 163.820372 
L 420.949739 171.028269 
L 422.25491 173.550936 
L 423.56008 172.908209 
L 424.865251 176.49993 
L 426.170421 183.709869 
L 427.475591 182.236072 
L 428.780762 181.488055 
L 430.085932 173.339335 
L 431.391102 152.242413 
L 432.696273 138.338772 
L 434.001443 165.104137 
L 435.306613 163.856511 
L 436.611784 171.404291 
L 437.916954 169.147801 
L 439.222124 169.271599 
L 440.527295 166.960732 
L 441.832465 174.261551 
L 443.137635 183.746095 
L 444.442806 181.904562 
L 445.747976 182.337616 
L 447.053146 171.643506 
L 448.358317 163.903712 
L 449.663487 154.96101 
L 450.968657 136.900963 
L 452.273828 123.026924 
L 453.578998 102.911108 
L 454.884168 113.851893 
L 456.189339 116.020157 
L 457.494509 119.594521 
L 458.799679 119.544803 
L 461.41002 110.565408 
L 462.71519 101.409508 
L 464.020361 122.69181 
L 465.325531 111.74202 
L 466.630701 97.069129 
L 467.935872 70.129737 
L 469.241042 80.008772 
L 470.546212 86.038907 
L 471.851383 77.569141 
L 473.156553 92.809401 
L 474.461723 91.823441 
L 475.766894 88.079649 
L 477.072064 89.326829 
L 478.377234 129.378002 
L 480.987575 129.402068 
L 482.292745 130.471506 
L 483.597916 129.745982 
L 484.903086 130.370774 
L 486.208257 126.914419 
L 487.513427 127.050251 
L 488.818597 125.478329 
L 490.123768 128.458184 
L 491.428938 137.00427 
L 495.344449 75.36818 
L 496.649619 61.205638 
L 497.95479 100.582337 
L 499.25996 121.954859 
L 500.56513 96.411478 
L 501.870301 97.449029 
L 503.175471 92.741861 
L 504.480641 94.019745 
L 505.785812 97.458214 
L 507.090982 97.286913 
L 508.396152 85.62619 
L 509.701323 69.037919 
L 511.006493 70.676194 
L 512.311663 68.839846 
L 513.616834 68.63495 
L 514.922004 65.778585 
L 516.227174 61.509804 
L 517.532345 85.177004 
L 518.837515 101.919502 
L 520.142685 129.949645 
L 521.447856 126.774101 
L 522.753026 126.700144 
L 524.058196 126.871326 
L 525.363367 127.646553 
L 526.668537 122.004323 
L 527.973707 101.486885 
L 529.278878 99.816736 
L 530.584048 74.48823 
L 531.889218 75.250685 
L 534.499559 114.691708 
L 535.804729 105.987672 
L 537.1099 106.145902 
L 538.41507 105.562998 
L 539.72024 77.535245 
L 541.025411 73.792609 
L 542.330581 72.71139 
L 543.635752 69.542857 
L 544.940922 73.509543 
L 546.246092 78.56232 
L 547.551263 50.549188 
L 548.856433 44.738343 
L 550.161603 48.111556 
L 551.466774 52.220575 
L 552.771944 51.242768 
L 554.077114 48.831326 
L 555.382285 63.322642 
L 556.687455 76.33998 
L 559.297796 122.756231 
L 560.602966 136.44934 
L 561.908136 146.414563 
L 563.213307 153.083556 
L 564.518477 137.769381 
L 565.823647 99.604492 
L 567.128818 91.961905 
L 568.433988 92.433299 
L 569.739158 79.425763 
L 571.044329 75.211573 
L 572.349499 73.742281 
L 573.654669 73.659119 
L 574.95984 89.28679 
L 576.26501 94.874508 
L 577.57018 107.365618 
L 578.875351 111.376281 
L 580.180521 81.713356 
L 581.485691 67.00366 
L 582.790862 76.135843 
L 584.096032 73.532403 
L 585.401202 81.744325 
L 586.706373 82.125364 
L 588.011543 80.652161 
L 589.316713 83.891359 
L 590.621884 83.444465 
L 591.927054 60.028377 
L 593.232224 57.367836 
L 594.537395 84.823377 
L 595.842565 100.601703 
L 597.147735 106.102347 
L 598.452906 86.794449 
L 599.758076 106.575242 
L 601.063246 128.116802 
L 602.368417 130.823724 
L 603.673587 129.337487 
L 604.978758 128.514226 
L 606.283928 128.882022 
L 607.589098 122.399942 
L 608.894269 120.044689 
L 610.199439 113.706254 
L 611.504609 113.674198 
L 612.80978 103.815358 
L 614.11495 123.604007 
L 615.42012 131.909565 
L 616.725291 126.171686 
L 618.030461 127.063316 
L 619.335631 130.034072 
L 620.640802 129.586534 
L 621.945972 135.088538 
L 623.251142 134.917306 
L 624.556313 106.68113 
L 625.861483 83.957608 
L 627.166653 91.838119 
L 628.471824 105.058012 
L 629.776994 84.386457 
L 631.082164 67.923857 
L 632.387335 86.252527 
L 633.692505 84.342769 
L 634.997675 86.568552 
L 636.302846 84.872385 
L 637.608016 84.724917 
L 638.913186 99.204864 
L 640.218357 129.806247 
L 641.523527 138.475453 
L 642.828697 138.734188 
L 644.133868 119.609863 
L 645.439038 108.067236 
L 646.744208 122.267955 
L 648.049379 146.042245 
L 649.354549 132.858631 
L 650.659719 133.115936 
L 651.96489 124.618962 
L 653.27006 104.195735 
L 654.57523 100.218338 
L 655.880401 88.324509 
L 657.185571 86.325494 
L 658.490741 93.774837 
L 659.795912 104.159977 
L 661.101082 91.044879 
L 662.406253 87.00748 
L 663.711423 89.658297 
L 665.016593 86.240563 
L 666.321764 82.272225 
L 667.626934 69.881327 
L 668.932104 71.394218 
L 670.237275 47.053439 
L 671.542445 30.559049 
L 672.847615 30.98556 
L 674.152786 21.140577 
L 675.457956 65.863496 
L 676.763126 86.689789 
L 678.068297 96.770488 
L 679.373467 92.855358 
L 680.678637 92.389197 
L 681.983808 94.76564 
L 683.288978 104.571966 
L 684.594148 106.204634 
L 685.899319 103.971959 
L 687.204489 100.502361 
L 688.509659 97.445461 
L 689.81483 116.754844 
L 691.12 115.82602 
L 691.12 115.82602 
" clip-path="url(#p81965a375e)" style="fill: none; stroke: #76b7b2; stroke-opacity: 0.85; stroke-width: 1.5; stroke-linecap: square"/>
   </g>
   <g id="patch_3">
    <path d="M 39.84 325.72 
L 39.84 7.2 
" style="fill: none; stroke: #000000; stroke-width: 0.8; stroke-linejoin: miter; stroke-linecap: square"/>
   </g>
   <g id="patch_4">
    <path d="M 39.84 325.72 
L 691.12 325.72 
" style="fill: none; stroke: #000000; stroke-width: 0.8; stroke-linejoin: miter; stroke-linecap: square"/>
   </g>
   <g id="legend_1">
    <g id="patch_5">
     <path d="M 46.14 39.850312 
L 313.455469 39.850312 
Q 315.255469 39.850312 315.255469 38.050312 
L 315.255469 13.5 
Q 315.255469 11.7 313.455469 11.7 
L 46.14 11.7 
Q 44.34 11.7 44.34 13.5 
L 44.34 38.050312 
Q 44.34 39.850312 46.14 39.850312 
z
" style="fill: #ffffff; opacity: 0.9; stroke: #cccccc; stroke-linejoin: miter"/>
    </g>
    <g id="line2d_29">
     <path d="M 47.94 18.45 
L 56.94 18.45 
L 65.94 18.45 
" style="fill: none; stroke: #4e79a7; stroke-opacity: 0.85; stroke-width: 1.5; stroke-linecap: square"/>
    </g>
    <g id="text_15">
     <text style="font-size: 9px; font-family: 'Times New Roman', 'SimHei', 'Microsoft YaHei', 'DejaVu Serif', serif; text-anchor: start" x="73.14" y="21.6" transform="rotate(-0 73.14 21.6)">零售商 / Retailer</text>
    </g>
    <g id="line2d_30">
     <path d="M 47.94 31.175156 
L 56.94 31.175156 
L 65.94 31.175156 
" style="fill: none; stroke: #f28e2b; stroke-opacity: 0.85; stroke-width: 1.5; stroke-linecap: square"/>
    </g>
    <g id="text_16">
     <text style="font-size: 9px; font-family: 'Times New Roman', 'SimHei', 'Microsoft YaHei', 'DejaVu Serif', serif; text-anchor: start" x="73.14" y="34.325156" transform="rotate(-0 73.14 34.325156)">批发商 / Wholesaler</text>
    </g>
    <g id="line2d_31">
     <path d="M 159.964687 18.45 
L 168.964687 18.45 
L 177.964687 18.45 
" style="fill: none; stroke: #e15759; stroke-opacity: 0.85; stroke-width: 1.5; stroke-linecap: square"/>
    </g>
    <g id="text_17">
     <text style="font-size: 9px; font-family: 'Times New Roman', 'SimHei', 'Microsoft YaHei', 'DejaVu Serif', serif; text-anchor: start" x="185.164687" y="21.6" transform="rotate(-0 185.164687 21.6)">分销商(IDMR) / Distributor(IDMR)</text>
    </g>
    <g id="line2d_32">
     <path d="M 159.964687 31.175156 
L 168.964687 31.175156 
L 177.964687 31.175156 
" style="fill: none; stroke: #76b7b2; stroke-opacity: 0.85; stroke-width: 1.5; stroke-linecap: square"/>
    </g>
    <g id="text_18">
     <text style="font-size: 9px; font-family: 'Times New Roman', 'SimHei', 'Microsoft YaHei', 'DejaVu Serif', serif; text-anchor: start" x="185.164687" y="34.325156" transform="rotate(-0 185.164687 34.325156)">制造商 / Manufacturer</text>
    </g>
   </g>
  </g>
  <g id="text_19">
   <text style="font-weight: 700; font-size: 13px; font-family: 'SimHei'; text-anchor: middle" x="354.52" y="386.815" transform="rotate(-0 354.52 386.815)">图1  智慧决策下各节点方差比（最后500周期滚动窗口=50）</text>
  </g>
  <g id="text_20">
   <text style="font-style: italic; font-size: 10px; font-family: 'Times New Roman', 'SimHei', 'Microsoft YaHei', 'DejaVu Serif', serif; text-anchor: middle; fill: #808080" x="354.52" y="403.30375" transform="rotate(-0 354.52 403.30375)">Fig.1  Bullwhip Effect under IDMR (last 500 periods, rolling window=50)</text>
  </g>
 </g>
 <defs>
  <clipPath id="p81965a375e">
   <rect x="39.84" y="7.2" width="651.28" height="318.52"/>
  </clipPath>
 </defs>
</svg>
