<?xml version="1.0" encoding="utf-8" standalone="no"?>
<!DOCTYPE svg PUBLIC "-//W3C//DTD SVG 1.1//EN"
  "http://www.w3.org/Graphics/SVG/1.1/DTD/svg11.dtd">
<svg xmlns:xlink="http://www.w3.org/1999/xlink" width="711.936875pt" height="412.661563pt" viewBox="0 0 711.936875 412.661563" xmlns="http://www.w3.org/2000/svg" version="1.1">
 <metadata>
  <rdf:RDF xmlns:dc="http://purl.org/dc/elements/1.1/" xmlns:cc="http://creativecommons.org/ns#" xmlns:rdf="http://www.w3.org/1999/02/22-rdf-syntax-ns#">
   <cc:Work>
    <dc:type rdf:resource="http://purl.org/dc/dcmitype/StillImage"/>
    <dc:date>2026-06-28T00:08:33.429046</dc:date>
    <dc:format>image/svg+xml</dc:format>
    <dc:creator>
     <cc:Agent>
      <dc:title>Matplotlib v3.10.9, https://matplotlib.org/</dc:title>
     </cc:Agent>
    </dc:creator>
   </cc:Work>
  </rdf:RDF>
 </metadata>
 <defs>
  <style type="text/css">*{stroke-linejoin: round; stroke-linecap: butt}</style>
 </defs>
 <g id="figure_1">
  <g id="patch_1">
   <path d="M 0 412.661563 
L 711.936875 412.661563 
L 711.936875 0 
L 0 0 
z
" style="fill: #ffffff"/>
  </g>
  <g id="axes_1">
   <g id="patch_2">
    <path d="M 44.121875 325.72 
L 692.236875 325.72 
L 692.236875 7.2 
L 44.121875 7.2 
z
" style="fill: #ffffff"/>
   </g>
   <g id="matplotlib.axis_1">
    <g id="xtick_1">
     <g id="line2d_1">
      <path d="M 172.705813 325.72 
L 172.705813 7.2 
" clip-path="url(#p0cdcd3de13)" style="fill: none; stroke-dasharray: 2.96,1.28; stroke-dashoffset: 0; stroke: #b0b0b0; stroke-opacity: 0.3; stroke-width: 0.8"/>
     </g>
     <g id="line2d_2">
      <defs>
       <path id="m1e7c16d114" d="M 0 0 
L 0 3.5 
" style="stroke: #000000; stroke-width: 0.8"/>
      </defs>
      <g>
       <use xlink:href="#m1e7c16d114" x="172.705813" y="325.72" style="stroke: #000000; stroke-width: 0.8"/>
      </g>
     </g>
     <g id="text_1">
      <text style="font-size: 10px; font-family: 'Times New Roman', 'SimHei', 'Microsoft YaHei', 'DejaVu Serif', serif; text-anchor: middle" x="172.705813" y="339.66375" transform="rotate(-0 172.705813 339.66375)">19600</text>
     </g>
    </g>
    <g id="xtick_2">
     <g id="line2d_3">
      <path d="M 302.588578 325.72 
L 302.588578 7.2 
" clip-path="url(#p0cdcd3de13)" style="fill: none; stroke-dasharray: 2.96,1.28; stroke-dashoffset: 0; stroke: #b0b0b0; stroke-opacity: 0.3; stroke-width: 0.8"/>
     </g>
     <g id="line2d_4">
      <g>
       <use xlink:href="#m1e7c16d114" x="302.588578" y="325.72" style="stroke: #000000; stroke-width: 0.8"/>
      </g>
     </g>
     <g id="text_2">
      <text style="font-size: 10px; font-family: 'Times New Roman', 'SimHei', 'Microsoft YaHei', 'DejaVu Serif', serif; text-anchor: middle" x="302.588578" y="339.66375" transform="rotate(-0 302.588578 339.66375)">19700</text>
     </g>
    </g>
    <g id="xtick_3">
     <g id="line2d_5">
      <path d="M 432.471344 325.72 
L 432.471344 7.2 
" clip-path="url(#p0cdcd3de13)" style="fill: none; stroke-dasharray: 2.96,1.28; stroke-dashoffset: 0; stroke: #b0b0b0; stroke-opacity: 0.3; stroke-width: 0.8"/>
     </g>
     <g id="line2d_6">
      <g>
       <use xlink:href="#m1e7c16d114" x="432.471344" y="325.72" style="stroke: #000000; stroke-width: 0.8"/>
      </g>
     </g>
     <g id="text_3">
      <text style="font-size: 10px; font-family: 'Times New Roman', 'SimHei', 'Microsoft YaHei', 'DejaVu Serif', serif; text-anchor: middle" x="432.471344" y="339.66375" transform="rotate(-0 432.471344 339.66375)">19800</text>
     </g>
    </g>
    <g id="xtick_4">
     <g id="line2d_7">
      <path d="M 562.354109 325.72 
L 562.354109 7.2 
" clip-path="url(#p0cdcd3de13)" style="fill: none; stroke-dasharray: 2.96,1.28; stroke-dashoffset: 0; stroke: #b0b0b0; stroke-opacity: 0.3; stroke-width: 0.8"/>
     </g>
     <g id="line2d_8">
      <g>
       <use xlink:href="#m1e7c16d114" x="562.354109" y="325.72" style="stroke: #000000; stroke-width: 0.8"/>
      </g>
     </g>
     <g id="text_4">
      <text style="font-size: 10px; font-family: 'Times New Roman', 'SimHei', 'Microsoft YaHei', 'DejaVu Serif', serif; text-anchor: middle" x="562.354109" y="339.66375" transform="rotate(-0 562.354109 339.66375)">19900</text>
     </g>
    </g>
    <g id="xtick_5">
     <g id="line2d_9">
      <path d="M 692.236875 325.72 
L 692.236875 7.2 
" clip-path="url(#p0cdcd3de13)" style="fill: none; stroke-dasharray: 2.96,1.28; stroke-dashoffset: 0; stroke: #b0b0b0; stroke-opacity: 0.3; stroke-width: 0.8"/>
     </g>
     <g id="line2d_10">
      <g>
       <use xlink:href="#m1e7c16d114" x="692.236875" y="325.72" style="stroke: #000000; stroke-width: 0.8"/>
      </g>
     </g>
     <g id="text_5">
      <text style="font-size: 10px; font-family: 'Times New Roman', 'SimHei', 'Microsoft YaHei', 'DejaVu Serif', serif; text-anchor: middle" x="692.236875" y="339.66375" transform="rotate(-0 692.236875 339.66375)">20000</text>
     </g>
    </g>
    <g id="text_6">
     <!-- 周期 / Period $t$ -->
     <g transform="translate(337.939375 354.135312)">
      <text>
       <tspan x="0" y="-0.578125" style="font-size: 12px; font-family: 'STIXGeneral'">¤</tspan>
       <tspan x="5.999985" y="-0.578125" style="font-size: 12px; font-family: 'STIXGeneral'">¤</tspan>
       <tspan x="11.999969" y="-0.578125" style="font-size: 12px; font-family: 'Times New Roman'"> </tspan>
       <tspan x="14.999969" y="-0.578125" style="font-size: 12px; font-family: 'Times New Roman'">/</tspan>
       <tspan x="18.333954" y="-0.578125" style="font-size: 12px; font-family: 'Times New Roman'"> </tspan>
       <tspan x="21.333954" y="-0.578125" style="font-size: 12px; font-family: 'Times New Roman'">P</tspan>
       <tspan x="28.007782" y="-0.578125" style="font-size: 12px; font-family: 'Times New Roman'">e</tspan>
       <tspan x="33.333954" y="-0.578125" style="font-size: 12px; font-family: 'Times New Roman'">r</tspan>
       <tspan x="37.330048" y="-0.578125" style="font-size: 12px; font-family: 'Times New Roman'">i</tspan>
       <tspan x="40.664032" y="-0.578125" style="font-size: 12px; font-family: 'Times New Roman'">o</tspan>
       <tspan x="46.664032" y="-0.578125" style="font-size: 12px; font-family: 'Times New Roman'">d</tspan>
       <tspan x="52.664032" y="-0.578125" style="font-size: 12px; font-family: 'Times New Roman'"> </tspan>
       <tspan x="55.664032" y="-0.578125" style="font-style: oblique; font-size: 12px; font-family: 'DejaVu Sans'">t</tspan>
      </text>
     </g>
    </g>
   </g>
   <g id="matplotlib.axis_2">
    <g id="ytick_1">
     <g id="line2d_11">
      <path d="M 44.121875 325.72 
L 692.236875 325.72 
" clip-path="url(#p0cdcd3de13)" style="fill: none; stroke-dasharray: 2.96,1.28; stroke-dashoffset: 0; stroke: #b0b0b0; stroke-opacity: 0.3; stroke-width: 0.8"/>
     </g>
     <g id="line2d_12">
      <defs>
       <path id="mecdaff4296" d="M 0 0 
L -3.5 0 
" style="stroke: #000000; stroke-width: 0.8"/>
      </defs>
      <g>
       <use xlink:href="#mecdaff4296" x="44.121875" y="325.72" style="stroke: #000000; stroke-width: 0.8"/>
      </g>
     </g>
     <g id="text_7">
      <text style="font-size: 10px; font-family: 'Times New Roman', 'SimHei', 'Microsoft YaHei', 'DejaVu Serif', serif; text-anchor: end" x="37.121875" y="329.191875" transform="rotate(-0 37.121875 329.191875)">0</text>
     </g>
    </g>
    <g id="ytick_2">
     <g id="line2d_13">
      <path d="M 44.121875 266.576066 
L 692.236875 266.576066 
" clip-path="url(#p0cdcd3de13)" style="fill: none; stroke-dasharray: 2.96,1.28; stroke-dashoffset: 0; stroke: #b0b0b0; stroke-opacity: 0.3; stroke-width: 0.8"/>
     </g>
     <g id="line2d_14">
      <g>
       <use xlink:href="#mecdaff4296" x="44.121875" y="266.576066" style="stroke: #000000; stroke-width: 0.8"/>
      </g>
     </g>
     <g id="text_8">
      <text style="font-size: 10px; font-family: 'Times New Roman', 'SimHei', 'Microsoft YaHei', 'DejaVu Serif', serif; text-anchor: end" x="37.121875" y="270.047941" transform="rotate(-0 37.121875 270.047941)">50</text>
     </g>
    </g>
    <g id="ytick_3">
     <g id="line2d_15">
      <path d="M 44.121875 207.432131 
L 692.236875 207.432131 
" clip-path="url(#p0cdcd3de13)" style="fill: none; stroke-dasharray: 2.96,1.28; stroke-dashoffset: 0; stroke: #b0b0b0; stroke-opacity: 0.3; stroke-width: 0.8"/>
     </g>
     <g id="line2d_16">
      <g>
       <use xlink:href="#mecdaff4296" x="44.121875" y="207.432131" style="stroke: #000000; stroke-width: 0.8"/>
      </g>
     </g>
     <g id="text_9">
      <text style="font-size: 10px; font-family: 'Times New Roman', 'SimHei', 'Microsoft YaHei', 'DejaVu Serif', serif; text-anchor: end" x="37.121875" y="210.904006" transform="rotate(-0 37.121875 210.904006)">100</text>
     </g>
    </g>
    <g id="ytick_4">
     <g id="line2d_17">
      <path d="M 44.121875 148.288197 
L 692.236875 148.288197 
" clip-path="url(#p0cdcd3de13)" style="fill: none; stroke-dasharray: 2.96,1.28; stroke-dashoffset: 0; stroke: #b0b0b0; stroke-opacity: 0.3; stroke-width: 0.8"/>
     </g>
     <g id="line2d_18">
      <g>
       <use xlink:href="#mecdaff4296" x="44.121875" y="148.288197" style="stroke: #000000; stroke-width: 0.8"/>
      </g>
     </g>
     <g id="text_10">
      <text style="font-size: 10px; font-family: 'Times New Roman', 'SimHei', 'Microsoft YaHei', 'DejaVu Serif', serif; text-anchor: end" x="37.121875" y="151.760072" transform="rotate(-0 37.121875 151.760072)">150</text>
     </g>
    </g>
    <g id="ytick_5">
     <g id="line2d_19">
      <path d="M 44.121875 89.144263 
L 692.236875 89.144263 
" clip-path="url(#p0cdcd3de13)" style="fill: none; stroke-dasharray: 2.96,1.28; stroke-dashoffset: 0; stroke: #b0b0b0; stroke-opacity: 0.3; stroke-width: 0.8"/>
     </g>
     <g id="line2d_20">
      <g>
       <use xlink:href="#mecdaff4296" x="44.121875" y="89.144263" style="stroke: #000000; stroke-width: 0.8"/>
      </g>
     </g>
     <g id="text_11">
      <text style="font-size: 10px; font-family: 'Times New Roman', 'SimHei', 'Microsoft YaHei', 'DejaVu Serif', serif; text-anchor: end" x="37.121875" y="92.616138" transform="rotate(-0 37.121875 92.616138)">200</text>
     </g>
    </g>
    <g id="ytick_6">
     <g id="line2d_21">
      <path d="M 44.121875 30.000328 
L 692.236875 30.000328 
" clip-path="url(#p0cdcd3de13)" style="fill: none; stroke-dasharray: 2.96,1.28; stroke-dashoffset: 0; stroke: #b0b0b0; stroke-opacity: 0.3; stroke-width: 0.8"/>
     </g>
     <g id="line2d_22">
      <g>
       <use xlink:href="#mecdaff4296" x="44.121875" y="30.000328" style="stroke: #000000; stroke-width: 0.8"/>
      </g>
     </g>
     <g id="text_12">
      <text style="font-size: 10px; font-family: 'Times New Roman', 'SimHei', 'Microsoft YaHei', 'DejaVu Serif', serif; text-anchor: end" x="37.121875" y="33.472203" transform="rotate(-0 37.121875 33.472203)">250</text>
     </g>
    </g>
    <g id="text_13">
     <text style="font-size: 12px; font-family: 'Times New Roman', 'SimHei', 'Microsoft YaHei', 'DejaVu Serif', serif; text-anchor: middle" x="15.5325" y="166.46" transform="rotate(-90 15.5325 166.46)">平均成本 / Avg Cost  (库存+缺货)</text>
    </g>
   </g>
   <g id="line2d_23">
    <path d="M 44.121875 285.718037 
L 45.420703 286.773163 
L 46.71953 288.179225 
L 48.018358 289.208428 
L 49.317186 289.668469 
L 53.213669 288.931498 
L 55.811324 287.80204 
L 57.110152 287.546704 
L 58.408979 287.784926 
L 59.707807 287.270713 
L 61.006635 286.94594 
L 63.60429 287.401001 
L 64.903117 287.941358 
L 66.201945 288.99452 
L 67.500773 290.226393 
L 68.7996 291.119824 
L 70.098428 291.719009 
L 71.397256 291.563684 
L 73.994911 290.789697 
L 79.190222 290.414553 
L 84.385532 289.193928 
L 85.68436 289.879693 
L 86.983188 289.279527 
L 89.580843 288.702885 
L 90.879671 288.790705 
L 93.477326 289.761993 
L 94.776154 289.87673 
L 96.074981 289.466545 
L 97.373809 289.876921 
L 98.672637 290.445939 
L 101.270292 292.821065 
L 102.569119 293.788041 
L 103.867947 294.163047 
L 106.465602 295.111055 
L 107.76443 295.355037 
L 110.362085 295.058306 
L 112.959741 295.3681 
L 116.856224 296.001579 
L 118.155051 296.045114 
L 119.453879 296.396833 
L 120.752707 296.936497 
L 122.051534 296.945021 
L 124.64919 296.235081 
L 125.948017 296.228033 
L 127.246845 296.106212 
L 132.442156 294.026209 
L 133.740983 293.82628 
L 135.039811 293.987713 
L 136.338639 294.366613 
L 137.637466 294.273817 
L 138.936294 294.392434 
L 140.235121 294.634363 
L 141.533949 294.61105 
L 142.832777 294.472727 
L 144.131604 294.187102 
L 145.430432 294.058202 
L 146.72926 294.045053 
L 148.028087 294.177534 
L 149.326915 293.990973 
L 151.92457 293.122709 
L 153.223398 292.170338 
L 155.821053 290.857608 
L 158.418709 288.873534 
L 159.717536 288.498816 
L 161.016364 289.014513 
L 162.315192 289.686728 
L 163.614019 290.855699 
L 164.912847 291.594292 
L 166.211675 292.153928 
L 167.510502 293.015081 
L 168.80933 293.577722 
L 170.108158 293.497518 
L 172.705813 292.871877 
L 174.004641 292.02925 
L 176.602296 289.429246 
L 177.901123 288.484558 
L 179.199951 288.250047 
L 180.498779 288.250283 
L 181.797606 288.380642 
L 183.096434 288.21244 
L 184.395262 287.622203 
L 185.694089 286.372178 
L 186.992917 285.54296 
L 188.291745 284.94112 
L 189.590572 284.932806 
L 190.8894 285.215595 
L 194.785883 286.9881 
L 196.084711 286.968366 
L 197.383538 286.377312 
L 198.682366 285.477108 
L 199.981194 284.282691 
L 201.280021 283.543023 
L 202.578849 283.245098 
L 203.877677 282.682459 
L 205.176504 281.835182 
L 206.475332 281.504189 
L 211.670643 280.889856 
L 212.96947 280.593709 
L 215.567126 280.575496 
L 216.865953 281.530377 
L 218.164781 283.051971 
L 222.061264 285.888672 
L 223.360091 286.118266 
L 224.658919 285.650773 
L 225.957747 284.235888 
L 227.256574 283.065752 
L 228.555402 282.111886 
L 229.85423 281.33721 
L 231.153057 280.391335 
L 232.451885 279.799797 
L 233.750713 280.012138 
L 235.04954 280.643918 
L 240.244851 283.818477 
L 241.543679 283.919713 
L 242.842506 284.16024 
L 244.141334 284.168443 
L 246.738989 284.746477 
L 249.336645 286.061223 
L 250.635472 287.080316 
L 251.9343 287.762268 
L 254.531955 289.42499 
L 255.830783 289.62953 
L 257.12961 289.32171 
L 258.428438 289.317713 
L 261.026093 289.766362 
L 262.324921 290.858228 
L 264.922576 293.516001 
L 267.520232 295.505177 
L 268.819059 296.116532 
L 270.117887 297.001449 
L 271.416715 297.274695 
L 272.715542 297.416552 
L 275.313198 296.660136 
L 276.612025 296.010898 
L 277.910853 295.23201 
L 279.209681 294.206529 
L 281.807336 292.943471 
L 283.106164 292.908335 
L 284.404991 293.119448 
L 285.703819 292.801098 
L 287.002647 292.242798 
L 288.301474 292.141564 
L 289.600302 292.546317 
L 293.496785 295.539625 
L 297.393268 297.222614 
L 298.692095 297.027028 
L 301.289751 296.237854 
L 302.588578 296.152675 
L 303.887406 296.315918 
L 305.186234 297.02505 
L 306.485061 298.154972 
L 307.783889 298.529182 
L 311.680372 299.048852 
L 312.9792 299.439846 
L 314.278027 300.018649 
L 316.875683 300.912941 
L 320.772166 300.600087 
L 322.070993 300.717597 
L 324.668649 300.571065 
L 325.967476 300.405232 
L 327.266304 299.752745 
L 331.162787 297.008652 
L 332.461614 296.410853 
L 333.760442 295.99744 
L 336.358097 293.67891 
L 337.656925 292.85025 
L 338.955753 292.627611 
L 340.25458 292.558343 
L 341.553408 292.931875 
L 342.852236 293.799655 
L 344.151063 295.295092 
L 345.449891 296.33713 
L 346.748719 296.478716 
L 348.047546 295.843497 
L 349.346374 294.961621 
L 350.645202 294.598816 
L 351.944029 294.855577 
L 354.541685 296.237799 
L 355.840512 296.61273 
L 357.13934 296.778763 
L 361.035823 294.887259 
L 363.633478 294.357097 
L 364.932306 294.317841 
L 366.231134 293.809182 
L 367.529961 293.180546 
L 370.127616 291.550464 
L 371.426444 291.030403 
L 374.024099 291.208587 
L 375.322927 290.991474 
L 376.621755 290.473434 
L 379.21941 288.963152 
L 380.518238 288.550395 
L 381.817065 288.575462 
L 383.115893 288.217003 
L 385.713548 288.835195 
L 387.012376 288.975392 
L 389.610031 288.712803 
L 390.908859 288.450188 
L 392.207687 288.583176 
L 394.805342 289.466536 
L 396.10417 290.027894 
L 397.402997 290.366324 
L 398.701825 290.835927 
L 405.195963 296.922525 
L 406.494791 297.499161 
L 407.793618 297.723226 
L 409.092446 297.142369 
L 411.690101 296.257818 
L 414.287757 294.594478 
L 416.885412 293.55459 
L 418.18424 292.87829 
L 419.483067 291.985745 
L 420.781895 291.553515 
L 422.080723 290.939548 
L 423.37955 291.12193 
L 424.678378 291.601617 
L 425.977206 292.397948 
L 428.574861 293.522696 
L 429.873689 293.847376 
L 432.471344 295.127006 
L 433.770172 295.924332 
L 435.068999 296.53391 
L 436.367827 296.666564 
L 437.666655 296.464124 
L 438.965482 295.677224 
L 441.563138 295.21294 
L 442.861965 295.271543 
L 444.160793 295.143877 
L 445.45962 294.672513 
L 446.758448 293.767312 
L 448.057276 293.49923 
L 449.356103 292.94633 
L 450.654931 292.795842 
L 451.953759 292.989261 
L 454.551414 292.935441 
L 455.850242 293.35728 
L 458.447897 293.837869 
L 459.746725 294.191514 
L 461.045552 294.333919 
L 463.643208 294.000266 
L 464.942035 293.669535 
L 466.240863 292.982967 
L 467.539691 292.84784 
L 471.436174 291.317501 
L 472.735001 290.176859 
L 474.033829 289.381086 
L 475.332657 289.199919 
L 477.930312 289.979998 
L 479.22914 290.689496 
L 480.527967 291.203933 
L 481.826795 291.378449 
L 483.125622 291.156737 
L 484.42445 291.255926 
L 485.723278 291.152116 
L 487.022105 290.917918 
L 488.320933 290.490064 
L 490.918588 289.898106 
L 492.217416 289.792494 
L 493.516244 289.918488 
L 494.815071 289.922477 
L 497.412727 288.905406 
L 498.711554 288.300198 
L 500.010382 287.419355 
L 502.608037 286.085881 
L 503.906865 286.348026 
L 505.205693 286.797562 
L 506.50452 287.083597 
L 507.803348 286.58487 
L 510.401003 285.844109 
L 512.998659 284.526398 
L 514.297486 284.134425 
L 516.895142 283.705935 
L 518.193969 283.913024 
L 520.791624 284.777479 
L 522.090452 284.803837 
L 523.38928 284.95939 
L 524.688107 284.969827 
L 525.986935 285.123951 
L 528.58459 285.22139 
L 529.883418 284.828122 
L 531.182246 284.915806 
L 532.481073 284.437093 
L 533.779901 284.234535 
L 535.078729 284.203416 
L 536.377556 284.641587 
L 538.975212 287.012031 
L 541.572867 287.569251 
L 542.871695 288.618395 
L 545.46935 290.344429 
L 548.067005 292.62772 
L 549.365833 293.362382 
L 550.664661 293.935431 
L 553.262316 295.771557 
L 554.561144 296.338728 
L 555.859971 296.425094 
L 558.457627 296.273853 
L 559.756454 296.443807 
L 561.055282 296.908163 
L 562.354109 297.590946 
L 563.652937 297.913842 
L 564.951765 298.038822 
L 566.250592 297.398367 
L 567.54942 297.111931 
L 568.848248 296.516107 
L 570.147075 295.544094 
L 571.445903 294.936604 
L 572.744731 295.407683 
L 574.043558 296.141156 
L 575.342386 297.363881 
L 577.940041 300.132579 
L 579.238869 300.945823 
L 580.537697 301.53522 
L 581.836524 301.612493 
L 584.43418 301.019518 
L 590.928318 297.777319 
L 592.227146 297.716262 
L 593.525973 297.517111 
L 594.824801 297.845122 
L 598.721284 299.651787 
L 600.020111 299.851543 
L 601.318939 299.833719 
L 602.617767 299.142644 
L 603.916594 298.320105 
L 605.215422 297.761001 
L 606.51425 297.61856 
L 607.813077 297.164711 
L 610.410733 296.767053 
L 613.008388 295.534134 
L 615.606043 294.718849 
L 616.904871 293.972836 
L 618.203699 293.741569 
L 622.100182 293.709053 
L 624.697837 293.106189 
L 627.295492 293.423544 
L 629.893148 294.466491 
L 635.088458 299.336009 
L 636.387286 300.1439 
L 637.686113 300.643309 
L 638.984941 300.631997 
L 640.283769 300.124851 
L 641.582596 299.333545 
L 645.479079 294.643617 
L 646.777907 293.855226 
L 649.375562 292.901274 
L 651.973218 292.663578 
L 654.570873 291.735409 
L 655.869701 291.560604 
L 657.168528 291.270452 
L 658.467356 291.145801 
L 659.766184 291.142241 
L 661.065011 290.87063 
L 662.363839 290.990806 
L 663.662667 291.322627 
L 666.260322 292.670712 
L 667.55915 293.415845 
L 668.857977 294.575022 
L 670.156805 295.310587 
L 675.352115 296.332489 
L 676.650943 296.277145 
L 677.949771 296.930474 
L 680.547426 296.949366 
L 681.846254 296.912711 
L 684.443909 295.355284 
L 685.742737 294.828906 
L 689.63922 293.663431 
L 690.938047 292.998297 
L 692.236875 292.523836 
L 692.236875 292.523836 
" clip-path="url(#p0cdcd3de13)" style="fill: none; stroke: #4e79a7; stroke-opacity: 0.85; stroke-width: 1.5; stroke-linecap: square"/>
   </g>
   <g id="line2d_24">
    <path d="M 44.121875 214.722079 
L 45.420703 213.315625 
L 46.71953 212.318012 
L 48.018358 212.940084 
L 49.317186 212.730697 
L 50.616013 212.66279 
L 51.914841 211.759132 
L 53.213669 211.072932 
L 55.811324 209.281168 
L 57.110152 208.886814 
L 58.408979 208.329403 
L 62.305462 202.113398 
L 64.903117 197.581676 
L 66.201945 196.218158 
L 67.500773 195.186797 
L 68.7996 195.350714 
L 70.098428 195.935366 
L 72.696083 196.126108 
L 73.994911 196.107919 
L 75.293739 195.694857 
L 77.891394 196.284606 
L 79.190222 196.109761 
L 80.489049 195.260274 
L 81.787877 194.118215 
L 83.086705 192.570818 
L 85.68436 190.814688 
L 86.983188 189.493815 
L 88.282015 188.355739 
L 89.580843 187.473272 
L 90.879671 186.08059 
L 93.477326 184.707949 
L 94.776154 182.785013 
L 96.074981 182.283616 
L 97.373809 182.239027 
L 98.672637 183.022532 
L 99.971464 184.186841 
L 101.270292 186.853846 
L 102.569119 190.073438 
L 103.867947 192.66497 
L 105.166775 194.431036 
L 107.76443 198.561688 
L 111.660913 203.858371 
L 112.959741 205.140409 
L 114.258568 205.82873 
L 115.557396 206.732159 
L 116.856224 207.400785 
L 118.155051 207.648589 
L 119.453879 207.363446 
L 122.051534 208.720766 
L 123.350362 208.451224 
L 124.64919 207.868814 
L 128.545673 208.252254 
L 129.8445 208.694101 
L 131.143328 208.995413 
L 132.442156 208.737912 
L 133.740983 208.261657 
L 135.039811 208.077528 
L 136.338639 208.820202 
L 137.637466 209.074924 
L 138.936294 209.09332 
L 140.235121 209.82976 
L 141.533949 209.868682 
L 142.832777 209.742449 
L 146.72926 211.647073 
L 148.028087 212.030912 
L 149.326915 212.243879 
L 151.92457 211.43411 
L 153.223398 210.651097 
L 154.522226 209.692307 
L 155.821053 209.387205 
L 157.119881 208.468827 
L 158.418709 207.202437 
L 159.717536 206.237268 
L 161.016364 206.053578 
L 162.315192 207.082614 
L 163.614019 209.5212 
L 164.912847 210.896458 
L 166.211675 211.62361 
L 167.510502 212.070103 
L 168.80933 212.097535 
L 170.108158 211.78081 
L 171.406985 211.640047 
L 172.705813 211.652187 
L 174.004641 211.005296 
L 175.303468 210.107367 
L 176.602296 207.80264 
L 177.901123 205.806367 
L 179.199951 205.19774 
L 180.498779 205.627691 
L 181.797606 207.065999 
L 183.096434 209.500218 
L 184.395262 211.591205 
L 185.694089 212.472165 
L 186.992917 211.165843 
L 188.291745 210.133592 
L 189.590572 210.759285 
L 190.8894 212.012206 
L 192.188228 213.884319 
L 193.487055 216.598391 
L 194.785883 218.420775 
L 196.084711 219.665607 
L 197.383538 220.632292 
L 198.682366 220.21153 
L 199.981194 219.914817 
L 201.280021 219.104093 
L 202.578849 218.880468 
L 203.877677 218.458804 
L 206.475332 216.296778 
L 207.77416 215.850712 
L 209.072987 215.157255 
L 210.371815 214.879784 
L 211.670643 214.352609 
L 212.96947 214.468979 
L 214.268298 213.697272 
L 215.567126 213.05833 
L 216.865953 213.901407 
L 218.164781 216.429809 
L 219.463608 218.361149 
L 220.762436 219.773807 
L 222.061264 221.008294 
L 223.360091 222.063166 
L 224.658919 222.020613 
L 225.957747 221.565833 
L 227.256574 220.385237 
L 228.555402 218.32178 
L 229.85423 216.686094 
L 232.451885 213.955569 
L 233.750713 213.864671 
L 237.647196 217.705146 
L 238.946023 219.624975 
L 241.543679 221.448868 
L 242.842506 220.647447 
L 244.141334 219.994051 
L 245.440162 219.190312 
L 246.738989 218.232543 
L 248.037817 216.789845 
L 249.336645 216.364415 
L 250.635472 216.332346 
L 251.9343 217.814372 
L 253.233128 219.618143 
L 254.531955 221.87492 
L 255.830783 222.417836 
L 257.12961 221.46974 
L 258.428438 220.143123 
L 261.026093 218.086786 
L 262.324921 217.988233 
L 263.623749 219.250278 
L 266.221404 221.180738 
L 267.520232 221.763579 
L 268.819059 223.018692 
L 270.117887 224.794005 
L 271.416715 227.137552 
L 272.715542 229.011781 
L 274.01437 229.55078 
L 275.313198 229.506359 
L 276.612025 229.108531 
L 277.910853 228.114006 
L 279.209681 226.883742 
L 280.508508 225.307348 
L 281.807336 223.378213 
L 283.106164 221.95077 
L 284.404991 222.302695 
L 285.703819 221.973181 
L 287.002647 220.774504 
L 288.301474 219.125955 
L 290.89913 215.147411 
L 292.197957 213.930271 
L 293.496785 213.486632 
L 294.795612 213.474324 
L 296.09444 213.212505 
L 298.692095 213.081558 
L 301.289751 211.26087 
L 303.887406 209.47454 
L 305.186234 209.692074 
L 306.485061 210.640469 
L 307.783889 212.250294 
L 309.082717 213.05279 
L 311.680372 214.007133 
L 314.278027 215.328832 
L 315.576855 216.311097 
L 318.17451 217.833695 
L 319.473338 217.543262 
L 320.772166 218.243863 
L 324.668649 222.127785 
L 325.967476 224.07869 
L 327.266304 225.523525 
L 328.565132 225.919044 
L 329.863959 225.987996 
L 331.162787 225.873466 
L 332.461614 226.649824 
L 333.760442 227.107543 
L 335.05927 225.729981 
L 337.656925 220.747122 
L 338.955753 219.128283 
L 340.25458 217.880326 
L 341.553408 217.504641 
L 342.852236 218.13717 
L 344.151063 220.032698 
L 345.449891 222.41579 
L 346.748719 222.789522 
L 348.047546 221.563517 
L 350.645202 216.365988 
L 351.944029 214.96763 
L 353.242857 215.015232 
L 354.541685 216.321685 
L 355.840512 218.668327 
L 357.13934 220.110641 
L 358.438168 220.337484 
L 361.035823 219.40594 
L 363.633478 218.640192 
L 366.231134 219.148216 
L 368.828789 217.90511 
L 370.127616 216.295201 
L 371.426444 215.121704 
L 372.725272 215.243295 
L 374.024099 215.979753 
L 375.322927 216.542347 
L 376.621755 216.820955 
L 377.920582 216.33187 
L 379.21941 214.642147 
L 381.817065 210.353547 
L 383.115893 208.893475 
L 384.414721 208.034553 
L 387.012376 205.018253 
L 388.311204 203.782738 
L 389.610031 202.140764 
L 392.207687 197.876679 
L 393.506514 196.631246 
L 394.805342 195.973957 
L 396.10417 195.76119 
L 397.402997 194.739708 
L 398.701825 194.084554 
L 400.000653 195.563283 
L 406.494791 207.703536 
L 407.793618 209.074653 
L 409.092446 209.113496 
L 410.391274 208.329012 
L 411.690101 209.322686 
L 414.287757 210.253534 
L 415.586584 211.035579 
L 416.885412 212.101464 
L 419.483067 212.56315 
L 420.781895 211.844342 
L 422.080723 211.577828 
L 423.37955 211.764633 
L 424.678378 212.523683 
L 425.977206 213.906985 
L 428.574861 217.627484 
L 429.873689 219.04306 
L 431.172516 220.003707 
L 432.471344 221.302167 
L 433.770172 222.17657 
L 435.068999 223.635426 
L 436.367827 225.292276 
L 437.666655 226.304636 
L 438.965482 225.446408 
L 440.26431 224.067373 
L 441.563138 223.155899 
L 442.861965 222.629592 
L 444.160793 223.058252 
L 446.758448 224.598732 
L 448.057276 224.888609 
L 449.356103 224.880032 
L 450.654931 226.437208 
L 451.953759 228.179821 
L 454.551414 229.039307 
L 457.149069 229.247746 
L 458.447897 229.023192 
L 459.746725 229.171433 
L 461.045552 229.78236 
L 462.34438 230.79743 
L 463.643208 231.168029 
L 464.942035 230.907719 
L 466.240863 229.634016 
L 467.539691 228.687911 
L 470.137346 224.707328 
L 474.033829 218.253943 
L 475.332657 217.581671 
L 476.631484 217.156834 
L 477.930312 216.923189 
L 479.22914 216.98079 
L 480.527967 217.673503 
L 483.125622 218.584505 
L 484.42445 219.193834 
L 485.723278 220.069909 
L 487.022105 220.58233 
L 488.320933 220.85837 
L 490.918588 220.829152 
L 492.217416 221.100563 
L 493.516244 221.929095 
L 494.815071 222.56983 
L 496.113899 221.34396 
L 497.412727 219.335303 
L 498.711554 216.833895 
L 500.010382 213.885629 
L 502.608037 206.941475 
L 503.906865 205.626915 
L 506.50452 207.09379 
L 507.803348 206.894021 
L 509.102176 205.953812 
L 510.401003 204.505461 
L 511.699831 202.280136 
L 512.998659 199.033726 
L 516.895142 190.281869 
L 518.193969 188.918122 
L 519.492797 188.702878 
L 520.791624 189.207399 
L 522.090452 190.303785 
L 523.38928 191.819263 
L 524.688107 192.772553 
L 525.986935 193.081032 
L 527.285763 193.269998 
L 528.58459 193.268931 
L 529.883418 192.28701 
L 531.182246 191.925302 
L 532.481073 191.167012 
L 535.078729 192.399637 
L 536.377556 193.443376 
L 537.676384 195.168446 
L 538.975212 197.72034 
L 540.274039 198.566113 
L 541.572867 198.792066 
L 542.871695 199.936427 
L 544.170522 201.769196 
L 549.365833 210.645693 
L 551.963488 213.852014 
L 553.262316 215.834442 
L 554.561144 217.214162 
L 555.859971 218.043812 
L 557.158799 218.019665 
L 558.457627 217.083657 
L 559.756454 216.674378 
L 561.055282 218.722618 
L 562.354109 221.418962 
L 564.951765 227.976223 
L 566.250592 229.985715 
L 567.54942 230.632722 
L 568.848248 230.809112 
L 570.147075 229.200804 
L 571.445903 227.131282 
L 572.744731 226.073869 
L 574.043558 226.0232 
L 575.342386 226.707664 
L 576.641214 228.925321 
L 577.940041 232.21886 
L 579.238869 234.888048 
L 580.537697 236.901722 
L 581.836524 238.087963 
L 583.135352 238.619384 
L 585.733007 238.720957 
L 589.62949 238.353559 
L 590.928318 238.059605 
L 592.227146 237.292274 
L 593.525973 236.716277 
L 596.123629 237.607359 
L 597.422456 238.911715 
L 598.721284 240.378668 
L 600.020111 241.351187 
L 602.617767 241.55368 
L 603.916594 240.689569 
L 605.215422 240.419198 
L 606.51425 240.321613 
L 607.813077 240.56218 
L 609.111905 240.489336 
L 610.410733 240.270164 
L 613.008388 238.605526 
L 615.606043 235.944315 
L 616.904871 234.438442 
L 618.203699 232.518781 
L 619.502526 231.630872 
L 622.100182 230.895171 
L 624.697837 229.783439 
L 625.996665 229.098052 
L 627.295492 229.316663 
L 628.59432 229.725369 
L 629.893148 230.01042 
L 631.191975 230.996696 
L 632.490803 232.707863 
L 633.789631 234.22446 
L 635.088458 236.358502 
L 636.387286 239.207228 
L 637.686113 241.418745 
L 638.984941 242.379493 
L 640.283769 242.982124 
L 641.582596 243.152095 
L 642.881424 241.864288 
L 645.479079 240.142236 
L 646.777907 240.063788 
L 648.076735 240.531436 
L 649.375562 241.621984 
L 651.973218 243.293884 
L 653.272045 242.714418 
L 654.570873 241.395129 
L 655.869701 239.542967 
L 657.168528 237.913037 
L 659.766184 235.317867 
L 661.065011 234.606274 
L 662.363839 233.389828 
L 663.662667 232.719493 
L 664.961494 233.480771 
L 667.55915 236.330349 
L 670.156805 240.096217 
L 671.455633 241.514172 
L 672.75446 242.767095 
L 675.352115 244.436666 
L 677.949771 247.184729 
L 683.145081 244.252945 
L 685.742737 241.408868 
L 687.041564 240.413564 
L 688.340392 239.745224 
L 690.938047 237.776698 
L 692.236875 236.464048 
L 692.236875 236.464048 
" clip-path="url(#p0cdcd3de13)" style="fill: none; stroke: #f28e2b; stroke-opacity: 0.85; stroke-width: 1.5; stroke-linecap: square"/>
   </g>
   <g id="line2d_25">
    <path d="M 44.121875 264.490034 
L 45.420703 262.302396 
L 46.71953 261.675853 
L 48.018358 261.743201 
L 49.317186 262.033438 
L 50.616013 262.437794 
L 51.914841 262.25219 
L 54.512496 259.65162 
L 55.811324 259.380105 
L 57.110152 260.413649 
L 58.408979 260.827861 
L 59.707807 259.94126 
L 61.006635 260.486888 
L 62.305462 259.928977 
L 63.60429 258.684812 
L 64.903117 258.38695 
L 66.201945 257.712889 
L 67.500773 256.863358 
L 70.098428 256.214468 
L 71.397256 256.993291 
L 72.696083 257.602677 
L 73.994911 257.941513 
L 75.293739 258.4496 
L 76.592566 259.415076 
L 77.891394 258.623137 
L 79.190222 259.069901 
L 80.489049 258.862893 
L 81.787877 258.415867 
L 83.086705 258.725398 
L 84.385532 259.501103 
L 85.68436 258.62256 
L 86.983188 258.92557 
L 88.282015 259.62744 
L 90.879671 257.986035 
L 92.178498 258.545671 
L 93.477326 261.172609 
L 94.776154 261.164398 
L 96.074981 263.075881 
L 97.373809 262.44412 
L 98.672637 260.909566 
L 99.971464 258.536721 
L 101.270292 257.724135 
L 109.063258 262.938735 
L 110.362085 264.303515 
L 111.660913 264.314998 
L 112.959741 262.448603 
L 114.258568 263.37969 
L 115.557396 263.298096 
L 116.856224 263.362418 
L 118.155051 263.299059 
L 119.453879 264.182003 
L 120.752707 265.887842 
L 123.350362 263.533787 
L 124.64919 263.862473 
L 125.948017 263.476367 
L 127.246845 262.663985 
L 131.143328 263.065748 
L 132.442156 263.356624 
L 133.740983 262.637855 
L 135.039811 262.391982 
L 137.637466 262.996947 
L 138.936294 263.91388 
L 140.235121 264.110766 
L 141.533949 263.738794 
L 142.832777 264.806219 
L 144.131604 264.974305 
L 148.028087 265.927378 
L 149.326915 265.755276 
L 150.625743 265.70093 
L 151.92457 265.790486 
L 153.223398 265.459479 
L 154.522226 264.855711 
L 155.821053 263.965448 
L 157.119881 262.6886 
L 158.418709 260.290753 
L 159.717536 258.835798 
L 161.016364 257.724624 
L 162.315192 257.208819 
L 163.614019 258.94629 
L 164.912847 259.555959 
L 166.211675 258.810474 
L 168.80933 260.43329 
L 170.108158 260.493186 
L 172.705813 259.736737 
L 174.004641 260.294248 
L 175.303468 260.462612 
L 176.602296 261.105803 
L 177.901123 261.886037 
L 179.199951 259.893794 
L 180.498779 258.220586 
L 181.797606 257.601115 
L 183.096434 258.398621 
L 184.395262 259.369419 
L 185.694089 259.876685 
L 186.992917 261.169023 
L 188.291745 261.050083 
L 189.590572 258.938251 
L 190.8894 257.303182 
L 192.188228 257.680353 
L 193.487055 258.857477 
L 194.785883 260.296813 
L 196.084711 260.38066 
L 197.383538 260.690344 
L 198.682366 260.576554 
L 199.981194 259.090879 
L 201.280021 257.01411 
L 202.578849 255.948414 
L 203.877677 255.607011 
L 205.176504 255.480597 
L 206.475332 255.045597 
L 207.77416 253.852963 
L 209.072987 252.196732 
L 210.371815 250.976043 
L 211.670643 250.675503 
L 212.96947 250.51596 
L 214.268298 249.591427 
L 215.567126 249.291855 
L 216.865953 250.464446 
L 218.164781 249.521446 
L 219.463608 249.715488 
L 222.061264 254.560254 
L 223.360091 255.964123 
L 224.658919 256.741777 
L 225.957747 258.105264 
L 227.256574 258.342668 
L 228.555402 257.438363 
L 229.85423 259.217184 
L 231.153057 261.737204 
L 232.451885 260.994439 
L 233.750713 259.353783 
L 235.04954 258.688163 
L 236.348368 258.798962 
L 238.946023 260.189146 
L 240.244851 258.286071 
L 241.543679 258.076097 
L 244.141334 257.413193 
L 245.440162 257.399376 
L 246.738989 256.775866 
L 248.037817 255.681682 
L 249.336645 254.435961 
L 250.635472 253.499794 
L 251.9343 253.231392 
L 253.233128 253.938338 
L 254.531955 253.758277 
L 257.12961 255.454081 
L 258.428438 255.284884 
L 259.727266 253.921444 
L 261.026093 253.913492 
L 262.324921 253.681466 
L 263.623749 254.397936 
L 264.922576 256.506851 
L 266.221404 257.593972 
L 267.520232 257.35003 
L 268.819059 255.629195 
L 270.117887 254.641685 
L 271.416715 255.280604 
L 272.715542 255.674255 
L 274.01437 254.781515 
L 275.313198 255.900318 
L 276.612025 256.308558 
L 280.508508 255.334454 
L 281.807336 253.536196 
L 283.106164 254.933415 
L 284.404991 254.123234 
L 285.703819 252.203134 
L 287.002647 252.424242 
L 288.301474 252.818234 
L 289.600302 252.892137 
L 292.197957 249.975673 
L 296.09444 247.940115 
L 298.692095 249.698112 
L 301.289751 248.958453 
L 302.588578 248.257668 
L 303.887406 246.998979 
L 305.186234 249.304392 
L 306.485061 249.599706 
L 307.783889 250.344134 
L 309.082717 252.716306 
L 310.381544 254.296483 
L 311.680372 254.930358 
L 312.9792 254.752222 
L 314.278027 255.097449 
L 315.576855 255.072685 
L 318.17451 256.373955 
L 319.473338 258.136226 
L 320.772166 259.233018 
L 322.070993 258.946891 
L 323.369821 257.94802 
L 324.668649 258.266642 
L 325.967476 259.21317 
L 327.266304 260.343143 
L 331.162787 258.23441 
L 332.461614 259.427629 
L 333.760442 261.63316 
L 335.05927 262.794429 
L 336.358097 262.626637 
L 337.656925 262.743065 
L 338.955753 263.323817 
L 340.25458 261.893025 
L 341.553408 261.172797 
L 342.852236 261.556517 
L 344.151063 262.51379 
L 345.449891 262.263513 
L 348.047546 262.638817 
L 349.346374 264.067913 
L 350.645202 264.282718 
L 351.944029 261.554434 
L 353.242857 259.59957 
L 354.541685 259.381601 
L 355.840512 261.099883 
L 357.13934 263.348997 
L 358.438168 264.445363 
L 359.736995 264.565693 
L 361.035823 264.064212 
L 362.334651 262.024124 
L 363.633478 260.930338 
L 364.932306 261.3758 
L 366.231134 261.621754 
L 367.529961 262.404894 
L 368.828789 262.883054 
L 370.127616 262.26692 
L 371.426444 261.362398 
L 372.725272 260.834336 
L 374.024099 259.785982 
L 375.322927 260.05623 
L 376.621755 260.574428 
L 377.920582 262.354087 
L 379.21941 263.273999 
L 380.518238 262.866217 
L 381.817065 262.161682 
L 383.115893 261.812768 
L 384.414721 261.070722 
L 385.713548 260.684931 
L 387.012376 261.462646 
L 388.311204 262.593845 
L 389.610031 262.793728 
L 390.908859 261.750608 
L 392.207687 260.229042 
L 393.506514 260.474859 
L 394.805342 260.583478 
L 396.10417 261.374594 
L 397.402997 260.44074 
L 398.701825 258.518117 
L 400.000653 257.774195 
L 401.29948 257.980812 
L 402.598308 258.505009 
L 403.897136 258.89615 
L 406.494791 262.507151 
L 407.793618 263.646536 
L 409.092446 264.30724 
L 411.690101 267.865679 
L 412.988929 267.623717 
L 415.586584 266.743929 
L 418.18424 267.756746 
L 419.483067 267.472562 
L 420.781895 266.19843 
L 423.37955 262.758293 
L 424.678378 261.420037 
L 425.977206 260.703592 
L 427.276033 261.329156 
L 428.574861 262.346403 
L 429.873689 263.186847 
L 431.172516 264.44259 
L 432.471344 265.18301 
L 433.770172 264.977126 
L 435.068999 263.909302 
L 436.367827 264.457302 
L 437.666655 265.698385 
L 438.965482 266.705315 
L 441.563138 266.416156 
L 442.861965 264.90827 
L 444.160793 263.715012 
L 445.45962 263.468056 
L 446.758448 262.813835 
L 448.057276 261.782336 
L 449.356103 262.61782 
L 450.654931 263.061326 
L 451.953759 260.447564 
L 453.252586 260.877954 
L 454.551414 261.185135 
L 455.850242 261.700391 
L 457.149069 261.060913 
L 458.447897 259.914366 
L 461.045552 257.078968 
L 462.34438 257.028431 
L 463.643208 259.111362 
L 464.942035 260.743965 
L 466.240863 256.591392 
L 467.539691 256.604646 
L 468.838518 257.754523 
L 472.735001 255.523161 
L 474.033829 254.835671 
L 475.332657 254.536109 
L 476.631484 253.726139 
L 477.930312 253.662771 
L 480.527967 255.42986 
L 483.125622 255.537306 
L 484.42445 255.771015 
L 485.723278 256.324458 
L 490.918588 259.43471 
L 492.217416 260.659155 
L 493.516244 258.686509 
L 494.815071 257.273781 
L 496.113899 257.717365 
L 500.010382 257.55664 
L 501.30921 255.490054 
L 503.906865 249.740453 
L 505.205693 248.747974 
L 506.50452 249.596638 
L 507.803348 251.066256 
L 509.102176 251.872868 
L 510.401003 253.609111 
L 511.699831 254.302082 
L 512.998659 253.875436 
L 514.297486 252.708142 
L 515.596314 250.978607 
L 516.895142 251.455197 
L 518.193969 249.454521 
L 519.492797 248.122909 
L 520.791624 247.198319 
L 522.090452 247.731816 
L 523.38928 248.999513 
L 525.986935 252.622677 
L 527.285763 253.242276 
L 528.58459 253.359792 
L 529.883418 252.5675 
L 531.182246 255.981113 
L 533.779901 255.932418 
L 535.078729 255.729321 
L 536.377556 254.768576 
L 537.676384 254.407484 
L 538.975212 254.532062 
L 541.572867 255.574184 
L 542.871695 254.757925 
L 544.170522 253.530452 
L 545.46935 253.727703 
L 546.768178 254.841507 
L 548.067005 256.91922 
L 549.365833 258.620465 
L 551.963488 260.689396 
L 553.262316 261.339218 
L 554.561144 261.667846 
L 555.859971 262.579629 
L 557.158799 262.316009 
L 559.756454 265.821542 
L 561.055282 265.179477 
L 562.354109 263.893791 
L 563.652937 264.174794 
L 564.951765 265.22312 
L 566.250592 267.621943 
L 567.54942 269.651858 
L 568.848248 270.99445 
L 570.147075 270.928728 
L 571.445903 269.655322 
L 572.744731 268.707266 
L 574.043558 268.422216 
L 575.342386 267.207534 
L 576.641214 268.202238 
L 577.940041 268.870587 
L 579.238869 268.726945 
L 580.537697 269.70555 
L 581.836524 271.614785 
L 583.135352 272.577717 
L 585.733007 272.617564 
L 587.031835 272.182284 
L 590.928318 271.433179 
L 592.227146 272.421832 
L 593.525973 272.3069 
L 594.824801 271.738039 
L 596.123629 270.991986 
L 597.422456 271.156794 
L 598.721284 270.722102 
L 600.020111 271.657821 
L 601.318939 273.358303 
L 602.617767 274.139494 
L 603.916594 273.910957 
L 605.215422 273.136861 
L 606.51425 272.993443 
L 607.813077 274.127574 
L 609.111905 275.614407 
L 610.410733 275.951076 
L 611.70956 275.899379 
L 613.008388 274.273428 
L 614.307216 273.322587 
L 615.606043 273.294814 
L 616.904871 273.09685 
L 618.203699 273.257266 
L 619.502526 273.114579 
L 620.801354 271.862353 
L 622.100182 270.942944 
L 623.399009 270.836405 
L 624.697837 269.706108 
L 625.996665 268.981648 
L 628.59432 270.578097 
L 629.893148 270.82465 
L 631.191975 270.934452 
L 632.490803 271.218989 
L 633.789631 271.244546 
L 635.088458 272.149457 
L 636.387286 272.35115 
L 637.686113 272.414019 
L 638.984941 272.97748 
L 640.283769 273.679994 
L 641.582596 272.257067 
L 642.881424 272.691518 
L 644.180252 274.273094 
L 645.479079 274.849591 
L 646.777907 273.622944 
L 648.076735 272.871287 
L 649.375562 273.06472 
L 650.67439 274.290315 
L 651.973218 276.300617 
L 653.272045 275.440246 
L 654.570873 275.302436 
L 655.869701 274.08784 
L 657.168528 271.537516 
L 658.467356 269.24541 
L 659.766184 267.899608 
L 661.065011 267.062361 
L 662.363839 264.770435 
L 663.662667 263.078009 
L 664.961494 261.181913 
L 666.260322 259.831228 
L 667.55915 259.351032 
L 668.857977 260.050206 
L 670.156805 260.999782 
L 671.455633 260.904396 
L 672.75446 259.85642 
L 674.053288 258.259094 
L 675.352115 258.139627 
L 676.650943 255.421311 
L 677.949771 255.1667 
L 679.248598 255.98394 
L 680.547426 255.921525 
L 683.145081 254.968548 
L 684.443909 255.116006 
L 685.742737 254.843543 
L 690.938047 250.414656 
L 692.236875 248.386409 
L 692.236875 248.386409 
" clip-path="url(#p0cdcd3de13)" style="fill: none; stroke: #e15759; stroke-opacity: 0.85; stroke-width: 1.5; stroke-linecap: square"/>
   </g>
   <g id="line2d_26">
    <path d="M 44.121875 65.069715 
L 45.420703 62.396523 
L 46.71953 59.15555 
L 48.018358 56.355401 
L 49.317186 54.874115 
L 51.914841 55.95231 
L 53.213669 55.545104 
L 55.811324 52.208166 
L 57.110152 50.37487 
L 61.006635 47.713891 
L 63.60429 44.014319 
L 64.903117 42.80421 
L 66.201945 42.55236 
L 67.500773 42.55236 
L 71.397256 39.713451 
L 72.696083 39.08308 
L 75.293739 40.584645 
L 76.592566 42.425125 
L 79.190222 47.574582 
L 80.489049 49.203007 
L 81.787877 49.592934 
L 83.086705 49.09453 
L 84.385532 48.990712 
L 85.68436 49.833197 
L 88.282015 51.834674 
L 89.580843 50.836621 
L 90.879671 48.024042 
L 92.178498 45.86763 
L 93.477326 44.784192 
L 97.373809 49.051876 
L 98.672637 49.212203 
L 101.270292 45.196328 
L 102.569119 43.601549 
L 110.362085 42.123086 
L 111.660913 42.822978 
L 115.557396 47.761564 
L 116.856224 47.030705 
L 119.453879 42.459421 
L 120.752707 41.561982 
L 124.64919 42.968251 
L 125.948017 42.474932 
L 127.246845 41.285718 
L 128.545673 40.394588 
L 129.8445 40.203337 
L 136.338639 40.506335 
L 138.936294 42.52014 
L 140.235121 42.869335 
L 141.533949 41.975157 
L 144.131604 39.755356 
L 145.430432 39.591758 
L 146.72926 40.666658 
L 148.028087 42.237185 
L 149.326915 42.65458 
L 151.92457 42.768067 
L 153.223398 42.638223 
L 154.522226 42.362715 
L 155.821053 42.491198 
L 157.119881 43.035483 
L 158.418709 43.831619 
L 159.717536 43.681451 
L 161.016364 42.584981 
L 162.315192 40.542208 
L 163.614019 38.815366 
L 164.912847 39.359651 
L 166.211675 41.796542 
L 167.510502 45.431587 
L 168.80933 49.592875 
L 170.108158 51.923679 
L 171.406985 52.754122 
L 174.004641 51.04019 
L 176.602296 51.218864 
L 177.901123 50.361898 
L 179.199951 48.558628 
L 180.498779 45.670197 
L 181.797606 44.212517 
L 183.096434 44.289665 
L 184.395262 47.030187 
L 186.992917 54.403839 
L 188.291745 56.141654 
L 189.590572 55.370721 
L 190.8894 53.403837 
L 192.188228 51.754142 
L 193.487055 51.019341 
L 194.785883 51.477266 
L 196.084711 52.881494 
L 198.682366 57.487925 
L 199.981194 57.673368 
L 201.280021 55.775422 
L 203.877677 49.34671 
L 205.176504 48.570007 
L 206.475332 49.154147 
L 207.77416 49.219762 
L 209.072987 48.339075 
L 211.670643 43.606213 
L 212.96947 41.842892 
L 214.268298 41.52314 
L 215.567126 40.617736 
L 218.164781 37.100912 
L 219.463608 37.580249 
L 220.762436 39.926723 
L 222.061264 43.315534 
L 223.360091 44.873859 
L 224.658919 44.897356 
L 231.153057 36.429482 
L 232.451885 33.789604 
L 233.750713 30.623482 
L 235.04954 29.133055 
L 236.348368 29.142987 
L 237.647196 30.682076 
L 241.543679 38.13825 
L 242.842506 39.835592 
L 244.141334 39.946832 
L 245.440162 39.000979 
L 248.037817 36.351861 
L 249.336645 34.080999 
L 250.635472 30.863835 
L 251.9343 26.700367 
L 253.233128 23.539607 
L 254.531955 22.911252 
L 255.830783 24.425151 
L 258.428438 30.102969 
L 259.727266 30.992602 
L 261.026093 29.527775 
L 262.324921 26.736181 
L 263.623749 24.890891 
L 264.922576 25.163372 
L 266.221404 27.519243 
L 267.520232 30.245221 
L 268.819059 31.758222 
L 270.117887 31.378618 
L 271.416715 29.848175 
L 272.715542 29.264035 
L 274.01437 29.626198 
L 275.313198 31.474105 
L 276.612025 33.006079 
L 277.910853 33.370031 
L 279.209681 32.78768 
L 281.807336 31.119277 
L 285.703819 25.777764 
L 287.002647 24.431727 
L 289.600302 27.344041 
L 290.89913 29.061112 
L 293.496785 29.061112 
L 296.09444 27.168506 
L 298.692095 27.168506 
L 299.990923 27.323297 
L 301.289751 27.323297 
L 302.588578 27.48155 
L 303.887406 26.535247 
L 305.186234 24.642641 
L 306.485061 22.063966 
L 307.783889 21.219643 
L 309.082717 22.907725 
L 311.680372 30.414533 
L 312.9792 32.391962 
L 314.278027 32.853129 
L 316.875683 33.124317 
L 320.772166 36.370007 
L 322.070993 36.43058 
L 323.369821 35.166329 
L 324.668649 33.709099 
L 325.967476 33.28132 
L 329.863959 36.120229 
L 331.162787 36.120229 
L 332.461614 34.907252 
L 333.760442 34.907252 
L 335.05927 36.548008 
L 336.358097 39.386916 
L 337.656925 41.279522 
L 338.955753 42.00168 
L 340.25458 40.831232 
L 341.553408 39.976716 
L 342.852236 40.447024 
L 344.151063 41.863635 
L 345.449891 44.478398 
L 346.748719 48.039465 
L 348.047546 52.546835 
L 349.346374 55.498404 
L 350.645202 55.906993 
L 351.944029 53.887716 
L 353.242857 49.205065 
L 354.541685 46.006431 
L 355.840512 44.289359 
L 357.13934 45.235662 
L 358.438168 47.128268 
L 359.736995 49.967177 
L 361.035823 51.859783 
L 362.334651 52.011496 
L 363.633478 50.967257 
L 366.231134 48.276157 
L 367.529961 47.008002 
L 368.828789 46.820747 
L 370.127616 47.579795 
L 371.426444 48.078609 
L 372.725272 47.63112 
L 375.322927 44.063968 
L 376.621755 43.469156 
L 377.920582 45.51969 
L 379.21941 49.086486 
L 380.518238 51.664283 
L 381.817065 52.980398 
L 385.713548 53.202242 
L 387.012376 54.297513 
L 389.610031 58.15103 
L 390.908859 59.6809 
L 392.207687 59.148391 
L 394.805342 56.167109 
L 396.10417 55.610942 
L 397.402997 56.267752 
L 398.701825 56.497344 
L 400.000653 55.579319 
L 401.29948 53.714991 
L 402.598308 52.796966 
L 403.897136 53.049389 
L 405.195963 55.194418 
L 406.494791 56.607427 
L 407.793618 57.357987 
L 409.092446 57.839103 
L 411.690101 57.923123 
L 412.988929 57.909668 
L 414.287757 58.312665 
L 415.586584 59.874444 
L 416.885412 60.414446 
L 420.781895 65.368793 
L 422.080723 66.054293 
L 423.37955 65.79349 
L 425.977206 63.379279 
L 427.276033 62.966763 
L 428.574861 63.750199 
L 429.873689 64.912341 
L 431.172516 67.020787 
L 433.770172 73.153941 
L 435.068999 74.951414 
L 436.367827 74.918402 
L 437.666655 74.423535 
L 438.965482 74.756303 
L 440.26431 75.250419 
L 441.563138 75.007668 
L 442.861965 73.818614 
L 444.160793 71.886891 
L 445.45962 71.269739 
L 446.758448 71.91427 
L 448.057276 72.854665 
L 451.953759 72.836941 
L 453.252586 74.206236 
L 454.551414 76.519174 
L 455.850242 77.771544 
L 457.149069 78.60516 
L 458.447897 77.721706 
L 459.746725 75.915606 
L 462.34438 70.4108 
L 463.643208 68.085616 
L 464.942035 67.159899 
L 468.838518 67.221656 
L 470.137346 65.762626 
L 472.735001 61.130632 
L 474.033829 59.976221 
L 475.332657 58.25915 
L 477.930312 53.053269 
L 479.22914 51.539184 
L 480.527967 50.462993 
L 481.826795 51.718124 
L 485.723278 54.600347 
L 492.217416 59.502282 
L 493.516244 61.428972 
L 496.113899 67.174958 
L 497.412727 68.732935 
L 498.711554 68.460426 
L 500.010382 66.987718 
L 502.608037 64.845149 
L 503.906865 63.202377 
L 506.50452 58.024226 
L 507.803348 56.381454 
L 509.102176 56.427654 
L 511.699831 58.41266 
L 512.998659 58.099091 
L 514.297486 56.43063 
L 515.596314 53.388088 
L 516.895142 49.399242 
L 519.492797 39.910128 
L 520.791624 37.127889 
L 522.090452 35.880478 
L 523.38928 36.350139 
L 524.688107 37.766103 
L 525.986935 40.128369 
L 527.285763 43.436939 
L 528.58459 47.691812 
L 529.883418 49.997409 
L 531.182246 49.821874 
L 533.779901 46.036662 
L 535.078729 44.677368 
L 536.377556 44.852903 
L 537.676384 45.698217 
L 538.975212 45.597227 
L 540.274039 46.442541 
L 541.572867 48.234158 
L 542.871695 49.180461 
L 544.170522 48.511803 
L 545.46935 46.896843 
L 546.768178 46.400205 
L 548.067005 47.749883 
L 550.664661 52.270701 
L 551.963488 52.838483 
L 553.262316 53.097031 
L 554.561144 54.011444 
L 555.859971 55.872161 
L 557.158799 57.386245 
L 558.457627 57.339955 
L 561.055282 53.462164 
L 562.354109 52.838284 
L 563.652937 53.781947 
L 564.951765 55.97 
L 566.250592 59.15563 
L 567.54942 61.874656 
L 568.848248 63.774336 
L 571.445903 64.513202 
L 572.744731 63.936332 
L 574.043558 62.41316 
L 576.641214 57.474208 
L 577.940041 56.64201 
L 579.238869 58.111008 
L 580.537697 60.954086 
L 583.135352 68.457661 
L 584.43418 70.434125 
L 585.733007 70.86643 
L 588.330663 71.200243 
L 593.525973 68.082656 
L 594.824801 68.306232 
L 596.123629 68.841491 
L 597.422456 68.792628 
L 598.721284 68.315986 
L 600.020111 68.738331 
L 602.617767 71.576618 
L 603.916594 72.448681 
L 606.51425 70.441658 
L 607.813077 70.38445 
L 609.111905 71.942202 
L 610.410733 74.757769 
L 611.70956 75.285338 
L 613.008388 73.815388 
L 615.606043 66.324539 
L 616.904871 65.218045 
L 618.203699 65.367087 
L 619.502526 64.860264 
L 622.100182 60.177226 
L 623.399009 58.45664 
L 624.697837 57.682356 
L 625.996665 55.96177 
L 627.295492 53.29488 
L 628.59432 50.890934 
L 629.893148 49.723729 
L 631.191975 49.881348 
L 632.490803 50.520152 
L 633.789631 50.206574 
L 635.088458 50.015086 
L 636.387286 50.342123 
L 637.686113 51.615462 
L 640.283769 56.054746 
L 641.582596 57.546119 
L 645.479079 58.187711 
L 646.777907 57.455272 
L 648.076735 56.23024 
L 649.375562 56.087071 
L 650.67439 57.488062 
L 651.973218 60.100755 
L 653.272045 63.659751 
L 654.570873 68.16505 
L 655.869701 70.544048 
L 657.168528 70.374273 
L 658.467356 68.048087 
L 659.766184 65.470051 
L 661.065011 64.115159 
L 662.363839 64.115159 
L 663.662667 63.596634 
L 664.961494 62.179122 
L 667.55915 57.451492 
L 668.857977 56.631554 
L 671.455633 58.742828 
L 672.75446 58.852162 
L 674.053288 56.584442 
L 675.352115 52.597052 
L 676.650943 50.398908 
L 677.949771 50.198284 
L 680.547426 54.419128 
L 681.846254 55.022402 
L 683.145081 54.704853 
L 684.443909 55.333607 
L 687.041564 58.254136 
L 692.236875 61.686294 
L 692.236875 61.686294 
" clip-path="url(#p0cdcd3de13)" style="fill: none; stroke: #76b7b2; stroke-opacity: 0.85; stroke-width: 1.5; stroke-linecap: square"/>
   </g>
   <g id="patch_3">
    <path d="M 44.121875 325.72 
L 44.121875 7.2 
" style="fill: none; stroke: #000000; stroke-width: 0.8; stroke-linejoin: miter; stroke-linecap: square"/>
   </g>
   <g id="patch_4">
    <path d="M 44.121875 325.72 
L 692.236875 325.72 
" style="fill: none; stroke: #000000; stroke-width: 0.8; stroke-linejoin: miter; stroke-linecap: square"/>
   </g>
   <g id="legend_1">
    <g id="patch_5">
     <path d="M 50.421875 39.850312 
L 317.737344 39.850312 
Q 319.537344 39.850312 319.537344 38.050312 
L 319.537344 13.5 
Q 319.537344 11.7 317.737344 11.7 
L 50.421875 11.7 
Q 48.621875 11.7 48.621875 13.5 
L 48.621875 38.050312 
Q 48.621875 39.850312 50.421875 39.850312 
z
" style="fill: #ffffff; opacity: 0.9; stroke: #cccccc; stroke-linejoin: miter"/>
    </g>
    <g id="line2d_27">
     <path d="M 52.221875 18.45 
L 61.221875 18.45 
L 70.221875 18.45 
" style="fill: none; stroke: #4e79a7; stroke-opacity: 0.85; stroke-width: 1.5; stroke-linecap: square"/>
    </g>
    <g id="text_14">
     <text style="font-size: 9px; font-family: 'Times New Roman', 'SimHei', 'Microsoft YaHei', 'DejaVu Serif', serif; text-anchor: start" x="77.421875" y="21.6" transform="rotate(-0 77.421875 21.6)">零售商 / Retailer</text>
    </g>
    <g id="line2d_28">
     <path d="M 52.221875 31.175156 
L 61.221875 31.175156 
L 70.221875 31.175156 
" style="fill: none; stroke: #f28e2b; stroke-opacity: 0.85; stroke-width: 1.5; stroke-linecap: square"/>
    </g>
    <g id="text_15">
     <text style="font-size: 9px; font-family: 'Times New Roman', 'SimHei', 'Microsoft YaHei', 'DejaVu Serif', serif; text-anchor: start" x="77.421875" y="34.325156" transform="rotate(-0 77.421875 34.325156)">批发商 / Wholesaler</text>
    </g>
    <g id="line2d_29">
     <path d="M 164.246563 18.45 
L 173.246563 18.45 
L 182.246563 18.45 
" style="fill: none; stroke: #e15759; stroke-opacity: 0.85; stroke-width: 1.5; stroke-linecap: square"/>
    </g>
    <g id="text_16">
     <text style="font-size: 9px; font-family: 'Times New Roman', 'SimHei', 'Microsoft YaHei', 'DejaVu Serif', serif; text-anchor: start" x="189.446562" y="21.6" transform="rotate(-0 189.446562 21.6)">分销商(IDMR) / Distributor(IDMR)</text>
    </g>
    <g id="line2d_30">
     <path d="M 164.246563 31.175156 
L 173.246563 31.175156 
L 182.246563 31.175156 
" style="fill: none; stroke: #76b7b2; stroke-opacity: 0.85; stroke-width: 1.5; stroke-linecap: square"/>
    </g>
    <g id="text_17">
     <text style="font-size: 9px; font-family: 'Times New Roman', 'SimHei', 'Microsoft YaHei', 'DejaVu Serif', serif; text-anchor: start" x="189.446562" y="34.325156" transform="rotate(-0 189.446562 34.325156)">制造商 / Manufacturer</text>
    </g>
   </g>
  </g>
  <g id="text_18">
   <text style="font-weight: 700; font-size: 13px; font-family: 'SimHei'; text-anchor: middle" x="355.636875" y="386.815" transform="rotate(-0 355.636875 386.815)">图4  智慧决策下各节点平均成本（最后500周期滚动窗口=50）</text>
  </g>
  <g id="text_19">
   <text style="font-style: italic; font-size: 10px; font-family: 'Times New Roman', 'SimHei', 'Microsoft YaHei', 'DejaVu Serif', serif; text-anchor: middle; fill: #808080" x="355.636875" y="403.30375" transform="rotate(-0 355.636875 403.30375)">Fig.4  Average Cost under IDMR (last 500 periods, rolling window=50)</text>
  </g>
 </g>
 <defs>
  <clipPath id="p0cdcd3de13">
   <rect x="44.121875" y="7.2" width="648.115" height="318.52"/>
  </clipPath>
 </defs>
</svg>
