<?xml version="1.0" encoding="utf-8" standalone="no"?>
<!DOCTYPE svg PUBLIC "-//W3C//DTD SVG 1.1//EN"
  "http://www.w3.org/Graphics/SVG/1.1/DTD/svg11.dtd">
<svg xmlns:xlink="http://www.w3.org/1999/xlink" width="710.261875pt" height="350.2275pt" viewBox="0 0 710.261875 350.2275" xmlns="http://www.w3.org/2000/svg" version="1.1">
 <metadata>
  <rdf:RDF xmlns:dc="http://purl.org/dc/elements/1.1/" xmlns:cc="http://creativecommons.org/ns#" xmlns:rdf="http://www.w3.org/1999/02/22-rdf-syntax-ns#">
   <cc:Work>
    <dc:type rdf:resource="http://purl.org/dc/dcmitype/StillImage"/>
    <dc:date>2026-07-09T11:25:19.434598</dc:date>
    <dc:format>image/svg+xml</dc:format>
    <dc:creator>
     <cc:Agent>
      <dc:title>Matplotlib v3.10.9, https://matplotlib.org/</dc:title>
     </cc:Agent>
    </dc:creator>
   </cc:Work>
  </rdf:RDF>
 </metadata>
 <defs>
  <style type="text/css">*{stroke-linejoin: round; stroke-linecap: butt}</style>
 </defs>
 <g id="figure_1">
  <g id="patch_1">
   <path d="M 0 350.2275 
L 710.261875 350.2275 
L 710.261875 0 
L 0 0 
z
" style="fill: #ffffff"/>
  </g>
  <g id="axes_1">
   <g id="patch_2">
    <path d="M 45.809375 312.12125 
L 689.311875 312.12125 
L 689.311875 23.7625 
L 45.809375 23.7625 
z
" style="fill: #ffffff"/>
   </g>
   <g id="matplotlib.axis_1">
    <g id="xtick_1">
     <g id="line2d_1">
      <path d="M 45.809375 312.12125 
L 45.809375 23.7625 
" clip-path="url(#p4955468abc)" style="fill: none; stroke-dasharray: 2.96,1.28; stroke-dashoffset: 0; stroke: #b0b0b0; stroke-opacity: 0.3; stroke-width: 0.8"/>
     </g>
     <g id="line2d_2">
      <defs>
       <path id="m69a11318dd" d="M 0 0 
L 0 3.5 
" style="stroke: #000000; stroke-width: 0.8"/>
      </defs>
      <g>
       <use xlink:href="#m69a11318dd" x="45.809375" y="312.12125" style="stroke: #000000; stroke-width: 0.8"/>
      </g>
     </g>
     <g id="text_1">
      <!-- 0 -->
      <g transform="translate(43.059375 326.68375) scale(0.11 -0.11)">
       <defs>
        <path id="SimHei-30" d="M 225 2537 
Q 250 3200 412 3587 
Q 575 3975 875 4225 
Q 1175 4475 1612 4475 
Q 2050 4475 2375 4112 
Q 2700 3750 2800 3200 
Q 2900 2650 2862 1937 
Q 2825 1225 2612 775 
Q 2400 325 1975 150 
Q 1550 -25 1125 187 
Q 700 400 525 750 
Q 350 1100 275 1487 
Q 200 1875 225 2537 
z
M 750 2687 
Q 675 2000 800 1462 
Q 925 925 1212 700 
Q 1500 475 1800 612 
Q 2100 750 2237 1162 
Q 2375 1575 2375 2062 
Q 2375 2550 2337 2950 
Q 2300 3350 2112 3675 
Q 1925 4000 1612 4012 
Q 1300 4025 1062 3700 
Q 825 3375 750 2687 
z
" transform="scale(0.015625)"/>
       </defs>
       <use xlink:href="#SimHei-30"/>
      </g>
     </g>
    </g>
    <g id="xtick_2">
     <g id="line2d_3">
      <path d="M 126.247188 312.12125 
L 126.247188 23.7625 
" clip-path="url(#p4955468abc)" style="fill: none; stroke-dasharray: 2.96,1.28; stroke-dashoffset: 0; stroke: #b0b0b0; stroke-opacity: 0.3; stroke-width: 0.8"/>
     </g>
     <g id="line2d_4">
      <g>
       <use xlink:href="#m69a11318dd" x="126.247188" y="312.12125" style="stroke: #000000; stroke-width: 0.8"/>
      </g>
     </g>
     <g id="text_2">
      <!-- 2500 -->
      <g transform="translate(115.247188 326.68375) scale(0.11 -0.11)">
       <defs>
        <path id="SimHei-32" d="M 300 250 
Q 325 625 650 925 
Q 975 1225 1475 1862 
Q 1975 2500 2125 2850 
Q 2275 3200 2237 3450 
Q 2200 3700 2000 3862 
Q 1800 4025 1537 4000 
Q 1275 3975 1037 3800 
Q 800 3625 675 3275 
L 200 3350 
Q 400 3925 712 4187 
Q 1025 4450 1450 4475 
Q 1700 4500 1900 4462 
Q 2100 4425 2312 4287 
Q 2525 4150 2662 3875 
Q 2800 3600 2762 3212 
Q 2725 2825 2375 2287 
Q 2025 1750 1025 600 
L 2825 600 
L 2825 150 
L 300 150 
L 300 250 
z
" transform="scale(0.015625)"/>
        <path id="SimHei-35" d="M 550 1325 
Q 725 650 1150 575 
Q 1575 500 1837 662 
Q 2100 825 2212 1087 
Q 2325 1350 2312 1675 
Q 2300 2000 2137 2225 
Q 1975 2450 1725 2525 
Q 1475 2600 1162 2525 
Q 850 2450 650 2175 
L 225 2225 
Q 275 2375 700 4375 
L 2675 4375 
L 2675 3925 
L 1075 3925 
Q 950 3250 825 2850 
Q 1200 3025 1525 3012 
Q 1850 3000 2150 2862 
Q 2450 2725 2587 2487 
Q 2725 2250 2787 2012 
Q 2850 1775 2837 1500 
Q 2825 1225 2725 937 
Q 2625 650 2425 462 
Q 2225 275 1937 162 
Q 1650 50 1275 75 
Q 900 100 562 350 
Q 225 600 100 1200 
L 550 1325 
z
" transform="scale(0.015625)"/>
       </defs>
       <use xlink:href="#SimHei-32"/>
       <use xlink:href="#SimHei-35" transform="translate(50 0)"/>
       <use xlink:href="#SimHei-30" transform="translate(100 0)"/>
       <use xlink:href="#SimHei-30" transform="translate(150 0)"/>
      </g>
     </g>
    </g>
    <g id="xtick_3">
     <g id="line2d_5">
      <path d="M 206.685 312.12125 
L 206.685 23.7625 
" clip-path="url(#p4955468abc)" style="fill: none; stroke-dasharray: 2.96,1.28; stroke-dashoffset: 0; stroke: #b0b0b0; stroke-opacity: 0.3; stroke-width: 0.8"/>
     </g>
     <g id="line2d_6">
      <g>
       <use xlink:href="#m69a11318dd" x="206.685" y="312.12125" style="stroke: #000000; stroke-width: 0.8"/>
      </g>
     </g>
     <g id="text_3">
      <!-- 5000 -->
      <g transform="translate(195.685 326.68375) scale(0.11 -0.11)">
       <use xlink:href="#SimHei-35"/>
       <use xlink:href="#SimHei-30" transform="translate(50 0)"/>
       <use xlink:href="#SimHei-30" transform="translate(100 0)"/>
       <use xlink:href="#SimHei-30" transform="translate(150 0)"/>
      </g>
     </g>
    </g>
    <g id="xtick_4">
     <g id="line2d_7">
      <path d="M 287.122813 312.12125 
L 287.122813 23.7625 
" clip-path="url(#p4955468abc)" style="fill: none; stroke-dasharray: 2.96,1.28; stroke-dashoffset: 0; stroke: #b0b0b0; stroke-opacity: 0.3; stroke-width: 0.8"/>
     </g>
     <g id="line2d_8">
      <g>
       <use xlink:href="#m69a11318dd" x="287.122813" y="312.12125" style="stroke: #000000; stroke-width: 0.8"/>
      </g>
     </g>
     <g id="text_4">
      <!-- 7500 -->
      <g transform="translate(276.122813 326.68375) scale(0.11 -0.11)">
       <defs>
        <path id="SimHei-37" d="M 850 150 
Q 1300 2050 2425 3925 
L 275 3925 
L 275 4375 
L 2950 4375 
L 2950 3950 
Q 1775 2050 1400 150 
L 850 150 
z
" transform="scale(0.015625)"/>
       </defs>
       <use xlink:href="#SimHei-37"/>
       <use xlink:href="#SimHei-35" transform="translate(50 0)"/>
       <use xlink:href="#SimHei-30" transform="translate(100 0)"/>
       <use xlink:href="#SimHei-30" transform="translate(150 0)"/>
      </g>
     </g>
    </g>
    <g id="xtick_5">
     <g id="line2d_9">
      <path d="M 367.560625 312.12125 
L 367.560625 23.7625 
" clip-path="url(#p4955468abc)" style="fill: none; stroke-dasharray: 2.96,1.28; stroke-dashoffset: 0; stroke: #b0b0b0; stroke-opacity: 0.3; stroke-width: 0.8"/>
     </g>
     <g id="line2d_10">
      <g>
       <use xlink:href="#m69a11318dd" x="367.560625" y="312.12125" style="stroke: #000000; stroke-width: 0.8"/>
      </g>
     </g>
     <g id="text_5">
      <!-- 10000 -->
      <g transform="translate(353.810625 326.68375) scale(0.11 -0.11)">
       <defs>
        <path id="SimHei-31" d="M 1400 3600 
Q 1075 3275 575 2975 
L 575 3450 
Q 1200 3875 1600 4450 
L 1900 4450 
L 1900 150 
L 1400 150 
L 1400 3600 
z
" transform="scale(0.015625)"/>
       </defs>
       <use xlink:href="#SimHei-31"/>
       <use xlink:href="#SimHei-30" transform="translate(50 0)"/>
       <use xlink:href="#SimHei-30" transform="translate(100 0)"/>
       <use xlink:href="#SimHei-30" transform="translate(150 0)"/>
       <use xlink:href="#SimHei-30" transform="translate(200 0)"/>
      </g>
     </g>
    </g>
    <g id="xtick_6">
     <g id="line2d_11">
      <path d="M 447.998438 312.12125 
L 447.998438 23.7625 
" clip-path="url(#p4955468abc)" style="fill: none; stroke-dasharray: 2.96,1.28; stroke-dashoffset: 0; stroke: #b0b0b0; stroke-opacity: 0.3; stroke-width: 0.8"/>
     </g>
     <g id="line2d_12">
      <g>
       <use xlink:href="#m69a11318dd" x="447.998438" y="312.12125" style="stroke: #000000; stroke-width: 0.8"/>
      </g>
     </g>
     <g id="text_6">
      <!-- 12500 -->
      <g transform="translate(434.248438 326.68375) scale(0.11 -0.11)">
       <use xlink:href="#SimHei-31"/>
       <use xlink:href="#SimHei-32" transform="translate(50 0)"/>
       <use xlink:href="#SimHei-35" transform="translate(100 0)"/>
       <use xlink:href="#SimHei-30" transform="translate(150 0)"/>
       <use xlink:href="#SimHei-30" transform="translate(200 0)"/>
      </g>
     </g>
    </g>
    <g id="xtick_7">
     <g id="line2d_13">
      <path d="M 528.43625 312.12125 
L 528.43625 23.7625 
" clip-path="url(#p4955468abc)" style="fill: none; stroke-dasharray: 2.96,1.28; stroke-dashoffset: 0; stroke: #b0b0b0; stroke-opacity: 0.3; stroke-width: 0.8"/>
     </g>
     <g id="line2d_14">
      <g>
       <use xlink:href="#m69a11318dd" x="528.43625" y="312.12125" style="stroke: #000000; stroke-width: 0.8"/>
      </g>
     </g>
     <g id="text_7">
      <!-- 15000 -->
      <g transform="translate(514.68625 326.68375) scale(0.11 -0.11)">
       <use xlink:href="#SimHei-31"/>
       <use xlink:href="#SimHei-35" transform="translate(50 0)"/>
       <use xlink:href="#SimHei-30" transform="translate(100 0)"/>
       <use xlink:href="#SimHei-30" transform="translate(150 0)"/>
       <use xlink:href="#SimHei-30" transform="translate(200 0)"/>
      </g>
     </g>
    </g>
    <g id="xtick_8">
     <g id="line2d_15">
      <path d="M 608.874063 312.12125 
L 608.874063 23.7625 
" clip-path="url(#p4955468abc)" style="fill: none; stroke-dasharray: 2.96,1.28; stroke-dashoffset: 0; stroke: #b0b0b0; stroke-opacity: 0.3; stroke-width: 0.8"/>
     </g>
     <g id="line2d_16">
      <g>
       <use xlink:href="#m69a11318dd" x="608.874063" y="312.12125" style="stroke: #000000; stroke-width: 0.8"/>
      </g>
     </g>
     <g id="text_8">
      <!-- 17500 -->
      <g transform="translate(595.124063 326.68375) scale(0.11 -0.11)">
       <use xlink:href="#SimHei-31"/>
       <use xlink:href="#SimHei-37" transform="translate(50 0)"/>
       <use xlink:href="#SimHei-35" transform="translate(100 0)"/>
       <use xlink:href="#SimHei-30" transform="translate(150 0)"/>
       <use xlink:href="#SimHei-30" transform="translate(200 0)"/>
      </g>
     </g>
    </g>
    <g id="xtick_9">
     <g id="line2d_17">
      <path d="M 689.311875 312.12125 
L 689.311875 23.7625 
" clip-path="url(#p4955468abc)" style="fill: none; stroke-dasharray: 2.96,1.28; stroke-dashoffset: 0; stroke: #b0b0b0; stroke-opacity: 0.3; stroke-width: 0.8"/>
     </g>
     <g id="line2d_18">
      <g>
       <use xlink:href="#m69a11318dd" x="689.311875" y="312.12125" style="stroke: #000000; stroke-width: 0.8"/>
      </g>
     </g>
     <g id="text_9">
      <!-- 20000 -->
      <g transform="translate(675.561875 326.68375) scale(0.11 -0.11)">
       <use xlink:href="#SimHei-32"/>
       <use xlink:href="#SimHei-30" transform="translate(50 0)"/>
       <use xlink:href="#SimHei-30" transform="translate(100 0)"/>
       <use xlink:href="#SimHei-30" transform="translate(150 0)"/>
       <use xlink:href="#SimHei-30" transform="translate(200 0)"/>
      </g>
     </g>
    </g>
    <g id="text_10">
     <!-- 订货周期 -->
     <g transform="translate(343.560625 341.5275) scale(0.12 -0.12)">
      <defs>
       <path id="SimHei-8ba2" d="M 5250 4750 
Q 5525 4750 6125 4775 
L 6125 4300 
Q 5575 4325 4775 4325 
L 4775 100 
Q 4775 -350 4387 -462 
Q 4000 -575 3600 -600 
Q 3575 -275 3400 75 
Q 3825 25 4050 50 
Q 4275 75 4300 300 
L 4300 4325 
L 3225 4325 
Q 2850 4325 2450 4300 
L 2450 4775 
Q 3075 4750 3250 4750 
L 5250 4750 
z
M 1850 425 
Q 2400 900 2750 1225 
Q 2825 925 2950 725 
Q 2575 425 2175 87 
Q 1775 -250 1500 -550 
Q 1350 -325 1150 -150 
Q 1400 50 1375 400 
L 1375 2725 
L 1025 2725 
Q 600 2725 300 2700 
L 300 3175 
Q 600 3150 1025 3150 
L 1875 3150 
Q 1875 2675 1850 2250 
L 1850 425 
z
M 1150 5125 
Q 1525 4775 2150 4100 
Q 1950 3925 1725 3700 
Q 1300 4275 775 4750 
Q 1000 4950 1150 5125 
z
" transform="scale(0.015625)"/>
       <path id="SimHei-8d27" d="M 3975 5075 
Q 3950 4750 3950 4100 
Q 4075 4175 4525 4375 
Q 4975 4575 5375 4900 
Q 5550 4625 5700 4400 
Q 5425 4325 4987 4112 
Q 4550 3900 3950 3650 
L 3950 3225 
Q 3950 3025 4300 3025 
L 5125 3025 
Q 5425 3025 5487 3150 
Q 5550 3275 5575 3625 
Q 5850 3450 6125 3375 
Q 5975 2875 5825 2750 
Q 5675 2625 5475 2625 
L 4000 2625 
Q 3425 2625 3425 3125 
L 3425 3525 
Q 2900 3325 2575 3225 
Q 2425 3500 2350 3650 
Q 2750 3750 3425 3925 
Q 3425 4750 3400 5075 
L 3975 5075 
z
M 5200 2200 
Q 5175 1825 5175 1425 
Q 5175 1050 5200 600 
L 4625 600 
L 4625 1775 
L 1950 1775 
L 1950 625 
L 1400 625 
Q 1425 1025 1425 1400 
Q 1425 1800 1400 2200 
L 5200 2200 
z
M 2625 4850 
Q 2425 4700 2050 4300 
Q 2050 2900 2075 2450 
L 1500 2450 
Q 1525 2900 1525 3825 
Q 1300 3625 1100 3425 
Q 900 3225 700 3050 
Q 475 3250 325 3400 
Q 850 3725 1325 4237 
Q 1800 4750 2050 5175 
Q 2325 4925 2625 4850 
z
M 3550 1325 
Q 3425 975 3312 687 
Q 3200 400 2925 137 
Q 2650 -125 2150 -325 
Q 1650 -525 800 -675 
Q 725 -400 475 -100 
Q 1200 -75 1675 25 
Q 2150 125 2412 325 
Q 2675 525 2787 775 
Q 2900 1025 2975 1400 
Q 3250 1350 3550 1325 
z
M 5575 -675 
Q 5125 -400 4650 -187 
Q 4175 25 3575 250 
Q 3725 500 3825 725 
Q 4350 500 4800 300 
Q 5250 100 5875 -175 
Q 5700 -400 5575 -675 
z
" transform="scale(0.015625)"/>
       <path id="SimHei-5468" d="M 5600 4925 
Q 5575 4400 5575 3800 
L 5575 50 
Q 5550 -375 5325 -462 
Q 5100 -550 4325 -600 
Q 4300 -400 4125 -75 
Q 4800 -100 4962 -37 
Q 5125 25 5100 225 
L 5100 4525 
L 1500 4525 
Q 1500 2575 1450 1887 
Q 1400 1200 1237 550 
Q 1075 -100 775 -625 
Q 625 -450 275 -225 
Q 650 225 825 1000 
Q 1000 1775 1025 2587 
Q 1050 3400 1000 4925 
L 5600 4925 
z
M 2050 325 
Q 2075 625 2075 950 
L 2075 1400 
Q 2075 1625 2050 1925 
L 4400 1925 
Q 4375 1725 4375 1450 
L 4375 875 
Q 4375 600 4400 325 
L 2050 325 
z
M 3000 3800 
Q 3000 4150 2975 4375 
L 3475 4375 
Q 3450 4075 3450 3800 
Q 4100 3800 4475 3825 
L 4475 3350 
Q 4125 3375 3450 3375 
L 3450 2800 
Q 4200 2800 4825 2825 
L 4825 2350 
Q 4175 2375 3725 2375 
L 2750 2375 
Q 2325 2375 1725 2350 
L 1725 2825 
Q 2325 2800 3000 2800 
L 3000 3375 
Q 2500 3375 1975 3350 
L 1975 3825 
Q 2475 3800 3000 3800 
z
M 3900 725 
L 3900 1525 
L 2550 1525 
L 2550 725 
L 3900 725 
z
" transform="scale(0.015625)"/>
       <path id="SimHei-671f" d="M 4900 -25 
Q 5475 -100 5425 175 
L 5425 1575 
L 4325 1575 
Q 4275 975 4050 425 
Q 3825 -125 3400 -600 
Q 3225 -375 2925 -275 
Q 3350 150 3562 625 
Q 3775 1100 3812 1575 
Q 3850 2050 3850 3125 
Q 3850 4225 3825 4875 
L 5950 4875 
Q 5925 4400 5925 3725 
L 5925 50 
Q 5925 -300 5700 -425 
Q 5475 -550 5100 -600 
Q 5100 -325 4900 -25 
z
M 950 4300 
Q 950 4675 925 5125 
L 1450 5125 
Q 1425 4625 1425 4300 
L 2550 4300 
Q 2550 4775 2525 5125 
L 3075 5125 
Q 3050 4700 3050 4300 
Q 3225 4300 3500 4325 
L 3500 3900 
Q 3250 3925 3050 3925 
L 3050 1550 
Q 3250 1550 3500 1575 
L 3500 1150 
Q 3025 1175 2575 1175 
L 1225 1175 
Q 675 1175 275 1150 
L 275 1575 
Q 650 1550 950 1550 
L 950 3925 
Q 725 3925 425 3900 
L 425 4325 
Q 700 4300 950 4300 
z
M 5425 3375 
L 5425 4500 
L 4350 4500 
L 4350 3375 
L 5425 3375 
z
M 5425 1950 
L 5425 3000 
L 4350 3000 
L 4350 1950 
L 5425 1950 
z
M 1600 725 
Q 1425 650 1162 287 
Q 900 -75 650 -350 
Q 400 -175 225 -75 
Q 450 100 700 412 
Q 950 725 1100 1025 
L 1600 725 
z
M 2550 3375 
L 2550 3925 
L 1425 3925 
L 1425 3375 
L 2550 3375 
z
M 2550 1550 
L 2550 2100 
L 1425 2100 
L 1425 1550 
L 2550 1550 
z
M 2550 2475 
L 2550 3000 
L 1425 3000 
L 1425 2475 
L 2550 2475 
z
M 2850 -75 
Q 2450 525 2225 725 
Q 2375 825 2550 1025 
Q 2850 725 3250 275 
Q 3050 125 2850 -75 
z
" transform="scale(0.015625)"/>
      </defs>
      <use xlink:href="#SimHei-8ba2"/>
      <use xlink:href="#SimHei-8d27" transform="translate(100 0)"/>
      <use xlink:href="#SimHei-5468" transform="translate(200 0)"/>
      <use xlink:href="#SimHei-671f" transform="translate(300 0)"/>
     </g>
    </g>
   </g>
   <g id="matplotlib.axis_2">
    <g id="ytick_1">
     <g id="line2d_19">
      <path d="M 45.809375 312.12125 
L 689.311875 312.12125 
" clip-path="url(#p4955468abc)" style="fill: none; stroke-dasharray: 2.96,1.28; stroke-dashoffset: 0; stroke: #b0b0b0; stroke-opacity: 0.3; stroke-width: 0.8"/>
     </g>
     <g id="line2d_20">
      <defs>
       <path id="m5fe8df3e0c" d="M 0 0 
L -3.5 0 
" style="stroke: #000000; stroke-width: 0.8"/>
      </defs>
      <g>
       <use xlink:href="#m5fe8df3e0c" x="45.809375" y="312.12125" style="stroke: #000000; stroke-width: 0.8"/>
      </g>
     </g>
     <g id="text_11">
      <!-- 70 -->
      <g transform="translate(27.809375 315.9025) scale(0.11 -0.11)">
       <use xlink:href="#SimHei-37"/>
       <use xlink:href="#SimHei-30" transform="translate(50 0)"/>
      </g>
     </g>
    </g>
    <g id="ytick_2">
     <g id="line2d_21">
      <path d="M 45.809375 267.065195 
L 689.311875 267.065195 
" clip-path="url(#p4955468abc)" style="fill: none; stroke-dasharray: 2.96,1.28; stroke-dashoffset: 0; stroke: #b0b0b0; stroke-opacity: 0.3; stroke-width: 0.8"/>
     </g>
     <g id="line2d_22">
      <g>
       <use xlink:href="#m5fe8df3e0c" x="45.809375" y="267.065195" style="stroke: #000000; stroke-width: 0.8"/>
      </g>
     </g>
     <g id="text_12">
      <!-- 75 -->
      <g transform="translate(27.809375 270.846445) scale(0.11 -0.11)">
       <use xlink:href="#SimHei-37"/>
       <use xlink:href="#SimHei-35" transform="translate(50 0)"/>
      </g>
     </g>
    </g>
    <g id="ytick_3">
     <g id="line2d_23">
      <path d="M 45.809375 222.009141 
L 689.311875 222.009141 
" clip-path="url(#p4955468abc)" style="fill: none; stroke-dasharray: 2.96,1.28; stroke-dashoffset: 0; stroke: #b0b0b0; stroke-opacity: 0.3; stroke-width: 0.8"/>
     </g>
     <g id="line2d_24">
      <g>
       <use xlink:href="#m5fe8df3e0c" x="45.809375" y="222.009141" style="stroke: #000000; stroke-width: 0.8"/>
      </g>
     </g>
     <g id="text_13">
      <!-- 80 -->
      <g transform="translate(27.809375 225.790391) scale(0.11 -0.11)">
       <defs>
        <path id="SimHei-38" d="M 175 1375 
Q 175 1675 325 1962 
Q 475 2250 825 2425 
Q 525 2600 425 2812 
Q 325 3025 312 3300 
Q 300 3575 387 3775 
Q 475 3975 650 4150 
Q 825 4325 1037 4387 
Q 1250 4450 1500 4450 
Q 1750 4450 1950 4400 
Q 2150 4350 2375 4187 
Q 2600 4025 2700 3725 
Q 2800 3425 2687 3025 
Q 2575 2625 2100 2400 
Q 2525 2275 2700 2012 
Q 2875 1750 2875 1375 
Q 2875 1000 2762 775 
Q 2650 550 2512 400 
Q 2375 250 2137 162 
Q 1900 75 1537 75 
Q 1175 75 912 162 
Q 650 250 475 425 
Q 300 600 237 837 
Q 175 1075 175 1375 
z
M 687 1400 
Q 675 1100 787 875 
Q 900 650 1200 587 
Q 1500 525 1825 600 
Q 2150 675 2275 950 
Q 2400 1225 2362 1500 
Q 2325 1775 2050 1962 
Q 1775 2150 1450 2125 
Q 1125 2100 912 1900 
Q 700 1700 687 1400 
z
M 775 3350 
Q 775 3100 950 2875 
Q 1125 2650 1500 2650 
Q 1875 2650 2062 2875 
Q 2250 3100 2237 3412 
Q 2225 3725 2012 3875 
Q 1800 4025 1437 4000 
Q 1075 3975 925 3787 
Q 775 3600 775 3350 
z
" transform="scale(0.015625)"/>
       </defs>
       <use xlink:href="#SimHei-38"/>
       <use xlink:href="#SimHei-30" transform="translate(50 0)"/>
      </g>
     </g>
    </g>
    <g id="ytick_4">
     <g id="line2d_25">
      <path d="M 45.809375 176.953086 
L 689.311875 176.953086 
" clip-path="url(#p4955468abc)" style="fill: none; stroke-dasharray: 2.96,1.28; stroke-dashoffset: 0; stroke: #b0b0b0; stroke-opacity: 0.3; stroke-width: 0.8"/>
     </g>
     <g id="line2d_26">
      <g>
       <use xlink:href="#m5fe8df3e0c" x="45.809375" y="176.953086" style="stroke: #000000; stroke-width: 0.8"/>
      </g>
     </g>
     <g id="text_14">
      <!-- 85 -->
      <g transform="translate(27.809375 180.734336) scale(0.11 -0.11)">
       <use xlink:href="#SimHei-38"/>
       <use xlink:href="#SimHei-35" transform="translate(50 0)"/>
      </g>
     </g>
    </g>
    <g id="ytick_5">
     <g id="line2d_27">
      <path d="M 45.809375 131.897031 
L 689.311875 131.897031 
" clip-path="url(#p4955468abc)" style="fill: none; stroke-dasharray: 2.96,1.28; stroke-dashoffset: 0; stroke: #b0b0b0; stroke-opacity: 0.3; stroke-width: 0.8"/>
     </g>
     <g id="line2d_28">
      <g>
       <use xlink:href="#m5fe8df3e0c" x="45.809375" y="131.897031" style="stroke: #000000; stroke-width: 0.8"/>
      </g>
     </g>
     <g id="text_15">
      <!-- 90 -->
      <g transform="translate(27.809375 135.678281) scale(0.11 -0.11)">
       <defs>
        <path id="SimHei-39" d="M 800 75 
Q 1350 1000 1700 1750 
Q 1075 1650 662 1912 
Q 250 2175 162 2625 
Q 75 3075 175 3437 
Q 275 3800 487 4037 
Q 700 4275 1000 4375 
Q 1300 4475 1537 4475 
Q 1775 4475 2025 4375 
Q 2275 4275 2475 4075 
Q 2675 3875 2750 3662 
Q 2825 3450 2825 3112 
Q 2825 2775 2575 2250 
Q 2325 1725 1350 75 
L 800 75 
z
M 662 2875 
Q 700 2550 937 2337 
Q 1175 2125 1450 2150 
Q 1725 2175 1887 2300 
Q 2050 2425 2200 2725 
Q 2300 3100 2250 3362 
Q 2200 3625 1987 3800 
Q 1775 3975 1525 3975 
Q 1375 4000 1137 3900 
Q 900 3800 762 3500 
Q 625 3200 662 2875 
z
" transform="scale(0.015625)"/>
       </defs>
       <use xlink:href="#SimHei-39"/>
       <use xlink:href="#SimHei-30" transform="translate(50 0)"/>
      </g>
     </g>
    </g>
    <g id="ytick_6">
     <g id="line2d_29">
      <path d="M 45.809375 86.840977 
L 689.311875 86.840977 
" clip-path="url(#p4955468abc)" style="fill: none; stroke-dasharray: 2.96,1.28; stroke-dashoffset: 0; stroke: #b0b0b0; stroke-opacity: 0.3; stroke-width: 0.8"/>
     </g>
     <g id="line2d_30">
      <g>
       <use xlink:href="#m5fe8df3e0c" x="45.809375" y="86.840977" style="stroke: #000000; stroke-width: 0.8"/>
      </g>
     </g>
     <g id="text_16">
      <!-- 95 -->
      <g transform="translate(27.809375 90.622227) scale(0.11 -0.11)">
       <use xlink:href="#SimHei-39"/>
       <use xlink:href="#SimHei-35" transform="translate(50 0)"/>
      </g>
     </g>
    </g>
    <g id="ytick_7">
     <g id="line2d_31">
      <path d="M 45.809375 41.784922 
L 689.311875 41.784922 
" clip-path="url(#p4955468abc)" style="fill: none; stroke-dasharray: 2.96,1.28; stroke-dashoffset: 0; stroke: #b0b0b0; stroke-opacity: 0.3; stroke-width: 0.8"/>
     </g>
     <g id="line2d_32">
      <g>
       <use xlink:href="#m5fe8df3e0c" x="45.809375" y="41.784922" style="stroke: #000000; stroke-width: 0.8"/>
      </g>
     </g>
     <g id="text_17">
      <!-- 100 -->
      <g transform="translate(22.309375 45.566172) scale(0.11 -0.11)">
       <use xlink:href="#SimHei-31"/>
       <use xlink:href="#SimHei-30" transform="translate(50 0)"/>
       <use xlink:href="#SimHei-30" transform="translate(100 0)"/>
      </g>
     </g>
    </g>
    <g id="text_18">
     <!-- 服务水平 SL (%) -->
     <g transform="translate(16.809375 212.941875) rotate(-90) scale(0.12 -0.12)">
      <defs>
       <path id="SimHei-670d" d="M 3700 -575 
L 3225 -575 
Q 3250 25 3250 550 
L 3250 4025 
Q 3250 4450 3225 4950 
L 5550 4950 
Q 5525 4600 5500 4187 
Q 5475 3775 5425 3562 
Q 5375 3350 5125 3250 
Q 4875 3150 4475 3100 
Q 4400 3400 4250 3600 
Q 4875 3600 4950 3737 
Q 5025 3875 5025 4525 
L 3700 4525 
L 3700 2850 
L 5775 2850 
Q 5675 2200 5525 1687 
Q 5375 1175 5125 675 
Q 5550 175 6100 -75 
Q 5925 -225 5750 -500 
Q 5275 -175 4850 300 
Q 4550 -125 4025 -600 
Q 3900 -375 3750 -200 
Q 4100 50 4525 650 
Q 4200 1075 3875 2425 
L 3700 2425 
L 3700 -575 
z
M 2675 4925 
Q 2650 4725 2650 4000 
L 2650 300 
Q 2650 -225 2425 -337 
Q 2200 -450 1800 -550 
Q 1700 -175 1550 50 
Q 1900 50 2050 75 
Q 2200 100 2200 450 
L 2200 1700 
L 1225 1700 
Q 1175 1075 1050 550 
Q 925 25 700 -475 
Q 500 -300 225 -175 
Q 525 375 637 862 
Q 750 1350 787 1850 
Q 825 2350 825 3425 
Q 825 4500 800 4925 
L 2675 4925 
z
M 2200 2125 
L 2200 3125 
L 1275 3125 
L 1250 2125 
L 2200 2125 
z
M 2200 3550 
L 2200 4500 
L 1275 4500 
L 1275 3550 
L 2200 3550 
z
M 4325 2425 
Q 4525 1475 4800 1050 
Q 5100 1625 5225 2425 
L 4325 2425 
z
" transform="scale(0.015625)"/>
       <path id="SimHei-52a1" d="M 2850 4950 
Q 2650 4775 2500 4550 
L 5275 4550 
Q 5050 4175 4687 3750 
Q 4325 3325 3775 2950 
Q 4125 2725 4725 2612 
Q 5325 2500 6150 2475 
Q 5950 2250 5875 1950 
Q 5175 2000 4500 2200 
Q 3825 2400 3375 2675 
Q 2575 2300 1925 2125 
Q 1275 1950 650 1850 
Q 550 2150 350 2375 
Q 900 2375 1600 2525 
Q 2300 2675 2975 2950 
Q 2450 3450 2075 3975 
Q 1650 3450 1200 3100 
Q 1025 3300 750 3400 
Q 1450 3900 1775 4362 
Q 2100 4825 2250 5225 
Q 2575 5050 2850 4950 
z
M 2800 1650 
Q 2850 1950 2850 2350 
Q 3150 2300 3450 2275 
Q 3375 2125 3300 1650 
L 5325 1650 
Q 5300 1350 5275 962 
Q 5250 575 5187 125 
Q 5125 -325 4825 -400 
Q 4525 -475 3875 -550 
Q 3825 -225 3625 0 
Q 4350 0 4500 50 
Q 4650 100 4700 325 
L 4775 1275 
L 3250 1275 
Q 2900 200 2262 -125 
Q 1625 -450 900 -700 
Q 825 -475 550 -175 
Q 1150 -125 1800 200 
Q 2450 525 2725 1275 
L 2150 1275 
Q 1400 1275 1050 1225 
L 1050 1675 
Q 1425 1650 2175 1650 
L 2800 1650 
z
M 3400 3225 
Q 3900 3525 4375 4175 
L 2500 4175 
Q 2975 3550 3400 3225 
z
" transform="scale(0.015625)"/>
       <path id="SimHei-6c34" d="M 3450 5175 
Q 3450 4800 3437 4500 
Q 3425 4200 3487 3762 
Q 3550 3325 3950 2725 
Q 4975 3575 5175 4050 
Q 5450 3800 5675 3575 
Q 5350 3350 5037 3075 
Q 4725 2800 4175 2325 
Q 4375 1900 4900 1375 
Q 5425 850 6175 625 
Q 5750 425 5675 125 
Q 4725 700 4212 1400 
Q 3700 2100 3425 2800 
L 3425 25 
Q 3450 -325 3162 -475 
Q 2875 -625 2400 -675 
Q 2375 -400 2175 -75 
Q 2575 -150 2750 -100 
Q 2925 -50 2925 225 
L 2925 4175 
Q 2925 4800 2875 5175 
L 3450 5175 
z
M 2550 3575 
Q 2425 2900 2237 2362 
Q 2050 1825 1737 1300 
Q 1425 775 750 100 
Q 575 325 225 450 
Q 925 950 1337 1600 
Q 1750 2250 1950 3125 
L 1275 3125 
Q 900 3125 425 3075 
L 425 3600 
Q 875 3575 1250 3575 
L 2550 3575 
z
" transform="scale(0.015625)"/>
       <path id="SimHei-5e73" d="M 4525 4825 
Q 4900 4825 5450 4850 
L 5450 4375 
Q 4925 4400 4525 4400 
L 3475 4400 
L 3475 2025 
L 5000 2025 
Q 5550 2025 6025 2050 
L 6025 1575 
Q 5550 1600 5000 1600 
L 3475 1600 
L 3475 450 
Q 3475 -100 3500 -600 
L 2925 -600 
Q 2950 -100 2950 450 
L 2950 1600 
L 1125 1600 
Q 775 1600 375 1575 
L 375 2050 
Q 775 2025 1175 2025 
L 2950 2025 
L 2950 4400 
L 1775 4400 
Q 1400 4400 875 4375 
L 875 4850 
Q 1400 4825 1750 4825 
L 4525 4825 
z
M 3925 2600 
Q 4500 3300 4900 4125 
Q 5150 3950 5400 3825 
Q 4775 2850 4350 2300 
Q 4150 2475 3925 2600 
z
M 1975 2350 
Q 1600 3100 1050 3725 
Q 1250 3875 1450 4050 
Q 2075 3300 2450 2725 
Q 2150 2500 1975 2350 
z
" transform="scale(0.015625)"/>
       <path id="SimHei-20" transform="scale(0.015625)"/>
       <path id="SimHei-53" d="M 2900 1325 
Q 2900 750 2537 412 
Q 2175 75 1550 75 
Q 925 75 575 425 
Q 225 775 225 1300 
L 225 1475 
L 800 1475 
L 800 1325 
Q 800 950 1025 750 
Q 1250 550 1550 550 
Q 1950 550 2137 762 
Q 2325 975 2325 1275 
Q 2325 1525 2100 1737 
Q 1875 1950 1450 2125 
Q 850 2350 587 2625 
Q 325 2900 325 3275 
Q 325 3800 687 4125 
Q 1050 4450 1550 4450 
Q 2200 4450 2487 4062 
Q 2775 3675 2775 3225 
L 2200 3225 
Q 2225 3500 2050 3725 
Q 1875 3950 1550 3950 
Q 1250 3950 1075 3787 
Q 900 3625 900 3350 
Q 900 3125 1037 2962 
Q 1175 2800 1750 2575 
Q 2300 2350 2600 2037 
Q 2900 1725 2900 1325 
z
" transform="scale(0.015625)"/>
       <path id="SimHei-4c" d="M 2900 125 
L 300 125 
L 300 4400 
L 875 4400 
L 875 600 
L 2900 600 
L 2900 125 
z
" transform="scale(0.015625)"/>
       <path id="SimHei-28" d="M 2975 -200 
L 2700 -475 
Q 2075 125 1762 775 
Q 1450 1425 1450 2250 
Q 1450 3075 1762 3725 
Q 2075 4375 2700 5000 
L 2975 4725 
Q 2400 4175 2112 3587 
Q 1825 3000 1825 2250 
Q 1825 1500 2112 912 
Q 2400 325 2975 -200 
z
" transform="scale(0.015625)"/>
       <path id="SimHei-25" d="M 1400 3325 
Q 1400 2600 1187 2400 
Q 975 2200 775 2200 
Q 575 2200 362 2400 
Q 150 2600 150 3325 
Q 150 4050 362 4250 
Q 575 4450 775 4450 
Q 975 4450 1187 4250 
Q 1400 4050 1400 3325 
z
M 2625 4375 
L 700 75 
L 500 150 
L 2425 4450 
L 2625 4375 
z
M 2975 1200 
Q 2975 475 2762 275 
Q 2550 75 2350 75 
Q 2150 75 1937 275 
Q 1725 475 1725 1200 
Q 1725 1925 1937 2125 
Q 2150 2325 2350 2325 
Q 2550 2325 2762 2125 
Q 2975 1925 2975 1200 
z
M 1000 3325 
Q 1000 3775 950 3925 
Q 900 4075 775 4075 
Q 650 4075 600 3925 
Q 550 3775 550 3325 
Q 550 2875 600 2725 
Q 650 2575 775 2575 
Q 900 2575 950 2725 
Q 1000 2875 1000 3325 
z
M 2575 1200 
Q 2575 1650 2525 1800 
Q 2475 1950 2350 1950 
Q 2225 1950 2175 1800 
Q 2125 1650 2125 1200 
Q 2125 750 2175 600 
Q 2225 450 2350 450 
Q 2475 450 2525 600 
Q 2575 750 2575 1200 
z
" transform="scale(0.015625)"/>
       <path id="SimHei-29" d="M 1675 2250 
Q 1675 1425 1362 775 
Q 1050 125 425 -475 
L 150 -200 
Q 725 325 1012 912 
Q 1300 1500 1300 2250 
Q 1300 3000 1012 3587 
Q 725 4175 150 4725 
L 425 5000 
Q 1050 4375 1362 3725 
Q 1675 3075 1675 2250 
z
" transform="scale(0.015625)"/>
      </defs>
      <use xlink:href="#SimHei-670d"/>
      <use xlink:href="#SimHei-52a1" transform="translate(100 0)"/>
      <use xlink:href="#SimHei-6c34" transform="translate(200 0)"/>
      <use xlink:href="#SimHei-5e73" transform="translate(300 0)"/>
      <use xlink:href="#SimHei-20" transform="translate(400 0)"/>
      <use xlink:href="#SimHei-53" transform="translate(450 0)"/>
      <use xlink:href="#SimHei-4c" transform="translate(500 0)"/>
      <use xlink:href="#SimHei-20" transform="translate(550 0)"/>
      <use xlink:href="#SimHei-28" transform="translate(600 0)"/>
      <use xlink:href="#SimHei-25" transform="translate(650 0)"/>
      <use xlink:href="#SimHei-29" transform="translate(700 0)"/>
     </g>
    </g>
   </g>
   <g id="line2d_33">
    <path d="M 46.02337 351.2275 
L 46.131126 264.10836 
L 46.452877 158.240056 
L 46.774629 140.747036 
L 47.09638 116.609935 
L 47.418131 112.787744 
L 48.061634 93.879951 
L 48.705136 82.430494 
L 49.348639 75.106968 
L 49.992141 72.63547 
L 50.313893 74.280577 
L 50.957395 70.24385 
L 51.600898 67.099217 
L 52.2444 64.968115 
L 52.566151 66.649518 
L 52.887903 67.514784 
L 53.209654 69.323991 
L 54.174908 66.15858 
L 54.496659 65.964644 
L 54.81841 66.646003 
L 55.140161 65.791671 
L 55.461913 67.304777 
L 55.783664 67.086127 
L 56.105415 66.297927 
L 56.427166 65.964801 
L 57.714171 63.357806 
L 58.035923 63.47252 
L 58.679425 62.390844 
L 59.001176 62.081892 
L 59.96643 60.701146 
L 60.288181 60.770013 
L 60.609933 61.435018 
L 60.931684 61.017818 
L 61.253435 60.906108 
L 62.862191 59.10562 
L 64.149196 57.899244 
L 64.470948 57.793905 
L 65.436201 57.12296 
L 65.757953 56.875971 
L 66.079704 56.819812 
L 67.366709 55.957225 
L 69.297216 54.989639 
L 69.618968 55.220363 
L 70.26247 54.867264 
L 70.584221 55.123021 
L 71.871226 54.465162 
L 72.192978 54.69229 
L 72.514729 54.536966 
L 72.83648 54.507343 
L 73.479983 54.756255 
L 73.801734 54.607331 
L 74.123485 54.731981 
L 75.732241 54.08558 
L 76.053993 54.518807 
L 76.375744 54.566158 
L 77.662749 54.050266 
L 77.9845 54.378256 
L 78.306251 54.377045 
L 79.593256 53.897801 
L 79.915008 54.185759 
L 80.236759 54.316837 
L 81.845515 53.757875 
L 82.167266 54.130274 
L 83.776023 53.700631 
L 84.097774 53.628622 
L 84.419525 53.671196 
L 84.741276 53.98603 
L 85.384779 53.787799 
L 85.70653 53.934583 
L 86.028281 53.837464 
L 86.671784 53.821893 
L 87.315286 53.727112 
L 89.567545 53.199472 
L 90.532799 53.300379 
L 90.85455 53.218185 
L 91.176301 53.334355 
L 94.072063 52.687689 
L 94.715565 52.639288 
L 95.680819 52.429338 
L 96.00257 52.613948 
L 96.967824 52.409755 
L 97.289575 52.49209 
L 97.611326 52.425627 
L 97.933078 52.680376 
L 98.57658 52.647507 
L 101.794093 52.023579 
L 102.115844 52.389078 
L 102.759346 52.561081 
L 103.7246 52.381578 
L 104.046351 52.634478 
L 104.689854 52.515969 
L 105.011605 52.700093 
L 107.263864 52.351698 
L 107.907366 52.316388 
L 108.229118 52.26213 
L 108.550869 52.518904 
L 108.87262 52.464167 
L 109.194371 52.802311 
L 109.516123 52.875625 
L 111.44663 52.555158 
L 112.411884 52.857593 
L 113.698889 52.755586 
L 114.342391 53.054096 
L 116.59465 52.695694 
L 117.238153 53.218409 
L 117.559904 53.44559 
L 119.490411 53.157241 
L 119.812163 53.240318 
L 120.133914 53.190749 
L 120.455665 53.257364 
L 120.777416 53.208147 
L 121.099168 53.359493 
L 122.707924 53.117448 
L 123.029675 53.196085 
L 124.31668 53.009094 
L 124.638431 53.078665 
L 124.960183 53.032774 
L 125.281934 53.163451 
L 125.603685 53.117588 
L 125.925436 53.289382 
L 127.855944 53.093073 
L 128.821198 52.961634 
L 129.142949 53.125817 
L 131.716959 52.811677 
L 132.360461 52.839702 
L 133.325715 52.915123 
L 133.647466 52.908688 
L 133.969218 53.068654 
L 136.543228 52.835516 
L 136.864979 52.980925 
L 139.117238 52.762244 
L 141.369496 52.544562 
L 142.012999 52.574922 
L 143.300004 52.432527 
L 144.265258 52.566319 
L 145.230511 52.618885 
L 149.735029 52.224214 
L 150.378531 52.235068 
L 151.987288 52.129021 
L 152.309039 52.298259 
L 154.561298 52.172585 
L 154.883049 52.278434 
L 159.709318 51.900039 
L 160.031069 52.037377 
L 162.283328 51.902127 
L 163.570333 51.949907 
L 164.213835 51.894678 
L 164.535586 52.015068 
L 165.822591 51.988393 
L 166.787845 51.958434 
L 170.64886 51.71443 
L 171.292363 51.753179 
L 175.475129 51.50504 
L 176.762134 51.698269 
L 179.336144 51.58458 
L 180.301398 51.653747 
L 183.51891 51.528854 
L 184.484164 51.559368 
L 185.449418 51.537989 
L 187.701676 51.481137 
L 195.101955 51.515001 
L 196.710711 51.448776 
L 197.354214 51.515571 
L 198.319468 51.510095 
L 199.284721 51.591925 
L 200.571726 51.619109 
L 202.502234 51.517101 
L 204.754493 51.459639 
L 205.076244 51.59559 
L 210.224264 51.356608 
L 210.546015 51.463395 
L 214.40703 51.339001 
L 215.050533 51.377477 
L 217.302791 51.315997 
L 218.589796 51.456855 
L 222.772563 51.439209 
L 225.024821 51.566344 
L 225.990075 51.60584 
L 233.068603 51.563496 
L 234.99911 51.548858 
L 237.251369 51.612675 
L 244.008145 51.362192 
L 244.651648 51.425322 
L 246.260404 51.393997 
L 246.903906 51.43378 
L 251.086673 51.318302 
L 251.730175 51.385245 
L 254.625936 51.357138 
L 262.991469 51.200621 
L 264.278474 51.181851 
L 265.243728 51.187087 
L 265.88723 51.23972 
L 270.713499 51.11481 
L 272.644006 51.270175 
L 273.931011 51.244943 
L 275.218016 51.282082 
L 276.18327 51.37424 
L 278.113778 51.425101 
L 280.687788 51.400225 
L 281.33129 51.43083 
L 284.548803 51.3925 
L 286.47931 51.491785 
L 289.375071 51.439395 
L 290.018574 51.492298 
L 296.131848 51.355758 
L 299.992863 51.315106 
L 302.245121 51.335852 
L 305.462634 51.499999 
L 310.610654 51.41467 
L 313.506415 51.550123 
L 315.436923 51.574818 
L 318.010933 51.614329 
L 323.158953 51.605356 
L 324.767709 51.64017 
L 328.306973 51.627439 
L 335.3855 51.469052 
L 336.994256 51.600499 
L 338.924764 51.643308 
L 341.177023 51.687232 
L 345.038038 51.641892 
L 348.25555 51.768764 
L 352.116565 51.72477 
L 353.725321 51.722857 
L 357.264585 51.697504 
L 364.664864 51.542925 
L 366.27362 51.550984 
L 378.821919 51.620033 
L 386.543949 51.488648 
L 387.830954 51.530338 
L 395.231233 51.405805 
L 396.518238 51.406844 
L 401.344506 51.38314 
L 435.128388 51.337034 
L 436.415393 51.364788 
L 440.598159 51.372432 
L 442.206915 51.356334 
L 446.711433 51.38351 
L 447.354935 51.446036 
L 449.607194 51.457067 
L 450.572448 51.488123 
L 452.181204 51.509149 
L 458.93798 51.458602 
L 463.764249 51.430375 
L 465.694756 51.469253 
L 470.521025 51.435466 
L 471.486279 51.462248 
L 478.886558 51.391666 
L 486.930339 51.461908 
L 491.434856 51.471488 
L 519.427215 51.468856 
L 524.575235 51.482641 
L 534.227773 51.509216 
L 537.445285 51.534562 
L 539.054041 51.553472 
L 540.984549 51.613602 
L 542.271554 51.646513 
L 549.02833 51.611673 
L 551.924091 51.626579 
L 557.393863 51.613693 
L 558.680868 51.627327 
L 562.863634 51.632872 
L 564.150639 51.649529 
L 571.872669 51.584491 
L 573.159674 51.618078 
L 578.629445 51.622529 
L 580.559953 51.643149 
L 588.603734 51.573461 
L 589.890739 51.594589 
L 592.7865 51.63617 
L 595.038759 51.671204 
L 602.117286 51.657325 
L 607.587058 51.644331 
L 608.23056 51.694805 
L 611.448073 51.734706 
L 613.056829 51.730001 
L 633.327158 51.753858 
L 635.257665 51.743548 
L 647.805964 51.632648 
L 651.98873 51.646848 
L 658.102004 51.650499 
L 660.676014 51.636933 
L 679.015835 51.449088 
L 681.268094 51.444031 
L 688.990124 51.499579 
L 688.990124 51.499579 
" clip-path="url(#p4955468abc)" style="fill: none; stroke: #e74c3c; stroke-opacity: 0.85; stroke-width: 1.2; stroke-linecap: square"/>
   </g>
   <g id="line2d_34">
    <path d="M 46.026628 351.2275 
L 46.131126 268.009133 
L 46.452877 160.283318 
L 47.09638 107.327743 
L 47.739883 85.838293 
L 48.383385 74.960918 
L 49.026888 68.885411 
L 49.348639 66.443926 
L 49.67039 65.668168 
L 49.992141 63.845019 
L 50.313893 65.677529 
L 51.279146 61.485844 
L 52.2444 58.545408 
L 53.209654 56.368721 
L 54.174908 54.692422 
L 54.496659 54.216131 
L 54.81841 54.237042 
L 56.105415 52.685376 
L 57.39242 51.477569 
L 58.679425 50.510722 
L 59.001176 51.333314 
L 60.609933 50.297696 
L 62.54044 49.317338 
L 62.862191 49.175485 
L 63.183943 49.279751 
L 64.149196 48.885977 
L 64.470948 49.216298 
L 65.436201 48.851419 
L 65.757953 48.939195 
L 67.366709 48.406089 
L 67.68846 49.247989 
L 70.584221 48.376814 
L 71.227724 48.210141 
L 71.549475 48.453975 
L 75.088739 47.648711 
L 77.662749 47.175347 
L 77.9845 47.425954 
L 78.306251 47.903791 
L 79.593256 47.670913 
L 79.915008 47.880783 
L 80.236759 47.823866 
L 80.55851 48.034286 
L 85.70653 47.228566 
L 86.671784 47.100077 
L 86.993535 47.261057 
L 89.567545 46.939168 
L 89.889296 47.106271 
L 94.072063 46.645395 
L 94.393814 46.804204 
L 97.611326 46.49264 
L 97.933078 47.220193 
L 102.115844 46.873259 
L 102.437595 46.986521 
L 109.837874 46.420465 
L 110.159625 46.596138 
L 115.307645 46.315908 
L 115.629396 46.421968 
L 127.212441 45.762412 
L 129.142949 45.670305 
L 129.4647 45.837334 
L 131.716959 45.73113 
L 132.03871 45.926009 
L 136.543228 45.820824 
L 146.517516 45.48766 
L 146.839268 45.740592 
L 149.091526 45.654358 
L 149.413278 45.806357 
L 154.561298 45.697271 
L 155.2048 45.770272 
L 162.92683 45.507574 
L 163.248581 45.643803 
L 164.213835 45.612354 
L 164.857338 45.704423 
L 168.396601 45.636953 
L 168.718353 45.76476 
L 174.509875 45.637523 
L 175.153378 45.712607 
L 175.475129 45.702863 
L 175.79688 45.835318 
L 184.162413 45.637482 
L 184.805915 45.726308 
L 195.745458 45.464201 
L 196.38896 45.548109 
L 208.615508 45.288304 
L 208.937259 45.433487 
L 222.12906 45.233674 
L 223.094314 45.255179 
L 226.633578 45.187268 
L 227.27708 45.289042 
L 236.286115 45.186646 
L 237.251369 45.379494 
L 246.260404 45.21869 
L 246.903906 45.318633 
L 253.660683 45.295755 
L 254.625936 45.322537 
L 262.991469 45.19982 
L 263.31322 45.317848 
L 275.218016 45.210352 
L 276.18327 45.241586 
L 280.366036 45.224286 
L 281.33129 45.338788 
L 299.34936 45.170782 
L 299.992863 45.223514 
L 316.723928 45.102541 
L 318.010933 45.11793 
L 330.23748 45.038842 
L 331.202734 45.110915 
L 343.10753 45.053292 
L 344.072784 45.083226 
L 364.986615 44.956693 
L 366.27362 44.973311 
L 393.622476 44.80475 
L 394.265979 44.882709 
L 424.188845 44.727727 
L 430.302119 44.781026 
L 431.267373 44.827495 
L 449.285443 44.77343 
L 450.250696 44.813079 
L 464.086 44.792059 
L 465.051254 44.834629 
L 475.669045 44.849195 
L 476.95605 44.876026 
L 505.27016 44.78414 
L 523.931733 44.721343 
L 524.575235 44.775779 
L 550.637086 44.717242 
L 555.463355 44.728869 
L 574.76843 44.698408 
L 576.055435 44.722619 
L 605.978301 44.668036 
L 645.875456 44.566925 
L 648.449466 44.570707 
L 687.059616 44.496173 
L 688.990124 44.508222 
L 688.990124 44.508222 
" clip-path="url(#p4955468abc)" style="fill: none; stroke: #e67e22; stroke-opacity: 0.85; stroke-width: 1.2; stroke-linecap: square"/>
   </g>
   <g id="line2d_35">
    <path d="M 46.12318 351.2275 
L 46.452877 201.579023 
L 46.774629 150.032539 
L 47.09638 123.630681 
L 47.418131 107.582493 
L 48.061634 89.838431 
L 48.705136 79.27722 
L 49.348639 72.521851 
L 49.992141 67.82919 
L 50.313893 67.910756 
L 51.279146 63.327276 
L 52.2444 60.112 
L 53.209654 57.73186 
L 54.174908 55.898878 
L 55.461913 54.023269 
L 56.748918 52.587686 
L 58.035923 51.453538 
L 59.644679 50.331889 
L 61.575186 49.287453 
L 63.827445 48.351308 
L 66.401455 47.53179 
L 67.366709 47.274851 
L 67.68846 48.545472 
L 70.905973 47.679845 
L 72.514729 47.325156 
L 72.83648 48.420671 
L 76.697495 47.592065 
L 79.593256 47.094784 
L 79.915008 48.146249 
L 84.741276 47.358306 
L 90.85455 46.602458 
L 97.611326 45.996581 
L 105.976859 45.411315 
L 106.29861 45.737829 
L 115.307645 45.225652 
L 115.951148 45.27561 
L 129.786451 44.700736 
L 142.656501 44.365328 
L 146.517516 44.26643 
L 146.839268 44.454127 
L 162.283328 44.100297 
L 162.605079 44.260368 
L 164.213835 44.226744 
L 164.535586 44.402444 
L 184.162413 44.04172 
L 184.484164 44.17648 
L 193.493199 44.030621 
L 193.81495 44.156714 
L 204.754493 43.993506 
L 205.076244 44.177818 
L 211.83302 44.141962 
L 212.476523 44.195851 
L 231.459846 44.023201 
L 232.746851 44.038771 
L 246.260404 43.909574 
L 246.903906 44.010251 
L 251.086673 44.074438 
L 265.243728 43.946099 
L 265.565479 44.101229 
L 267.817738 44.077733 
L 268.139489 44.198498 
L 275.218016 44.165949 
L 275.539768 44.326903 
L 302.888624 44.110468 
L 303.532126 44.218195 
L 330.23748 44.060807 
L 331.846236 44.073486 
L 341.498774 44.078821 
L 342.142276 44.132616 
L 354.690575 44.14441 
L 376.56966 44.088412 
L 393.622476 44.036786 
L 394.265979 44.094375 
L 418.397323 44.010977 
L 419.362576 44.042899 
L 456.36397 43.87936 
L 457.007473 43.952961 
L 500.443891 43.822538 
L 502.052648 43.841486 
L 515.244449 43.878413 
L 515.887951 43.937221 
L 535.193026 43.942172 
L 536.15828 43.981209 
L 571.872669 43.901974 
L 572.837923 43.943119 
L 593.108251 43.93307 
L 593.751754 43.995875 
L 629.466143 43.959244 
L 630.431396 44.008702 
L 678.694084 43.918993 
L 680.624591 43.934604 
L 688.990124 43.906645 
L 688.990124 43.906645 
" clip-path="url(#p4955468abc)" style="fill: none; stroke: #f39c12; stroke-opacity: 0.85; stroke-width: 1.2; stroke-linecap: square"/>
   </g>
   <g id="line2d_36">
    <path d="M 46.144464 351.2275 
L 46.452877 207.137995 
L 46.774629 153.798294 
L 47.09638 126.477959 
L 47.739883 98.70975 
L 48.383385 84.654237 
L 49.026888 76.165264 
L 49.67039 70.482563 
L 50.313893 66.411975 
L 51.279146 62.09144 
L 52.2444 59.060616 
L 53.209654 56.817019 
L 54.174908 55.089192 
L 55.461913 53.321183 
L 56.748918 51.967956 
L 58.357674 50.665777 
L 59.96643 49.658878 
L 61.896938 48.715889 
L 64.149196 47.866208 
L 67.044958 47.038197 
L 70.584221 46.288702 
L 74.766988 45.638878 
L 80.236759 45.027139 
L 87.315286 44.474631 
L 92.141555 44.194647 
L 92.463306 44.512391 
L 97.611326 44.241507 
L 97.933078 44.57672 
L 105.976859 44.203685 
L 106.29861 44.62774 
L 119.490411 44.118986 
L 127.855944 43.881097 
L 128.177695 44.131427 
L 131.716959 44.03479 
L 132.03871 44.370925 
L 151.343785 43.89802 
L 151.665536 44.156131 
L 172.579368 43.79953 
L 204.754493 43.391797 
L 205.076244 43.524798 
L 209.580761 43.476952 
L 209.902513 43.724936 
L 220.198553 43.610418 
L 220.520304 43.751403 
L 250.764921 43.467854 
L 251.086673 43.621528 
L 265.243728 43.563707 
L 265.565479 43.709664 
L 275.218016 43.628691 
L 275.539768 43.842782 
L 291.305579 43.710643 
L 291.62733 43.833749 
L 300.314614 43.842324 
L 301.279868 43.883966 
L 348.577301 43.606862 
L 377.534914 43.543793 
L 408.101283 43.492857 
L 454.433463 43.382468 
L 455.076965 43.457982 
L 464.729503 43.472857 
L 465.373005 43.532217 
L 488.217344 43.521289 
L 488.860846 43.587776 
L 503.017901 43.616331 
L 503.661404 43.688099 
L 543.88031 43.610624 
L 544.845564 43.655485 
L 584.099216 43.569564 
L 584.742719 43.641976 
L 629.466143 43.574542 
L 630.109645 43.639478 
L 688.990124 43.538252 
L 688.990124 43.538252 
" clip-path="url(#p4955468abc)" style="fill: none; stroke: #c0392b; stroke-opacity: 0.85; stroke-width: 1.2; stroke-linecap: square"/>
   </g>
   <g id="line2d_37">
    <path d="M 45.809375 62.510707 
L 689.311875 62.510707 
" clip-path="url(#p4955468abc)" style="fill: none; stroke-dasharray: 3.7,1.6; stroke-dashoffset: 0; stroke: #808080; stroke-opacity: 0.7"/>
   </g>
   <g id="patch_3">
    <path d="M 45.809375 312.12125 
L 45.809375 23.7625 
" style="fill: none; stroke: #000000; stroke-width: 0.8; stroke-linejoin: miter; stroke-linecap: square"/>
   </g>
   <g id="patch_4">
    <path d="M 689.311875 312.12125 
L 689.311875 23.7625 
" style="fill: none; stroke: #000000; stroke-width: 0.8; stroke-linejoin: miter; stroke-linecap: square"/>
   </g>
   <g id="patch_5">
    <path d="M 45.809375 312.12125 
L 689.311875 312.12125 
" style="fill: none; stroke: #000000; stroke-width: 0.8; stroke-linejoin: miter; stroke-linecap: square"/>
   </g>
   <g id="patch_6">
    <path d="M 45.809375 23.7625 
L 689.311875 23.7625 
" style="fill: none; stroke: #000000; stroke-width: 0.8; stroke-linejoin: miter; stroke-linecap: square"/>
   </g>
   <g id="text_19">
    <!-- 理论目标97.7% -->
    <g style="fill: #808080" transform="translate(496.261125 60.708465) scale(0.09 -0.09)">
     <defs>
      <path id="SimHei-7406" d="M 5825 4850 
Q 5800 4525 5800 3425 
Q 5800 2350 5825 1875 
L 4450 1875 
L 4450 1125 
L 5200 1125 
Q 5650 1125 5900 1150 
L 5900 700 
Q 5625 725 5200 725 
L 4450 725 
L 4450 -125 
L 5350 -125 
Q 5825 -125 6150 -100 
L 6150 -550 
Q 5825 -525 5375 -525 
L 2950 -525 
Q 2550 -525 2250 -550 
L 2250 -100 
Q 2575 -125 2950 -125 
L 3975 -125 
L 3975 725 
L 3150 725 
Q 2825 725 2575 700 
L 2575 1150 
Q 2825 1125 3150 1125 
L 3975 1125 
L 3975 1875 
L 2625 1875 
Q 2650 2250 2650 3400 
Q 2650 4550 2625 4850 
L 5825 4850 
z
M 1750 4525 
Q 2025 4525 2350 4550 
L 2350 4075 
Q 2000 4100 1750 4100 
L 1525 4100 
L 1525 2750 
Q 1875 2750 2225 2775 
L 2225 2300 
Q 1875 2325 1525 2325 
L 1525 725 
Q 2000 900 2325 1050 
Q 2375 800 2425 625 
Q 1950 475 1362 237 
Q 775 0 450 -200 
Q 350 50 225 325 
Q 550 375 1075 600 
L 1075 2325 
Q 625 2325 300 2300 
L 300 2775 
Q 650 2750 1075 2750 
L 1075 4100 
L 775 4100 
Q 550 4100 225 4075 
L 225 4550 
Q 550 4525 775 4525 
L 1750 4525 
z
M 5325 2275 
L 5325 3175 
L 4450 3175 
L 4450 2275 
L 5325 2275 
z
M 5325 3550 
L 5325 4450 
L 4450 4450 
L 4450 3550 
L 5325 3550 
z
M 3975 2275 
L 3975 3175 
L 3125 3175 
L 3125 2275 
L 3975 2275 
z
M 3975 3550 
L 3975 4450 
L 3125 4450 
L 3125 3550 
L 3975 3550 
z
" transform="scale(0.015625)"/>
      <path id="SimHei-8bba" d="M 3500 1600 
Q 3825 1725 4250 2000 
Q 4675 2275 4975 2575 
Q 5225 2275 5400 2100 
Q 5050 1950 4550 1675 
Q 4050 1400 3500 1150 
L 3500 300 
Q 3500 -100 3800 -100 
L 4825 -100 
Q 5125 -100 5250 137 
Q 5375 375 5375 575 
Q 5675 350 5925 275 
Q 5750 -225 5550 -375 
Q 5350 -525 5100 -525 
L 3550 -525 
Q 3025 -475 3025 0 
L 3025 2175 
Q 3025 2525 3000 2850 
L 3525 2850 
Q 3500 2400 3500 2200 
L 3500 1600 
z
M 4175 4850 
Q 4400 4350 4950 3687 
Q 5500 3025 6175 2700 
Q 5975 2575 5800 2275 
Q 5100 2750 4637 3375 
Q 4175 4000 3950 4425 
Q 3725 3950 3387 3425 
Q 3050 2900 2325 2200 
Q 2175 2375 1950 2575 
Q 2350 2825 2650 3175 
Q 2950 3525 3200 3962 
Q 3450 4400 3575 4725 
Q 3700 5050 3750 5250 
Q 3975 5150 4275 5050 
L 4175 4850 
z
M 1600 3150 
Q 1575 2750 1575 2275 
L 1575 550 
Q 1950 825 2400 1300 
Q 2500 1075 2650 800 
Q 2250 475 1900 187 
Q 1550 -100 1250 -375 
Q 1150 -225 900 50 
Q 1100 250 1100 450 
L 1100 2700 
L 800 2700 
Q 550 2700 275 2675 
L 275 3175 
Q 550 3150 800 3150 
L 1600 3150 
z
M 975 5000 
Q 1550 4525 2125 4025 
Q 1950 3875 1750 3650 
Q 1325 4150 650 4650 
Q 825 4800 975 5000 
z
" transform="scale(0.015625)"/>
      <path id="SimHei-76ee" d="M 5375 4900 
Q 5350 4175 5350 3525 
L 5350 600 
Q 5350 225 5375 -550 
L 4825 -550 
L 4825 -100 
L 1575 -100 
L 1575 -525 
L 1050 -525 
Q 1075 150 1075 550 
L 1075 3525 
Q 1075 4350 1050 4900 
L 5375 4900 
z
M 4825 300 
L 4825 1475 
L 1575 1475 
L 1575 300 
L 4825 300 
z
M 4825 1875 
L 4825 3000 
L 1575 3000 
L 1575 1875 
L 4825 1875 
z
M 4825 3400 
L 4825 4500 
L 1575 4500 
L 1575 3400 
L 4825 3400 
z
" transform="scale(0.015625)"/>
      <path id="SimHei-6807" d="M 1275 4400 
Q 1275 4800 1250 5175 
L 1750 5175 
Q 1725 4825 1725 4400 
L 1725 3800 
Q 2125 3800 2575 3825 
L 2575 3350 
Q 2125 3375 1725 3375 
L 1725 2525 
Q 1900 2650 2075 2800 
Q 2400 2275 2650 1775 
Q 2375 1650 2175 1500 
Q 2025 2000 1725 2425 
L 1725 475 
Q 1725 -50 1750 -575 
L 1250 -575 
Q 1275 -25 1275 475 
L 1275 2100 
Q 1025 1400 500 750 
Q 350 950 125 1125 
Q 550 1550 812 2187 
Q 1075 2825 1150 3375 
Q 675 3375 325 3325 
L 325 3825 
Q 800 3800 1275 3800 
L 1275 4400 
z
M 5175 3125 
Q 5675 3125 6050 3150 
L 6050 2675 
Q 5675 2700 5275 2700 
L 4500 2700 
L 4500 175 
Q 4500 -225 4275 -350 
Q 4050 -475 3475 -550 
Q 3425 -250 3275 25 
Q 3775 25 3900 62 
Q 4025 100 4025 350 
L 4025 2700 
L 3400 2700 
Q 2775 2700 2500 2650 
L 2500 3150 
Q 2825 3125 3400 3125 
L 5175 3125 
z
M 4900 4775 
Q 5425 4775 5750 4800 
L 5750 4300 
Q 5275 4350 4750 4350 
L 3525 4350 
Q 3125 4350 2750 4300 
L 2750 4800 
Q 3100 4775 3525 4775 
L 4900 4775 
z
M 5275 2025 
Q 5825 1175 6200 500 
Q 5925 375 5650 200 
Q 5375 925 4825 1725 
Q 5075 1850 5275 2025 
z
M 3600 1775 
Q 3500 1625 3225 975 
Q 2950 325 2800 50 
Q 2575 175 2300 275 
Q 2625 775 2787 1187 
Q 2950 1600 3050 2000 
Q 3325 1875 3600 1775 
z
" transform="scale(0.015625)"/>
      <path id="SimHei-2e" d="M 1075 125 
L 500 125 
L 500 675 
L 1075 675 
L 1075 125 
z
" transform="scale(0.015625)"/>
     </defs>
     <use xlink:href="#SimHei-7406"/>
     <use xlink:href="#SimHei-8bba" transform="translate(100 0)"/>
     <use xlink:href="#SimHei-76ee" transform="translate(200 0)"/>
     <use xlink:href="#SimHei-6807" transform="translate(300 0)"/>
     <use xlink:href="#SimHei-39" transform="translate(400 0)"/>
     <use xlink:href="#SimHei-37" transform="translate(450 0)"/>
     <use xlink:href="#SimHei-2e" transform="translate(500 0)"/>
     <use xlink:href="#SimHei-37" transform="translate(550 0)"/>
     <use xlink:href="#SimHei-25" transform="translate(600 0)"/>
    </g>
   </g>
   <g id="text_20">
    <!-- 理性决策下的服务水平 -->
    <g transform="translate(302.560625 17.7625) scale(0.13 -0.13)">
     <defs>
      <path id="SimHei-6027" d="M 3450 4525 
Q 3325 4075 3275 3750 
L 4050 3750 
L 4050 4275 
Q 4050 4700 4025 5100 
L 4550 5100 
Q 4525 4700 4525 4275 
L 4525 3750 
L 5025 3750 
Q 5350 3750 5800 3775 
L 5800 3300 
Q 5350 3325 5025 3325 
L 4525 3325 
L 4525 2000 
L 4975 2000 
Q 5350 2000 5725 2025 
L 5725 1550 
Q 5350 1575 4975 1575 
L 4525 1575 
L 4525 25 
L 5200 25 
Q 5625 25 6025 50 
L 6025 -400 
Q 5625 -375 5200 -375 
L 3275 -375 
Q 2825 -375 2400 -400 
L 2400 50 
Q 2825 25 3250 25 
L 4050 25 
L 4050 1575 
L 3625 1575 
Q 3300 1575 2875 1550 
L 2875 2025 
Q 3200 2000 3625 2000 
L 4050 2000 
L 4050 3325 
L 3175 3325 
Q 3100 2950 2775 2225 
Q 2500 2375 2325 2400 
Q 2675 3125 2775 3650 
Q 2875 4175 2950 4650 
Q 3200 4575 3450 4525 
z
M 1700 5150 
Q 1675 4650 1675 4175 
L 1675 425 
Q 1675 -100 1700 -625 
L 1175 -625 
Q 1200 -100 1200 425 
L 1200 4175 
Q 1200 4700 1175 5150 
L 1700 5150 
z
M 975 3725 
Q 825 2675 700 2150 
Q 450 2200 250 2250 
Q 425 2900 525 3800 
Q 725 3775 975 3725 
z
M 2125 4025 
Q 2325 3625 2525 3000 
Q 2300 2925 2125 2825 
Q 1950 3375 1750 3850 
Q 1950 3950 2125 4025 
z
" transform="scale(0.015625)"/>
      <path id="SimHei-51b3" d="M 3400 3700 
Q 2675 3700 2225 3675 
L 2225 4150 
Q 2675 4125 3400 4125 
Q 3400 4825 3375 5200 
Q 3650 5175 3950 5150 
Q 3900 4800 3900 4125 
L 5375 4125 
Q 5350 3725 5350 2300 
Q 5750 2300 6050 2325 
L 6050 1850 
Q 5675 1875 5300 1875 
L 4025 1875 
Q 4750 325 6200 50 
Q 5925 -150 5825 -525 
Q 4275 0 3700 1500 
Q 3150 150 1800 -650 
Q 1650 -400 1375 -250 
Q 2850 500 3300 1875 
L 2900 1875 
Q 2450 1875 2000 1850 
L 2000 2325 
Q 2450 2300 2900 2300 
L 3350 2300 
Q 3400 3125 3400 3700 
z
M 4850 2300 
L 4850 3700 
L 3900 3700 
Q 3875 2850 3850 2300 
L 4850 2300 
z
M 1825 2150 
Q 1550 1675 1250 1087 
Q 950 500 800 150 
Q 575 350 250 525 
Q 525 850 850 1400 
Q 1175 1950 1375 2500 
Q 1550 2300 1825 2150 
z
M 750 4725 
Q 1025 4425 1275 4125 
Q 1525 3825 1800 3500 
Q 1600 3350 1375 3125 
Q 1150 3450 350 4350 
Q 550 4525 750 4725 
z
" transform="scale(0.015625)"/>
      <path id="SimHei-7b56" d="M 4600 750 
Q 4525 1000 4325 1275 
Q 4625 1275 4787 1300 
Q 4950 1325 4950 1500 
L 4950 1950 
L 3425 1950 
L 3425 1575 
Q 3625 1250 3950 987 
Q 4275 725 4625 537 
Q 4975 350 5325 237 
Q 5675 125 6150 50 
Q 5850 -200 5725 -525 
Q 5375 -400 5050 -237 
Q 4725 -75 4437 100 
Q 4150 275 3887 487 
Q 3625 700 3425 950 
L 3425 275 
Q 3425 -75 3450 -675 
L 2950 -675 
Q 2975 -75 2975 275 
L 2975 1150 
Q 2700 750 2275 375 
Q 1850 0 1575 -175 
Q 1300 -350 825 -650 
Q 725 -475 350 -225 
Q 675 -100 975 50 
Q 1275 200 1650 462 
Q 2025 725 2387 1112 
Q 2750 1500 2950 1950 
L 1500 1950 
L 1500 825 
L 1000 825 
Q 1025 1325 1025 1675 
Q 1025 2025 1000 2325 
L 2975 2325 
L 2975 2825 
L 1425 2825 
Q 1000 2825 550 2800 
L 550 3250 
Q 1000 3225 1400 3225 
L 2975 3225 
Q 2975 3475 2950 3650 
L 3450 3650 
Q 3425 3450 3425 3225 
L 5175 3225 
Q 5500 3225 5925 3250 
L 5925 2800 
Q 5525 2825 5200 2825 
L 3425 2825 
L 3425 2325 
L 5425 2325 
Q 5400 2025 5400 1725 
Q 5400 1450 5375 1225 
Q 5350 1000 5137 900 
Q 4925 800 4600 750 
z
M 4525 5050 
Q 4300 4850 4200 4675 
L 5175 4675 
Q 5600 4675 6075 4700 
L 6075 4250 
Q 5600 4275 4875 4275 
Q 4950 4025 5050 3675 
Q 4775 3625 4550 3550 
Q 4500 3975 4400 4275 
L 3950 4275 
Q 3750 4000 3525 3700 
Q 3300 3850 3075 3925 
Q 3375 4225 3612 4612 
Q 3850 5000 3950 5300 
Q 4175 5150 4525 5050 
z
M 1950 5075 
Q 1700 4850 1550 4675 
L 2275 4675 
Q 2625 4675 3125 4700 
L 3125 4250 
Q 2625 4275 2200 4275 
Q 2275 4000 2375 3650 
Q 2150 3600 1925 3500 
Q 1850 3850 1750 4275 
L 1300 4275 
Q 1025 3950 650 3600 
Q 475 3750 225 3900 
Q 625 4175 925 4562 
Q 1225 4950 1425 5300 
Q 1675 5175 1950 5075 
z
" transform="scale(0.015625)"/>
      <path id="SimHei-4e0b" d="M 5000 4700 
Q 5475 4700 5975 4725 
L 5975 4200 
Q 5425 4225 5000 4225 
L 3275 4225 
L 3275 375 
Q 3275 50 3300 -450 
L 2725 -450 
Q 2750 0 2750 375 
L 2750 4225 
L 1375 4225 
Q 875 4225 400 4200 
L 400 4725 
Q 875 4700 1375 4700 
L 5000 4700 
z
M 5650 1400 
Q 5400 1225 5200 1000 
Q 4800 1525 3650 2575 
L 4025 2950 
Q 4700 2400 5650 1400 
z
" transform="scale(0.015625)"/>
      <path id="SimHei-7684" d="M 2100 4975 
Q 1975 4750 1750 3950 
L 2875 3950 
Q 2850 3525 2850 2875 
L 2850 675 
Q 2850 300 2875 -400 
L 2375 -400 
L 2375 100 
L 1100 100 
L 1100 -450 
L 600 -450 
Q 625 350 625 550 
L 625 2850 
Q 625 3525 600 3950 
L 1325 3950 
Q 1450 4525 1525 5150 
Q 1875 5025 2100 4975 
z
M 5825 3075 
Q 5800 1550 5700 175 
Q 5650 -275 5225 -425 
Q 4800 -575 4275 -625 
Q 4250 -350 4050 -50 
Q 4550 -75 4837 -25 
Q 5125 25 5200 200 
Q 5275 375 5312 1225 
Q 5350 2075 5375 3600 
L 3925 3600 
Q 3725 3125 3350 2475 
Q 3175 2650 2925 2750 
Q 3150 3050 3350 3475 
Q 3550 3900 3700 4400 
Q 3850 4900 3875 5175 
Q 4225 5025 4475 4950 
Q 4350 4750 4262 4512 
Q 4175 4275 4075 4050 
L 5850 4050 
Q 5825 3525 5825 3075 
z
M 2375 525 
L 2375 1850 
L 1100 1850 
L 1100 525 
L 2375 525 
z
M 2375 2275 
L 2375 3525 
L 1100 3525 
L 1100 2275 
L 2375 2275 
z
M 4350 2050 
Q 4500 1750 4700 1275 
Q 4525 1200 4225 1025 
Q 4050 1500 3900 1837 
Q 3750 2175 3600 2400 
Q 3775 2500 4050 2650 
L 4350 2050 
z
" transform="scale(0.015625)"/>
     </defs>
     <use xlink:href="#SimHei-7406"/>
     <use xlink:href="#SimHei-6027" transform="translate(100 0)"/>
     <use xlink:href="#SimHei-51b3" transform="translate(200 0)"/>
     <use xlink:href="#SimHei-7b56" transform="translate(300 0)"/>
     <use xlink:href="#SimHei-4e0b" transform="translate(400 0)"/>
     <use xlink:href="#SimHei-7684" transform="translate(500 0)"/>
     <use xlink:href="#SimHei-670d" transform="translate(600 0)"/>
     <use xlink:href="#SimHei-52a1" transform="translate(700 0)"/>
     <use xlink:href="#SimHei-6c34" transform="translate(800 0)"/>
     <use xlink:href="#SimHei-5e73" transform="translate(900 0)"/>
    </g>
   </g>
   <g id="legend_1">
    <g id="patch_7">
     <path d="M 620.311875 307.12125 
L 682.311875 307.12125 
Q 684.311875 307.12125 684.311875 305.12125 
L 684.311875 249.09 
Q 684.311875 247.09 682.311875 247.09 
L 620.311875 247.09 
Q 618.311875 247.09 618.311875 249.09 
L 618.311875 305.12125 
Q 618.311875 307.12125 620.311875 307.12125 
z
" style="fill: #ffffff; opacity: 0.8; stroke: #cccccc; stroke-linejoin: miter"/>
    </g>
    <g id="line2d_38">
     <path d="M 622.311875 255.675937 
L 632.311875 255.675937 
L 642.311875 255.675937 
" style="fill: none; stroke: #e74c3c; stroke-opacity: 0.85; stroke-width: 1.2; stroke-linecap: square"/>
    </g>
    <g id="text_21">
     <!-- 零售商 -->
     <g transform="translate(650.311875 259.175937) scale(0.1 -0.1)">
      <defs>
       <path id="SimHei-96f6" d="M 3375 2525 
Q 3425 2425 3950 2125 
Q 4475 1825 4975 1675 
Q 5475 1525 6075 1450 
Q 5875 1200 5775 925 
Q 5325 1025 4900 1175 
Q 4475 1325 3950 1637 
Q 3425 1950 3100 2250 
Q 2875 2075 2512 1812 
Q 2150 1550 1662 1312 
Q 1175 1075 625 900 
Q 525 1100 325 1375 
Q 800 1450 1175 1600 
Q 1550 1750 1875 1925 
Q 2200 2100 2475 2325 
Q 2750 2550 2925 2825 
Q 2950 3100 2950 3450 
L 2950 3925 
L 950 3925 
L 950 3250 
L 475 3250 
L 475 4300 
L 2950 4300 
L 2950 4700 
L 1775 4700 
Q 1425 4700 1100 4675 
L 1100 5100 
Q 1425 5075 1750 5075 
L 4625 5075 
Q 4875 5075 5325 5100 
L 5325 4675 
Q 4875 4700 4475 4700 
L 3400 4700 
L 3400 4300 
L 5875 4300 
Q 5850 4050 5850 3800 
Q 5850 3550 5875 3300 
L 5400 3300 
L 5400 3925 
L 3400 3925 
L 3400 3450 
Q 3400 3175 3425 2825 
L 3050 2825 
Q 3250 2750 3525 2675 
L 3375 2525 
z
M 2300 500 
Q 2750 350 3175 200 
Q 3325 325 3750 775 
L 2325 775 
Q 1900 775 1475 750 
L 1475 1200 
Q 1900 1175 2325 1175 
L 4700 1175 
Q 4475 950 4150 587 
Q 3825 225 3625 50 
Q 3775 -25 3950 -87 
Q 4125 -150 4400 -275 
Q 4250 -475 4125 -700 
Q 3450 -400 2950 -212 
Q 2450 -25 2100 75 
Q 2225 275 2300 500 
z
M 5075 2600 
L 3750 2600 
L 3750 2950 
L 5075 2950 
L 5075 2600 
z
M 5075 3325 
L 3775 3325 
L 3775 3675 
L 5075 3675 
L 5075 3325 
z
M 2500 3325 
L 1250 3325 
L 1250 3675 
L 2500 3675 
L 2500 3325 
z
M 2475 2600 
L 1225 2600 
L 1225 2950 
L 2475 2950 
L 2475 2600 
z
M 3100 1950 
Q 3200 1800 3237 1712 
Q 3275 1625 3400 1400 
Q 3150 1300 2975 1200 
Q 2850 1500 2700 1775 
Q 2975 1875 3100 1950 
z
" transform="scale(0.015625)"/>
       <path id="SimHei-552e" d="M 2325 4925 
Q 2200 4825 1950 4425 
L 4925 4425 
Q 5350 4425 5775 4450 
L 5775 4050 
Q 5350 4075 4925 4075 
L 3775 4075 
L 3775 3650 
L 4650 3650 
Q 5075 3650 5450 3675 
L 5450 3225 
Q 5100 3275 4675 3275 
L 3775 3275 
L 3775 2850 
L 5475 2850 
L 5475 2425 
Q 5125 2450 4700 2450 
L 3775 2450 
L 3775 1975 
L 4825 1975 
Q 5325 1975 5900 2000 
L 5900 1550 
Q 5350 1600 4825 1600 
L 1800 1600 
L 1800 1375 
L 1275 1375 
Q 1300 1975 1300 3400 
Q 975 2850 700 2575 
Q 525 2800 350 2900 
Q 625 3225 837 3537 
Q 1050 3850 1300 4237 
Q 1550 4625 1725 5225 
Q 2050 5050 2325 4925 
z
M 5350 1175 
Q 5325 800 5325 275 
Q 5325 -250 5350 -650 
L 4825 -650 
L 4825 -375 
L 1725 -375 
L 1725 -675 
L 1200 -675 
Q 1250 -250 1250 275 
Q 1250 800 1200 1175 
L 5350 1175 
z
M 4825 25 
L 4825 775 
L 1725 775 
L 1725 25 
L 4825 25 
z
M 3275 1975 
L 3275 2450 
L 1800 2450 
L 1800 1975 
L 3275 1975 
z
M 3275 3650 
L 3275 4075 
L 1800 4075 
L 1800 3650 
L 3275 3650 
z
M 3275 2850 
L 3275 3275 
L 1800 3275 
L 1800 2850 
L 3275 2850 
z
M 3600 5275 
Q 3850 4875 3950 4675 
Q 3800 4625 3500 4500 
Q 3425 4700 3175 5075 
Q 3400 5150 3600 5275 
z
" transform="scale(0.015625)"/>
       <path id="SimHei-5546" d="M 3150 5225 
Q 3475 4725 3550 4525 
L 4975 4525 
Q 5475 4525 5975 4550 
L 5975 4100 
Q 5475 4125 4975 4125 
L 2100 4125 
Q 2575 3625 2675 3475 
Q 2500 3400 2300 3250 
L 3650 3250 
Q 3800 3650 3950 4100 
Q 4200 4000 4525 3925 
Q 4350 3700 4125 3250 
L 5525 3250 
Q 5500 2950 5500 2425 
L 5500 -50 
Q 5500 -350 5225 -475 
Q 4950 -600 4475 -675 
Q 4450 -375 4275 -125 
Q 4775 -150 4900 -75 
Q 5025 0 5025 175 
L 5025 2900 
L 1375 2900 
L 1375 -600 
L 875 -600 
Q 900 50 900 325 
L 900 2475 
Q 900 2725 875 3250 
L 2250 3250 
Q 2075 3550 1675 3875 
Q 1875 3975 2050 4125 
L 1475 4125 
Q 900 4125 475 4100 
L 475 4550 
Q 900 4525 1450 4525 
L 3000 4525 
Q 2925 4775 2675 5050 
Q 2925 5125 3150 5225 
z
M 2600 2650 
Q 2850 2475 3075 2350 
Q 2825 2225 2350 1675 
L 4250 1675 
Q 4225 1350 4225 975 
Q 4225 600 4250 225 
L 2300 225 
Q 2325 600 2325 950 
Q 2325 1325 2300 1625 
Q 2125 1475 1950 1350 
Q 1825 1525 1575 1625 
Q 2350 2225 2600 2650 
z
M 3750 600 
L 3750 1300 
L 2775 1300 
L 2775 600 
L 3750 600 
z
M 3775 2675 
Q 4475 2225 4900 1850 
Q 4675 1725 4525 1525 
Q 4275 1825 3475 2350 
Q 3650 2475 3775 2675 
z
" transform="scale(0.015625)"/>
      </defs>
      <use xlink:href="#SimHei-96f6"/>
      <use xlink:href="#SimHei-552e" transform="translate(100 0)"/>
      <use xlink:href="#SimHei-5546" transform="translate(200 0)"/>
     </g>
    </g>
    <g id="line2d_39">
     <path d="M 622.311875 269.93375 
L 632.311875 269.93375 
L 642.311875 269.93375 
" style="fill: none; stroke: #e67e22; stroke-opacity: 0.85; stroke-width: 1.2; stroke-linecap: square"/>
    </g>
    <g id="text_22">
     <!-- 批发商 -->
     <g transform="translate(650.311875 273.43375) scale(0.1 -0.1)">
      <defs>
       <path id="SimHei-6279" d="M 625 -75 
Q 1025 -50 1137 -12 
Q 1250 25 1250 175 
L 1250 1575 
Q 775 1375 525 1200 
Q 475 1425 250 1700 
Q 600 1775 1250 2050 
L 1250 3325 
Q 725 3325 400 3300 
L 400 3775 
Q 725 3750 1250 3750 
Q 1250 4550 1225 5125 
L 1775 5125 
Q 1725 4850 1725 3750 
Q 1975 3750 2350 3775 
L 2350 3300 
Q 2000 3325 1725 3325 
L 1725 2200 
Q 1825 2250 2300 2450 
Q 2300 2250 2325 2025 
Q 1950 1850 1725 1750 
L 1725 -25 
Q 1725 -300 1512 -412 
Q 1300 -525 825 -650 
Q 750 -250 625 -75 
z
M 6175 3250 
Q 5800 3000 4875 2275 
L 4875 175 
Q 4875 -75 5075 -75 
L 5475 -75 
Q 5550 -25 5600 87 
Q 5650 200 5650 600 
Q 5875 475 6175 425 
Q 6050 -175 5925 -287 
Q 5800 -400 5600 -425 
L 4900 -425 
Q 4425 -425 4400 0 
L 4400 4525 
Q 4400 4850 4375 5150 
L 4900 5150 
Q 4875 4875 4875 4600 
L 4875 2775 
Q 5275 3075 5725 3625 
Q 5950 3400 6175 3250 
z
M 2575 -75 
Q 2750 75 2750 300 
L 2750 4425 
Q 2750 4700 2725 4950 
L 3250 4950 
Q 3200 4675 3200 4425 
L 3200 3000 
Q 3775 3000 4050 3025 
L 4050 2550 
Q 3750 2575 3200 2575 
L 3200 225 
Q 3425 325 3925 700 
Q 3950 475 4050 250 
Q 3825 125 3437 -87 
Q 3050 -300 2825 -525 
L 2575 -75 
z
" transform="scale(0.015625)"/>
       <path id="SimHei-53d1" d="M 3475 4925 
Q 3350 4650 3275 4362 
Q 3200 4075 3075 3575 
L 5075 3575 
Q 5325 3575 5825 3600 
L 5825 3125 
Q 5325 3150 5075 3150 
L 2975 3150 
Q 2825 2775 2650 2400 
L 5300 2400 
Q 4825 1250 3975 475 
Q 4650 0 5950 -150 
Q 5775 -350 5650 -650 
Q 5150 -550 4625 -362 
Q 4100 -175 3600 175 
Q 3200 -75 2625 -312 
Q 2050 -550 1450 -700 
Q 1400 -450 1200 -225 
Q 1750 -150 2300 37 
Q 2850 225 3275 500 
Q 2850 925 2325 1725 
Q 2050 1275 1625 850 
Q 1200 425 700 75 
Q 600 250 300 450 
Q 675 650 1037 975 
Q 1400 1300 1800 1837 
Q 2200 2375 2475 3150 
Q 1825 3150 1475 3125 
Q 1125 3100 950 3025 
Q 875 3250 750 3500 
Q 1000 3550 1112 3875 
Q 1225 4200 1350 4875 
Q 1550 4775 1900 4675 
Q 1775 4425 1675 4162 
Q 1575 3900 1450 3575 
L 2600 3575 
Q 2800 4375 2900 5100 
Q 3175 4950 3475 4925 
z
M 2675 2000 
Q 3025 1375 3650 750 
Q 4200 1200 4625 2000 
L 2675 2000 
z
M 4400 5075 
Q 4825 4600 5250 4100 
Q 5075 4000 4825 3775 
Q 4425 4350 4050 4750 
Q 4225 4875 4400 5075 
z
" transform="scale(0.015625)"/>
      </defs>
      <use xlink:href="#SimHei-6279"/>
      <use xlink:href="#SimHei-53d1" transform="translate(100 0)"/>
      <use xlink:href="#SimHei-5546" transform="translate(200 0)"/>
     </g>
    </g>
    <g id="line2d_40">
     <path d="M 622.311875 284.1525 
L 632.311875 284.1525 
L 642.311875 284.1525 
" style="fill: none; stroke: #f39c12; stroke-opacity: 0.85; stroke-width: 1.2; stroke-linecap: square"/>
    </g>
    <g id="text_23">
     <!-- 分销商 -->
     <g transform="translate(650.311875 287.6525) scale(0.1 -0.1)">
      <defs>
       <path id="SimHei-5206" d="M 1000 -650 
Q 825 -375 575 -225 
Q 975 -75 1300 137 
Q 1625 350 1875 662 
Q 2125 975 2250 1350 
Q 2375 1725 2425 2275 
Q 1850 2275 1500 2250 
L 1500 2775 
Q 1900 2750 2525 2750 
L 5025 2750 
Q 4975 2375 4950 2100 
L 4750 250 
Q 4700 -200 4350 -350 
Q 4000 -500 3575 -525 
Q 3550 -275 3325 50 
Q 3850 25 4037 87 
Q 4225 150 4275 525 
L 4450 2275 
L 2950 2275 
Q 2875 1625 2737 1187 
Q 2600 750 2350 425 
Q 2100 100 1750 -175 
Q 1400 -450 1000 -650 
z
M 3950 5175 
Q 4125 4650 4662 3975 
Q 5200 3300 6175 2800 
Q 5975 2625 5775 2275 
Q 5325 2600 4987 2887 
Q 4650 3175 4425 3425 
Q 4200 3675 3925 4137 
Q 3650 4600 3475 5000 
Q 3750 5075 3950 5175 
z
M 2700 4825 
Q 2475 4425 2325 4125 
Q 2175 3825 2025 3587 
Q 1875 3350 1575 2950 
Q 1275 2550 850 2125 
Q 625 2350 400 2475 
Q 900 2925 1187 3300 
Q 1475 3675 1737 4112 
Q 2000 4550 2200 5075 
Q 2400 4925 2700 4825 
z
" transform="scale(0.015625)"/>
       <path id="SimHei-9500" d="M 4175 4325 
Q 4175 4700 4150 5125 
L 4650 5125 
Q 4625 4850 4625 4325 
L 4625 3225 
L 5825 3225 
Q 5800 2850 5800 2225 
L 5800 50 
Q 5800 -300 5562 -375 
Q 5325 -450 4925 -525 
Q 4875 -275 4700 -25 
Q 5275 0 5300 112 
Q 5325 225 5325 825 
L 3575 825 
L 3575 -450 
L 3100 -450 
Q 3125 75 3125 400 
L 3125 2175 
Q 3125 2800 3100 3225 
L 4175 3225 
L 4175 4325 
z
M 2350 2700 
Q 2025 2725 1700 2725 
L 1700 1975 
Q 2125 1975 2600 2000 
L 2600 1550 
Q 2125 1575 1700 1575 
L 1700 425 
Q 1925 575 2250 925 
Q 2325 700 2500 475 
Q 2250 300 1975 87 
Q 1700 -125 1400 -450 
Q 1275 -225 1075 -50 
Q 1225 100 1250 400 
L 1250 1575 
Q 950 1575 525 1550 
L 525 2000 
Q 950 1975 1250 1975 
L 1250 2725 
Q 950 2725 750 2700 
L 750 3150 
Q 1075 3125 1500 3125 
Q 1950 3125 2350 3150 
L 2350 2700 
z
M 625 3075 
Q 450 3275 225 3375 
Q 600 3750 875 4200 
Q 1150 4650 1325 5125 
Q 1675 4925 1875 4850 
Q 1550 4400 1450 4200 
Q 2075 4200 2500 4225 
L 2500 3750 
Q 2075 3775 1200 3775 
Q 825 3275 625 3075 
z
M 5325 2200 
L 5325 2850 
L 3575 2850 
L 3575 2200 
L 5325 2200 
z
M 5325 1200 
L 5325 1825 
L 3575 1825 
L 3575 1200 
L 5325 1200 
z
M 6050 4550 
Q 5850 4300 5450 3525 
Q 5225 3650 4975 3725 
Q 5250 4050 5525 4775 
Q 5725 4650 6050 4550 
z
M 3200 4775 
Q 3600 4150 3800 3800 
Q 3575 3700 3350 3550 
Q 3175 3950 2775 4525 
Q 3025 4625 3200 4775 
z
" transform="scale(0.015625)"/>
      </defs>
      <use xlink:href="#SimHei-5206"/>
      <use xlink:href="#SimHei-9500" transform="translate(100 0)"/>
      <use xlink:href="#SimHei-5546" transform="translate(200 0)"/>
     </g>
    </g>
    <g id="line2d_41">
     <path d="M 622.311875 298.37125 
L 632.311875 298.37125 
L 642.311875 298.37125 
" style="fill: none; stroke: #c0392b; stroke-opacity: 0.85; stroke-width: 1.2; stroke-linecap: square"/>
    </g>
    <g id="text_24">
     <!-- 制造商 -->
     <g transform="translate(650.311875 301.87125) scale(0.1 -0.1)">
      <defs>
       <path id="SimHei-5236" d="M 1325 4625 
Q 1175 4375 1075 4150 
L 1800 4150 
Q 1800 4775 1775 5125 
L 2350 5125 
Q 2325 4800 2325 4150 
L 2700 4150 
Q 3200 4150 3600 4175 
L 3600 3725 
Q 3250 3750 2725 3750 
L 2325 3750 
L 2325 3025 
L 2950 3025 
Q 3325 3025 3750 3050 
L 3750 2625 
L 2325 2625 
L 2325 1950 
L 3675 1950 
Q 3650 1650 3637 1125 
Q 3625 600 3612 412 
Q 3600 225 3400 137 
Q 3200 50 2825 -25 
Q 2775 250 2650 550 
Q 2975 550 3050 587 
Q 3125 625 3125 975 
L 3125 1550 
L 2325 1550 
L 2325 175 
Q 2325 -250 2350 -550 
L 1775 -550 
Q 1800 -75 1800 175 
L 1800 1550 
L 1025 1550 
L 1025 -25 
L 500 -25 
Q 525 300 525 650 
L 525 1200 
Q 525 1675 500 1950 
L 1800 1950 
L 1800 2625 
L 1000 2625 
Q 550 2625 225 2600 
L 225 3050 
Q 550 3025 1000 3025 
L 1800 3025 
L 1800 3750 
L 925 3750 
Q 800 3450 675 3250 
Q 450 3400 225 3500 
Q 400 3750 525 4075 
Q 650 4400 750 4800 
Q 1000 4700 1325 4625 
z
M 5875 5075 
Q 5850 4825 5850 4350 
L 5850 25 
Q 5850 -325 5587 -412 
Q 5325 -500 4825 -575 
Q 4750 -250 4625 0 
Q 5050 0 5200 25 
Q 5350 50 5350 350 
L 5350 4350 
Q 5350 4775 5325 5075 
L 5875 5075 
z
M 4675 4325 
Q 4650 3975 4650 3700 
L 4650 1625 
Q 4650 1275 4675 775 
L 4125 775 
Q 4175 1200 4175 1625 
L 4175 3700 
Q 4175 3950 4125 4325 
L 4675 4325 
z
" transform="scale(0.015625)"/>
       <path id="SimHei-9020" d="M 5525 2325 
Q 5500 1825 5500 1350 
Q 5500 875 5525 400 
L 5000 400 
L 5000 750 
L 3025 750 
L 3025 425 
L 2525 425 
Q 2550 900 2550 1375 
Q 2550 1850 2525 2325 
L 5525 2325 
z
M 200 -100 
Q 950 475 1250 625 
L 1250 2600 
Q 775 2600 350 2575 
L 350 3025 
Q 850 3000 1750 3000 
Q 1725 2525 1725 2250 
L 1725 675 
Q 2050 325 2600 175 
Q 3150 25 4075 0 
Q 5000 -25 6200 50 
Q 6000 -200 5975 -525 
Q 3575 -475 3125 -400 
Q 2675 -325 2375 -212 
Q 2075 -100 1762 112 
Q 1450 325 1125 37 
Q 800 -250 600 -525 
Q 425 -300 200 -100 
z
M 3150 4900 
Q 3000 4625 2950 4400 
L 3800 4400 
Q 3800 5000 3775 5225 
L 4275 5225 
Q 4250 4975 4250 4400 
Q 5150 4400 5625 4425 
L 5625 4000 
Q 5175 4025 4250 4025 
L 4250 3200 
Q 5575 3200 6050 3225 
L 6050 2775 
Q 5575 2800 3975 2800 
Q 2400 2800 1950 2775 
L 1950 3225 
Q 2400 3200 3800 3200 
L 3800 4025 
L 2825 4025 
Q 2675 3750 2550 3450 
Q 2325 3550 2100 3625 
Q 2400 4175 2600 5025 
Q 2850 4975 3150 4900 
z
M 5000 1125 
L 5000 1925 
L 3025 1925 
L 3025 1125 
L 5000 1125 
z
M 1775 4000 
Q 1575 3850 1350 3725 
Q 1000 4250 650 4725 
Q 850 4875 1025 5025 
Q 1625 4225 1775 4000 
z
" transform="scale(0.015625)"/>
      </defs>
      <use xlink:href="#SimHei-5236"/>
      <use xlink:href="#SimHei-9020" transform="translate(100 0)"/>
      <use xlink:href="#SimHei-5546" transform="translate(200 0)"/>
     </g>
    </g>
   </g>
  </g>
 </g>
 <defs>
  <clipPath id="p4955468abc">
   <rect x="45.809375" y="23.7625" width="643.5025" height="288.35875"/>
  </clipPath>
 </defs>
</svg>
