<?xml version="1.0" encoding="utf-8" standalone="no"?>
<!DOCTYPE svg PUBLIC "-//W3C//DTD SVG 1.1//EN"
  "http://www.w3.org/Graphics/SVG/1.1/DTD/svg11.dtd">
<svg xmlns:xlink="http://www.w3.org/1999/xlink" width="709.930625pt" height="350.199219pt" viewBox="0 0 709.930625 350.199219" xmlns="http://www.w3.org/2000/svg" version="1.1">
 <metadata>
  <rdf:RDF xmlns:dc="http://purl.org/dc/elements/1.1/" xmlns:cc="http://creativecommons.org/ns#" xmlns:rdf="http://www.w3.org/1999/02/22-rdf-syntax-ns#">
   <cc:Work>
    <dc:type rdf:resource="http://purl.org/dc/dcmitype/StillImage"/>
    <dc:date>2026-07-09T11:25:19.264413</dc:date>
    <dc:format>image/svg+xml</dc:format>
    <dc:creator>
     <cc:Agent>
      <dc:title>Matplotlib v3.10.9, https://matplotlib.org/</dc:title>
     </cc:Agent>
    </dc:creator>
   </cc:Work>
  </rdf:RDF>
 </metadata>
 <defs>
  <style type="text/css">*{stroke-linejoin: round; stroke-linecap: butt}</style>
 </defs>
 <g id="figure_1">
  <g id="patch_1">
   <path d="M 0 350.199219 
L 709.930625 350.199219 
L 709.930625 0 
L 0 0 
z
" style="fill: #ffffff"/>
  </g>
  <g id="axes_1">
   <g id="patch_2">
    <path d="M 51.215625 312.092969 
L 688.980625 312.092969 
L 688.980625 23.711719 
L 51.215625 23.711719 
z
" style="fill: #ffffff"/>
   </g>
   <g id="matplotlib.axis_1">
    <g id="xtick_1">
     <g id="line2d_1">
      <path d="M 51.215625 312.092969 
L 51.215625 23.711719 
" clip-path="url(#p7640bb7f50)" style="fill: none; stroke-dasharray: 2.96,1.28; stroke-dashoffset: 0; stroke: #b0b0b0; stroke-opacity: 0.3; stroke-width: 0.8"/>
     </g>
     <g id="line2d_2">
      <defs>
       <path id="m67fe4eba8a" d="M 0 0 
L 0 3.5 
" style="stroke: #000000; stroke-width: 0.8"/>
      </defs>
      <g>
       <use xlink:href="#m67fe4eba8a" x="51.215625" y="312.092969" style="stroke: #000000; stroke-width: 0.8"/>
      </g>
     </g>
     <g id="text_1">
      <!-- 0 -->
      <g transform="translate(48.465625 326.655469) scale(0.11 -0.11)">
       <defs>
        <path id="SimHei-30" d="M 225 2537 
Q 250 3200 412 3587 
Q 575 3975 875 4225 
Q 1175 4475 1612 4475 
Q 2050 4475 2375 4112 
Q 2700 3750 2800 3200 
Q 2900 2650 2862 1937 
Q 2825 1225 2612 775 
Q 2400 325 1975 150 
Q 1550 -25 1125 187 
Q 700 400 525 750 
Q 350 1100 275 1487 
Q 200 1875 225 2537 
z
M 750 2687 
Q 675 2000 800 1462 
Q 925 925 1212 700 
Q 1500 475 1800 612 
Q 2100 750 2237 1162 
Q 2375 1575 2375 2062 
Q 2375 2550 2337 2950 
Q 2300 3350 2112 3675 
Q 1925 4000 1612 4012 
Q 1300 4025 1062 3700 
Q 825 3375 750 2687 
z
" transform="scale(0.015625)"/>
       </defs>
       <use xlink:href="#SimHei-30"/>
      </g>
     </g>
    </g>
    <g id="xtick_2">
     <g id="line2d_3">
      <path d="M 130.93625 312.092969 
L 130.93625 23.711719 
" clip-path="url(#p7640bb7f50)" style="fill: none; stroke-dasharray: 2.96,1.28; stroke-dashoffset: 0; stroke: #b0b0b0; stroke-opacity: 0.3; stroke-width: 0.8"/>
     </g>
     <g id="line2d_4">
      <g>
       <use xlink:href="#m67fe4eba8a" x="130.93625" y="312.092969" style="stroke: #000000; stroke-width: 0.8"/>
      </g>
     </g>
     <g id="text_2">
      <!-- 2500 -->
      <g transform="translate(119.93625 326.655469) scale(0.11 -0.11)">
       <defs>
        <path id="SimHei-32" d="M 300 250 
Q 325 625 650 925 
Q 975 1225 1475 1862 
Q 1975 2500 2125 2850 
Q 2275 3200 2237 3450 
Q 2200 3700 2000 3862 
Q 1800 4025 1537 4000 
Q 1275 3975 1037 3800 
Q 800 3625 675 3275 
L 200 3350 
Q 400 3925 712 4187 
Q 1025 4450 1450 4475 
Q 1700 4500 1900 4462 
Q 2100 4425 2312 4287 
Q 2525 4150 2662 3875 
Q 2800 3600 2762 3212 
Q 2725 2825 2375 2287 
Q 2025 1750 1025 600 
L 2825 600 
L 2825 150 
L 300 150 
L 300 250 
z
" transform="scale(0.015625)"/>
        <path id="SimHei-35" d="M 550 1325 
Q 725 650 1150 575 
Q 1575 500 1837 662 
Q 2100 825 2212 1087 
Q 2325 1350 2312 1675 
Q 2300 2000 2137 2225 
Q 1975 2450 1725 2525 
Q 1475 2600 1162 2525 
Q 850 2450 650 2175 
L 225 2225 
Q 275 2375 700 4375 
L 2675 4375 
L 2675 3925 
L 1075 3925 
Q 950 3250 825 2850 
Q 1200 3025 1525 3012 
Q 1850 3000 2150 2862 
Q 2450 2725 2587 2487 
Q 2725 2250 2787 2012 
Q 2850 1775 2837 1500 
Q 2825 1225 2725 937 
Q 2625 650 2425 462 
Q 2225 275 1937 162 
Q 1650 50 1275 75 
Q 900 100 562 350 
Q 225 600 100 1200 
L 550 1325 
z
" transform="scale(0.015625)"/>
       </defs>
       <use xlink:href="#SimHei-32"/>
       <use xlink:href="#SimHei-35" transform="translate(50 0)"/>
       <use xlink:href="#SimHei-30" transform="translate(100 0)"/>
       <use xlink:href="#SimHei-30" transform="translate(150 0)"/>
      </g>
     </g>
    </g>
    <g id="xtick_3">
     <g id="line2d_5">
      <path d="M 210.656875 312.092969 
L 210.656875 23.711719 
" clip-path="url(#p7640bb7f50)" style="fill: none; stroke-dasharray: 2.96,1.28; stroke-dashoffset: 0; stroke: #b0b0b0; stroke-opacity: 0.3; stroke-width: 0.8"/>
     </g>
     <g id="line2d_6">
      <g>
       <use xlink:href="#m67fe4eba8a" x="210.656875" y="312.092969" style="stroke: #000000; stroke-width: 0.8"/>
      </g>
     </g>
     <g id="text_3">
      <!-- 5000 -->
      <g transform="translate(199.656875 326.655469) scale(0.11 -0.11)">
       <use xlink:href="#SimHei-35"/>
       <use xlink:href="#SimHei-30" transform="translate(50 0)"/>
       <use xlink:href="#SimHei-30" transform="translate(100 0)"/>
       <use xlink:href="#SimHei-30" transform="translate(150 0)"/>
      </g>
     </g>
    </g>
    <g id="xtick_4">
     <g id="line2d_7">
      <path d="M 290.3775 312.092969 
L 290.3775 23.711719 
" clip-path="url(#p7640bb7f50)" style="fill: none; stroke-dasharray: 2.96,1.28; stroke-dashoffset: 0; stroke: #b0b0b0; stroke-opacity: 0.3; stroke-width: 0.8"/>
     </g>
     <g id="line2d_8">
      <g>
       <use xlink:href="#m67fe4eba8a" x="290.3775" y="312.092969" style="stroke: #000000; stroke-width: 0.8"/>
      </g>
     </g>
     <g id="text_4">
      <!-- 7500 -->
      <g transform="translate(279.3775 326.655469) scale(0.11 -0.11)">
       <defs>
        <path id="SimHei-37" d="M 850 150 
Q 1300 2050 2425 3925 
L 275 3925 
L 275 4375 
L 2950 4375 
L 2950 3950 
Q 1775 2050 1400 150 
L 850 150 
z
" transform="scale(0.015625)"/>
       </defs>
       <use xlink:href="#SimHei-37"/>
       <use xlink:href="#SimHei-35" transform="translate(50 0)"/>
       <use xlink:href="#SimHei-30" transform="translate(100 0)"/>
       <use xlink:href="#SimHei-30" transform="translate(150 0)"/>
      </g>
     </g>
    </g>
    <g id="xtick_5">
     <g id="line2d_9">
      <path d="M 370.098125 312.092969 
L 370.098125 23.711719 
" clip-path="url(#p7640bb7f50)" style="fill: none; stroke-dasharray: 2.96,1.28; stroke-dashoffset: 0; stroke: #b0b0b0; stroke-opacity: 0.3; stroke-width: 0.8"/>
     </g>
     <g id="line2d_10">
      <g>
       <use xlink:href="#m67fe4eba8a" x="370.098125" y="312.092969" style="stroke: #000000; stroke-width: 0.8"/>
      </g>
     </g>
     <g id="text_5">
      <!-- 10000 -->
      <g transform="translate(356.348125 326.655469) scale(0.11 -0.11)">
       <defs>
        <path id="SimHei-31" d="M 1400 3600 
Q 1075 3275 575 2975 
L 575 3450 
Q 1200 3875 1600 4450 
L 1900 4450 
L 1900 150 
L 1400 150 
L 1400 3600 
z
" transform="scale(0.015625)"/>
       </defs>
       <use xlink:href="#SimHei-31"/>
       <use xlink:href="#SimHei-30" transform="translate(50 0)"/>
       <use xlink:href="#SimHei-30" transform="translate(100 0)"/>
       <use xlink:href="#SimHei-30" transform="translate(150 0)"/>
       <use xlink:href="#SimHei-30" transform="translate(200 0)"/>
      </g>
     </g>
    </g>
    <g id="xtick_6">
     <g id="line2d_11">
      <path d="M 449.81875 312.092969 
L 449.81875 23.711719 
" clip-path="url(#p7640bb7f50)" style="fill: none; stroke-dasharray: 2.96,1.28; stroke-dashoffset: 0; stroke: #b0b0b0; stroke-opacity: 0.3; stroke-width: 0.8"/>
     </g>
     <g id="line2d_12">
      <g>
       <use xlink:href="#m67fe4eba8a" x="449.81875" y="312.092969" style="stroke: #000000; stroke-width: 0.8"/>
      </g>
     </g>
     <g id="text_6">
      <!-- 12500 -->
      <g transform="translate(436.06875 326.655469) scale(0.11 -0.11)">
       <use xlink:href="#SimHei-31"/>
       <use xlink:href="#SimHei-32" transform="translate(50 0)"/>
       <use xlink:href="#SimHei-35" transform="translate(100 0)"/>
       <use xlink:href="#SimHei-30" transform="translate(150 0)"/>
       <use xlink:href="#SimHei-30" transform="translate(200 0)"/>
      </g>
     </g>
    </g>
    <g id="xtick_7">
     <g id="line2d_13">
      <path d="M 529.539375 312.092969 
L 529.539375 23.711719 
" clip-path="url(#p7640bb7f50)" style="fill: none; stroke-dasharray: 2.96,1.28; stroke-dashoffset: 0; stroke: #b0b0b0; stroke-opacity: 0.3; stroke-width: 0.8"/>
     </g>
     <g id="line2d_14">
      <g>
       <use xlink:href="#m67fe4eba8a" x="529.539375" y="312.092969" style="stroke: #000000; stroke-width: 0.8"/>
      </g>
     </g>
     <g id="text_7">
      <!-- 15000 -->
      <g transform="translate(515.789375 326.655469) scale(0.11 -0.11)">
       <use xlink:href="#SimHei-31"/>
       <use xlink:href="#SimHei-35" transform="translate(50 0)"/>
       <use xlink:href="#SimHei-30" transform="translate(100 0)"/>
       <use xlink:href="#SimHei-30" transform="translate(150 0)"/>
       <use xlink:href="#SimHei-30" transform="translate(200 0)"/>
      </g>
     </g>
    </g>
    <g id="xtick_8">
     <g id="line2d_15">
      <path d="M 609.26 312.092969 
L 609.26 23.711719 
" clip-path="url(#p7640bb7f50)" style="fill: none; stroke-dasharray: 2.96,1.28; stroke-dashoffset: 0; stroke: #b0b0b0; stroke-opacity: 0.3; stroke-width: 0.8"/>
     </g>
     <g id="line2d_16">
      <g>
       <use xlink:href="#m67fe4eba8a" x="609.26" y="312.092969" style="stroke: #000000; stroke-width: 0.8"/>
      </g>
     </g>
     <g id="text_8">
      <!-- 17500 -->
      <g transform="translate(595.51 326.655469) scale(0.11 -0.11)">
       <use xlink:href="#SimHei-31"/>
       <use xlink:href="#SimHei-37" transform="translate(50 0)"/>
       <use xlink:href="#SimHei-35" transform="translate(100 0)"/>
       <use xlink:href="#SimHei-30" transform="translate(150 0)"/>
       <use xlink:href="#SimHei-30" transform="translate(200 0)"/>
      </g>
     </g>
    </g>
    <g id="xtick_9">
     <g id="line2d_17">
      <path d="M 688.980625 312.092969 
L 688.980625 23.711719 
" clip-path="url(#p7640bb7f50)" style="fill: none; stroke-dasharray: 2.96,1.28; stroke-dashoffset: 0; stroke: #b0b0b0; stroke-opacity: 0.3; stroke-width: 0.8"/>
     </g>
     <g id="line2d_18">
      <g>
       <use xlink:href="#m67fe4eba8a" x="688.980625" y="312.092969" style="stroke: #000000; stroke-width: 0.8"/>
      </g>
     </g>
     <g id="text_9">
      <!-- 20000 -->
      <g transform="translate(675.230625 326.655469) scale(0.11 -0.11)">
       <use xlink:href="#SimHei-32"/>
       <use xlink:href="#SimHei-30" transform="translate(50 0)"/>
       <use xlink:href="#SimHei-30" transform="translate(100 0)"/>
       <use xlink:href="#SimHei-30" transform="translate(150 0)"/>
       <use xlink:href="#SimHei-30" transform="translate(200 0)"/>
      </g>
     </g>
    </g>
    <g id="text_10">
     <!-- 订货周期 -->
     <g transform="translate(346.098125 341.499219) scale(0.12 -0.12)">
      <defs>
       <path id="SimHei-8ba2" d="M 5250 4750 
Q 5525 4750 6125 4775 
L 6125 4300 
Q 5575 4325 4775 4325 
L 4775 100 
Q 4775 -350 4387 -462 
Q 4000 -575 3600 -600 
Q 3575 -275 3400 75 
Q 3825 25 4050 50 
Q 4275 75 4300 300 
L 4300 4325 
L 3225 4325 
Q 2850 4325 2450 4300 
L 2450 4775 
Q 3075 4750 3250 4750 
L 5250 4750 
z
M 1850 425 
Q 2400 900 2750 1225 
Q 2825 925 2950 725 
Q 2575 425 2175 87 
Q 1775 -250 1500 -550 
Q 1350 -325 1150 -150 
Q 1400 50 1375 400 
L 1375 2725 
L 1025 2725 
Q 600 2725 300 2700 
L 300 3175 
Q 600 3150 1025 3150 
L 1875 3150 
Q 1875 2675 1850 2250 
L 1850 425 
z
M 1150 5125 
Q 1525 4775 2150 4100 
Q 1950 3925 1725 3700 
Q 1300 4275 775 4750 
Q 1000 4950 1150 5125 
z
" transform="scale(0.015625)"/>
       <path id="SimHei-8d27" d="M 3975 5075 
Q 3950 4750 3950 4100 
Q 4075 4175 4525 4375 
Q 4975 4575 5375 4900 
Q 5550 4625 5700 4400 
Q 5425 4325 4987 4112 
Q 4550 3900 3950 3650 
L 3950 3225 
Q 3950 3025 4300 3025 
L 5125 3025 
Q 5425 3025 5487 3150 
Q 5550 3275 5575 3625 
Q 5850 3450 6125 3375 
Q 5975 2875 5825 2750 
Q 5675 2625 5475 2625 
L 4000 2625 
Q 3425 2625 3425 3125 
L 3425 3525 
Q 2900 3325 2575 3225 
Q 2425 3500 2350 3650 
Q 2750 3750 3425 3925 
Q 3425 4750 3400 5075 
L 3975 5075 
z
M 5200 2200 
Q 5175 1825 5175 1425 
Q 5175 1050 5200 600 
L 4625 600 
L 4625 1775 
L 1950 1775 
L 1950 625 
L 1400 625 
Q 1425 1025 1425 1400 
Q 1425 1800 1400 2200 
L 5200 2200 
z
M 2625 4850 
Q 2425 4700 2050 4300 
Q 2050 2900 2075 2450 
L 1500 2450 
Q 1525 2900 1525 3825 
Q 1300 3625 1100 3425 
Q 900 3225 700 3050 
Q 475 3250 325 3400 
Q 850 3725 1325 4237 
Q 1800 4750 2050 5175 
Q 2325 4925 2625 4850 
z
M 3550 1325 
Q 3425 975 3312 687 
Q 3200 400 2925 137 
Q 2650 -125 2150 -325 
Q 1650 -525 800 -675 
Q 725 -400 475 -100 
Q 1200 -75 1675 25 
Q 2150 125 2412 325 
Q 2675 525 2787 775 
Q 2900 1025 2975 1400 
Q 3250 1350 3550 1325 
z
M 5575 -675 
Q 5125 -400 4650 -187 
Q 4175 25 3575 250 
Q 3725 500 3825 725 
Q 4350 500 4800 300 
Q 5250 100 5875 -175 
Q 5700 -400 5575 -675 
z
" transform="scale(0.015625)"/>
       <path id="SimHei-5468" d="M 5600 4925 
Q 5575 4400 5575 3800 
L 5575 50 
Q 5550 -375 5325 -462 
Q 5100 -550 4325 -600 
Q 4300 -400 4125 -75 
Q 4800 -100 4962 -37 
Q 5125 25 5100 225 
L 5100 4525 
L 1500 4525 
Q 1500 2575 1450 1887 
Q 1400 1200 1237 550 
Q 1075 -100 775 -625 
Q 625 -450 275 -225 
Q 650 225 825 1000 
Q 1000 1775 1025 2587 
Q 1050 3400 1000 4925 
L 5600 4925 
z
M 2050 325 
Q 2075 625 2075 950 
L 2075 1400 
Q 2075 1625 2050 1925 
L 4400 1925 
Q 4375 1725 4375 1450 
L 4375 875 
Q 4375 600 4400 325 
L 2050 325 
z
M 3000 3800 
Q 3000 4150 2975 4375 
L 3475 4375 
Q 3450 4075 3450 3800 
Q 4100 3800 4475 3825 
L 4475 3350 
Q 4125 3375 3450 3375 
L 3450 2800 
Q 4200 2800 4825 2825 
L 4825 2350 
Q 4175 2375 3725 2375 
L 2750 2375 
Q 2325 2375 1725 2350 
L 1725 2825 
Q 2325 2800 3000 2800 
L 3000 3375 
Q 2500 3375 1975 3350 
L 1975 3825 
Q 2475 3800 3000 3800 
z
M 3900 725 
L 3900 1525 
L 2550 1525 
L 2550 725 
L 3900 725 
z
" transform="scale(0.015625)"/>
       <path id="SimHei-671f" d="M 4900 -25 
Q 5475 -100 5425 175 
L 5425 1575 
L 4325 1575 
Q 4275 975 4050 425 
Q 3825 -125 3400 -600 
Q 3225 -375 2925 -275 
Q 3350 150 3562 625 
Q 3775 1100 3812 1575 
Q 3850 2050 3850 3125 
Q 3850 4225 3825 4875 
L 5950 4875 
Q 5925 4400 5925 3725 
L 5925 50 
Q 5925 -300 5700 -425 
Q 5475 -550 5100 -600 
Q 5100 -325 4900 -25 
z
M 950 4300 
Q 950 4675 925 5125 
L 1450 5125 
Q 1425 4625 1425 4300 
L 2550 4300 
Q 2550 4775 2525 5125 
L 3075 5125 
Q 3050 4700 3050 4300 
Q 3225 4300 3500 4325 
L 3500 3900 
Q 3250 3925 3050 3925 
L 3050 1550 
Q 3250 1550 3500 1575 
L 3500 1150 
Q 3025 1175 2575 1175 
L 1225 1175 
Q 675 1175 275 1150 
L 275 1575 
Q 650 1550 950 1550 
L 950 3925 
Q 725 3925 425 3900 
L 425 4325 
Q 700 4300 950 4300 
z
M 5425 3375 
L 5425 4500 
L 4350 4500 
L 4350 3375 
L 5425 3375 
z
M 5425 1950 
L 5425 3000 
L 4350 3000 
L 4350 1950 
L 5425 1950 
z
M 1600 725 
Q 1425 650 1162 287 
Q 900 -75 650 -350 
Q 400 -175 225 -75 
Q 450 100 700 412 
Q 950 725 1100 1025 
L 1600 725 
z
M 2550 3375 
L 2550 3925 
L 1425 3925 
L 1425 3375 
L 2550 3375 
z
M 2550 1550 
L 2550 2100 
L 1425 2100 
L 1425 1550 
L 2550 1550 
z
M 2550 2475 
L 2550 3000 
L 1425 3000 
L 1425 2475 
L 2550 2475 
z
M 2850 -75 
Q 2450 525 2225 725 
Q 2375 825 2550 1025 
Q 2850 725 3250 275 
Q 3050 125 2850 -75 
z
" transform="scale(0.015625)"/>
      </defs>
      <use xlink:href="#SimHei-8ba2"/>
      <use xlink:href="#SimHei-8d27" transform="translate(100 0)"/>
      <use xlink:href="#SimHei-5468" transform="translate(200 0)"/>
      <use xlink:href="#SimHei-671f" transform="translate(300 0)"/>
     </g>
    </g>
   </g>
   <g id="matplotlib.axis_2">
    <g id="ytick_1">
     <g id="line2d_19">
      <path d="M 51.215625 300.445646 
L 688.980625 300.445646 
" clip-path="url(#p7640bb7f50)" style="fill: none; stroke-dasharray: 2.96,1.28; stroke-dashoffset: 0; stroke: #b0b0b0; stroke-opacity: 0.3; stroke-width: 0.8"/>
     </g>
     <g id="line2d_20">
      <defs>
       <path id="mf7572b599e" d="M 0 0 
L -3.5 0 
" style="stroke: #000000; stroke-width: 0.8"/>
      </defs>
      <g>
       <use xlink:href="#mf7572b599e" x="51.215625" y="300.445646" style="stroke: #000000; stroke-width: 0.8"/>
      </g>
     </g>
     <g id="text_11">
      <!-- 0 -->
      <g transform="translate(38.715625 304.226896) scale(0.11 -0.11)">
       <use xlink:href="#SimHei-30"/>
      </g>
     </g>
    </g>
    <g id="ytick_2">
     <g id="line2d_21">
      <path d="M 51.215625 246.89362 
L 688.980625 246.89362 
" clip-path="url(#p7640bb7f50)" style="fill: none; stroke-dasharray: 2.96,1.28; stroke-dashoffset: 0; stroke: #b0b0b0; stroke-opacity: 0.3; stroke-width: 0.8"/>
     </g>
     <g id="line2d_22">
      <g>
       <use xlink:href="#mf7572b599e" x="51.215625" y="246.89362" style="stroke: #000000; stroke-width: 0.8"/>
      </g>
     </g>
     <g id="text_12">
      <!-- 500 -->
      <g transform="translate(27.715625 250.67487) scale(0.11 -0.11)">
       <use xlink:href="#SimHei-35"/>
       <use xlink:href="#SimHei-30" transform="translate(50 0)"/>
       <use xlink:href="#SimHei-30" transform="translate(100 0)"/>
      </g>
     </g>
    </g>
    <g id="ytick_3">
     <g id="line2d_23">
      <path d="M 51.215625 193.341594 
L 688.980625 193.341594 
" clip-path="url(#p7640bb7f50)" style="fill: none; stroke-dasharray: 2.96,1.28; stroke-dashoffset: 0; stroke: #b0b0b0; stroke-opacity: 0.3; stroke-width: 0.8"/>
     </g>
     <g id="line2d_24">
      <g>
       <use xlink:href="#mf7572b599e" x="51.215625" y="193.341594" style="stroke: #000000; stroke-width: 0.8"/>
      </g>
     </g>
     <g id="text_13">
      <!-- 1000 -->
      <g transform="translate(22.215625 197.122844) scale(0.11 -0.11)">
       <use xlink:href="#SimHei-31"/>
       <use xlink:href="#SimHei-30" transform="translate(50 0)"/>
       <use xlink:href="#SimHei-30" transform="translate(100 0)"/>
       <use xlink:href="#SimHei-30" transform="translate(150 0)"/>
      </g>
     </g>
    </g>
    <g id="ytick_4">
     <g id="line2d_25">
      <path d="M 51.215625 139.789567 
L 688.980625 139.789567 
" clip-path="url(#p7640bb7f50)" style="fill: none; stroke-dasharray: 2.96,1.28; stroke-dashoffset: 0; stroke: #b0b0b0; stroke-opacity: 0.3; stroke-width: 0.8"/>
     </g>
     <g id="line2d_26">
      <g>
       <use xlink:href="#mf7572b599e" x="51.215625" y="139.789567" style="stroke: #000000; stroke-width: 0.8"/>
      </g>
     </g>
     <g id="text_14">
      <!-- 1500 -->
      <g transform="translate(22.215625 143.570817) scale(0.11 -0.11)">
       <use xlink:href="#SimHei-31"/>
       <use xlink:href="#SimHei-35" transform="translate(50 0)"/>
       <use xlink:href="#SimHei-30" transform="translate(100 0)"/>
       <use xlink:href="#SimHei-30" transform="translate(150 0)"/>
      </g>
     </g>
    </g>
    <g id="ytick_5">
     <g id="line2d_27">
      <path d="M 51.215625 86.237541 
L 688.980625 86.237541 
" clip-path="url(#p7640bb7f50)" style="fill: none; stroke-dasharray: 2.96,1.28; stroke-dashoffset: 0; stroke: #b0b0b0; stroke-opacity: 0.3; stroke-width: 0.8"/>
     </g>
     <g id="line2d_28">
      <g>
       <use xlink:href="#mf7572b599e" x="51.215625" y="86.237541" style="stroke: #000000; stroke-width: 0.8"/>
      </g>
     </g>
     <g id="text_15">
      <!-- 2000 -->
      <g transform="translate(22.215625 90.018791) scale(0.11 -0.11)">
       <use xlink:href="#SimHei-32"/>
       <use xlink:href="#SimHei-30" transform="translate(50 0)"/>
       <use xlink:href="#SimHei-30" transform="translate(100 0)"/>
       <use xlink:href="#SimHei-30" transform="translate(150 0)"/>
      </g>
     </g>
    </g>
    <g id="ytick_6">
     <g id="line2d_29">
      <path d="M 51.215625 32.685515 
L 688.980625 32.685515 
" clip-path="url(#p7640bb7f50)" style="fill: none; stroke-dasharray: 2.96,1.28; stroke-dashoffset: 0; stroke: #b0b0b0; stroke-opacity: 0.3; stroke-width: 0.8"/>
     </g>
     <g id="line2d_30">
      <g>
       <use xlink:href="#mf7572b599e" x="51.215625" y="32.685515" style="stroke: #000000; stroke-width: 0.8"/>
      </g>
     </g>
     <g id="text_16">
      <!-- 2500 -->
      <g transform="translate(22.215625 36.466765) scale(0.11 -0.11)">
       <use xlink:href="#SimHei-32"/>
       <use xlink:href="#SimHei-35" transform="translate(50 0)"/>
       <use xlink:href="#SimHei-30" transform="translate(100 0)"/>
       <use xlink:href="#SimHei-30" transform="translate(150 0)"/>
      </g>
     </g>
    </g>
    <g id="text_17">
     <!-- 累计平均成本 -->
     <g transform="translate(16.715625 203.902344) rotate(-90) scale(0.12 -0.12)">
      <defs>
       <path id="SimHei-7d2f" d="M 5475 5000 
Q 5450 4600 5450 3975 
Q 5450 3350 5475 2950 
L 4675 2950 
Q 4850 2775 5075 2600 
Q 4800 2525 4237 2275 
Q 3675 2025 3262 1837 
Q 2850 1650 2400 1425 
Q 3850 1525 4650 1575 
Q 4425 1725 4200 1850 
Q 4375 2000 4500 2175 
Q 5125 1800 5900 1300 
Q 5750 1125 5575 900 
Q 5375 1075 5100 1250 
Q 4250 1175 3475 1125 
L 3475 50 
Q 3475 -350 3212 -462 
Q 2950 -575 2600 -600 
Q 2575 -375 2375 -50 
Q 2800 -75 2900 -25 
Q 3000 25 3000 125 
L 3000 1075 
Q 2400 1050 1987 1012 
Q 1575 975 850 875 
Q 775 1125 700 1350 
Q 1150 1400 1575 1512 
Q 2000 1625 3025 2125 
Q 1775 2025 1250 1925 
Q 1200 2200 1100 2375 
Q 1325 2375 1737 2537 
Q 2150 2700 2475 2950 
L 950 2950 
Q 975 3375 975 3975 
Q 975 4600 950 5000 
L 5475 5000 
z
M 2425 525 
Q 2200 400 1762 137 
Q 1325 -125 850 -425 
Q 700 -225 500 -25 
Q 850 125 1250 362 
Q 1650 600 2025 900 
Q 2150 725 2425 525 
z
M 2975 4100 
L 2975 4650 
L 1450 4650 
L 1450 4100 
L 2975 4100 
z
M 4975 4100 
L 4975 4650 
L 3450 4650 
L 3450 4100 
L 4975 4100 
z
M 4275 850 
Q 4750 650 5050 500 
L 5850 100 
Q 5675 -125 5575 -375 
Q 5150 -100 4775 100 
Q 4400 300 4050 450 
Q 4200 675 4275 850 
z
M 2975 3275 
L 2975 3750 
L 1450 3750 
L 1450 3275 
L 2975 3275 
z
M 4975 3275 
L 4975 3750 
L 3450 3750 
L 3450 3275 
L 4975 3275 
z
M 3700 2475 
Q 4200 2700 4575 2950 
L 3225 2950 
Q 2900 2750 2300 2425 
Q 3075 2450 3700 2475 
z
" transform="scale(0.015625)"/>
       <path id="SimHei-8ba1" d="M 3925 3100 
L 3925 4350 
Q 3925 4850 3900 5125 
L 4425 5125 
Q 4400 4800 4400 4550 
L 4400 3100 
L 5425 3100 
Q 5725 3100 6075 3125 
L 6075 2650 
Q 5700 2675 5450 2675 
L 4400 2675 
L 4400 175 
Q 4400 -125 4425 -550 
L 3900 -550 
Q 3925 -125 3925 150 
L 3925 2675 
L 2950 2675 
Q 2575 2675 2200 2650 
L 2200 3125 
Q 2575 3100 2900 3100 
L 3925 3100 
z
M 1775 3150 
Q 1750 2675 1750 2150 
L 1750 625 
Q 2175 1050 2425 1400 
Q 2575 1200 2775 1000 
L 2075 300 
Q 1750 -25 1450 -350 
Q 1275 -125 1125 50 
Q 1300 250 1275 650 
L 1275 2725 
Q 600 2725 275 2700 
L 275 3175 
Q 675 3150 825 3150 
L 1775 3150 
z
M 1150 5050 
Q 1475 4725 2175 4000 
Q 1950 3800 1750 3625 
Q 1425 4100 775 4750 
Q 950 4875 1150 5050 
z
" transform="scale(0.015625)"/>
       <path id="SimHei-5e73" d="M 4525 4825 
Q 4900 4825 5450 4850 
L 5450 4375 
Q 4925 4400 4525 4400 
L 3475 4400 
L 3475 2025 
L 5000 2025 
Q 5550 2025 6025 2050 
L 6025 1575 
Q 5550 1600 5000 1600 
L 3475 1600 
L 3475 450 
Q 3475 -100 3500 -600 
L 2925 -600 
Q 2950 -100 2950 450 
L 2950 1600 
L 1125 1600 
Q 775 1600 375 1575 
L 375 2050 
Q 775 2025 1175 2025 
L 2950 2025 
L 2950 4400 
L 1775 4400 
Q 1400 4400 875 4375 
L 875 4850 
Q 1400 4825 1750 4825 
L 4525 4825 
z
M 3925 2600 
Q 4500 3300 4900 4125 
Q 5150 3950 5400 3825 
Q 4775 2850 4350 2300 
Q 4150 2475 3925 2600 
z
M 1975 2350 
Q 1600 3100 1050 3725 
Q 1250 3875 1450 4050 
Q 2075 3300 2450 2725 
Q 2150 2500 1975 2350 
z
" transform="scale(0.015625)"/>
       <path id="SimHei-5747" d="M 5775 275 
Q 5775 -325 5362 -450 
Q 4950 -575 4425 -600 
Q 4375 -275 4250 25 
Q 4950 -25 5125 62 
Q 5300 150 5300 500 
L 5375 3700 
L 3550 3700 
Q 3425 3375 3262 3037 
Q 3100 2700 2925 2400 
Q 2675 2550 2475 2625 
Q 3150 3625 3500 5200 
Q 3800 5100 4075 5025 
Q 3975 4875 3875 4650 
Q 3775 4425 3675 4125 
L 5900 4125 
L 5775 275 
z
M 1250 3625 
L 1250 4375 
Q 1250 4775 1225 5100 
L 1775 5100 
Q 1750 4725 1750 4375 
L 1750 3625 
L 1900 3625 
Q 2200 3625 2525 3650 
L 2525 3150 
Q 2200 3175 1900 3175 
L 1750 3175 
L 1750 1100 
L 2500 1375 
Q 2475 1125 2525 900 
Q 1225 475 962 362 
Q 700 250 475 150 
Q 375 475 250 750 
Q 575 800 800 850 
Q 1025 900 1250 975 
L 1250 3175 
L 1125 3175 
Q 850 3175 400 3150 
L 400 3650 
Q 850 3625 1100 3625 
L 1250 3625 
z
M 4950 1625 
Q 4675 1425 4137 1050 
Q 3600 675 3175 300 
Q 3000 575 2850 775 
Q 3350 1050 3762 1325 
Q 4175 1600 4775 2075 
Q 4825 1850 4950 1625 
z
M 3775 3150 
Q 4125 2800 4475 2300 
Q 4250 2125 4100 1975 
Q 3900 2325 3450 2825 
Q 3600 3000 3775 3150 
z
" transform="scale(0.015625)"/>
       <path id="SimHei-6210" d="M 3500 4000 
Q 3475 4725 3450 5225 
Q 3750 5200 4025 5175 
Q 3975 4850 4000 4000 
L 4725 4000 
Q 5250 4000 5875 4025 
L 5875 3550 
Q 5225 3575 4725 3575 
L 4025 3575 
Q 4050 2625 4350 1500 
Q 4825 2225 5100 3175 
Q 5350 2975 5675 2825 
Q 5475 2600 5225 2075 
Q 4975 1550 4575 975 
Q 4800 525 5062 262 
Q 5325 0 5425 37 
Q 5525 75 5625 900 
Q 5875 700 6150 600 
Q 5975 -425 5762 -537 
Q 5550 -650 5250 -537 
Q 4950 -425 4687 -112 
Q 4425 200 4250 575 
Q 3650 -75 2725 -650 
Q 2600 -425 2350 -250 
Q 2850 -25 3312 350 
Q 3775 725 4000 1050 
Q 3825 1525 3700 2212 
Q 3575 2900 3550 3575 
L 1400 3575 
L 1400 2700 
L 3025 2700 
Q 2975 2250 2950 1775 
L 2875 775 
Q 2850 300 2612 200 
Q 2375 100 1800 50 
Q 1775 275 1600 600 
Q 2225 575 2325 675 
Q 2425 775 2450 1250 
L 2500 2250 
L 1400 2250 
Q 1400 1275 1250 625 
Q 1100 -25 700 -575 
Q 425 -375 200 -300 
Q 525 100 650 462 
Q 775 825 837 1250 
Q 900 1675 912 2450 
Q 925 3225 900 4000 
L 3500 4000 
z
M 4750 5225 
Q 5250 4825 5625 4425 
Q 5400 4250 5225 4075 
Q 4925 4475 4425 4900 
Q 4600 5050 4750 5225 
z
" transform="scale(0.015625)"/>
       <path id="SimHei-672c" d="M 2950 3925 
L 2950 4425 
Q 2950 4825 2925 5175 
L 3475 5175 
Q 3450 4900 3450 4450 
L 3450 3925 
L 4850 3925 
Q 5275 3925 5850 3950 
L 5850 3475 
Q 5300 3500 4875 3500 
L 3850 3500 
Q 4200 2350 4862 1687 
Q 5525 1025 6075 800 
Q 5850 625 5650 325 
Q 4800 900 4262 1637 
Q 3725 2375 3450 3350 
L 3450 1000 
L 3775 1000 
Q 4175 1000 4600 1025 
L 4600 550 
Q 4175 575 3750 575 
L 3450 575 
Q 3450 0 3475 -600 
L 2925 -600 
Q 2950 0 2950 575 
L 2625 575 
Q 2225 575 1825 550 
L 1825 1025 
Q 2225 1000 2625 1000 
L 2950 1000 
L 2950 3300 
Q 2550 2275 2062 1575 
Q 1575 875 750 175 
Q 550 450 275 575 
Q 1100 1075 1650 1825 
Q 2200 2575 2525 3500 
L 1425 3500 
Q 1025 3500 575 3475 
L 575 3950 
Q 1025 3925 1400 3925 
L 2950 3925 
z
" transform="scale(0.015625)"/>
      </defs>
      <use xlink:href="#SimHei-7d2f"/>
      <use xlink:href="#SimHei-8ba1" transform="translate(100 0)"/>
      <use xlink:href="#SimHei-5e73" transform="translate(200 0)"/>
      <use xlink:href="#SimHei-5747" transform="translate(300 0)"/>
      <use xlink:href="#SimHei-6210" transform="translate(400 0)"/>
      <use xlink:href="#SimHei-672c" transform="translate(500 0)"/>
     </g>
    </g>
   </g>
   <g id="line2d_31">
    <path d="M 51.215625 297.977201 
L 51.534508 298.98473 
L 51.85339 298.56258 
L 52.172273 298.80762 
L 52.491155 298.418683 
L 52.810037 298.633009 
L 53.766685 298.280375 
L 54.085568 298.376647 
L 54.723333 298.052302 
L 55.042215 298.097048 
L 55.67998 297.869843 
L 55.998863 297.318368 
L 56.636628 297.181512 
L 57.274393 297.306943 
L 59.825453 297.024165 
L 60.7821 297.045406 
L 61.419865 297.079165 
L 62.695395 297.054556 
L 63.33316 297.107262 
L 63.970925 297.026065 
L 64.60869 297.004124 
L 65.246455 296.938857 
L 66.203102 296.927126 
L 68.754163 296.88796 
L 81.509463 296.87983 
L 82.46611 296.85267 
L 85.654935 296.911944 
L 86.930465 296.906379 
L 88.524878 296.883495 
L 89.481525 296.86331 
L 96.49694 296.823562 
L 99.685765 296.823734 
L 101.59906 296.816672 
L 106.382298 296.837271 
L 111.165535 296.866132 
L 114.035478 296.861789 
L 120.73201 296.914122 
L 124.877483 296.880517 
L 129.022955 296.844602 
L 147.199258 296.901501 
L 156.127968 296.939918 
L 161.230088 296.944974 
L 182.595215 296.972213 
L 192.16169 296.987636 
L 201.0904 296.97625 
L 233.935298 296.973098 
L 250.198305 296.957912 
L 323.860163 297.011351 
L 345.22529 296.98837 
L 370.098125 296.968567 
L 411.55285 296.952622 
L 431.323565 296.959716 
L 485.214708 296.982626 
L 497.332243 296.97896 
L 549.947855 296.999094 
L 597.142465 296.995095 
L 666.339968 296.997517 
L 688.661743 296.994587 
L 688.661743 296.994587 
" clip-path="url(#p7640bb7f50)" style="fill: none; stroke: #e74c3c; stroke-opacity: 0.85; stroke-width: 1.2; stroke-linecap: square"/>
   </g>
   <g id="line2d_32">
    <path d="M 51.215625 297.977201 
L 51.534508 298.092341 
L 51.85339 293.781193 
L 52.172273 294.257837 
L 52.491155 293.267135 
L 52.810037 293.604625 
L 53.12892 293.691318 
L 53.447803 293.620002 
L 54.085568 294.011216 
L 54.40445 293.9668 
L 54.723333 293.51795 
L 55.042215 293.594195 
L 55.67998 292.911221 
L 55.998863 290.990693 
L 56.317745 290.053888 
L 56.636628 289.949436 
L 57.274393 290.367201 
L 57.593275 290.333517 
L 57.912158 290.15722 
L 58.23104 290.113929 
L 58.549923 289.85513 
L 58.868805 289.092283 
L 59.187688 288.854267 
L 59.50657 288.388147 
L 60.144335 288.430388 
L 60.463218 288.29736 
L 62.05763 288.391126 
L 62.376513 288.390804 
L 63.652043 288.774691 
L 66.203102 288.95858 
L 66.840868 288.806672 
L 67.478633 288.966639 
L 67.797515 288.911334 
L 68.43528 289.166681 
L 70.029693 289.376415 
L 70.348575 289.32767 
L 71.305223 289.511151 
L 71.942988 289.334329 
L 73.5374 289.32432 
L 74.175165 289.369563 
L 74.81293 289.477112 
L 75.450695 289.333329 
L 76.407343 289.188067 
L 78.001755 289.275836 
L 78.958403 289.067526 
L 80.552815 289.112584 
L 82.46611 289.021276 
L 83.103875 289.057767 
L 85.01717 289.152753 
L 88.524878 289.089749 
L 89.162643 288.824452 
L 89.800408 288.865394 
L 91.075938 288.68662 
L 92.989233 288.691124 
L 94.583645 288.701562 
L 99.685765 288.96161 
L 105.744533 289.045483 
L 108.614475 288.893053 
L 112.122183 289.047811 
L 115.311008 289.016255 
L 116.586538 289.087804 
L 117.862068 289.017783 
L 120.73201 289.089163 
L 131.574015 288.933362 
L 135.081723 289.042835 
L 138.58943 289.039772 
L 139.86496 289.010756 
L 143.372668 289.070976 
L 153.576908 289.214127 
L 155.17132 289.247095 
L 193.43722 289.332668 
L 195.350515 289.36726 
L 207.149168 289.358753 
L 274.752258 289.301359 
L 284.956498 289.403188 
L 290.3775 289.413936 
L 309.191568 289.440532 
L 312.06151 289.433304 
L 320.99022 289.478162 
L 333.426638 289.515921 
L 337.253228 289.53835 
L 346.50082 289.413515 
L 350.32741 289.37092 
L 356.70506 289.34336 
L 385.404485 289.275577 
L 392.4199 289.298833 
L 451.413163 289.294231 
L 454.92087 289.289639 
L 463.211815 289.320771 
L 488.722415 289.297962 
L 495.73783 289.300576 
L 531.133788 289.351882 
L 542.93244 289.381898 
L 568.761923 289.387556 
L 584.068283 289.396558 
L 603.201233 289.402385 
L 688.661743 289.486355 
L 688.661743 289.486355 
" clip-path="url(#p7640bb7f50)" style="fill: none; stroke: #e67e22; stroke-opacity: 0.85; stroke-width: 1.2; stroke-linecap: square"/>
   </g>
   <g id="line2d_33">
    <path d="M 51.215625 297.977201 
L 51.534508 295.321991 
L 51.85339 265.121898 
L 52.172273 257.400034 
L 52.491155 260.094268 
L 53.12892 267.99556 
L 54.085568 273.458736 
L 54.40445 274.285286 
L 54.723333 274.781794 
L 55.042215 275.030567 
L 55.361098 273.943104 
L 55.67998 273.812847 
L 56.636628 259.499026 
L 56.95551 256.98975 
L 57.274393 256.055184 
L 57.593275 256.463718 
L 57.912158 257.076858 
L 58.23104 257.43947 
L 58.549923 257.350191 
L 59.187688 254.695153 
L 59.825453 253.239652 
L 60.144335 253.276135 
L 60.463218 253.049189 
L 60.7821 253.076742 
L 61.100983 253.423308 
L 61.419865 253.58925 
L 61.738748 253.930096 
L 62.05763 254.018285 
L 62.376513 254.312212 
L 63.970925 257.384427 
L 64.289808 257.865968 
L 64.927573 258.379803 
L 65.565337 259.328944 
L 66.203102 259.745288 
L 66.521985 259.629131 
L 66.840868 259.726306 
L 67.15975 260.052666 
L 68.754163 262.323285 
L 69.391928 263.092998 
L 69.71081 263.340195 
L 70.029693 263.261807 
L 70.667458 263.334021 
L 70.98634 263.617101 
L 72.580753 264.301474 
L 72.899635 264.508896 
L 73.218518 264.239483 
L 73.5374 264.208431 
L 73.856283 264.349827 
L 74.81293 265.303037 
L 75.450695 265.349355 
L 77.36399 265.421956 
L 78.001755 265.82752 
L 78.63952 265.405839 
L 79.277285 265.153806 
L 80.552815 265.652755 
L 81.19058 265.575302 
L 81.509463 265.529102 
L 82.147228 264.746747 
L 82.46611 264.52598 
L 83.103875 264.467104 
L 83.422758 264.257749 
L 83.74164 264.265035 
L 84.698288 264.78986 
L 85.01717 264.621509 
L 85.973818 263.392541 
L 86.2927 262.966473 
L 86.611583 262.787006 
L 87.56823 262.886462 
L 88.524878 263.203382 
L 89.481525 262.041347 
L 91.39482 261.647786 
L 93.308115 261.984312 
L 93.626998 261.828886 
L 94.264763 261.81472 
L 94.902528 262.042759 
L 95.859175 262.053765 
L 96.49694 262.388117 
L 97.453588 262.862672 
L 98.091353 262.882879 
L 99.366883 263.294397 
L 100.961295 263.824702 
L 101.59906 263.71388 
L 102.236825 263.871311 
L 102.87459 263.71795 
L 103.512355 262.816188 
L 104.15012 262.321572 
L 104.787885 262.378349 
L 105.744533 262.693203 
L 107.020063 262.858366 
L 108.614475 262.508995 
L 111.484418 263.308674 
L 113.397713 263.273292 
L 114.673243 262.609909 
L 115.311008 262.710092 
L 116.586538 263.148056 
L 116.90542 263.096329 
L 117.543185 262.726938 
L 118.18095 262.66167 
L 119.45648 262.88467 
L 120.413128 263.117457 
L 121.050893 263.033375 
L 122.326423 263.284032 
L 122.964188 263.00928 
L 123.601953 263.00761 
L 125.196365 263.212281 
L 125.83413 263.175655 
L 126.471895 263.003111 
L 129.341838 263.374371 
L 130.298485 263.1812 
L 130.93625 263.188408 
L 131.892898 263.408394 
L 132.849545 263.641275 
L 133.48731 263.504908 
L 135.081723 263.757146 
L 136.995018 263.992328 
L 137.632783 263.940433 
L 138.270548 263.827139 
L 138.58943 263.869606 
L 139.227195 263.704633 
L 140.502725 263.801289 
L 141.459373 263.982969 
L 142.097138 263.8675 
L 143.053785 263.955143 
L 144.648198 263.843685 
L 147.837023 264.26086 
L 148.79367 264.367254 
L 150.388083 264.148869 
L 153.258025 264.617627 
L 154.533555 264.698314 
L 156.127968 264.980948 
L 157.403498 265.037044 
L 158.041263 265.129211 
L 159.316793 264.982719 
L 159.954558 264.904586 
L 161.230088 264.937911 
L 162.8245 264.832808 
L 165.056678 265.112587 
L 168.245503 265.321419 
L 168.883268 265.387563 
L 169.839915 265.101336 
L 173.347623 265.042825 
L 175.898683 265.273712 
L 177.493095 264.880929 
L 178.449743 264.839794 
L 180.044155 264.697497 
L 180.68192 264.582201 
L 187.378453 264.911654 
L 188.972865 265.049823 
L 189.929513 265.057151 
L 192.799455 265.146428 
L 193.43722 265.003261 
L 194.393868 265.045142 
L 195.669398 265.207766 
L 197.582693 265.220603 
L 198.858223 265.320109 
L 199.81487 265.313437 
L 203.960343 265.174284 
L 209.700228 265.302602 
L 210.656875 265.368355 
L 214.164583 265.589773 
L 215.12123 265.526204 
L 217.991173 265.479111 
L 220.542233 265.634879 
L 223.412175 265.564158 
L 230.42759 265.625587 
L 231.70312 265.43117 
L 237.443005 265.460656 
L 238.399653 265.406612 
L 240.312948 265.438801 
L 242.226243 264.932543 
L 243.820655 264.973831 
L 245.73395 265.000823 
L 246.690598 264.933214 
L 248.28501 264.805087 
L 249.56054 264.803796 
L 251.792718 264.924116 
L 254.981543 265.11413 
L 255.93819 264.959449 
L 259.76478 264.901361 
L 260.721428 264.868954 
L 266.780195 265.035615 
L 268.055725 265.060063 
L 269.650138 265.11724 
L 275.708905 265.149698 
L 278.89773 265.317696 
L 279.854378 265.261454 
L 287.188675 265.47263 
L 290.058618 265.578704 
L 296.436268 265.756666 
L 299.625093 265.827044 
L 301.538388 265.876946 
L 304.089448 265.87405 
L 305.046095 265.687307 
L 308.872685 265.604916 
L 309.51045 265.564707 
L 310.467098 265.39288 
L 313.018158 265.432934 
L 315.569218 265.531644 
L 319.076925 265.539423 
L 325.135693 265.755242 
L 326.730105 265.566875 
L 329.281165 265.600599 
L 333.426638 265.80023 
L 334.702168 265.76719 
L 336.29658 265.80818 
L 338.528758 265.867043 
L 339.485405 265.758464 
L 340.12317 265.647502 
L 341.079818 265.406957 
L 342.355348 265.321654 
L 344.268643 265.404951 
L 344.906408 265.359003 
L 348.732998 264.734137 
L 351.60294 264.634581 
L 353.835118 264.573814 
L 356.386178 264.443596 
L 357.342825 264.379761 
L 360.53165 264.485079 
L 364.996005 264.472419 
L 366.271535 264.406652 
L 371.373655 264.393194 
L 372.968068 264.344772 
L 375.83801 264.302369 
L 377.11354 264.268924 
L 380.302365 264.277865 
L 382.21566 264.336413 
L 385.404485 264.352889 
L 389.549958 264.533001 
L 392.738783 264.595044 
L 394.014313 264.591522 
L 395.289843 264.567007 
L 396.565373 264.566516 
L 398.79755 264.540113 
L 402.62414 264.643109 
L 405.812965 264.715664 
L 430.048035 265.006005 
L 439.295628 264.899785 
L 443.122218 264.968583 
L 445.035513 265.024273 
L 447.26769 265.031369 
L 451.732045 264.995787 
L 453.326458 264.988371 
L 470.22723 265.2619 
L 472.77829 265.299226 
L 474.372703 265.313037 
L 476.923763 265.322058 
L 479.793705 265.236738 
L 492.549005 265.29664 
L 495.418948 265.359853 
L 496.694478 265.343136 
L 498.607773 265.293529 
L 507.855365 265.462303 
L 512.638603 265.576312 
L 514.87078 265.608683 
L 521.567313 265.741719 
L 524.118373 265.742418 
L 528.582728 265.693496 
L 531.45267 265.702334 
L 533.047083 265.685353 
L 539.10585 265.744759 
L 550.266738 265.845892 
L 552.180033 265.845803 
L 557.282153 265.819436 
L 578.64728 265.93822 
L 580.560575 265.942793 
L 586.619343 265.991047 
L 589.170403 266.032358 
L 594.591405 266.09458 
L 599.05576 266.04384 
L 657.092375 266.362327 
L 664.426673 266.325277 
L 673.0365 266.432158 
L 676.86309 266.459805 
L 687.06733 266.484642 
L 688.661743 266.463263 
L 688.661743 266.463263 
" clip-path="url(#p7640bb7f50)" style="fill: none; stroke: #f39c12; stroke-opacity: 0.85; stroke-width: 1.2; stroke-linecap: square"/>
   </g>
   <g id="line2d_34">
    <path d="M 51.215625 297.977201 
L 51.534508 284.99552 
L 51.85339 140.417791 
L 52.172273 87.19518 
L 52.491155 60.740298 
L 52.810037 44.86135 
L 53.12892 37.909234 
L 53.447803 36.819957 
L 53.766685 37.041668 
L 54.085568 39.605927 
L 54.723333 50.609422 
L 55.361098 65.782591 
L 55.67998 74.441284 
L 57.274393 56.65862 
L 57.593275 54.019624 
L 57.912158 52.927137 
L 58.23104 52.67889 
L 58.549923 54.590977 
L 60.144335 73.548221 
L 63.33316 116.601391 
L 64.60869 128.811877 
L 65.88422 137.570627 
L 66.203102 139.519092 
L 67.15975 142.921465 
L 67.797515 146.312913 
L 69.71081 157.725113 
L 70.029693 157.782624 
L 70.667458 158.36943 
L 70.98634 158.839158 
L 71.624105 161.092696 
L 72.26187 163.007364 
L 72.899635 164.389068 
L 74.175165 161.202828 
L 74.494048 160.75726 
L 74.81293 160.730281 
L 75.131813 161.289362 
L 76.08846 164.455039 
L 76.726225 166.734741 
L 78.001755 169.331476 
L 78.958403 166.556823 
L 79.91505 164.616515 
L 80.233933 164.484631 
L 80.552815 164.642549 
L 81.19058 165.771749 
L 81.509463 166.469325 
L 82.784993 165.324165 
L 83.103875 165.320542 
L 84.060523 164.89431 
L 84.698288 165.280892 
L 85.01717 164.626969 
L 85.654935 161.281981 
L 87.249348 156.062926 
L 87.887113 154.915044 
L 88.205995 154.557628 
L 88.524878 154.548877 
L 90.11929 151.443879 
L 90.757055 150.971942 
L 91.39482 151.119755 
L 91.713703 151.322759 
L 92.351468 152.290877 
L 93.308115 154.379927 
L 93.94588 154.927492 
L 94.583645 155.849388 
L 94.902528 156.484514 
L 95.540293 157.280468 
L 96.49694 158.86253 
L 97.453588 161.07117 
L 98.410235 160.724321 
L 99.048 161.041031 
L 99.685765 161.85475 
L 100.961295 164.302814 
L 101.917943 164.470087 
L 102.555708 165.024365 
L 102.87459 164.954415 
L 105.106768 154.347503 
L 106.063415 151.173221 
L 106.70118 149.630006 
L 107.338945 148.934458 
L 107.97671 148.825179 
L 108.933358 148.806116 
L 109.25224 148.954306 
L 110.208888 150.112143 
L 110.846653 151.221399 
L 111.165535 151.837763 
L 112.122183 152.163257 
L 113.07883 152.806474 
L 113.397713 153.05146 
L 114.035478 152.426764 
L 115.311008 151.081911 
L 115.62989 150.875981 
L 116.267655 150.841728 
L 116.586538 151.040942 
L 116.90542 151.066465 
L 118.499833 149.290558 
L 118.818715 149.070099 
L 119.137598 149.002467 
L 119.775363 149.18337 
L 120.413128 149.605665 
L 121.688658 149.506784 
L 122.326423 149.921512 
L 123.920835 148.54043 
L 124.239718 148.408292 
L 124.877483 148.591716 
L 125.196365 148.737769 
L 126.153013 149.595458 
L 127.10966 150.27264 
L 127.747425 150.973893 
L 128.704073 152.113843 
L 129.341838 152.58772 
L 129.979602 152.63757 
L 130.93625 153.214927 
L 131.892898 154.246297 
L 132.849545 155.430398 
L 134.443958 154.872764 
L 134.76284 154.909168 
L 135.400605 155.332661 
L 136.03837 156.028525 
L 136.357253 156.438073 
L 136.676135 156.480507 
L 137.3139 156.363131 
L 137.951665 156.386815 
L 140.183843 156.757592 
L 140.821608 157.113177 
L 141.459373 157.587552 
L 142.41602 157.707717 
L 147.199258 160.082189 
L 148.474788 161.285714 
L 148.79367 161.478822 
L 149.112553 161.47911 
L 150.388083 160.693854 
L 151.025848 160.56776 
L 152.301378 160.695503 
L 153.576908 161.245833 
L 154.852438 161.749324 
L 155.490203 162.264118 
L 155.809085 162.602291 
L 158.041263 163.601997 
L 159.316793 164.179212 
L 160.27344 164.311559 
L 160.911205 164.671456 
L 161.54897 164.4452 
L 162.186735 164.353392 
L 163.143383 164.442488 
L 163.781148 164.747469 
L 165.694443 165.926973 
L 166.969973 166.773593 
L 167.607738 166.698375 
L 168.564385 167.002556 
L 168.883268 167.179355 
L 170.47768 165.807609 
L 171.434328 165.601692 
L 173.02874 165.521235 
L 173.985388 165.857704 
L 175.260918 166.606507 
L 175.898683 166.747715 
L 176.217565 166.599195 
L 177.811978 165.078935 
L 178.768625 164.734508 
L 180.363038 164.449379 
L 181.319685 164.352119 
L 182.276333 164.560238 
L 183.551863 165.073596 
L 184.189628 165.099945 
L 185.465158 165.490976 
L 186.740688 164.767155 
L 187.378453 164.650341 
L 188.016218 164.753172 
L 188.972865 164.909992 
L 190.248395 164.901631 
L 192.480573 165.661261 
L 192.799455 165.669801 
L 194.393868 164.894901 
L 195.031633 164.77426 
L 195.669398 164.876423 
L 198.220458 165.650518 
L 198.858223 165.740694 
L 200.133753 166.084955 
L 201.728165 166.058427 
L 202.684813 166.325431 
L 203.64146 166.367082 
L 204.598108 166.400119 
L 205.235873 166.456405 
L 206.830285 166.597682 
L 209.062463 167.224937 
L 210.656875 166.339224 
L 211.613523 166.14579 
L 212.57017 166.35314 
L 213.8457 166.885458 
L 215.440113 165.845083 
L 217.034525 165.320054 
L 217.67229 165.187398 
L 219.585585 165.240353 
L 220.22335 165.393043 
L 220.861115 165.53187 
L 222.77441 166.030082 
L 224.368823 166.740039 
L 226.282118 165.671471 
L 227.238765 165.585162 
L 228.195413 165.808791 
L 228.514295 165.941136 
L 229.15206 165.813705 
L 230.108708 165.560891 
L 230.42759 165.545703 
L 231.065355 165.105189 
L 232.659768 163.937258 
L 233.297533 163.734291 
L 236.80524 163.545496 
L 237.124123 163.590178 
L 238.718535 162.772897 
L 239.3563 162.657208 
L 240.63183 162.504371 
L 241.269595 162.363446 
L 243.18289 162.287753 
L 243.820655 162.401577 
L 245.415068 162.981076 
L 247.00948 162.480641 
L 248.28501 162.416986 
L 249.56054 162.344742 
L 251.473835 162.606688 
L 252.430483 162.954493 
L 254.66266 163.987278 
L 254.981543 164.022957 
L 256.894838 163.288991 
L 257.532603 163.273842 
L 261.359193 164.071027 
L 262.953605 164.661969 
L 263.910253 164.947337 
L 265.823548 165.470406 
L 266.461313 165.59831 
L 267.736843 165.823724 
L 269.012373 166.163226 
L 269.96902 165.970974 
L 271.882315 165.987892 
L 272.838963 165.672945 
L 274.433375 165.669762 
L 275.708905 165.784461 
L 276.665553 166.052945 
L 277.941083 166.473729 
L 278.578848 166.779276 
L 278.89773 166.788664 
L 280.17326 165.968803 
L 281.44879 165.521731 
L 282.405438 165.46446 
L 283.043203 165.452705 
L 284.637615 165.37357 
L 286.55091 165.677827 
L 291.65303 167.431406 
L 293.566325 167.799388 
L 295.47962 168.314727 
L 296.117385 168.26846 
L 297.392915 167.993578 
L 298.03068 167.997021 
L 299.30621 168.294526 
L 301.219505 168.806048 
L 302.495035 168.591502 
L 303.451683 168.661561 
L 303.770565 168.737315 
L 307.916038 166.131545 
L 308.553803 165.931581 
L 309.51045 165.747975 
L 311.423745 164.635317 
L 312.380393 164.39924 
L 313.655923 164.310793 
L 314.61257 164.4808 
L 315.569218 164.710347 
L 317.482513 164.865876 
L 318.758043 164.650957 
L 319.71469 164.696228 
L 321.946868 165.168745 
L 323.860163 165.57597 
L 325.135693 165.605858 
L 326.411223 165.217802 
L 328.005635 165.08049 
L 329.281165 165.382304 
L 330.875578 165.852187 
L 333.426638 166.620969 
L 335.02105 166.494111 
L 335.977698 166.588488 
L 337.890993 166.904651 
L 338.528758 166.969843 
L 339.804288 166.461304 
L 343.311995 163.155202 
L 344.268643 162.569025 
L 344.906408 162.258401 
L 346.181938 161.558236 
L 348.095233 160.723409 
L 349.05188 160.401654 
L 350.965175 160.066278 
L 351.921823 160.012405 
L 352.87847 159.991407 
L 354.472883 159.35162 
L 355.748413 159.140972 
L 357.023943 159.030677 
L 357.98059 158.968152 
L 359.893885 159.328184 
L 364.677123 160.325277 
L 366.590418 159.824618 
L 370.098125 159.659963 
L 372.649185 160.036339 
L 373.924715 159.708612 
L 375.519128 159.668096 
L 380.94013 160.012392 
L 381.896778 160.169907 
L 382.853425 160.176926 
L 386.680015 160.545792 
L 391.14437 161.657638 
L 393.69543 162.22311 
L 395.927608 161.701962 
L 396.884255 161.47247 
L 397.840903 161.298559 
L 399.116433 161.279663 
L 401.34861 161.628666 
L 405.1752 162.36382 
L 407.088495 162.460598 
L 409.00179 162.50638 
L 410.596203 162.621142 
L 412.509498 162.882172 
L 416.017205 162.981155 
L 420.162678 163.698843 
L 421.119325 163.869095 
L 423.989268 163.868176 
L 425.902563 164.079306 
L 427.496975 163.937176 
L 428.13474 163.928947 
L 430.6858 163.621724 
L 431.96133 163.644902 
L 433.23686 163.758932 
L 434.831273 163.867044 
L 437.701215 164.008447 
L 439.61451 164.185047 
L 443.4411 164.588426 
L 444.71663 164.675767 
L 450.775398 165.656895 
L 451.413163 165.660287 
L 453.326458 165.215199 
L 454.601988 165.208509 
L 455.558635 165.345278 
L 456.834165 165.543747 
L 458.74746 165.623755 
L 460.341873 165.142019 
L 461.617403 164.959959 
L 464.168463 165.126038 
L 466.081758 165.431183 
L 466.719523 165.527803 
L 468.313935 165.501439 
L 470.22723 165.777676 
L 471.50276 166.026273 
L 475.32935 166.059442 
L 476.923763 166.277583 
L 483.939178 166.759734 
L 485.53359 166.966187 
L 487.446885 166.993511 
L 489.041298 167.208519 
L 489.997945 167.323422 
L 491.91124 166.753212 
L 493.505653 166.640405 
L 494.781183 166.783504 
L 496.375595 166.923567 
L 498.28889 166.498507 
L 499.56442 166.412571 
L 501.477715 166.598676 
L 505.304305 167.00095 
L 506.898718 166.876942 
L 508.174248 167.050616 
L 510.725308 167.423392 
L 513.276368 167.766857 
L 514.551898 167.8614 
L 515.827428 168.012823 
L 516.784075 168.035572 
L 518.378488 167.800792 
L 519.9729 167.887678 
L 522.842843 168.35613 
L 524.756138 168.484907 
L 527.62608 168.238062 
L 528.90161 168.267855 
L 530.17714 168.470036 
L 530.814905 168.552809 
L 533.365965 167.599727 
L 534.641495 167.376692 
L 535.598143 167.368666 
L 536.55479 167.424511 
L 538.468085 166.911826 
L 539.743615 166.7931 
L 543.570205 167.047319 
L 545.164618 167.324892 
L 547.715678 167.341563 
L 550.904503 167.587781 
L 552.498915 167.625359 
L 554.731093 167.834152 
L 557.282153 167.841941 
L 561.427625 168.15521 
L 563.659803 168.394472 
L 565.254215 168.430405 
L 566.529745 168.566787 
L 568.761923 168.376187 
L 570.356335 168.525482 
L 571.631865 168.662752 
L 573.226278 168.729251 
L 574.82069 168.480285 
L 576.09622 168.484686 
L 578.328398 168.636267 
L 580.241693 168.312963 
L 581.517223 168.318974 
L 583.111635 168.503505 
L 585.02493 168.746078 
L 586.30046 168.629341 
L 587.894873 168.696731 
L 592.359228 169.288666 
L 594.272523 169.351187 
L 597.461348 169.129701 
L 599.374643 168.748061 
L 600.650173 168.692913 
L 604.795645 169.092714 
L 606.390058 169.268943 
L 607.665588 169.347471 
L 608.941118 169.427305 
L 609.578883 169.461654 
L 611.173295 169.452589 
L 613.724355 169.666667 
L 615.63765 169.400047 
L 623.29083 169.327991 
L 624.247478 169.365983 
L 626.160773 169.329674 
L 628.39295 169.403692 
L 630.625128 169.436421 
L 632.857305 168.907199 
L 634.451718 168.83971 
L 636.04613 169.003064 
L 642.42378 169.660056 
L 644.337075 169.555815 
L 650.395843 169.960623 
L 652.62802 169.593325 
L 653.90355 169.636808 
L 656.773493 169.652338 
L 658.367905 169.455761 
L 664.10779 169.48178 
L 665.702203 169.63487 
L 666.977733 169.741241 
L 668.572145 169.949776 
L 670.804323 170.26187 
L 672.717618 170.248872 
L 674.630913 170.219511 
L 678.457503 170.450812 
L 681.96521 170.398856 
L 686.429565 170.725923 
L 688.661743 170.552424 
L 688.661743 170.552424 
" clip-path="url(#p7640bb7f50)" style="fill: none; stroke: #c0392b; stroke-opacity: 0.85; stroke-width: 1.2; stroke-linecap: square"/>
   </g>
   <g id="patch_3">
    <path d="M 51.215625 312.092969 
L 51.215625 23.711719 
" style="fill: none; stroke: #000000; stroke-width: 0.8; stroke-linejoin: miter; stroke-linecap: square"/>
   </g>
   <g id="patch_4">
    <path d="M 688.980625 312.092969 
L 688.980625 23.711719 
" style="fill: none; stroke: #000000; stroke-width: 0.8; stroke-linejoin: miter; stroke-linecap: square"/>
   </g>
   <g id="patch_5">
    <path d="M 51.215625 312.092969 
L 688.980625 312.092969 
" style="fill: none; stroke: #000000; stroke-width: 0.8; stroke-linejoin: miter; stroke-linecap: square"/>
   </g>
   <g id="patch_6">
    <path d="M 51.215625 23.711719 
L 688.980625 23.711719 
" style="fill: none; stroke: #000000; stroke-width: 0.8; stroke-linejoin: miter; stroke-linecap: square"/>
   </g>
   <g id="text_18">
    <!-- 理性决策下的平均成本 -->
    <g transform="translate(305.098125 17.711719) scale(0.13 -0.13)">
     <defs>
      <path id="SimHei-7406" d="M 5825 4850 
Q 5800 4525 5800 3425 
Q 5800 2350 5825 1875 
L 4450 1875 
L 4450 1125 
L 5200 1125 
Q 5650 1125 5900 1150 
L 5900 700 
Q 5625 725 5200 725 
L 4450 725 
L 4450 -125 
L 5350 -125 
Q 5825 -125 6150 -100 
L 6150 -550 
Q 5825 -525 5375 -525 
L 2950 -525 
Q 2550 -525 2250 -550 
L 2250 -100 
Q 2575 -125 2950 -125 
L 3975 -125 
L 3975 725 
L 3150 725 
Q 2825 725 2575 700 
L 2575 1150 
Q 2825 1125 3150 1125 
L 3975 1125 
L 3975 1875 
L 2625 1875 
Q 2650 2250 2650 3400 
Q 2650 4550 2625 4850 
L 5825 4850 
z
M 1750 4525 
Q 2025 4525 2350 4550 
L 2350 4075 
Q 2000 4100 1750 4100 
L 1525 4100 
L 1525 2750 
Q 1875 2750 2225 2775 
L 2225 2300 
Q 1875 2325 1525 2325 
L 1525 725 
Q 2000 900 2325 1050 
Q 2375 800 2425 625 
Q 1950 475 1362 237 
Q 775 0 450 -200 
Q 350 50 225 325 
Q 550 375 1075 600 
L 1075 2325 
Q 625 2325 300 2300 
L 300 2775 
Q 650 2750 1075 2750 
L 1075 4100 
L 775 4100 
Q 550 4100 225 4075 
L 225 4550 
Q 550 4525 775 4525 
L 1750 4525 
z
M 5325 2275 
L 5325 3175 
L 4450 3175 
L 4450 2275 
L 5325 2275 
z
M 5325 3550 
L 5325 4450 
L 4450 4450 
L 4450 3550 
L 5325 3550 
z
M 3975 2275 
L 3975 3175 
L 3125 3175 
L 3125 2275 
L 3975 2275 
z
M 3975 3550 
L 3975 4450 
L 3125 4450 
L 3125 3550 
L 3975 3550 
z
" transform="scale(0.015625)"/>
      <path id="SimHei-6027" d="M 3450 4525 
Q 3325 4075 3275 3750 
L 4050 3750 
L 4050 4275 
Q 4050 4700 4025 5100 
L 4550 5100 
Q 4525 4700 4525 4275 
L 4525 3750 
L 5025 3750 
Q 5350 3750 5800 3775 
L 5800 3300 
Q 5350 3325 5025 3325 
L 4525 3325 
L 4525 2000 
L 4975 2000 
Q 5350 2000 5725 2025 
L 5725 1550 
Q 5350 1575 4975 1575 
L 4525 1575 
L 4525 25 
L 5200 25 
Q 5625 25 6025 50 
L 6025 -400 
Q 5625 -375 5200 -375 
L 3275 -375 
Q 2825 -375 2400 -400 
L 2400 50 
Q 2825 25 3250 25 
L 4050 25 
L 4050 1575 
L 3625 1575 
Q 3300 1575 2875 1550 
L 2875 2025 
Q 3200 2000 3625 2000 
L 4050 2000 
L 4050 3325 
L 3175 3325 
Q 3100 2950 2775 2225 
Q 2500 2375 2325 2400 
Q 2675 3125 2775 3650 
Q 2875 4175 2950 4650 
Q 3200 4575 3450 4525 
z
M 1700 5150 
Q 1675 4650 1675 4175 
L 1675 425 
Q 1675 -100 1700 -625 
L 1175 -625 
Q 1200 -100 1200 425 
L 1200 4175 
Q 1200 4700 1175 5150 
L 1700 5150 
z
M 975 3725 
Q 825 2675 700 2150 
Q 450 2200 250 2250 
Q 425 2900 525 3800 
Q 725 3775 975 3725 
z
M 2125 4025 
Q 2325 3625 2525 3000 
Q 2300 2925 2125 2825 
Q 1950 3375 1750 3850 
Q 1950 3950 2125 4025 
z
" transform="scale(0.015625)"/>
      <path id="SimHei-51b3" d="M 3400 3700 
Q 2675 3700 2225 3675 
L 2225 4150 
Q 2675 4125 3400 4125 
Q 3400 4825 3375 5200 
Q 3650 5175 3950 5150 
Q 3900 4800 3900 4125 
L 5375 4125 
Q 5350 3725 5350 2300 
Q 5750 2300 6050 2325 
L 6050 1850 
Q 5675 1875 5300 1875 
L 4025 1875 
Q 4750 325 6200 50 
Q 5925 -150 5825 -525 
Q 4275 0 3700 1500 
Q 3150 150 1800 -650 
Q 1650 -400 1375 -250 
Q 2850 500 3300 1875 
L 2900 1875 
Q 2450 1875 2000 1850 
L 2000 2325 
Q 2450 2300 2900 2300 
L 3350 2300 
Q 3400 3125 3400 3700 
z
M 4850 2300 
L 4850 3700 
L 3900 3700 
Q 3875 2850 3850 2300 
L 4850 2300 
z
M 1825 2150 
Q 1550 1675 1250 1087 
Q 950 500 800 150 
Q 575 350 250 525 
Q 525 850 850 1400 
Q 1175 1950 1375 2500 
Q 1550 2300 1825 2150 
z
M 750 4725 
Q 1025 4425 1275 4125 
Q 1525 3825 1800 3500 
Q 1600 3350 1375 3125 
Q 1150 3450 350 4350 
Q 550 4525 750 4725 
z
" transform="scale(0.015625)"/>
      <path id="SimHei-7b56" d="M 4600 750 
Q 4525 1000 4325 1275 
Q 4625 1275 4787 1300 
Q 4950 1325 4950 1500 
L 4950 1950 
L 3425 1950 
L 3425 1575 
Q 3625 1250 3950 987 
Q 4275 725 4625 537 
Q 4975 350 5325 237 
Q 5675 125 6150 50 
Q 5850 -200 5725 -525 
Q 5375 -400 5050 -237 
Q 4725 -75 4437 100 
Q 4150 275 3887 487 
Q 3625 700 3425 950 
L 3425 275 
Q 3425 -75 3450 -675 
L 2950 -675 
Q 2975 -75 2975 275 
L 2975 1150 
Q 2700 750 2275 375 
Q 1850 0 1575 -175 
Q 1300 -350 825 -650 
Q 725 -475 350 -225 
Q 675 -100 975 50 
Q 1275 200 1650 462 
Q 2025 725 2387 1112 
Q 2750 1500 2950 1950 
L 1500 1950 
L 1500 825 
L 1000 825 
Q 1025 1325 1025 1675 
Q 1025 2025 1000 2325 
L 2975 2325 
L 2975 2825 
L 1425 2825 
Q 1000 2825 550 2800 
L 550 3250 
Q 1000 3225 1400 3225 
L 2975 3225 
Q 2975 3475 2950 3650 
L 3450 3650 
Q 3425 3450 3425 3225 
L 5175 3225 
Q 5500 3225 5925 3250 
L 5925 2800 
Q 5525 2825 5200 2825 
L 3425 2825 
L 3425 2325 
L 5425 2325 
Q 5400 2025 5400 1725 
Q 5400 1450 5375 1225 
Q 5350 1000 5137 900 
Q 4925 800 4600 750 
z
M 4525 5050 
Q 4300 4850 4200 4675 
L 5175 4675 
Q 5600 4675 6075 4700 
L 6075 4250 
Q 5600 4275 4875 4275 
Q 4950 4025 5050 3675 
Q 4775 3625 4550 3550 
Q 4500 3975 4400 4275 
L 3950 4275 
Q 3750 4000 3525 3700 
Q 3300 3850 3075 3925 
Q 3375 4225 3612 4612 
Q 3850 5000 3950 5300 
Q 4175 5150 4525 5050 
z
M 1950 5075 
Q 1700 4850 1550 4675 
L 2275 4675 
Q 2625 4675 3125 4700 
L 3125 4250 
Q 2625 4275 2200 4275 
Q 2275 4000 2375 3650 
Q 2150 3600 1925 3500 
Q 1850 3850 1750 4275 
L 1300 4275 
Q 1025 3950 650 3600 
Q 475 3750 225 3900 
Q 625 4175 925 4562 
Q 1225 4950 1425 5300 
Q 1675 5175 1950 5075 
z
" transform="scale(0.015625)"/>
      <path id="SimHei-4e0b" d="M 5000 4700 
Q 5475 4700 5975 4725 
L 5975 4200 
Q 5425 4225 5000 4225 
L 3275 4225 
L 3275 375 
Q 3275 50 3300 -450 
L 2725 -450 
Q 2750 0 2750 375 
L 2750 4225 
L 1375 4225 
Q 875 4225 400 4200 
L 400 4725 
Q 875 4700 1375 4700 
L 5000 4700 
z
M 5650 1400 
Q 5400 1225 5200 1000 
Q 4800 1525 3650 2575 
L 4025 2950 
Q 4700 2400 5650 1400 
z
" transform="scale(0.015625)"/>
      <path id="SimHei-7684" d="M 2100 4975 
Q 1975 4750 1750 3950 
L 2875 3950 
Q 2850 3525 2850 2875 
L 2850 675 
Q 2850 300 2875 -400 
L 2375 -400 
L 2375 100 
L 1100 100 
L 1100 -450 
L 600 -450 
Q 625 350 625 550 
L 625 2850 
Q 625 3525 600 3950 
L 1325 3950 
Q 1450 4525 1525 5150 
Q 1875 5025 2100 4975 
z
M 5825 3075 
Q 5800 1550 5700 175 
Q 5650 -275 5225 -425 
Q 4800 -575 4275 -625 
Q 4250 -350 4050 -50 
Q 4550 -75 4837 -25 
Q 5125 25 5200 200 
Q 5275 375 5312 1225 
Q 5350 2075 5375 3600 
L 3925 3600 
Q 3725 3125 3350 2475 
Q 3175 2650 2925 2750 
Q 3150 3050 3350 3475 
Q 3550 3900 3700 4400 
Q 3850 4900 3875 5175 
Q 4225 5025 4475 4950 
Q 4350 4750 4262 4512 
Q 4175 4275 4075 4050 
L 5850 4050 
Q 5825 3525 5825 3075 
z
M 2375 525 
L 2375 1850 
L 1100 1850 
L 1100 525 
L 2375 525 
z
M 2375 2275 
L 2375 3525 
L 1100 3525 
L 1100 2275 
L 2375 2275 
z
M 4350 2050 
Q 4500 1750 4700 1275 
Q 4525 1200 4225 1025 
Q 4050 1500 3900 1837 
Q 3750 2175 3600 2400 
Q 3775 2500 4050 2650 
L 4350 2050 
z
" transform="scale(0.015625)"/>
     </defs>
     <use xlink:href="#SimHei-7406"/>
     <use xlink:href="#SimHei-6027" transform="translate(100 0)"/>
     <use xlink:href="#SimHei-51b3" transform="translate(200 0)"/>
     <use xlink:href="#SimHei-7b56" transform="translate(300 0)"/>
     <use xlink:href="#SimHei-4e0b" transform="translate(400 0)"/>
     <use xlink:href="#SimHei-7684" transform="translate(500 0)"/>
     <use xlink:href="#SimHei-5e73" transform="translate(600 0)"/>
     <use xlink:href="#SimHei-5747" transform="translate(700 0)"/>
     <use xlink:href="#SimHei-6210" transform="translate(800 0)"/>
     <use xlink:href="#SimHei-672c" transform="translate(900 0)"/>
    </g>
   </g>
   <g id="legend_1">
    <g id="patch_7">
     <path d="M 58.215625 88.742969 
L 120.215625 88.742969 
Q 122.215625 88.742969 122.215625 86.742969 
L 122.215625 30.711719 
Q 122.215625 28.711719 120.215625 28.711719 
L 58.215625 28.711719 
Q 56.215625 28.711719 56.215625 30.711719 
L 56.215625 86.742969 
Q 56.215625 88.742969 58.215625 88.742969 
z
" style="fill: #ffffff; opacity: 0.8; stroke: #cccccc; stroke-linejoin: miter"/>
    </g>
    <g id="line2d_35">
     <path d="M 60.215625 37.297656 
L 70.215625 37.297656 
L 80.215625 37.297656 
" style="fill: none; stroke: #e74c3c; stroke-opacity: 0.85; stroke-width: 1.2; stroke-linecap: square"/>
    </g>
    <g id="text_19">
     <!-- 零售商 -->
     <g transform="translate(88.215625 40.797656) scale(0.1 -0.1)">
      <defs>
       <path id="SimHei-96f6" d="M 3375 2525 
Q 3425 2425 3950 2125 
Q 4475 1825 4975 1675 
Q 5475 1525 6075 1450 
Q 5875 1200 5775 925 
Q 5325 1025 4900 1175 
Q 4475 1325 3950 1637 
Q 3425 1950 3100 2250 
Q 2875 2075 2512 1812 
Q 2150 1550 1662 1312 
Q 1175 1075 625 900 
Q 525 1100 325 1375 
Q 800 1450 1175 1600 
Q 1550 1750 1875 1925 
Q 2200 2100 2475 2325 
Q 2750 2550 2925 2825 
Q 2950 3100 2950 3450 
L 2950 3925 
L 950 3925 
L 950 3250 
L 475 3250 
L 475 4300 
L 2950 4300 
L 2950 4700 
L 1775 4700 
Q 1425 4700 1100 4675 
L 1100 5100 
Q 1425 5075 1750 5075 
L 4625 5075 
Q 4875 5075 5325 5100 
L 5325 4675 
Q 4875 4700 4475 4700 
L 3400 4700 
L 3400 4300 
L 5875 4300 
Q 5850 4050 5850 3800 
Q 5850 3550 5875 3300 
L 5400 3300 
L 5400 3925 
L 3400 3925 
L 3400 3450 
Q 3400 3175 3425 2825 
L 3050 2825 
Q 3250 2750 3525 2675 
L 3375 2525 
z
M 2300 500 
Q 2750 350 3175 200 
Q 3325 325 3750 775 
L 2325 775 
Q 1900 775 1475 750 
L 1475 1200 
Q 1900 1175 2325 1175 
L 4700 1175 
Q 4475 950 4150 587 
Q 3825 225 3625 50 
Q 3775 -25 3950 -87 
Q 4125 -150 4400 -275 
Q 4250 -475 4125 -700 
Q 3450 -400 2950 -212 
Q 2450 -25 2100 75 
Q 2225 275 2300 500 
z
M 5075 2600 
L 3750 2600 
L 3750 2950 
L 5075 2950 
L 5075 2600 
z
M 5075 3325 
L 3775 3325 
L 3775 3675 
L 5075 3675 
L 5075 3325 
z
M 2500 3325 
L 1250 3325 
L 1250 3675 
L 2500 3675 
L 2500 3325 
z
M 2475 2600 
L 1225 2600 
L 1225 2950 
L 2475 2950 
L 2475 2600 
z
M 3100 1950 
Q 3200 1800 3237 1712 
Q 3275 1625 3400 1400 
Q 3150 1300 2975 1200 
Q 2850 1500 2700 1775 
Q 2975 1875 3100 1950 
z
" transform="scale(0.015625)"/>
       <path id="SimHei-552e" d="M 2325 4925 
Q 2200 4825 1950 4425 
L 4925 4425 
Q 5350 4425 5775 4450 
L 5775 4050 
Q 5350 4075 4925 4075 
L 3775 4075 
L 3775 3650 
L 4650 3650 
Q 5075 3650 5450 3675 
L 5450 3225 
Q 5100 3275 4675 3275 
L 3775 3275 
L 3775 2850 
L 5475 2850 
L 5475 2425 
Q 5125 2450 4700 2450 
L 3775 2450 
L 3775 1975 
L 4825 1975 
Q 5325 1975 5900 2000 
L 5900 1550 
Q 5350 1600 4825 1600 
L 1800 1600 
L 1800 1375 
L 1275 1375 
Q 1300 1975 1300 3400 
Q 975 2850 700 2575 
Q 525 2800 350 2900 
Q 625 3225 837 3537 
Q 1050 3850 1300 4237 
Q 1550 4625 1725 5225 
Q 2050 5050 2325 4925 
z
M 5350 1175 
Q 5325 800 5325 275 
Q 5325 -250 5350 -650 
L 4825 -650 
L 4825 -375 
L 1725 -375 
L 1725 -675 
L 1200 -675 
Q 1250 -250 1250 275 
Q 1250 800 1200 1175 
L 5350 1175 
z
M 4825 25 
L 4825 775 
L 1725 775 
L 1725 25 
L 4825 25 
z
M 3275 1975 
L 3275 2450 
L 1800 2450 
L 1800 1975 
L 3275 1975 
z
M 3275 3650 
L 3275 4075 
L 1800 4075 
L 1800 3650 
L 3275 3650 
z
M 3275 2850 
L 3275 3275 
L 1800 3275 
L 1800 2850 
L 3275 2850 
z
M 3600 5275 
Q 3850 4875 3950 4675 
Q 3800 4625 3500 4500 
Q 3425 4700 3175 5075 
Q 3400 5150 3600 5275 
z
" transform="scale(0.015625)"/>
       <path id="SimHei-5546" d="M 3150 5225 
Q 3475 4725 3550 4525 
L 4975 4525 
Q 5475 4525 5975 4550 
L 5975 4100 
Q 5475 4125 4975 4125 
L 2100 4125 
Q 2575 3625 2675 3475 
Q 2500 3400 2300 3250 
L 3650 3250 
Q 3800 3650 3950 4100 
Q 4200 4000 4525 3925 
Q 4350 3700 4125 3250 
L 5525 3250 
Q 5500 2950 5500 2425 
L 5500 -50 
Q 5500 -350 5225 -475 
Q 4950 -600 4475 -675 
Q 4450 -375 4275 -125 
Q 4775 -150 4900 -75 
Q 5025 0 5025 175 
L 5025 2900 
L 1375 2900 
L 1375 -600 
L 875 -600 
Q 900 50 900 325 
L 900 2475 
Q 900 2725 875 3250 
L 2250 3250 
Q 2075 3550 1675 3875 
Q 1875 3975 2050 4125 
L 1475 4125 
Q 900 4125 475 4100 
L 475 4550 
Q 900 4525 1450 4525 
L 3000 4525 
Q 2925 4775 2675 5050 
Q 2925 5125 3150 5225 
z
M 2600 2650 
Q 2850 2475 3075 2350 
Q 2825 2225 2350 1675 
L 4250 1675 
Q 4225 1350 4225 975 
Q 4225 600 4250 225 
L 2300 225 
Q 2325 600 2325 950 
Q 2325 1325 2300 1625 
Q 2125 1475 1950 1350 
Q 1825 1525 1575 1625 
Q 2350 2225 2600 2650 
z
M 3750 600 
L 3750 1300 
L 2775 1300 
L 2775 600 
L 3750 600 
z
M 3775 2675 
Q 4475 2225 4900 1850 
Q 4675 1725 4525 1525 
Q 4275 1825 3475 2350 
Q 3650 2475 3775 2675 
z
" transform="scale(0.015625)"/>
      </defs>
      <use xlink:href="#SimHei-96f6"/>
      <use xlink:href="#SimHei-552e" transform="translate(100 0)"/>
      <use xlink:href="#SimHei-5546" transform="translate(200 0)"/>
     </g>
    </g>
    <g id="line2d_36">
     <path d="M 60.215625 51.555469 
L 70.215625 51.555469 
L 80.215625 51.555469 
" style="fill: none; stroke: #e67e22; stroke-opacity: 0.85; stroke-width: 1.2; stroke-linecap: square"/>
    </g>
    <g id="text_20">
     <!-- 批发商 -->
     <g transform="translate(88.215625 55.055469) scale(0.1 -0.1)">
      <defs>
       <path id="SimHei-6279" d="M 625 -75 
Q 1025 -50 1137 -12 
Q 1250 25 1250 175 
L 1250 1575 
Q 775 1375 525 1200 
Q 475 1425 250 1700 
Q 600 1775 1250 2050 
L 1250 3325 
Q 725 3325 400 3300 
L 400 3775 
Q 725 3750 1250 3750 
Q 1250 4550 1225 5125 
L 1775 5125 
Q 1725 4850 1725 3750 
Q 1975 3750 2350 3775 
L 2350 3300 
Q 2000 3325 1725 3325 
L 1725 2200 
Q 1825 2250 2300 2450 
Q 2300 2250 2325 2025 
Q 1950 1850 1725 1750 
L 1725 -25 
Q 1725 -300 1512 -412 
Q 1300 -525 825 -650 
Q 750 -250 625 -75 
z
M 6175 3250 
Q 5800 3000 4875 2275 
L 4875 175 
Q 4875 -75 5075 -75 
L 5475 -75 
Q 5550 -25 5600 87 
Q 5650 200 5650 600 
Q 5875 475 6175 425 
Q 6050 -175 5925 -287 
Q 5800 -400 5600 -425 
L 4900 -425 
Q 4425 -425 4400 0 
L 4400 4525 
Q 4400 4850 4375 5150 
L 4900 5150 
Q 4875 4875 4875 4600 
L 4875 2775 
Q 5275 3075 5725 3625 
Q 5950 3400 6175 3250 
z
M 2575 -75 
Q 2750 75 2750 300 
L 2750 4425 
Q 2750 4700 2725 4950 
L 3250 4950 
Q 3200 4675 3200 4425 
L 3200 3000 
Q 3775 3000 4050 3025 
L 4050 2550 
Q 3750 2575 3200 2575 
L 3200 225 
Q 3425 325 3925 700 
Q 3950 475 4050 250 
Q 3825 125 3437 -87 
Q 3050 -300 2825 -525 
L 2575 -75 
z
" transform="scale(0.015625)"/>
       <path id="SimHei-53d1" d="M 3475 4925 
Q 3350 4650 3275 4362 
Q 3200 4075 3075 3575 
L 5075 3575 
Q 5325 3575 5825 3600 
L 5825 3125 
Q 5325 3150 5075 3150 
L 2975 3150 
Q 2825 2775 2650 2400 
L 5300 2400 
Q 4825 1250 3975 475 
Q 4650 0 5950 -150 
Q 5775 -350 5650 -650 
Q 5150 -550 4625 -362 
Q 4100 -175 3600 175 
Q 3200 -75 2625 -312 
Q 2050 -550 1450 -700 
Q 1400 -450 1200 -225 
Q 1750 -150 2300 37 
Q 2850 225 3275 500 
Q 2850 925 2325 1725 
Q 2050 1275 1625 850 
Q 1200 425 700 75 
Q 600 250 300 450 
Q 675 650 1037 975 
Q 1400 1300 1800 1837 
Q 2200 2375 2475 3150 
Q 1825 3150 1475 3125 
Q 1125 3100 950 3025 
Q 875 3250 750 3500 
Q 1000 3550 1112 3875 
Q 1225 4200 1350 4875 
Q 1550 4775 1900 4675 
Q 1775 4425 1675 4162 
Q 1575 3900 1450 3575 
L 2600 3575 
Q 2800 4375 2900 5100 
Q 3175 4950 3475 4925 
z
M 2675 2000 
Q 3025 1375 3650 750 
Q 4200 1200 4625 2000 
L 2675 2000 
z
M 4400 5075 
Q 4825 4600 5250 4100 
Q 5075 4000 4825 3775 
Q 4425 4350 4050 4750 
Q 4225 4875 4400 5075 
z
" transform="scale(0.015625)"/>
      </defs>
      <use xlink:href="#SimHei-6279"/>
      <use xlink:href="#SimHei-53d1" transform="translate(100 0)"/>
      <use xlink:href="#SimHei-5546" transform="translate(200 0)"/>
     </g>
    </g>
    <g id="line2d_37">
     <path d="M 60.215625 65.774219 
L 70.215625 65.774219 
L 80.215625 65.774219 
" style="fill: none; stroke: #f39c12; stroke-opacity: 0.85; stroke-width: 1.2; stroke-linecap: square"/>
    </g>
    <g id="text_21">
     <!-- 分销商 -->
     <g transform="translate(88.215625 69.274219) scale(0.1 -0.1)">
      <defs>
       <path id="SimHei-5206" d="M 1000 -650 
Q 825 -375 575 -225 
Q 975 -75 1300 137 
Q 1625 350 1875 662 
Q 2125 975 2250 1350 
Q 2375 1725 2425 2275 
Q 1850 2275 1500 2250 
L 1500 2775 
Q 1900 2750 2525 2750 
L 5025 2750 
Q 4975 2375 4950 2100 
L 4750 250 
Q 4700 -200 4350 -350 
Q 4000 -500 3575 -525 
Q 3550 -275 3325 50 
Q 3850 25 4037 87 
Q 4225 150 4275 525 
L 4450 2275 
L 2950 2275 
Q 2875 1625 2737 1187 
Q 2600 750 2350 425 
Q 2100 100 1750 -175 
Q 1400 -450 1000 -650 
z
M 3950 5175 
Q 4125 4650 4662 3975 
Q 5200 3300 6175 2800 
Q 5975 2625 5775 2275 
Q 5325 2600 4987 2887 
Q 4650 3175 4425 3425 
Q 4200 3675 3925 4137 
Q 3650 4600 3475 5000 
Q 3750 5075 3950 5175 
z
M 2700 4825 
Q 2475 4425 2325 4125 
Q 2175 3825 2025 3587 
Q 1875 3350 1575 2950 
Q 1275 2550 850 2125 
Q 625 2350 400 2475 
Q 900 2925 1187 3300 
Q 1475 3675 1737 4112 
Q 2000 4550 2200 5075 
Q 2400 4925 2700 4825 
z
" transform="scale(0.015625)"/>
       <path id="SimHei-9500" d="M 4175 4325 
Q 4175 4700 4150 5125 
L 4650 5125 
Q 4625 4850 4625 4325 
L 4625 3225 
L 5825 3225 
Q 5800 2850 5800 2225 
L 5800 50 
Q 5800 -300 5562 -375 
Q 5325 -450 4925 -525 
Q 4875 -275 4700 -25 
Q 5275 0 5300 112 
Q 5325 225 5325 825 
L 3575 825 
L 3575 -450 
L 3100 -450 
Q 3125 75 3125 400 
L 3125 2175 
Q 3125 2800 3100 3225 
L 4175 3225 
L 4175 4325 
z
M 2350 2700 
Q 2025 2725 1700 2725 
L 1700 1975 
Q 2125 1975 2600 2000 
L 2600 1550 
Q 2125 1575 1700 1575 
L 1700 425 
Q 1925 575 2250 925 
Q 2325 700 2500 475 
Q 2250 300 1975 87 
Q 1700 -125 1400 -450 
Q 1275 -225 1075 -50 
Q 1225 100 1250 400 
L 1250 1575 
Q 950 1575 525 1550 
L 525 2000 
Q 950 1975 1250 1975 
L 1250 2725 
Q 950 2725 750 2700 
L 750 3150 
Q 1075 3125 1500 3125 
Q 1950 3125 2350 3150 
L 2350 2700 
z
M 625 3075 
Q 450 3275 225 3375 
Q 600 3750 875 4200 
Q 1150 4650 1325 5125 
Q 1675 4925 1875 4850 
Q 1550 4400 1450 4200 
Q 2075 4200 2500 4225 
L 2500 3750 
Q 2075 3775 1200 3775 
Q 825 3275 625 3075 
z
M 5325 2200 
L 5325 2850 
L 3575 2850 
L 3575 2200 
L 5325 2200 
z
M 5325 1200 
L 5325 1825 
L 3575 1825 
L 3575 1200 
L 5325 1200 
z
M 6050 4550 
Q 5850 4300 5450 3525 
Q 5225 3650 4975 3725 
Q 5250 4050 5525 4775 
Q 5725 4650 6050 4550 
z
M 3200 4775 
Q 3600 4150 3800 3800 
Q 3575 3700 3350 3550 
Q 3175 3950 2775 4525 
Q 3025 4625 3200 4775 
z
" transform="scale(0.015625)"/>
      </defs>
      <use xlink:href="#SimHei-5206"/>
      <use xlink:href="#SimHei-9500" transform="translate(100 0)"/>
      <use xlink:href="#SimHei-5546" transform="translate(200 0)"/>
     </g>
    </g>
    <g id="line2d_38">
     <path d="M 60.215625 79.992969 
L 70.215625 79.992969 
L 80.215625 79.992969 
" style="fill: none; stroke: #c0392b; stroke-opacity: 0.85; stroke-width: 1.2; stroke-linecap: square"/>
    </g>
    <g id="text_22">
     <!-- 制造商 -->
     <g transform="translate(88.215625 83.492969) scale(0.1 -0.1)">
      <defs>
       <path id="SimHei-5236" d="M 1325 4625 
Q 1175 4375 1075 4150 
L 1800 4150 
Q 1800 4775 1775 5125 
L 2350 5125 
Q 2325 4800 2325 4150 
L 2700 4150 
Q 3200 4150 3600 4175 
L 3600 3725 
Q 3250 3750 2725 3750 
L 2325 3750 
L 2325 3025 
L 2950 3025 
Q 3325 3025 3750 3050 
L 3750 2625 
L 2325 2625 
L 2325 1950 
L 3675 1950 
Q 3650 1650 3637 1125 
Q 3625 600 3612 412 
Q 3600 225 3400 137 
Q 3200 50 2825 -25 
Q 2775 250 2650 550 
Q 2975 550 3050 587 
Q 3125 625 3125 975 
L 3125 1550 
L 2325 1550 
L 2325 175 
Q 2325 -250 2350 -550 
L 1775 -550 
Q 1800 -75 1800 175 
L 1800 1550 
L 1025 1550 
L 1025 -25 
L 500 -25 
Q 525 300 525 650 
L 525 1200 
Q 525 1675 500 1950 
L 1800 1950 
L 1800 2625 
L 1000 2625 
Q 550 2625 225 2600 
L 225 3050 
Q 550 3025 1000 3025 
L 1800 3025 
L 1800 3750 
L 925 3750 
Q 800 3450 675 3250 
Q 450 3400 225 3500 
Q 400 3750 525 4075 
Q 650 4400 750 4800 
Q 1000 4700 1325 4625 
z
M 5875 5075 
Q 5850 4825 5850 4350 
L 5850 25 
Q 5850 -325 5587 -412 
Q 5325 -500 4825 -575 
Q 4750 -250 4625 0 
Q 5050 0 5200 25 
Q 5350 50 5350 350 
L 5350 4350 
Q 5350 4775 5325 5075 
L 5875 5075 
z
M 4675 4325 
Q 4650 3975 4650 3700 
L 4650 1625 
Q 4650 1275 4675 775 
L 4125 775 
Q 4175 1200 4175 1625 
L 4175 3700 
Q 4175 3950 4125 4325 
L 4675 4325 
z
" transform="scale(0.015625)"/>
       <path id="SimHei-9020" d="M 5525 2325 
Q 5500 1825 5500 1350 
Q 5500 875 5525 400 
L 5000 400 
L 5000 750 
L 3025 750 
L 3025 425 
L 2525 425 
Q 2550 900 2550 1375 
Q 2550 1850 2525 2325 
L 5525 2325 
z
M 200 -100 
Q 950 475 1250 625 
L 1250 2600 
Q 775 2600 350 2575 
L 350 3025 
Q 850 3000 1750 3000 
Q 1725 2525 1725 2250 
L 1725 675 
Q 2050 325 2600 175 
Q 3150 25 4075 0 
Q 5000 -25 6200 50 
Q 6000 -200 5975 -525 
Q 3575 -475 3125 -400 
Q 2675 -325 2375 -212 
Q 2075 -100 1762 112 
Q 1450 325 1125 37 
Q 800 -250 600 -525 
Q 425 -300 200 -100 
z
M 3150 4900 
Q 3000 4625 2950 4400 
L 3800 4400 
Q 3800 5000 3775 5225 
L 4275 5225 
Q 4250 4975 4250 4400 
Q 5150 4400 5625 4425 
L 5625 4000 
Q 5175 4025 4250 4025 
L 4250 3200 
Q 5575 3200 6050 3225 
L 6050 2775 
Q 5575 2800 3975 2800 
Q 2400 2800 1950 2775 
L 1950 3225 
Q 2400 3200 3800 3200 
L 3800 4025 
L 2825 4025 
Q 2675 3750 2550 3450 
Q 2325 3550 2100 3625 
Q 2400 4175 2600 5025 
Q 2850 4975 3150 4900 
z
M 5000 1125 
L 5000 1925 
L 3025 1925 
L 3025 1125 
L 5000 1125 
z
M 1775 4000 
Q 1575 3850 1350 3725 
Q 1000 4250 650 4725 
Q 850 4875 1025 5025 
Q 1625 4225 1775 4000 
z
" transform="scale(0.015625)"/>
      </defs>
      <use xlink:href="#SimHei-5236"/>
      <use xlink:href="#SimHei-9020" transform="translate(100 0)"/>
      <use xlink:href="#SimHei-5546" transform="translate(200 0)"/>
     </g>
    </g>
   </g>
  </g>
 </g>
 <defs>
  <clipPath id="p7640bb7f50">
   <rect x="51.215625" y="23.711719" width="637.765" height="288.38125"/>
  </clipPath>
 </defs>
</svg>
