<?xml version="1.0" encoding="utf-8" standalone="no"?>
<!DOCTYPE svg PUBLIC "-//W3C//DTD SVG 1.1//EN"
  "http://www.w3.org/Graphics/SVG/1.1/DTD/svg11.dtd">
<svg xmlns:xlink="http://www.w3.org/1999/xlink" width="720pt" height="432pt" viewBox="0 0 720 432" xmlns="http://www.w3.org/2000/svg" version="1.1">
 <metadata>
  <rdf:RDF xmlns:dc="http://purl.org/dc/elements/1.1/" xmlns:cc="http://creativecommons.org/ns#" xmlns:rdf="http://www.w3.org/1999/02/22-rdf-syntax-ns#">
   <cc:Work>
    <dc:type rdf:resource="http://purl.org/dc/dcmitype/StillImage"/>
    <dc:date>2026-07-09T20:03:33.688556</dc:date>
    <dc:format>image/svg+xml</dc:format>
    <dc:creator>
     <cc:Agent>
      <dc:title>Matplotlib v3.10.9, https://matplotlib.org/</dc:title>
     </cc:Agent>
    </dc:creator>
   </cc:Work>
  </rdf:RDF>
 </metadata>
 <defs>
  <style type="text/css">*{stroke-linejoin: round; stroke-linecap: butt}</style>
 </defs>
 <g id="figure_1">
  <g id="patch_1">
   <path d="M 0 432 
L 720 432 
L 720 0 
L 0 0 
z
" style="fill: #ffffff"/>
  </g>
  <g id="axes_1">
   <g id="patch_2">
    <path d="M 63.002 384.955 
L 708.12 384.955 
L 708.12 29.22 
L 63.002 29.22 
z
" style="fill: #ffffff"/>
   </g>
   <g id="patch_3">
    <path d="M 92.325545 384.955 
L 147.802523 384.955 
L 147.802523 384.955 
L 92.325545 384.955 
z
" clip-path="url(#p397aa98597)" style="fill: #e67e22; stroke: #000000; stroke-width: 0.8; stroke-linejoin: miter"/>
   </g>
   <g id="patch_4">
    <path d="M 250.831197 384.955 
L 306.308174 384.955 
L 306.308174 384.955 
L 250.831197 384.955 
z
" clip-path="url(#p397aa98597)" style="fill: #e67e22; stroke: #000000; stroke-width: 0.8; stroke-linejoin: miter"/>
   </g>
   <g id="patch_5">
    <path d="M 409.336848 384.955 
L 464.813826 384.955 
L 464.813826 355.451398 
L 409.336848 355.451398 
z
" clip-path="url(#p397aa98597)" style="fill: #e67e22; stroke: #000000; stroke-width: 0.8; stroke-linejoin: miter"/>
   </g>
   <g id="patch_6">
    <path d="M 567.842499 384.955 
L 623.319477 384.955 
L 623.319477 384.955 
L 567.842499 384.955 
z
" clip-path="url(#p397aa98597)" style="fill: #e67e22; stroke: #000000; stroke-width: 0.8; stroke-linejoin: miter"/>
   </g>
   <g id="patch_7">
    <path d="M 147.802523 384.955 
L 203.279501 384.955 
L 203.279501 46.159762 
L 147.802523 46.159762 
z
" clip-path="url(#p397aa98597)" style="fill: #2ecc71; stroke: #000000; stroke-width: 0.8; stroke-linejoin: miter"/>
   </g>
   <g id="patch_8">
    <path d="M 306.308174 384.955 
L 361.785152 384.955 
L 361.785152 246.279672 
L 306.308174 246.279672 
z
" clip-path="url(#p397aa98597)" style="fill: #2ecc71; stroke: #000000; stroke-width: 0.8; stroke-linejoin: miter"/>
   </g>
   <g id="patch_9">
    <path d="M 464.813826 384.955 
L 520.290803 384.955 
L 520.290803 323.730442 
L 464.813826 323.730442 
z
" clip-path="url(#p397aa98597)" style="fill: #2ecc71; stroke: #000000; stroke-width: 0.8; stroke-linejoin: miter"/>
   </g>
   <g id="patch_10">
    <path d="M 623.319477 384.955 
L 678.796455 384.955 
L 678.796455 337.99648 
L 623.319477 337.99648 
z
" clip-path="url(#p397aa98597)" style="fill: #2ecc71; stroke: #000000; stroke-width: 0.8; stroke-linejoin: miter"/>
   </g>
   <g id="matplotlib.axis_1">
    <g id="xtick_1">
     <g id="line2d_1">
      <defs>
       <path id="m2616af0465" d="M 0 0 
L 0 3.5 
" style="stroke: #000000; stroke-width: 0.8"/>
      </defs>
      <g>
       <use xlink:href="#m2616af0465" x="147.802523" y="384.955" style="stroke: #000000; stroke-width: 0.8"/>
      </g>
     </g>
     <g id="text_1">
      <!-- 零售商 -->
      <g transform="translate(129.802523 401.658125) scale(0.12 -0.12)">
       <defs>
        <path id="SimHei-96f6" d="M 3375 2525 
Q 3425 2425 3950 2125 
Q 4475 1825 4975 1675 
Q 5475 1525 6075 1450 
Q 5875 1200 5775 925 
Q 5325 1025 4900 1175 
Q 4475 1325 3950 1637 
Q 3425 1950 3100 2250 
Q 2875 2075 2512 1812 
Q 2150 1550 1662 1312 
Q 1175 1075 625 900 
Q 525 1100 325 1375 
Q 800 1450 1175 1600 
Q 1550 1750 1875 1925 
Q 2200 2100 2475 2325 
Q 2750 2550 2925 2825 
Q 2950 3100 2950 3450 
L 2950 3925 
L 950 3925 
L 950 3250 
L 475 3250 
L 475 4300 
L 2950 4300 
L 2950 4700 
L 1775 4700 
Q 1425 4700 1100 4675 
L 1100 5100 
Q 1425 5075 1750 5075 
L 4625 5075 
Q 4875 5075 5325 5100 
L 5325 4675 
Q 4875 4700 4475 4700 
L 3400 4700 
L 3400 4300 
L 5875 4300 
Q 5850 4050 5850 3800 
Q 5850 3550 5875 3300 
L 5400 3300 
L 5400 3925 
L 3400 3925 
L 3400 3450 
Q 3400 3175 3425 2825 
L 3050 2825 
Q 3250 2750 3525 2675 
L 3375 2525 
z
M 2300 500 
Q 2750 350 3175 200 
Q 3325 325 3750 775 
L 2325 775 
Q 1900 775 1475 750 
L 1475 1200 
Q 1900 1175 2325 1175 
L 4700 1175 
Q 4475 950 4150 587 
Q 3825 225 3625 50 
Q 3775 -25 3950 -87 
Q 4125 -150 4400 -275 
Q 4250 -475 4125 -700 
Q 3450 -400 2950 -212 
Q 2450 -25 2100 75 
Q 2225 275 2300 500 
z
M 5075 2600 
L 3750 2600 
L 3750 2950 
L 5075 2950 
L 5075 2600 
z
M 5075 3325 
L 3775 3325 
L 3775 3675 
L 5075 3675 
L 5075 3325 
z
M 2500 3325 
L 1250 3325 
L 1250 3675 
L 2500 3675 
L 2500 3325 
z
M 2475 2600 
L 1225 2600 
L 1225 2950 
L 2475 2950 
L 2475 2600 
z
M 3100 1950 
Q 3200 1800 3237 1712 
Q 3275 1625 3400 1400 
Q 3150 1300 2975 1200 
Q 2850 1500 2700 1775 
Q 2975 1875 3100 1950 
z
" transform="scale(0.015625)"/>
        <path id="SimHei-552e" d="M 2325 4925 
Q 2200 4825 1950 4425 
L 4925 4425 
Q 5350 4425 5775 4450 
L 5775 4050 
Q 5350 4075 4925 4075 
L 3775 4075 
L 3775 3650 
L 4650 3650 
Q 5075 3650 5450 3675 
L 5450 3225 
Q 5100 3275 4675 3275 
L 3775 3275 
L 3775 2850 
L 5475 2850 
L 5475 2425 
Q 5125 2450 4700 2450 
L 3775 2450 
L 3775 1975 
L 4825 1975 
Q 5325 1975 5900 2000 
L 5900 1550 
Q 5350 1600 4825 1600 
L 1800 1600 
L 1800 1375 
L 1275 1375 
Q 1300 1975 1300 3400 
Q 975 2850 700 2575 
Q 525 2800 350 2900 
Q 625 3225 837 3537 
Q 1050 3850 1300 4237 
Q 1550 4625 1725 5225 
Q 2050 5050 2325 4925 
z
M 5350 1175 
Q 5325 800 5325 275 
Q 5325 -250 5350 -650 
L 4825 -650 
L 4825 -375 
L 1725 -375 
L 1725 -675 
L 1200 -675 
Q 1250 -250 1250 275 
Q 1250 800 1200 1175 
L 5350 1175 
z
M 4825 25 
L 4825 775 
L 1725 775 
L 1725 25 
L 4825 25 
z
M 3275 1975 
L 3275 2450 
L 1800 2450 
L 1800 1975 
L 3275 1975 
z
M 3275 3650 
L 3275 4075 
L 1800 4075 
L 1800 3650 
L 3275 3650 
z
M 3275 2850 
L 3275 3275 
L 1800 3275 
L 1800 2850 
L 3275 2850 
z
M 3600 5275 
Q 3850 4875 3950 4675 
Q 3800 4625 3500 4500 
Q 3425 4700 3175 5075 
Q 3400 5150 3600 5275 
z
" transform="scale(0.015625)"/>
        <path id="SimHei-5546" d="M 3150 5225 
Q 3475 4725 3550 4525 
L 4975 4525 
Q 5475 4525 5975 4550 
L 5975 4100 
Q 5475 4125 4975 4125 
L 2100 4125 
Q 2575 3625 2675 3475 
Q 2500 3400 2300 3250 
L 3650 3250 
Q 3800 3650 3950 4100 
Q 4200 4000 4525 3925 
Q 4350 3700 4125 3250 
L 5525 3250 
Q 5500 2950 5500 2425 
L 5500 -50 
Q 5500 -350 5225 -475 
Q 4950 -600 4475 -675 
Q 4450 -375 4275 -125 
Q 4775 -150 4900 -75 
Q 5025 0 5025 175 
L 5025 2900 
L 1375 2900 
L 1375 -600 
L 875 -600 
Q 900 50 900 325 
L 900 2475 
Q 900 2725 875 3250 
L 2250 3250 
Q 2075 3550 1675 3875 
Q 1875 3975 2050 4125 
L 1475 4125 
Q 900 4125 475 4100 
L 475 4550 
Q 900 4525 1450 4525 
L 3000 4525 
Q 2925 4775 2675 5050 
Q 2925 5125 3150 5225 
z
M 2600 2650 
Q 2850 2475 3075 2350 
Q 2825 2225 2350 1675 
L 4250 1675 
Q 4225 1350 4225 975 
Q 4225 600 4250 225 
L 2300 225 
Q 2325 600 2325 950 
Q 2325 1325 2300 1625 
Q 2125 1475 1950 1350 
Q 1825 1525 1575 1625 
Q 2350 2225 2600 2650 
z
M 3750 600 
L 3750 1300 
L 2775 1300 
L 2775 600 
L 3750 600 
z
M 3775 2675 
Q 4475 2225 4900 1850 
Q 4675 1725 4525 1525 
Q 4275 1825 3475 2350 
Q 3650 2475 3775 2675 
z
" transform="scale(0.015625)"/>
       </defs>
       <use xlink:href="#SimHei-96f6"/>
       <use xlink:href="#SimHei-552e" transform="translate(100 0)"/>
       <use xlink:href="#SimHei-5546" transform="translate(200 0)"/>
      </g>
     </g>
    </g>
    <g id="xtick_2">
     <g id="line2d_2">
      <g>
       <use xlink:href="#m2616af0465" x="306.308174" y="384.955" style="stroke: #000000; stroke-width: 0.8"/>
      </g>
     </g>
     <g id="text_2">
      <!-- 批发商 -->
      <g transform="translate(288.308174 401.564375) scale(0.12 -0.12)">
       <defs>
        <path id="SimHei-6279" d="M 625 -75 
Q 1025 -50 1137 -12 
Q 1250 25 1250 175 
L 1250 1575 
Q 775 1375 525 1200 
Q 475 1425 250 1700 
Q 600 1775 1250 2050 
L 1250 3325 
Q 725 3325 400 3300 
L 400 3775 
Q 725 3750 1250 3750 
Q 1250 4550 1225 5125 
L 1775 5125 
Q 1725 4850 1725 3750 
Q 1975 3750 2350 3775 
L 2350 3300 
Q 2000 3325 1725 3325 
L 1725 2200 
Q 1825 2250 2300 2450 
Q 2300 2250 2325 2025 
Q 1950 1850 1725 1750 
L 1725 -25 
Q 1725 -300 1512 -412 
Q 1300 -525 825 -650 
Q 750 -250 625 -75 
z
M 6175 3250 
Q 5800 3000 4875 2275 
L 4875 175 
Q 4875 -75 5075 -75 
L 5475 -75 
Q 5550 -25 5600 87 
Q 5650 200 5650 600 
Q 5875 475 6175 425 
Q 6050 -175 5925 -287 
Q 5800 -400 5600 -425 
L 4900 -425 
Q 4425 -425 4400 0 
L 4400 4525 
Q 4400 4850 4375 5150 
L 4900 5150 
Q 4875 4875 4875 4600 
L 4875 2775 
Q 5275 3075 5725 3625 
Q 5950 3400 6175 3250 
z
M 2575 -75 
Q 2750 75 2750 300 
L 2750 4425 
Q 2750 4700 2725 4950 
L 3250 4950 
Q 3200 4675 3200 4425 
L 3200 3000 
Q 3775 3000 4050 3025 
L 4050 2550 
Q 3750 2575 3200 2575 
L 3200 225 
Q 3425 325 3925 700 
Q 3950 475 4050 250 
Q 3825 125 3437 -87 
Q 3050 -300 2825 -525 
L 2575 -75 
z
" transform="scale(0.015625)"/>
        <path id="SimHei-53d1" d="M 3475 4925 
Q 3350 4650 3275 4362 
Q 3200 4075 3075 3575 
L 5075 3575 
Q 5325 3575 5825 3600 
L 5825 3125 
Q 5325 3150 5075 3150 
L 2975 3150 
Q 2825 2775 2650 2400 
L 5300 2400 
Q 4825 1250 3975 475 
Q 4650 0 5950 -150 
Q 5775 -350 5650 -650 
Q 5150 -550 4625 -362 
Q 4100 -175 3600 175 
Q 3200 -75 2625 -312 
Q 2050 -550 1450 -700 
Q 1400 -450 1200 -225 
Q 1750 -150 2300 37 
Q 2850 225 3275 500 
Q 2850 925 2325 1725 
Q 2050 1275 1625 850 
Q 1200 425 700 75 
Q 600 250 300 450 
Q 675 650 1037 975 
Q 1400 1300 1800 1837 
Q 2200 2375 2475 3150 
Q 1825 3150 1475 3125 
Q 1125 3100 950 3025 
Q 875 3250 750 3500 
Q 1000 3550 1112 3875 
Q 1225 4200 1350 4875 
Q 1550 4775 1900 4675 
Q 1775 4425 1675 4162 
Q 1575 3900 1450 3575 
L 2600 3575 
Q 2800 4375 2900 5100 
Q 3175 4950 3475 4925 
z
M 2675 2000 
Q 3025 1375 3650 750 
Q 4200 1200 4625 2000 
L 2675 2000 
z
M 4400 5075 
Q 4825 4600 5250 4100 
Q 5075 4000 4825 3775 
Q 4425 4350 4050 4750 
Q 4225 4875 4400 5075 
z
" transform="scale(0.015625)"/>
       </defs>
       <use xlink:href="#SimHei-6279"/>
       <use xlink:href="#SimHei-53d1" transform="translate(100 0)"/>
       <use xlink:href="#SimHei-5546" transform="translate(200 0)"/>
      </g>
     </g>
    </g>
    <g id="xtick_3">
     <g id="line2d_3">
      <g>
       <use xlink:href="#m2616af0465" x="464.813826" y="384.955" style="stroke: #000000; stroke-width: 0.8"/>
      </g>
     </g>
     <g id="text_3">
      <!-- 分销商 -->
      <g transform="translate(446.813826 401.5175) scale(0.12 -0.12)">
       <defs>
        <path id="SimHei-5206" d="M 1000 -650 
Q 825 -375 575 -225 
Q 975 -75 1300 137 
Q 1625 350 1875 662 
Q 2125 975 2250 1350 
Q 2375 1725 2425 2275 
Q 1850 2275 1500 2250 
L 1500 2775 
Q 1900 2750 2525 2750 
L 5025 2750 
Q 4975 2375 4950 2100 
L 4750 250 
Q 4700 -200 4350 -350 
Q 4000 -500 3575 -525 
Q 3550 -275 3325 50 
Q 3850 25 4037 87 
Q 4225 150 4275 525 
L 4450 2275 
L 2950 2275 
Q 2875 1625 2737 1187 
Q 2600 750 2350 425 
Q 2100 100 1750 -175 
Q 1400 -450 1000 -650 
z
M 3950 5175 
Q 4125 4650 4662 3975 
Q 5200 3300 6175 2800 
Q 5975 2625 5775 2275 
Q 5325 2600 4987 2887 
Q 4650 3175 4425 3425 
Q 4200 3675 3925 4137 
Q 3650 4600 3475 5000 
Q 3750 5075 3950 5175 
z
M 2700 4825 
Q 2475 4425 2325 4125 
Q 2175 3825 2025 3587 
Q 1875 3350 1575 2950 
Q 1275 2550 850 2125 
Q 625 2350 400 2475 
Q 900 2925 1187 3300 
Q 1475 3675 1737 4112 
Q 2000 4550 2200 5075 
Q 2400 4925 2700 4825 
z
" transform="scale(0.015625)"/>
        <path id="SimHei-9500" d="M 4175 4325 
Q 4175 4700 4150 5125 
L 4650 5125 
Q 4625 4850 4625 4325 
L 4625 3225 
L 5825 3225 
Q 5800 2850 5800 2225 
L 5800 50 
Q 5800 -300 5562 -375 
Q 5325 -450 4925 -525 
Q 4875 -275 4700 -25 
Q 5275 0 5300 112 
Q 5325 225 5325 825 
L 3575 825 
L 3575 -450 
L 3100 -450 
Q 3125 75 3125 400 
L 3125 2175 
Q 3125 2800 3100 3225 
L 4175 3225 
L 4175 4325 
z
M 2350 2700 
Q 2025 2725 1700 2725 
L 1700 1975 
Q 2125 1975 2600 2000 
L 2600 1550 
Q 2125 1575 1700 1575 
L 1700 425 
Q 1925 575 2250 925 
Q 2325 700 2500 475 
Q 2250 300 1975 87 
Q 1700 -125 1400 -450 
Q 1275 -225 1075 -50 
Q 1225 100 1250 400 
L 1250 1575 
Q 950 1575 525 1550 
L 525 2000 
Q 950 1975 1250 1975 
L 1250 2725 
Q 950 2725 750 2700 
L 750 3150 
Q 1075 3125 1500 3125 
Q 1950 3125 2350 3150 
L 2350 2700 
z
M 625 3075 
Q 450 3275 225 3375 
Q 600 3750 875 4200 
Q 1150 4650 1325 5125 
Q 1675 4925 1875 4850 
Q 1550 4400 1450 4200 
Q 2075 4200 2500 4225 
L 2500 3750 
Q 2075 3775 1200 3775 
Q 825 3275 625 3075 
z
M 5325 2200 
L 5325 2850 
L 3575 2850 
L 3575 2200 
L 5325 2200 
z
M 5325 1200 
L 5325 1825 
L 3575 1825 
L 3575 1200 
L 5325 1200 
z
M 6050 4550 
Q 5850 4300 5450 3525 
Q 5225 3650 4975 3725 
Q 5250 4050 5525 4775 
Q 5725 4650 6050 4550 
z
M 3200 4775 
Q 3600 4150 3800 3800 
Q 3575 3700 3350 3550 
Q 3175 3950 2775 4525 
Q 3025 4625 3200 4775 
z
" transform="scale(0.015625)"/>
       </defs>
       <use xlink:href="#SimHei-5206"/>
       <use xlink:href="#SimHei-9500" transform="translate(100 0)"/>
       <use xlink:href="#SimHei-5546" transform="translate(200 0)"/>
      </g>
     </g>
    </g>
    <g id="xtick_4">
     <g id="line2d_4">
      <g>
       <use xlink:href="#m2616af0465" x="623.319477" y="384.955" style="stroke: #000000; stroke-width: 0.8"/>
      </g>
     </g>
     <g id="text_4">
      <!-- 制造商 -->
      <g transform="translate(605.319477 401.5175) scale(0.12 -0.12)">
       <defs>
        <path id="SimHei-5236" d="M 1325 4625 
Q 1175 4375 1075 4150 
L 1800 4150 
Q 1800 4775 1775 5125 
L 2350 5125 
Q 2325 4800 2325 4150 
L 2700 4150 
Q 3200 4150 3600 4175 
L 3600 3725 
Q 3250 3750 2725 3750 
L 2325 3750 
L 2325 3025 
L 2950 3025 
Q 3325 3025 3750 3050 
L 3750 2625 
L 2325 2625 
L 2325 1950 
L 3675 1950 
Q 3650 1650 3637 1125 
Q 3625 600 3612 412 
Q 3600 225 3400 137 
Q 3200 50 2825 -25 
Q 2775 250 2650 550 
Q 2975 550 3050 587 
Q 3125 625 3125 975 
L 3125 1550 
L 2325 1550 
L 2325 175 
Q 2325 -250 2350 -550 
L 1775 -550 
Q 1800 -75 1800 175 
L 1800 1550 
L 1025 1550 
L 1025 -25 
L 500 -25 
Q 525 300 525 650 
L 525 1200 
Q 525 1675 500 1950 
L 1800 1950 
L 1800 2625 
L 1000 2625 
Q 550 2625 225 2600 
L 225 3050 
Q 550 3025 1000 3025 
L 1800 3025 
L 1800 3750 
L 925 3750 
Q 800 3450 675 3250 
Q 450 3400 225 3500 
Q 400 3750 525 4075 
Q 650 4400 750 4800 
Q 1000 4700 1325 4625 
z
M 5875 5075 
Q 5850 4825 5850 4350 
L 5850 25 
Q 5850 -325 5587 -412 
Q 5325 -500 4825 -575 
Q 4750 -250 4625 0 
Q 5050 0 5200 25 
Q 5350 50 5350 350 
L 5350 4350 
Q 5350 4775 5325 5075 
L 5875 5075 
z
M 4675 4325 
Q 4650 3975 4650 3700 
L 4650 1625 
Q 4650 1275 4675 775 
L 4125 775 
Q 4175 1200 4175 1625 
L 4175 3700 
Q 4175 3950 4125 4325 
L 4675 4325 
z
" transform="scale(0.015625)"/>
        <path id="SimHei-9020" d="M 5525 2325 
Q 5500 1825 5500 1350 
Q 5500 875 5525 400 
L 5000 400 
L 5000 750 
L 3025 750 
L 3025 425 
L 2525 425 
Q 2550 900 2550 1375 
Q 2550 1850 2525 2325 
L 5525 2325 
z
M 200 -100 
Q 950 475 1250 625 
L 1250 2600 
Q 775 2600 350 2575 
L 350 3025 
Q 850 3000 1750 3000 
Q 1725 2525 1725 2250 
L 1725 675 
Q 2050 325 2600 175 
Q 3150 25 4075 0 
Q 5000 -25 6200 50 
Q 6000 -200 5975 -525 
Q 3575 -475 3125 -400 
Q 2675 -325 2375 -212 
Q 2075 -100 1762 112 
Q 1450 325 1125 37 
Q 800 -250 600 -525 
Q 425 -300 200 -100 
z
M 3150 4900 
Q 3000 4625 2950 4400 
L 3800 4400 
Q 3800 5000 3775 5225 
L 4275 5225 
Q 4250 4975 4250 4400 
Q 5150 4400 5625 4425 
L 5625 4000 
Q 5175 4025 4250 4025 
L 4250 3200 
Q 5575 3200 6050 3225 
L 6050 2775 
Q 5575 2800 3975 2800 
Q 2400 2800 1950 2775 
L 1950 3225 
Q 2400 3200 3800 3200 
L 3800 4025 
L 2825 4025 
Q 2675 3750 2550 3450 
Q 2325 3550 2100 3625 
Q 2400 4175 2600 5025 
Q 2850 4975 3150 4900 
z
M 5000 1125 
L 5000 1925 
L 3025 1925 
L 3025 1125 
L 5000 1125 
z
M 1775 4000 
Q 1575 3850 1350 3725 
Q 1000 4250 650 4725 
Q 850 4875 1025 5025 
Q 1625 4225 1775 4000 
z
" transform="scale(0.015625)"/>
       </defs>
       <use xlink:href="#SimHei-5236"/>
       <use xlink:href="#SimHei-9020" transform="translate(100 0)"/>
       <use xlink:href="#SimHei-5546" transform="translate(200 0)"/>
      </g>
     </g>
    </g>
    <g id="text_5">
     <!-- 供应链节点 -->
     <g transform="translate(353.061 417.5175) scale(0.13 -0.13)">
      <defs>
       <path id="SimHei-4f9b" d="M 5825 3200 
Q 5650 3225 5200 3225 
L 4875 3225 
L 4875 1800 
L 5425 1800 
Q 5675 1800 6000 1825 
L 6000 1300 
Q 5650 1325 5325 1325 
L 2775 1325 
Q 2300 1325 2000 1300 
L 2000 1825 
Q 2300 1800 2750 1800 
L 3000 1800 
L 3000 3225 
L 2825 3225 
Q 2425 3225 2175 3200 
L 2175 3675 
Q 2450 3650 2825 3650 
L 3000 3650 
L 3000 4325 
Q 3000 4800 2975 5025 
L 3475 5025 
Q 3450 4850 3450 4275 
L 3450 3650 
L 4375 3650 
L 4375 4375 
Q 4375 4650 4350 5000 
L 4925 5000 
Q 4875 4675 4875 4350 
L 4875 3650 
L 5250 3650 
Q 5550 3650 5825 3675 
L 5825 3200 
z
M 1100 -575 
Q 1125 -125 1125 300 
L 1125 2950 
Q 950 2625 675 2200 
Q 525 2350 225 2525 
Q 525 2825 925 3525 
Q 1325 4225 1550 5225 
Q 1875 5050 2175 4950 
Q 2000 4800 1625 3775 
L 1625 350 
Q 1625 -150 1650 -575 
L 1100 -575 
z
M 4375 1800 
L 4375 3225 
L 3450 3225 
L 3450 1800 
L 4375 1800 
z
M 3550 775 
Q 3275 475 2975 112 
Q 2675 -250 2325 -625 
Q 2075 -375 1825 -275 
Q 2500 225 3075 1100 
Q 3325 925 3550 775 
z
M 4850 1100 
Q 5075 900 5400 525 
Q 5725 150 5975 -200 
Q 5725 -350 5500 -550 
Q 5125 50 4425 775 
Q 4625 925 4850 1100 
z
" transform="scale(0.015625)"/>
       <path id="SimHei-5e94" d="M 3525 5275 
Q 3700 4825 3850 4400 
L 4750 4400 
Q 5275 4400 5850 4425 
L 5850 3975 
Q 5275 4000 4750 4000 
L 1475 4000 
Q 1475 2525 1425 1900 
Q 1375 1275 1237 625 
Q 1100 -25 750 -625 
Q 575 -400 300 -250 
Q 625 175 800 937 
Q 975 1700 1000 2575 
Q 1025 3450 1000 4400 
L 3250 4400 
Q 3175 4750 3000 5100 
Q 3250 5150 3525 5275 
z
M 5625 3125 
Q 5375 2575 5187 2050 
Q 5000 1525 4450 225 
L 5150 225 
Q 5500 225 5925 250 
L 5925 -275 
Q 5500 -250 5150 -250 
L 2475 -250 
Q 2050 -250 1450 -275 
L 1450 250 
Q 2025 225 2475 225 
L 3950 225 
Q 4325 1000 4612 1850 
Q 4900 2700 5025 3350 
Q 5350 3175 5625 3125 
z
M 2100 2850 
Q 2750 1825 3075 1050 
Q 2900 950 2650 800 
Q 2150 1925 1700 2575 
Q 1925 2750 2100 2850 
z
M 3300 3425 
Q 3800 2550 4175 1700 
Q 3950 1575 3700 1450 
Q 3400 2300 2900 3200 
Q 3100 3275 3300 3425 
z
" transform="scale(0.015625)"/>
       <path id="SimHei-94fe" d="M 4125 4400 
Q 4275 4675 4375 5250 
L 4975 5050 
Q 4825 4825 4625 4400 
L 5325 4400 
Q 5700 4400 6075 4425 
L 6075 4000 
Q 5700 4025 5325 4025 
L 4525 4025 
Q 4175 3200 4000 2725 
L 4600 2725 
Q 4600 3025 4575 3400 
L 5075 3400 
Q 5050 2900 5050 2725 
L 5300 2725 
Q 5600 2725 5950 2750 
L 5950 2325 
Q 5600 2350 5325 2350 
L 5050 2350 
L 5050 1525 
L 5350 1525 
Q 5700 1525 6025 1550 
L 6025 1125 
Q 5725 1150 5350 1150 
L 5050 1150 
Q 5050 775 5075 200 
L 4575 200 
Q 4600 775 4600 1150 
L 4200 1150 
Q 3850 1150 3500 1125 
L 3500 1550 
Q 3850 1525 4200 1525 
L 4600 1525 
L 4600 2350 
L 4225 2350 
Q 3750 2350 3550 2250 
Q 3475 2475 3375 2725 
Q 3575 2825 3750 3225 
Q 3925 3625 4050 4025 
Q 3875 4025 3475 4000 
L 3475 4425 
Q 3800 4400 4125 4400 
z
M 1700 3175 
Q 1875 3175 2075 3200 
L 2075 2750 
Q 1675 2775 1525 2775 
L 1525 2075 
Q 1825 2075 2175 2100 
L 2175 1625 
Q 1825 1675 1525 1675 
L 1525 450 
Q 2025 850 2200 1050 
Q 2250 825 2400 600 
Q 2150 450 1850 187 
Q 1550 -75 1225 -400 
Q 1075 -225 875 -50 
Q 1050 125 1100 575 
L 1100 1675 
Q 775 1675 375 1650 
L 375 2100 
Q 775 2075 1100 2075 
L 1100 2775 
Q 950 2775 725 2750 
L 725 3150 
L 525 2900 
Q 400 3075 200 3275 
Q 575 3650 787 4125 
Q 1000 4600 1125 5150 
Q 1525 4975 1750 4925 
Q 1575 4775 1487 4575 
Q 1400 4375 1300 4200 
Q 1725 4200 2200 4225 
L 2200 3775 
Q 1675 3800 1150 3800 
Q 1000 3550 775 3225 
Q 950 3225 1125 3175 
L 1700 3175 
z
M 2325 2975 
Q 2550 2950 2750 2950 
L 3225 2950 
Q 3175 2550 3175 2250 
L 3175 550 
Q 3375 350 3762 225 
Q 4150 100 4600 62 
Q 5050 25 6200 125 
Q 6025 -150 5975 -450 
Q 5150 -450 4662 -400 
Q 4175 -350 3900 -275 
Q 3625 -200 3275 37 
Q 2925 275 2737 75 
Q 2550 -125 2350 -350 
Q 2175 -75 2000 100 
Q 2500 425 2750 550 
L 2750 2550 
L 2650 2550 
Q 2525 2550 2325 2500 
L 2325 2975 
z
M 2875 4850 
Q 3075 4425 3225 3850 
Q 3000 3775 2775 3650 
Q 2625 4225 2425 4700 
Q 2600 4775 2875 4850 
z
" transform="scale(0.015625)"/>
       <path id="SimHei-8282" d="M 4200 200 
Q 4150 500 3950 800 
Q 4450 800 4712 850 
Q 4975 900 5000 1150 
L 5050 2500 
L 2925 2500 
L 2925 325 
Q 2925 -125 2950 -600 
L 2375 -600 
Q 2425 -150 2425 325 
L 2425 2500 
L 1875 2500 
Q 1050 2500 550 2475 
L 550 2950 
Q 1075 2925 1625 2925 
L 5625 2925 
Q 5550 1875 5525 1225 
Q 5500 575 5150 412 
Q 4800 250 4200 200 
z
M 2475 3950 
Q 2475 3500 2500 3175 
L 1950 3175 
Q 1975 3550 1975 3950 
L 1125 3950 
Q 775 3950 350 3900 
L 350 4400 
Q 775 4375 1125 4375 
L 1975 4375 
Q 1975 4850 1950 5175 
L 2500 5175 
Q 2475 4850 2475 4375 
L 3800 4375 
Q 3800 4875 3775 5175 
L 4350 5175 
Q 4325 4875 4325 4375 
L 5125 4375 
Q 5600 4375 6000 4400 
L 6000 3925 
Q 5600 3950 5125 3950 
L 4325 3950 
Q 4325 3550 4350 3175 
L 3775 3175 
Q 3800 3575 3800 3950 
L 2475 3950 
z
" transform="scale(0.015625)"/>
       <path id="SimHei-70b9" d="M 3325 5200 
Q 3300 4925 3300 4375 
L 4900 4375 
Q 5275 4375 5725 4400 
L 5725 3925 
Q 5300 3950 4900 3950 
L 3300 3950 
L 3300 3225 
L 5225 3225 
Q 5200 2700 5200 2150 
Q 5200 1625 5225 1175 
L 1175 1175 
Q 1200 1625 1200 2175 
Q 1200 2725 1175 3225 
L 2775 3225 
L 2775 4500 
Q 2775 4900 2750 5200 
L 3325 5200 
z
M 4700 1600 
L 4700 2800 
L 1725 2800 
L 1725 1600 
L 4700 1600 
z
M 1500 750 
Q 1025 -250 825 -625 
Q 625 -475 325 -375 
Q 650 50 950 925 
Q 1200 800 1500 750 
z
M 5325 850 
Q 5775 150 6075 -350 
Q 5925 -425 5575 -625 
Q 5375 -150 4900 575 
Q 5150 700 5325 850 
z
M 3975 -575 
Q 3775 -100 3400 575 
Q 3575 675 3825 825 
Q 4350 -75 4450 -325 
Q 4200 -450 3975 -575 
z
M 2375 -575 
Q 2350 -300 1975 550 
Q 2200 625 2425 775 
Q 2800 -75 2900 -350 
Q 2625 -450 2375 -575 
z
" transform="scale(0.015625)"/>
      </defs>
      <use xlink:href="#SimHei-4f9b"/>
      <use xlink:href="#SimHei-5e94" transform="translate(100 0)"/>
      <use xlink:href="#SimHei-94fe" transform="translate(200 0)"/>
      <use xlink:href="#SimHei-8282" transform="translate(300 0)"/>
      <use xlink:href="#SimHei-70b9" transform="translate(400 0)"/>
     </g>
    </g>
   </g>
   <g id="matplotlib.axis_2">
    <g id="ytick_1">
     <g id="line2d_5">
      <path d="M 63.002 384.955 
L 708.12 384.955 
" clip-path="url(#p397aa98597)" style="fill: none; stroke-dasharray: 2.96,1.28; stroke-dashoffset: 0; stroke: #b0b0b0; stroke-opacity: 0.3; stroke-width: 0.8"/>
     </g>
     <g id="line2d_6">
      <defs>
       <path id="mfe886128d9" d="M 0 0 
L -3.5 0 
" style="stroke: #000000; stroke-width: 0.8"/>
      </defs>
      <g>
       <use xlink:href="#mfe886128d9" x="63.002" y="384.955" style="stroke: #000000; stroke-width: 0.8"/>
      </g>
     </g>
     <g id="text_6">
      <!-- 0.00 -->
      <g transform="translate(34.002 388.73625) scale(0.11 -0.11)">
       <defs>
        <path id="SimHei-30" d="M 225 2537 
Q 250 3200 412 3587 
Q 575 3975 875 4225 
Q 1175 4475 1612 4475 
Q 2050 4475 2375 4112 
Q 2700 3750 2800 3200 
Q 2900 2650 2862 1937 
Q 2825 1225 2612 775 
Q 2400 325 1975 150 
Q 1550 -25 1125 187 
Q 700 400 525 750 
Q 350 1100 275 1487 
Q 200 1875 225 2537 
z
M 750 2687 
Q 675 2000 800 1462 
Q 925 925 1212 700 
Q 1500 475 1800 612 
Q 2100 750 2237 1162 
Q 2375 1575 2375 2062 
Q 2375 2550 2337 2950 
Q 2300 3350 2112 3675 
Q 1925 4000 1612 4012 
Q 1300 4025 1062 3700 
Q 825 3375 750 2687 
z
" transform="scale(0.015625)"/>
        <path id="SimHei-2e" d="M 1075 125 
L 500 125 
L 500 675 
L 1075 675 
L 1075 125 
z
" transform="scale(0.015625)"/>
       </defs>
       <use xlink:href="#SimHei-30"/>
       <use xlink:href="#SimHei-2e" transform="translate(50 0)"/>
       <use xlink:href="#SimHei-30" transform="translate(100 0)"/>
       <use xlink:href="#SimHei-30" transform="translate(150 0)"/>
      </g>
     </g>
    </g>
    <g id="ytick_2">
     <g id="line2d_7">
      <path d="M 63.002 336.653354 
L 708.12 336.653354 
" clip-path="url(#p397aa98597)" style="fill: none; stroke-dasharray: 2.96,1.28; stroke-dashoffset: 0; stroke: #b0b0b0; stroke-opacity: 0.3; stroke-width: 0.8"/>
     </g>
     <g id="line2d_8">
      <g>
       <use xlink:href="#mfe886128d9" x="63.002" y="336.653354" style="stroke: #000000; stroke-width: 0.8"/>
      </g>
     </g>
     <g id="text_7">
      <!-- 0.05 -->
      <g transform="translate(34.002 340.434604) scale(0.11 -0.11)">
       <defs>
        <path id="SimHei-35" d="M 550 1325 
Q 725 650 1150 575 
Q 1575 500 1837 662 
Q 2100 825 2212 1087 
Q 2325 1350 2312 1675 
Q 2300 2000 2137 2225 
Q 1975 2450 1725 2525 
Q 1475 2600 1162 2525 
Q 850 2450 650 2175 
L 225 2225 
Q 275 2375 700 4375 
L 2675 4375 
L 2675 3925 
L 1075 3925 
Q 950 3250 825 2850 
Q 1200 3025 1525 3012 
Q 1850 3000 2150 2862 
Q 2450 2725 2587 2487 
Q 2725 2250 2787 2012 
Q 2850 1775 2837 1500 
Q 2825 1225 2725 937 
Q 2625 650 2425 462 
Q 2225 275 1937 162 
Q 1650 50 1275 75 
Q 900 100 562 350 
Q 225 600 100 1200 
L 550 1325 
z
" transform="scale(0.015625)"/>
       </defs>
       <use xlink:href="#SimHei-30"/>
       <use xlink:href="#SimHei-2e" transform="translate(50 0)"/>
       <use xlink:href="#SimHei-30" transform="translate(100 0)"/>
       <use xlink:href="#SimHei-35" transform="translate(150 0)"/>
      </g>
     </g>
    </g>
    <g id="ytick_3">
     <g id="line2d_9">
      <path d="M 63.002 288.351708 
L 708.12 288.351708 
" clip-path="url(#p397aa98597)" style="fill: none; stroke-dasharray: 2.96,1.28; stroke-dashoffset: 0; stroke: #b0b0b0; stroke-opacity: 0.3; stroke-width: 0.8"/>
     </g>
     <g id="line2d_10">
      <g>
       <use xlink:href="#mfe886128d9" x="63.002" y="288.351708" style="stroke: #000000; stroke-width: 0.8"/>
      </g>
     </g>
     <g id="text_8">
      <!-- 0.10 -->
      <g transform="translate(34.002 292.132958) scale(0.11 -0.11)">
       <defs>
        <path id="SimHei-31" d="M 1400 3600 
Q 1075 3275 575 2975 
L 575 3450 
Q 1200 3875 1600 4450 
L 1900 4450 
L 1900 150 
L 1400 150 
L 1400 3600 
z
" transform="scale(0.015625)"/>
       </defs>
       <use xlink:href="#SimHei-30"/>
       <use xlink:href="#SimHei-2e" transform="translate(50 0)"/>
       <use xlink:href="#SimHei-31" transform="translate(100 0)"/>
       <use xlink:href="#SimHei-30" transform="translate(150 0)"/>
      </g>
     </g>
    </g>
    <g id="ytick_4">
     <g id="line2d_11">
      <path d="M 63.002 240.050062 
L 708.12 240.050062 
" clip-path="url(#p397aa98597)" style="fill: none; stroke-dasharray: 2.96,1.28; stroke-dashoffset: 0; stroke: #b0b0b0; stroke-opacity: 0.3; stroke-width: 0.8"/>
     </g>
     <g id="line2d_12">
      <g>
       <use xlink:href="#mfe886128d9" x="63.002" y="240.050062" style="stroke: #000000; stroke-width: 0.8"/>
      </g>
     </g>
     <g id="text_9">
      <!-- 0.15 -->
      <g transform="translate(34.002 243.831312) scale(0.11 -0.11)">
       <use xlink:href="#SimHei-30"/>
       <use xlink:href="#SimHei-2e" transform="translate(50 0)"/>
       <use xlink:href="#SimHei-31" transform="translate(100 0)"/>
       <use xlink:href="#SimHei-35" transform="translate(150 0)"/>
      </g>
     </g>
    </g>
    <g id="ytick_5">
     <g id="line2d_13">
      <path d="M 63.002 191.748417 
L 708.12 191.748417 
" clip-path="url(#p397aa98597)" style="fill: none; stroke-dasharray: 2.96,1.28; stroke-dashoffset: 0; stroke: #b0b0b0; stroke-opacity: 0.3; stroke-width: 0.8"/>
     </g>
     <g id="line2d_14">
      <g>
       <use xlink:href="#mfe886128d9" x="63.002" y="191.748417" style="stroke: #000000; stroke-width: 0.8"/>
      </g>
     </g>
     <g id="text_10">
      <!-- 0.20 -->
      <g transform="translate(34.002 195.529667) scale(0.11 -0.11)">
       <defs>
        <path id="SimHei-32" d="M 300 250 
Q 325 625 650 925 
Q 975 1225 1475 1862 
Q 1975 2500 2125 2850 
Q 2275 3200 2237 3450 
Q 2200 3700 2000 3862 
Q 1800 4025 1537 4000 
Q 1275 3975 1037 3800 
Q 800 3625 675 3275 
L 200 3350 
Q 400 3925 712 4187 
Q 1025 4450 1450 4475 
Q 1700 4500 1900 4462 
Q 2100 4425 2312 4287 
Q 2525 4150 2662 3875 
Q 2800 3600 2762 3212 
Q 2725 2825 2375 2287 
Q 2025 1750 1025 600 
L 2825 600 
L 2825 150 
L 300 150 
L 300 250 
z
" transform="scale(0.015625)"/>
       </defs>
       <use xlink:href="#SimHei-30"/>
       <use xlink:href="#SimHei-2e" transform="translate(50 0)"/>
       <use xlink:href="#SimHei-32" transform="translate(100 0)"/>
       <use xlink:href="#SimHei-30" transform="translate(150 0)"/>
      </g>
     </g>
    </g>
    <g id="ytick_6">
     <g id="line2d_15">
      <path d="M 63.002 143.446771 
L 708.12 143.446771 
" clip-path="url(#p397aa98597)" style="fill: none; stroke-dasharray: 2.96,1.28; stroke-dashoffset: 0; stroke: #b0b0b0; stroke-opacity: 0.3; stroke-width: 0.8"/>
     </g>
     <g id="line2d_16">
      <g>
       <use xlink:href="#mfe886128d9" x="63.002" y="143.446771" style="stroke: #000000; stroke-width: 0.8"/>
      </g>
     </g>
     <g id="text_11">
      <!-- 0.25 -->
      <g transform="translate(34.002 147.228021) scale(0.11 -0.11)">
       <use xlink:href="#SimHei-30"/>
       <use xlink:href="#SimHei-2e" transform="translate(50 0)"/>
       <use xlink:href="#SimHei-32" transform="translate(100 0)"/>
       <use xlink:href="#SimHei-35" transform="translate(150 0)"/>
      </g>
     </g>
    </g>
    <g id="ytick_7">
     <g id="line2d_17">
      <path d="M 63.002 95.145125 
L 708.12 95.145125 
" clip-path="url(#p397aa98597)" style="fill: none; stroke-dasharray: 2.96,1.28; stroke-dashoffset: 0; stroke: #b0b0b0; stroke-opacity: 0.3; stroke-width: 0.8"/>
     </g>
     <g id="line2d_18">
      <g>
       <use xlink:href="#mfe886128d9" x="63.002" y="95.145125" style="stroke: #000000; stroke-width: 0.8"/>
      </g>
     </g>
     <g id="text_12">
      <!-- 0.30 -->
      <g transform="translate(34.002 98.926375) scale(0.11 -0.11)">
       <defs>
        <path id="SimHei-33" d="M 250 1225 
L 700 1300 
Q 800 975 1025 762 
Q 1250 550 1587 562 
Q 1925 575 2125 837 
Q 2325 1100 2300 1437 
Q 2275 1775 2037 1962 
Q 1800 2150 1275 2225 
L 1275 2550 
Q 1800 2600 2037 2825 
Q 2275 3050 2250 3412 
Q 2225 3775 1925 3937 
Q 1625 4100 1287 3975 
Q 950 3850 750 3275 
L 300 3350 
Q 450 3800 712 4100 
Q 975 4400 1425 4450 
Q 1875 4500 2212 4337 
Q 2550 4175 2687 3837 
Q 2825 3500 2725 3100 
Q 2625 2700 2150 2400 
Q 2500 2250 2687 1950 
Q 2875 1650 2812 1162 
Q 2750 675 2375 375 
Q 2000 75 1525 87 
Q 1050 100 700 387 
Q 350 675 250 1225 
z
" transform="scale(0.015625)"/>
       </defs>
       <use xlink:href="#SimHei-30"/>
       <use xlink:href="#SimHei-2e" transform="translate(50 0)"/>
       <use xlink:href="#SimHei-33" transform="translate(100 0)"/>
       <use xlink:href="#SimHei-30" transform="translate(150 0)"/>
      </g>
     </g>
    </g>
    <g id="ytick_8">
     <g id="line2d_19">
      <path d="M 63.002 46.843479 
L 708.12 46.843479 
" clip-path="url(#p397aa98597)" style="fill: none; stroke-dasharray: 2.96,1.28; stroke-dashoffset: 0; stroke: #b0b0b0; stroke-opacity: 0.3; stroke-width: 0.8"/>
     </g>
     <g id="line2d_20">
      <g>
       <use xlink:href="#mfe886128d9" x="63.002" y="46.843479" style="stroke: #000000; stroke-width: 0.8"/>
      </g>
     </g>
     <g id="text_13">
      <!-- 0.35 -->
      <g transform="translate(34.002 50.624729) scale(0.11 -0.11)">
       <use xlink:href="#SimHei-30"/>
       <use xlink:href="#SimHei-2e" transform="translate(50 0)"/>
       <use xlink:href="#SimHei-33" transform="translate(100 0)"/>
       <use xlink:href="#SimHei-35" transform="translate(150 0)"/>
      </g>
     </g>
    </g>
    <g id="text_14">
     <!-- 情绪方差 $\sigma_E^2$ -->
     <g transform="translate(26.362 243.8775) rotate(-90) scale(0.13 -0.13)">
      <defs>
       <path id="SimHei-60c5" d="M 2775 1475 
Q 2775 2050 2750 2525 
L 5600 2525 
Q 5575 2100 5575 1725 
L 5575 -150 
Q 5575 -425 5375 -500 
Q 5175 -575 4875 -625 
Q 4850 -400 4700 -150 
Q 5050 -150 5100 -75 
Q 5150 0 5150 475 
L 3225 475 
L 3225 -625 
L 2750 -625 
Q 2775 -50 2775 375 
L 2775 1475 
z
M 2375 3250 
Q 2975 3225 3475 3225 
L 3975 3225 
L 3975 3625 
L 3500 3625 
Q 3075 3625 2625 3600 
L 2625 4025 
Q 3075 4000 3500 4000 
L 3975 4000 
L 3975 4350 
L 3450 4350 
Q 3050 4350 2475 4325 
L 2475 4750 
Q 3075 4725 3450 4725 
L 3975 4725 
Q 3975 4975 3950 5225 
L 4475 5225 
Q 4450 4975 4450 4725 
L 5125 4725 
Q 5550 4725 5925 4750 
L 5925 4325 
Q 5550 4350 5125 4350 
L 4450 4350 
L 4450 4000 
L 4925 4000 
Q 5325 4000 5750 4025 
L 5750 3600 
Q 5300 3625 4925 3625 
L 4450 3625 
L 4450 3225 
L 5175 3225 
Q 5775 3225 6150 3250 
L 6150 2825 
Q 5775 2850 5150 2850 
L 3500 2850 
Q 2850 2850 2375 2825 
L 2375 3250 
z
M 1675 5225 
Q 1650 4800 1650 4400 
L 1650 425 
Q 1650 -100 1675 -600 
L 1150 -600 
Q 1200 -100 1200 425 
L 1200 4325 
Q 1200 4825 1150 5225 
L 1675 5225 
z
M 5125 850 
L 5125 1325 
L 3225 1325 
L 3225 850 
L 5125 850 
z
M 5125 1700 
L 5125 2150 
L 3225 2150 
L 3225 1700 
L 5125 1700 
z
M 1050 3900 
Q 1000 3675 725 2275 
Q 500 2350 250 2375 
Q 425 2750 575 3975 
Q 800 3925 1050 3900 
z
M 1975 3125 
Q 1925 3425 1775 3975 
Q 1950 4000 2200 4075 
Q 2350 3550 2450 3275 
Q 2175 3200 1975 3125 
z
" transform="scale(0.015625)"/>
       <path id="SimHei-7eea" d="M 3700 4375 
Q 3700 4700 3675 5175 
L 4175 5175 
Q 4150 4775 4150 4375 
Q 4350 4375 4750 4400 
L 4750 3975 
Q 4375 4000 4150 4000 
L 4150 3200 
L 4325 3200 
Q 4625 3575 4900 4000 
Q 5175 4425 5350 4825 
Q 5600 4625 5925 4500 
Q 5675 4250 5387 3850 
Q 5100 3450 4900 3200 
L 5275 3200 
Q 5725 3200 6200 3225 
L 6200 2800 
Q 5750 2825 5275 2825 
L 4625 2825 
Q 4325 2525 4075 2200 
L 5625 2200 
Q 5600 1825 5600 1175 
L 5600 400 
Q 5600 125 5625 -475 
L 5150 -475 
L 5150 -200 
L 3450 -200 
L 3450 -600 
L 2975 -600 
Q 3000 -50 3000 425 
L 3000 1275 
Q 2850 1150 2525 850 
Q 2375 1025 2175 1200 
Q 2750 1625 3000 1850 
Q 3000 2000 2975 2200 
L 3425 2200 
Q 3750 2475 4025 2825 
L 3475 2825 
Q 2925 2825 2475 2800 
L 2475 3225 
Q 2925 3200 3475 3200 
L 3700 3200 
L 3700 4000 
Q 3175 4000 2825 3975 
L 2825 4400 
Q 3250 4375 3700 4375 
z
M 1950 4850 
Q 1725 4600 1487 4125 
Q 1250 3650 950 3125 
L 1700 3125 
Q 1950 3525 2125 4050 
Q 2350 3925 2700 3850 
Q 2575 3725 2250 3212 
Q 1925 2700 1250 1650 
Q 1900 1725 2400 1775 
Q 2325 1525 2300 1300 
Q 1925 1300 1500 1262 
Q 1075 1225 650 1100 
Q 600 1325 525 1600 
Q 700 1650 975 1975 
Q 1250 2300 1500 2750 
Q 900 2750 450 2600 
Q 375 2850 250 3150 
Q 525 3300 825 3875 
Q 1125 4450 1325 5075 
Q 1600 4950 1950 4850 
z
M 5150 1200 
L 5150 1825 
L 3500 1825 
L 3500 1200 
L 5150 1200 
z
M 2475 675 
Q 2425 425 2450 225 
Q 2075 175 1537 50 
Q 1000 -75 475 -250 
Q 375 75 225 300 
Q 900 375 1312 450 
Q 1725 525 2475 675 
z
M 5150 250 
L 5150 775 
L 3500 775 
L 3500 250 
L 5150 250 
z
" transform="scale(0.015625)"/>
       <path id="SimHei-65b9" d="M 425 3975 
Q 825 3950 1300 3950 
L 5025 3950 
Q 5625 3950 6000 3975 
L 6000 3475 
Q 5675 3500 5100 3500 
L 2525 3500 
Q 2525 3225 2500 2500 
L 5300 2500 
Q 5250 2175 5200 1550 
L 5050 175 
Q 5000 -275 4625 -412 
Q 4250 -550 3525 -625 
Q 3500 -300 3325 -50 
Q 3900 -75 4200 0 
Q 4500 75 4575 425 
L 4725 2050 
L 2475 2050 
Q 2375 1350 2162 875 
Q 1950 400 1575 0 
Q 1200 -400 825 -700 
Q 725 -550 375 -350 
Q 700 -175 1062 200 
Q 1425 575 1662 1050 
Q 1900 1525 1962 2100 
Q 2025 2675 2025 3500 
L 1325 3500 
Q 775 3500 425 3475 
L 425 3975 
z
M 3075 4075 
Q 2850 4575 2575 5000 
Q 2800 5125 3025 5275 
Q 3300 4850 3575 4350 
Q 3325 4250 3075 4075 
z
" transform="scale(0.015625)"/>
       <path id="SimHei-5dee" d="M 4725 4975 
Q 4500 4725 4250 4275 
L 4850 4275 
Q 5450 4275 5825 4300 
L 5825 3850 
Q 5425 3875 4850 3875 
L 3275 3875 
Q 3225 3600 3150 3275 
L 4525 3275 
Q 5075 3275 5525 3300 
L 5525 2850 
Q 5075 2875 4500 2875 
L 3050 2875 
Q 2975 2650 2850 2325 
L 5125 2325 
Q 5675 2325 6025 2350 
L 6025 1900 
Q 5700 1925 5150 1925 
L 2650 1925 
Q 2425 1550 2250 1300 
Q 2650 1275 3100 1275 
L 4525 1275 
Q 4975 1275 5350 1300 
L 5350 850 
Q 4975 875 4575 875 
L 3925 875 
L 3925 -50 
L 5000 -50 
Q 5200 -50 5900 -25 
L 5900 -500 
Q 5275 -475 5025 -475 
L 2100 -475 
Q 1700 -475 1400 -500 
L 1400 -25 
Q 1775 -50 2125 -50 
L 3425 -50 
L 3425 875 
L 3100 875 
Q 2625 875 2175 850 
L 2175 1200 
Q 1925 875 1487 475 
Q 1050 75 625 -250 
Q 425 -25 200 150 
Q 750 475 1262 925 
Q 1775 1375 2100 1925 
L 1325 1925 
Q 750 1925 375 1900 
L 375 2350 
Q 750 2325 1350 2325 
L 2325 2325 
Q 2450 2575 2550 2875 
L 1725 2875 
Q 1375 2875 1000 2850 
L 1000 3300 
Q 1500 3275 1700 3275 
L 2650 3275 
Q 2725 3575 2775 3875 
L 1500 3875 
Q 1100 3875 650 3850 
L 650 4300 
Q 1025 4275 1425 4275 
L 2275 4275 
Q 2075 4675 1850 4950 
Q 2025 5050 2250 5225 
Q 2450 4975 2725 4550 
Q 2525 4450 2325 4275 
L 3750 4275 
Q 4000 4700 4150 5250 
Q 4400 5100 4725 4975 
z
" transform="scale(0.015625)"/>
       <path id="SimHei-20" transform="scale(0.015625)"/>
       <path id="DejaVuSans-Oblique-3c3" d="M 2219 3044 
Q 1744 3044 1422 2700 
Q 1081 2341 969 1747 
Q 844 1119 1044 756 
Q 1241 397 1706 397 
Q 2166 397 2503 759 
Q 2844 1122 2966 1747 
Q 3075 2319 2881 2700 
Q 2700 3044 2219 3044 
z
M 2309 3503 
L 4219 3500 
L 4106 2925 
L 3463 2925 
Q 3706 2438 3575 1747 
Q 3406 888 2884 400 
Q 2359 -91 1609 -91 
Q 856 -91 525 400 
Q 194 888 363 1747 
Q 528 2609 1050 3097 
Q 1484 3503 2309 3503 
z
" transform="scale(0.015625)"/>
       <path id="DejaVuSans-32" d="M 1228 531 
L 3431 531 
L 3431 0 
L 469 0 
L 469 531 
Q 828 903 1448 1529 
Q 2069 2156 2228 2338 
Q 2531 2678 2651 2914 
Q 2772 3150 2772 3378 
Q 2772 3750 2511 3984 
Q 2250 4219 1831 4219 
Q 1534 4219 1204 4116 
Q 875 4013 500 3803 
L 500 4441 
Q 881 4594 1212 4672 
Q 1544 4750 1819 4750 
Q 2544 4750 2975 4387 
Q 3406 4025 3406 3419 
Q 3406 3131 3298 2873 
Q 3191 2616 2906 2266 
Q 2828 2175 2409 1742 
Q 1991 1309 1228 531 
z
" transform="scale(0.015625)"/>
       <path id="DejaVuSans-Oblique-45" d="M 1081 4666 
L 4031 4666 
L 3928 4134 
L 1606 4134 
L 1338 2753 
L 3566 2753 
L 3463 2222 
L 1234 2222 
L 909 531 
L 3284 531 
L 3181 0 
L 172 0 
L 1081 4666 
z
" transform="scale(0.015625)"/>
      </defs>
      <use xlink:href="#SimHei-60c5" transform="translate(0 0.765625)"/>
      <use xlink:href="#SimHei-7eea" transform="translate(100 0.765625)"/>
      <use xlink:href="#SimHei-65b9" transform="translate(200 0.765625)"/>
      <use xlink:href="#SimHei-5dee" transform="translate(300 0.765625)"/>
      <use xlink:href="#SimHei-20" transform="translate(400 0.765625)"/>
      <use xlink:href="#DejaVuSans-Oblique-3c3" transform="translate(450 0.765625)"/>
      <use xlink:href="#DejaVuSans-32" transform="translate(517.851615 39.046875) scale(0.7)"/>
      <use xlink:href="#DejaVuSans-Oblique-45" transform="translate(513.378906 -26.578125) scale(0.7)"/>
     </g>
    </g>
   </g>
   <g id="patch_11">
    <path d="M 63.002 384.955 
L 63.002 29.22 
" style="fill: none; stroke: #000000; stroke-width: 0.8; stroke-linejoin: miter; stroke-linecap: square"/>
   </g>
   <g id="patch_12">
    <path d="M 708.12 384.955 
L 708.12 29.22 
" style="fill: none; stroke: #000000; stroke-width: 0.8; stroke-linejoin: miter; stroke-linecap: square"/>
   </g>
   <g id="patch_13">
    <path d="M 63.002 384.955 
L 708.12 384.955 
" style="fill: none; stroke: #000000; stroke-width: 0.8; stroke-linejoin: miter; stroke-linecap: square"/>
   </g>
   <g id="patch_14">
    <path d="M 63.002 29.22 
L 708.12 29.22 
" style="fill: none; stroke: #000000; stroke-width: 0.8; stroke-linejoin: miter; stroke-linecap: square"/>
   </g>
   <g id="text_15">
    <!-- 0.0000 -->
    <g transform="translate(106.564034 378.999835) scale(0.09 -0.09)">
     <use xlink:href="#SimHei-30"/>
     <use xlink:href="#SimHei-2e" transform="translate(50 0)"/>
     <use xlink:href="#SimHei-30" transform="translate(100 0)"/>
     <use xlink:href="#SimHei-30" transform="translate(150 0)"/>
     <use xlink:href="#SimHei-30" transform="translate(200 0)"/>
     <use xlink:href="#SimHei-30" transform="translate(250 0)"/>
    </g>
   </g>
   <g id="text_16">
    <!-- 0.0000 -->
    <g transform="translate(265.069686 378.999835) scale(0.09 -0.09)">
     <use xlink:href="#SimHei-30"/>
     <use xlink:href="#SimHei-2e" transform="translate(50 0)"/>
     <use xlink:href="#SimHei-30" transform="translate(100 0)"/>
     <use xlink:href="#SimHei-30" transform="translate(150 0)"/>
     <use xlink:href="#SimHei-30" transform="translate(200 0)"/>
     <use xlink:href="#SimHei-30" transform="translate(250 0)"/>
    </g>
   </g>
   <g id="text_17">
    <!-- 0.0305 -->
    <g transform="translate(423.575337 349.496233) scale(0.09 -0.09)">
     <use xlink:href="#SimHei-30"/>
     <use xlink:href="#SimHei-2e" transform="translate(50 0)"/>
     <use xlink:href="#SimHei-30" transform="translate(100 0)"/>
     <use xlink:href="#SimHei-33" transform="translate(150 0)"/>
     <use xlink:href="#SimHei-30" transform="translate(200 0)"/>
     <use xlink:href="#SimHei-35" transform="translate(250 0)"/>
    </g>
   </g>
   <g id="text_18">
    <!-- 0.0000 -->
    <g transform="translate(582.080988 378.999835) scale(0.09 -0.09)">
     <use xlink:href="#SimHei-30"/>
     <use xlink:href="#SimHei-2e" transform="translate(50 0)"/>
     <use xlink:href="#SimHei-30" transform="translate(100 0)"/>
     <use xlink:href="#SimHei-30" transform="translate(150 0)"/>
     <use xlink:href="#SimHei-30" transform="translate(200 0)"/>
     <use xlink:href="#SimHei-30" transform="translate(250 0)"/>
    </g>
   </g>
   <g id="text_19">
    <!-- 0.3507 -->
    <g transform="translate(162.041012 40.204597) scale(0.09 -0.09)">
     <defs>
      <path id="SimHei-37" d="M 850 150 
Q 1300 2050 2425 3925 
L 275 3925 
L 275 4375 
L 2950 4375 
L 2950 3950 
Q 1775 2050 1400 150 
L 850 150 
z
" transform="scale(0.015625)"/>
     </defs>
     <use xlink:href="#SimHei-30"/>
     <use xlink:href="#SimHei-2e" transform="translate(50 0)"/>
     <use xlink:href="#SimHei-33" transform="translate(100 0)"/>
     <use xlink:href="#SimHei-35" transform="translate(150 0)"/>
     <use xlink:href="#SimHei-30" transform="translate(200 0)"/>
     <use xlink:href="#SimHei-37" transform="translate(250 0)"/>
    </g>
   </g>
   <g id="text_20">
    <!-- 0.1436 -->
    <g transform="translate(320.546663 240.324507) scale(0.09 -0.09)">
     <defs>
      <path id="SimHei-34" d="M 2000 1100 
L 75 1100 
L 75 1525 
L 2100 4450 
L 2475 4450 
L 2475 1525 
L 3075 1525 
L 3075 1100 
L 2475 1100 
L 2475 150 
L 2000 150 
L 2000 1100 
z
M 2000 1525 
L 2000 3500 
L 600 1525 
L 2000 1525 
z
" transform="scale(0.015625)"/>
      <path id="SimHei-36" d="M 250 1612 
Q 275 1975 387 2225 
Q 500 2475 725 2850 
L 1750 4450 
L 2325 4450 
L 1275 2800 
Q 1950 2975 2350 2750 
Q 2750 2525 2887 2237 
Q 3025 1950 3037 1612 
Q 3050 1275 2937 950 
Q 2825 625 2537 362 
Q 2250 100 1737 75 
Q 1225 50 862 262 
Q 500 475 362 862 
Q 225 1250 250 1612 
z
M 1025 787 
Q 1250 550 1625 525 
Q 2000 500 2250 775 
Q 2500 1050 2500 1575 
Q 2500 2100 2187 2300 
Q 1875 2500 1487 2450 
Q 1100 2400 925 2075 
Q 750 1750 775 1387 
Q 800 1025 1025 787 
z
" transform="scale(0.015625)"/>
     </defs>
     <use xlink:href="#SimHei-30"/>
     <use xlink:href="#SimHei-2e" transform="translate(50 0)"/>
     <use xlink:href="#SimHei-31" transform="translate(100 0)"/>
     <use xlink:href="#SimHei-34" transform="translate(150 0)"/>
     <use xlink:href="#SimHei-33" transform="translate(200 0)"/>
     <use xlink:href="#SimHei-36" transform="translate(250 0)"/>
    </g>
   </g>
   <g id="text_21">
    <!-- 0.0634 -->
    <g transform="translate(479.052314 317.775278) scale(0.09 -0.09)">
     <use xlink:href="#SimHei-30"/>
     <use xlink:href="#SimHei-2e" transform="translate(50 0)"/>
     <use xlink:href="#SimHei-30" transform="translate(100 0)"/>
     <use xlink:href="#SimHei-36" transform="translate(150 0)"/>
     <use xlink:href="#SimHei-33" transform="translate(200 0)"/>
     <use xlink:href="#SimHei-34" transform="translate(250 0)"/>
    </g>
   </g>
   <g id="text_22">
    <!-- 0.0486 -->
    <g transform="translate(637.557966 332.041315) scale(0.09 -0.09)">
     <defs>
      <path id="SimHei-38" d="M 175 1375 
Q 175 1675 325 1962 
Q 475 2250 825 2425 
Q 525 2600 425 2812 
Q 325 3025 312 3300 
Q 300 3575 387 3775 
Q 475 3975 650 4150 
Q 825 4325 1037 4387 
Q 1250 4450 1500 4450 
Q 1750 4450 1950 4400 
Q 2150 4350 2375 4187 
Q 2600 4025 2700 3725 
Q 2800 3425 2687 3025 
Q 2575 2625 2100 2400 
Q 2525 2275 2700 2012 
Q 2875 1750 2875 1375 
Q 2875 1000 2762 775 
Q 2650 550 2512 400 
Q 2375 250 2137 162 
Q 1900 75 1537 75 
Q 1175 75 912 162 
Q 650 250 475 425 
Q 300 600 237 837 
Q 175 1075 175 1375 
z
M 687 1400 
Q 675 1100 787 875 
Q 900 650 1200 587 
Q 1500 525 1825 600 
Q 2150 675 2275 950 
Q 2400 1225 2362 1500 
Q 2325 1775 2050 1962 
Q 1775 2150 1450 2125 
Q 1125 2100 912 1900 
Q 700 1700 687 1400 
z
M 775 3350 
Q 775 3100 950 2875 
Q 1125 2650 1500 2650 
Q 1875 2650 2062 2875 
Q 2250 3100 2237 3412 
Q 2225 3725 2012 3875 
Q 1800 4025 1437 4000 
Q 1075 3975 925 3787 
Q 775 3600 775 3350 
z
" transform="scale(0.015625)"/>
     </defs>
     <use xlink:href="#SimHei-30"/>
     <use xlink:href="#SimHei-2e" transform="translate(50 0)"/>
     <use xlink:href="#SimHei-30" transform="translate(100 0)"/>
     <use xlink:href="#SimHei-34" transform="translate(150 0)"/>
     <use xlink:href="#SimHei-38" transform="translate(200 0)"/>
     <use xlink:href="#SimHei-36" transform="translate(250 0)"/>
    </g>
   </g>
   <g id="text_23">
    <!-- Exp_1b vs Exp_2 情绪波动指数对比 -->
    <g transform="translate(273.561 23.22) scale(0.14 -0.14)">
     <defs>
      <path id="SimHei-45" d="M 2900 125 
L 350 125 
L 350 4400 
L 2775 4400 
L 2775 3925 
L 925 3925 
L 925 2600 
L 2625 2600 
L 2625 2125 
L 925 2125 
L 925 600 
L 2900 600 
L 2900 125 
z
" transform="scale(0.015625)"/>
      <path id="SimHei-78" d="M 2875 125 
L 2275 125 
L 1550 1200 
L 825 125 
L 225 125 
L 1250 1550 
L 300 2925 
L 900 2925 
L 1550 1875 
L 2200 2925 
L 2800 2925 
L 1850 1550 
L 2875 125 
z
" transform="scale(0.015625)"/>
      <path id="SimHei-70" d="M 2825 1525 
Q 2825 800 2475 425 
Q 2125 50 1625 50 
Q 1350 50 1150 162 
Q 950 275 800 500 
L 800 -800 
L 300 -800 
L 300 2925 
L 800 2925 
L 800 2550 
Q 950 2775 1150 2875 
Q 1350 2975 1625 2975 
Q 2125 2975 2475 2612 
Q 2825 2250 2825 1525 
z
M 2275 1525 
Q 2275 2000 2087 2262 
Q 1900 2525 1525 2525 
Q 1225 2525 1012 2262 
Q 800 2000 800 1525 
Q 800 1050 1012 775 
Q 1225 500 1525 500 
Q 1900 500 2087 775 
Q 2275 1050 2275 1525 
z
" transform="scale(0.015625)"/>
      <path id="SimHei-5f" d="M 3150 -850 
L 0 -850 
L 0 -550 
L 3150 -550 
L 3150 -850 
z
" transform="scale(0.015625)"/>
      <path id="SimHei-62" d="M 2825 1525 
Q 2825 800 2475 437 
Q 2125 75 1625 75 
Q 1350 75 1150 175 
Q 950 275 800 500 
L 800 125 
L 300 125 
L 300 4400 
L 800 4400 
L 800 2550 
Q 950 2775 1150 2887 
Q 1350 3000 1625 3000 
Q 2125 3000 2475 2625 
Q 2825 2250 2825 1525 
z
M 2275 1525 
Q 2275 2000 2087 2275 
Q 1900 2550 1525 2550 
Q 1225 2550 1012 2275 
Q 800 2000 800 1525 
Q 800 1050 1012 787 
Q 1225 525 1525 525 
Q 1900 525 2087 787 
Q 2275 1050 2275 1525 
z
" transform="scale(0.015625)"/>
      <path id="SimHei-76" d="M 2875 2925 
L 1825 75 
L 1275 75 
L 225 2925 
L 750 2925 
L 1525 750 
L 1575 750 
L 2350 2925 
L 2875 2925 
z
" transform="scale(0.015625)"/>
      <path id="SimHei-73" d="M 2750 900 
Q 2750 500 2437 287 
Q 2125 75 1650 75 
Q 1050 75 725 312 
Q 400 550 400 1000 
L 900 1000 
Q 900 700 1112 600 
Q 1325 500 1625 500 
Q 1925 500 2075 612 
Q 2225 725 2225 900 
Q 2225 1025 2100 1150 
Q 1975 1275 1475 1350 
Q 900 1425 687 1637 
Q 475 1850 475 2200 
Q 475 2500 762 2737 
Q 1050 2975 1600 2975 
Q 2100 2975 2387 2750 
Q 2675 2525 2675 2150 
L 2175 2150 
Q 2175 2375 2012 2462 
Q 1850 2550 1600 2550 
Q 1275 2550 1137 2437 
Q 1000 2325 1000 2175 
Q 1000 2000 1125 1900 
Q 1250 1800 1650 1750 
Q 2300 1650 2525 1437 
Q 2750 1225 2750 900 
z
" transform="scale(0.015625)"/>
      <path id="SimHei-6ce2" d="M 5075 3275 
Q 5175 3600 5225 3850 
L 4325 3850 
L 4325 2750 
L 5550 2750 
Q 5400 2100 5125 1512 
Q 4850 925 4525 550 
Q 4775 350 5200 175 
Q 5625 0 6175 -100 
Q 5900 -300 5775 -600 
Q 5250 -425 4800 -175 
Q 4350 75 4200 225 
Q 3950 25 3537 -212 
Q 3125 -450 2500 -675 
Q 2375 -500 2050 -375 
Q 2525 -250 3062 25 
Q 3600 300 3850 550 
Q 3325 1300 3075 2325 
L 2825 2325 
Q 2800 1400 2487 725 
Q 2175 50 1875 -300 
Q 1700 -150 1375 -50 
Q 1750 325 1950 712 
Q 2150 1100 2262 1475 
Q 2375 1850 2387 2825 
Q 2400 3800 2350 4275 
L 3875 4275 
Q 3875 4850 3850 5200 
L 4350 5200 
Q 4325 4900 4325 4275 
L 5850 4275 
Q 5825 4125 5750 3837 
Q 5675 3550 5600 3200 
Q 5300 3250 5075 3275 
z
M 3525 2325 
Q 3800 1400 4200 925 
Q 4650 1475 4925 2325 
L 3525 2325 
z
M 1950 1700 
Q 1700 1375 1262 712 
Q 825 50 675 -200 
Q 475 50 225 275 
Q 525 525 937 1100 
Q 1350 1675 1550 2100 
L 1950 1700 
z
M 3875 2750 
L 3875 3850 
L 2850 3850 
L 2850 2750 
L 3875 2750 
z
M 925 4925 
Q 1600 4525 2000 4250 
Q 1800 4025 1675 3800 
Q 1250 4150 625 4500 
Q 775 4700 925 4925 
z
M 600 3525 
Q 1125 3250 1725 2850 
Q 1525 2675 1400 2425 
Q 925 2825 350 3100 
Q 450 3275 600 3525 
z
" transform="scale(0.015625)"/>
      <path id="SimHei-52a8" d="M 4125 5150 
Q 4425 5075 4700 5075 
Q 4650 4825 4637 4512 
Q 4625 4200 4625 3750 
L 6025 3750 
Q 6000 3425 5975 3025 
L 5850 175 
Q 5775 -325 5437 -437 
Q 5100 -550 4675 -600 
Q 4600 -300 4425 -50 
Q 4975 -75 5175 12 
Q 5375 100 5375 350 
L 5525 3325 
L 4625 3325 
Q 4575 2225 4462 1650 
Q 4350 1075 4112 587 
Q 3875 100 3150 -675 
Q 2900 -425 2700 -350 
Q 3175 25 3475 437 
Q 3775 850 3900 1287 
Q 4025 1725 4075 2200 
Q 4125 2675 4150 3325 
L 3725 3325 
Q 3450 3325 3075 3300 
L 3075 3775 
Q 3450 3750 3775 3750 
L 4150 3750 
L 4150 4450 
Q 4150 4800 4125 5150 
z
M 275 3025 
Q 650 3000 1175 3000 
L 2125 3000 
Q 2575 3000 3150 3025 
L 3150 2575 
Q 2575 2600 2150 2600 
L 1875 2600 
Q 1725 2200 1537 1750 
Q 1350 1300 1100 850 
Q 2075 950 2575 1050 
Q 2450 1350 2175 1800 
Q 2450 1950 2575 2050 
Q 2825 1600 3000 1287 
Q 3175 975 3375 525 
Q 3175 400 2925 275 
Q 2825 500 2750 650 
Q 1950 525 1462 450 
Q 975 375 625 250 
Q 525 500 375 725 
Q 700 925 962 1525 
Q 1225 2125 1350 2600 
L 1175 2600 
Q 650 2600 275 2575 
L 275 3025 
z
M 2000 4425 
Q 2425 4425 2950 4450 
L 2950 3975 
Q 2425 4000 2000 4000 
L 1400 4000 
Q 1000 4000 625 3975 
L 625 4450 
Q 975 4425 1375 4425 
L 2000 4425 
z
" transform="scale(0.015625)"/>
      <path id="SimHei-6307" d="M 5625 2225 
Q 5600 1925 5600 1350 
L 5600 300 
Q 5600 -225 5625 -525 
L 5125 -525 
L 5125 -125 
L 3300 -125 
L 3300 -625 
L 2800 -625 
Q 2825 -300 2825 300 
L 2825 1350 
Q 2825 1925 2800 2225 
L 5625 2225 
z
M 500 25 
Q 1075 -25 1175 37 
Q 1275 100 1275 275 
L 1275 1675 
Q 1050 1600 925 1537 
Q 800 1475 475 1275 
Q 400 1525 225 1800 
Q 625 1900 825 1975 
Q 1025 2050 1275 2125 
L 1275 3300 
L 1100 3300 
Q 775 3300 450 3275 
L 450 3725 
Q 750 3700 1100 3700 
L 1275 3700 
L 1275 4450 
Q 1275 4800 1250 5125 
L 1775 5125 
Q 1750 4850 1750 4450 
L 1750 3700 
Q 2075 3700 2425 3725 
L 2425 3275 
Q 2050 3300 1750 3300 
L 1750 2325 
Q 1850 2350 2025 2425 
L 2375 2575 
Q 2350 2300 2375 2100 
Q 2225 2050 2062 1987 
Q 1900 1925 1750 1850 
L 1750 100 
Q 1725 -200 1575 -337 
Q 1425 -475 675 -525 
Q 625 -250 500 25 
z
M 3325 5025 
Q 3300 4675 3300 4125 
Q 4125 4275 4512 4412 
Q 4900 4550 5225 4725 
Q 5325 4475 5575 4250 
Q 5450 4225 5237 4175 
Q 5025 4125 4725 4050 
Q 4425 3975 4037 3887 
Q 3650 3800 3300 3725 
L 3300 3175 
Q 3275 2925 3700 2925 
L 4925 2925 
Q 5300 2925 5387 3087 
Q 5475 3250 5550 3600 
Q 5750 3400 6050 3300 
Q 5825 2725 5700 2637 
Q 5575 2550 5275 2525 
L 3350 2525 
Q 3050 2525 2937 2687 
Q 2825 2850 2825 2975 
L 2825 4125 
Q 2825 4775 2800 5025 
L 3325 5025 
z
M 5125 275 
L 5125 875 
L 3300 875 
L 3300 275 
L 5125 275 
z
M 5125 1250 
L 5125 1825 
L 3300 1825 
L 3300 1250 
L 5125 1250 
z
" transform="scale(0.015625)"/>
      <path id="SimHei-6570" d="M 4525 4925 
Q 4475 4800 4400 4587 
Q 4325 4375 4175 3825 
L 5325 3825 
Q 5575 3825 5925 3850 
L 5925 3400 
Q 5650 3425 5500 3425 
Q 5500 3025 5362 2162 
Q 5225 1300 4875 675 
Q 5125 375 5437 137 
Q 5750 -100 6025 -200 
Q 5725 -425 5625 -625 
Q 5325 -450 5075 -225 
Q 4825 0 4575 325 
Q 4300 25 3987 -187 
Q 3675 -400 3200 -650 
Q 3075 -425 2850 -300 
Q 3225 -150 3650 125 
Q 4075 400 4300 675 
Q 4125 1025 3962 1425 
Q 3800 1825 3675 2475 
Q 3600 2275 3425 1950 
Q 3250 2050 3000 2150 
Q 3400 2850 3650 3675 
Q 3900 4500 3975 5100 
Q 4275 4975 4525 4925 
z
M 2100 2250 
Q 2000 2150 1875 1925 
L 3250 1925 
Q 3100 1300 2725 675 
Q 3125 525 3350 400 
Q 3225 225 3125 25 
Q 2900 175 2450 325 
Q 1950 -225 725 -650 
Q 600 -375 400 -275 
Q 1575 0 2000 475 
Q 1300 650 850 775 
Q 1000 1000 1250 1525 
Q 1000 1525 425 1500 
L 425 1950 
Q 900 1925 1400 1925 
Q 1500 2150 1550 2425 
Q 1825 2325 2100 2250 
z
M 1775 3950 
Q 1775 4550 1750 5100 
L 2250 5100 
Q 2225 4575 2225 3950 
Q 3075 3950 3425 3975 
L 3425 3525 
Q 3075 3550 2225 3550 
Q 2225 2825 2250 2425 
L 1750 2425 
Q 1775 2775 1775 3300 
Q 1650 3100 1300 2787 
Q 950 2475 650 2300 
Q 525 2525 275 2625 
Q 500 2700 875 2975 
Q 1250 3250 1450 3550 
Q 950 3550 500 3525 
L 500 3975 
Q 925 3950 1775 3950 
z
M 3975 3175 
Q 4200 1700 4600 1125 
Q 4850 1700 4937 2287 
Q 5025 2875 5050 3425 
L 4075 3425 
L 3975 3175 
z
M 1450 1000 
Q 1750 925 2275 800 
Q 2475 1050 2650 1525 
L 1725 1525 
Q 1600 1275 1450 1000 
z
M 3325 4825 
Q 3200 4625 3125 4450 
Q 3050 4275 2925 4025 
Q 2725 4125 2525 4175 
Q 2725 4500 2900 5000 
Q 3150 4875 3325 4825 
z
M 2575 3375 
Q 2900 3050 3200 2725 
Q 3050 2600 2875 2425 
Q 2525 2850 2300 3100 
Q 2450 3225 2575 3375 
z
M 925 5000 
Q 1275 4650 1500 4300 
L 1125 4075 
Q 950 4425 600 4725 
Q 825 4875 925 5000 
z
" transform="scale(0.015625)"/>
      <path id="SimHei-5bf9" d="M 525 4250 
Q 900 4225 1400 4225 
L 2825 4225 
Q 2575 2625 2200 1750 
Q 2825 875 3125 400 
Q 2950 275 2725 75 
Q 2200 975 1950 1300 
Q 1650 775 1350 425 
Q 1050 75 600 -350 
Q 425 -125 200 -25 
Q 625 275 975 675 
Q 1325 1075 1650 1700 
Q 1050 2425 550 2900 
Q 700 3025 900 3225 
Q 1625 2425 1875 2150 
Q 2200 3050 2300 3825 
L 1400 3825 
Q 900 3825 525 3800 
L 525 4250 
z
M 2925 3700 
Q 3525 3675 3750 3675 
L 4825 3675 
L 4825 4425 
Q 4825 4750 4775 5125 
L 5350 5125 
Q 5325 4825 5325 4375 
L 5325 3675 
Q 5575 3675 6150 3700 
L 6150 3250 
Q 5575 3275 5325 3275 
L 5325 125 
Q 5350 -350 5012 -475 
Q 4675 -600 4250 -650 
Q 4175 -350 4025 -100 
Q 4575 -100 4712 -37 
Q 4850 25 4825 325 
L 4825 3275 
L 3775 3275 
Q 3550 3275 2925 3225 
L 2925 3700 
z
M 3450 2725 
Q 3875 1975 4175 1325 
Q 3850 1200 3700 1075 
Q 3475 1750 3050 2475 
Q 3225 2550 3450 2725 
z
" transform="scale(0.015625)"/>
      <path id="SimHei-6bd4" d="M 3775 5100 
Q 3750 4575 3750 4100 
L 3750 3050 
Q 4925 3600 5475 4175 
Q 5675 3900 5900 3675 
Q 5600 3500 5037 3187 
Q 4475 2875 3750 2550 
L 3750 450 
Q 3750 100 4050 100 
L 5000 100 
Q 5175 100 5262 250 
Q 5350 400 5450 900 
Q 5650 775 6025 675 
Q 5850 0 5650 -175 
Q 5450 -350 5225 -350 
L 3900 -350 
Q 3250 -350 3250 275 
L 3250 4000 
Q 3250 4550 3225 5100 
L 3775 5100 
z
M 1275 4975 
Q 1250 4575 1250 4000 
L 1250 3150 
L 1850 3150 
Q 2325 3150 2875 3175 
L 2875 2650 
Q 2325 2675 1850 2675 
L 1250 2675 
L 1250 475 
Q 1650 650 1962 812 
Q 2275 975 2850 1275 
Q 2900 950 2950 750 
Q 2375 475 1762 175 
Q 1150 -125 925 -325 
Q 750 -100 575 200 
Q 700 300 750 600 
L 750 3950 
Q 750 4550 725 4975 
L 1275 4975 
z
" transform="scale(0.015625)"/>
     </defs>
     <use xlink:href="#SimHei-45"/>
     <use xlink:href="#SimHei-78" transform="translate(50 0)"/>
     <use xlink:href="#SimHei-70" transform="translate(100 0)"/>
     <use xlink:href="#SimHei-5f" transform="translate(150 0)"/>
     <use xlink:href="#SimHei-31" transform="translate(200 0)"/>
     <use xlink:href="#SimHei-62" transform="translate(250 0)"/>
     <use xlink:href="#SimHei-20" transform="translate(300 0)"/>
     <use xlink:href="#SimHei-76" transform="translate(350 0)"/>
     <use xlink:href="#SimHei-73" transform="translate(400 0)"/>
     <use xlink:href="#SimHei-20" transform="translate(450 0)"/>
     <use xlink:href="#SimHei-45" transform="translate(500 0)"/>
     <use xlink:href="#SimHei-78" transform="translate(550 0)"/>
     <use xlink:href="#SimHei-70" transform="translate(600 0)"/>
     <use xlink:href="#SimHei-5f" transform="translate(650 0)"/>
     <use xlink:href="#SimHei-32" transform="translate(700 0)"/>
     <use xlink:href="#SimHei-20" transform="translate(750 0)"/>
     <use xlink:href="#SimHei-60c5" transform="translate(800 0)"/>
     <use xlink:href="#SimHei-7eea" transform="translate(900 0)"/>
     <use xlink:href="#SimHei-6ce2" transform="translate(1000 0)"/>
     <use xlink:href="#SimHei-52a8" transform="translate(1100 0)"/>
     <use xlink:href="#SimHei-6307" transform="translate(1200 0)"/>
     <use xlink:href="#SimHei-6570" transform="translate(1300 0)"/>
     <use xlink:href="#SimHei-5bf9" transform="translate(1400 0)"/>
     <use xlink:href="#SimHei-6bd4" transform="translate(1500 0)"/>
    </g>
   </g>
   <g id="legend_1">
    <g id="patch_15">
     <path d="M 539.12 66.2825 
L 701.12 66.2825 
Q 703.12 66.2825 703.12 64.2825 
L 703.12 36.22 
Q 703.12 34.22 701.12 34.22 
L 539.12 34.22 
Q 537.12 34.22 537.12 36.22 
L 537.12 64.2825 
Q 537.12 66.2825 539.12 66.2825 
z
" style="fill: #ffffff; opacity: 0.8; stroke: #cccccc; stroke-linejoin: miter"/>
    </g>
    <g id="patch_16">
     <path d="M 541.12 46.423125 
L 561.12 46.423125 
L 561.12 39.423125 
L 541.12 39.423125 
z
" style="fill: #e67e22; stroke: #000000; stroke-width: 0.8; stroke-linejoin: miter"/>
    </g>
    <g id="text_24">
     <!-- Exp_1b (单智能体+情绪) -->
     <g transform="translate(569.12 46.423125) scale(0.1 -0.1)">
      <defs>
       <path id="SimHei-28" d="M 2975 -200 
L 2700 -475 
Q 2075 125 1762 775 
Q 1450 1425 1450 2250 
Q 1450 3075 1762 3725 
Q 2075 4375 2700 5000 
L 2975 4725 
Q 2400 4175 2112 3587 
Q 1825 3000 1825 2250 
Q 1825 1500 2112 912 
Q 2400 325 2975 -200 
z
" transform="scale(0.015625)"/>
       <path id="SimHei-5355" d="M 5275 4075 
L 5275 1525 
L 3400 1525 
L 3400 925 
L 5050 925 
Q 5600 925 6000 950 
L 6000 450 
Q 5575 475 5050 475 
L 3400 475 
Q 3400 -300 3425 -625 
L 2875 -625 
Q 2925 -300 2925 475 
L 1300 475 
Q 700 475 425 450 
L 425 950 
Q 675 925 1250 925 
L 2925 925 
L 2925 1525 
L 1125 1525 
Q 1150 1950 1150 2750 
Q 1150 3550 1125 4075 
L 3600 4075 
Q 3875 4650 4075 5250 
Q 4325 5125 4650 4975 
Q 4550 4850 4400 4587 
Q 4250 4325 4100 4075 
L 5275 4075 
z
M 4775 1925 
L 4775 2600 
L 3400 2600 
L 3400 1925 
L 4775 1925 
z
M 4775 3000 
L 4775 3650 
L 3400 3650 
L 3400 3000 
L 4775 3000 
z
M 2925 1925 
L 2925 2600 
L 1625 2600 
L 1625 1925 
L 2925 1925 
z
M 2925 3000 
L 2925 3650 
L 1625 3650 
L 1625 3000 
L 2925 3000 
z
M 2100 5225 
Q 2350 4950 2675 4350 
Q 2400 4225 2225 4125 
Q 1975 4675 1725 4975 
Q 1900 5075 2100 5225 
z
" transform="scale(0.015625)"/>
       <path id="SimHei-667a" d="M 5125 1900 
Q 5100 1475 5100 650 
Q 5100 -175 5125 -600 
L 4600 -600 
L 4600 -300 
L 1975 -300 
L 1975 -600 
L 1450 -600 
Q 1475 -200 1475 625 
Q 1475 1475 1450 1900 
L 5125 1900 
z
M 1925 5050 
Q 1750 4875 1550 4575 
Q 2900 4575 3425 4600 
L 3425 4150 
Q 2875 4175 2425 4175 
Q 2425 3950 2400 3600 
Q 3200 3600 3575 3625 
L 3575 3175 
Q 3200 3200 2325 3200 
L 2275 3025 
Q 3050 2725 3500 2500 
Q 3300 2225 3200 2050 
Q 2650 2450 2075 2650 
Q 1650 2100 950 1700 
Q 800 1900 575 2075 
Q 1000 2250 1362 2575 
Q 1725 2900 1825 3200 
Q 900 3200 500 3175 
L 500 3625 
Q 900 3600 1925 3600 
Q 1975 3925 1950 4175 
L 1375 4175 
Q 1225 3900 1025 3650 
Q 750 3800 600 3900 
Q 800 4125 1062 4550 
Q 1325 4975 1400 5250 
Q 1600 5150 1925 5050 
z
M 3800 2400 
Q 3825 2800 3825 3475 
Q 3825 4175 3800 4575 
L 5775 4575 
Q 5750 4275 5750 3525 
Q 5750 2775 5775 2400 
L 3800 2400 
z
M 4600 1000 
L 4600 1550 
L 1975 1550 
L 1975 1000 
L 4600 1000 
z
M 4600 100 
L 4600 625 
L 1975 625 
L 1975 100 
L 4600 100 
z
M 5250 2800 
L 5250 4175 
L 4300 4175 
L 4300 2800 
L 5250 2800 
z
" transform="scale(0.015625)"/>
       <path id="SimHei-80fd" d="M 2025 -150 
Q 2475 -150 2525 -62 
Q 2575 25 2575 200 
L 2575 550 
L 1225 550 
L 1225 -625 
L 750 -625 
Q 775 -125 775 275 
L 775 1950 
Q 775 2400 750 2750 
L 3050 2750 
Q 3025 2375 3025 1925 
L 3025 -175 
Q 3000 -450 2800 -525 
Q 2600 -600 2225 -650 
Q 2175 -425 2025 -150 
z
M 5800 1625 
Q 5700 1600 5212 1375 
Q 4725 1150 4100 950 
L 4100 250 
Q 4100 -50 4375 -50 
L 5275 -50 
Q 5475 0 5550 575 
Q 5750 475 6050 375 
Q 5875 -425 5475 -425 
L 4125 -425 
Q 3650 -425 3650 50 
L 3650 1675 
Q 3650 2050 3625 2350 
L 4125 2350 
Q 4100 2050 4100 1700 
L 4100 1375 
Q 4350 1450 4762 1650 
Q 5175 1850 5425 2075 
Q 5650 1775 5800 1625 
z
M 4100 4100 
Q 4450 4250 4775 4412 
Q 5100 4575 5425 4825 
Q 5625 4575 5775 4400 
Q 5625 4350 5137 4112 
Q 4650 3875 4100 3700 
L 4100 3325 
Q 4100 3025 4450 3025 
L 5175 3025 
Q 5425 3025 5500 3675 
Q 5750 3550 6000 3450 
Q 5825 2650 5375 2650 
L 4250 2650 
Q 3650 2650 3650 3200 
L 3650 4475 
Q 3650 4775 3625 5125 
L 4125 5125 
Q 4100 4950 4100 4400 
L 4100 4100 
z
M 3025 3075 
Q 2950 3200 2825 3350 
Q 2000 3300 1450 3250 
Q 900 3200 625 3125 
Q 550 3425 450 3650 
Q 625 3725 987 4187 
Q 1350 4650 1575 5175 
Q 1700 5075 1850 5025 
Q 2000 4975 2175 4900 
Q 1975 4750 1762 4450 
Q 1550 4150 1075 3600 
Q 2125 3650 2625 3675 
Q 2325 4075 2200 4200 
Q 2375 4300 2600 4475 
Q 2800 4200 2987 3975 
Q 3175 3750 3475 3400 
Q 3200 3200 3025 3075 
z
M 2575 950 
L 2575 1475 
L 1225 1475 
L 1225 950 
L 2575 950 
z
M 2575 1875 
L 2575 2350 
L 1225 2350 
L 1225 1875 
L 2575 1875 
z
" transform="scale(0.015625)"/>
       <path id="SimHei-4f53" d="M 3650 3850 
Q 3650 4750 3625 5125 
L 4125 5125 
Q 4100 4775 4100 3850 
L 5200 3850 
Q 5700 3850 5925 3875 
L 5925 3425 
Q 5700 3450 5200 3450 
L 4525 3450 
Q 4925 1850 6200 1200 
Q 5925 1050 5775 775 
Q 4425 1800 4100 3425 
L 4100 1025 
Q 4825 1025 5050 1050 
L 5050 600 
Q 4825 625 4100 625 
Q 4100 75 4125 -575 
L 3625 -575 
Q 3650 100 3650 625 
Q 3200 625 2700 600 
L 2700 1050 
Q 3200 1025 3650 1025 
L 3650 3450 
Q 3375 1800 2000 650 
Q 1850 875 1550 1025 
Q 2850 1875 3200 3450 
L 2675 3450 
Q 2275 3450 1975 3425 
L 1975 3875 
Q 2275 3850 2675 3850 
L 3650 3850 
z
M 2000 4900 
Q 1825 4675 1525 3775 
L 1525 575 
Q 1525 -200 1550 -550 
L 1050 -550 
Q 1075 -225 1075 550 
L 1075 2900 
Q 950 2625 575 2050 
Q 450 2275 225 2425 
Q 525 2725 925 3612 
Q 1325 4500 1425 5125 
Q 1700 5000 2000 4900 
z
" transform="scale(0.015625)"/>
       <path id="SimHei-2b" d="M 3000 2125 
L 1775 2125 
L 1775 900 
L 1350 900 
L 1350 2125 
L 125 2125 
L 125 2525 
L 1350 2525 
L 1350 3750 
L 1775 3750 
L 1775 2525 
L 3000 2525 
L 3000 2125 
z
" transform="scale(0.015625)"/>
       <path id="SimHei-29" d="M 1675 2250 
Q 1675 1425 1362 775 
Q 1050 125 425 -475 
L 150 -200 
Q 725 325 1012 912 
Q 1300 1500 1300 2250 
Q 1300 3000 1012 3587 
Q 725 4175 150 4725 
L 425 5000 
Q 1050 4375 1362 3725 
Q 1675 3075 1675 2250 
z
" transform="scale(0.015625)"/>
      </defs>
      <use xlink:href="#SimHei-45"/>
      <use xlink:href="#SimHei-78" transform="translate(50 0)"/>
      <use xlink:href="#SimHei-70" transform="translate(100 0)"/>
      <use xlink:href="#SimHei-5f" transform="translate(150 0)"/>
      <use xlink:href="#SimHei-31" transform="translate(200 0)"/>
      <use xlink:href="#SimHei-62" transform="translate(250 0)"/>
      <use xlink:href="#SimHei-20" transform="translate(300 0)"/>
      <use xlink:href="#SimHei-28" transform="translate(350 0)"/>
      <use xlink:href="#SimHei-5355" transform="translate(400 0)"/>
      <use xlink:href="#SimHei-667a" transform="translate(500 0)"/>
      <use xlink:href="#SimHei-80fd" transform="translate(600 0)"/>
      <use xlink:href="#SimHei-4f53" transform="translate(700 0)"/>
      <use xlink:href="#SimHei-2b" transform="translate(800 0)"/>
      <use xlink:href="#SimHei-60c5" transform="translate(850 0)"/>
      <use xlink:href="#SimHei-7eea" transform="translate(950 0)"/>
      <use xlink:href="#SimHei-29" transform="translate(1050 0)"/>
     </g>
    </g>
    <g id="patch_17">
     <path d="M 541.12 60.954375 
L 561.12 60.954375 
L 561.12 53.954375 
L 541.12 53.954375 
z
" style="fill: #2ecc71; stroke: #000000; stroke-width: 0.8; stroke-linejoin: miter"/>
    </g>
    <g id="text_25">
     <!-- Exp_2 (多智能体+情绪+协同) -->
     <g transform="translate(569.12 60.954375) scale(0.1 -0.1)">
      <defs>
       <path id="SimHei-591a" d="M 3800 2950 
Q 4000 2750 4275 2650 
Q 4050 2450 3850 2275 
L 5925 2275 
Q 5625 1525 5137 975 
Q 4650 425 4050 125 
Q 3450 -175 2725 -375 
Q 2000 -575 950 -675 
Q 850 -400 650 -150 
Q 1275 -175 2137 -25 
Q 3000 125 3700 450 
Q 3250 900 2950 1175 
Q 3150 1325 3300 1500 
Q 3650 1150 4100 675 
Q 4425 875 4712 1187 
Q 5000 1500 5200 1900 
L 3475 1900 
Q 3225 1700 2775 1412 
Q 2325 1125 1525 775 
Q 1400 1025 1200 1175 
Q 2025 1425 2762 1950 
Q 3500 2475 3800 2950 
z
M 900 1850 
Q 800 2100 575 2325 
Q 1050 2350 1725 2525 
Q 2400 2700 2775 2900 
Q 2475 3300 2100 3600 
Q 2300 3750 2425 3925 
Q 2900 3475 3200 3125 
Q 3575 3350 3875 3612 
Q 4175 3875 4400 4175 
L 2250 4175 
Q 1725 3725 1025 3275 
Q 875 3500 650 3625 
Q 1325 3925 1875 4400 
Q 2425 4875 2600 5225 
Q 2800 5075 3025 4925 
Q 2900 4825 2625 4550 
L 5225 4550 
Q 4500 3500 3800 3025 
Q 3100 2550 2437 2312 
Q 1775 2075 900 1850 
z
" transform="scale(0.015625)"/>
       <path id="SimHei-534f" d="M 3475 3825 
Q 3475 4625 3450 5150 
Q 3725 5075 4050 5050 
Q 3950 4650 3975 3825 
L 5325 3825 
Q 5275 3600 5225 3075 
L 5050 300 
Q 5000 -100 4750 -187 
Q 4500 -275 4050 -375 
Q 3950 -50 3825 175 
Q 4350 200 4462 225 
Q 4575 250 4600 575 
L 4775 3425 
L 3950 3425 
Q 3925 2300 3600 1300 
Q 3275 300 2475 -500 
Q 2325 -300 1875 -150 
Q 2450 150 2925 1075 
Q 3400 2000 3450 3425 
Q 2975 3425 2500 3400 
L 2500 3850 
Q 2975 3825 3475 3825 
z
M 1025 3475 
Q 1025 4675 1000 5075 
L 1550 5075 
Q 1525 4675 1525 3475 
Q 2000 3475 2325 3500 
L 2325 3050 
Q 2000 3075 1525 3075 
L 1525 325 
Q 1525 -25 1550 -575 
L 1000 -575 
Q 1025 -25 1025 325 
L 1025 3075 
Q 525 3075 225 3050 
L 225 3500 
Q 525 3475 1025 3475 
z
M 2975 2500 
Q 2825 2300 2500 1225 
Q 2250 1325 2025 1350 
Q 2375 2275 2425 2625 
Q 2625 2550 2975 2500 
z
M 5725 2675 
Q 6100 1875 6200 1500 
Q 5925 1450 5725 1325 
Q 5575 1850 5300 2475 
Q 5525 2550 5725 2675 
z
" transform="scale(0.015625)"/>
       <path id="SimHei-540c" d="M 5825 4925 
Q 5775 4550 5775 3975 
L 5775 -50 
Q 5775 -400 5525 -487 
Q 5275 -575 4725 -625 
Q 4725 -400 4525 -50 
Q 4925 -50 5100 -12 
Q 5275 25 5275 200 
L 5275 4450 
L 1150 4450 
L 1150 -600 
L 575 -600 
Q 600 -250 625 200 
L 625 3975 
Q 625 4575 600 4925 
L 5825 4925 
z
M 4375 2550 
Q 4325 2275 4325 1700 
Q 4325 1150 4375 725 
L 2025 725 
Q 2050 1175 2050 1750 
Q 2050 2325 2025 2550 
L 4375 2550 
z
M 4100 3750 
Q 4600 3750 4825 3775 
L 4825 3275 
Q 4575 3300 4075 3300 
L 2450 3300 
Q 1850 3300 1600 3275 
L 1600 3775 
Q 1875 3750 2475 3750 
L 4100 3750 
z
M 3875 1150 
L 3875 2150 
L 2525 2150 
L 2525 1150 
L 3875 1150 
z
" transform="scale(0.015625)"/>
      </defs>
      <use xlink:href="#SimHei-45"/>
      <use xlink:href="#SimHei-78" transform="translate(50 0)"/>
      <use xlink:href="#SimHei-70" transform="translate(100 0)"/>
      <use xlink:href="#SimHei-5f" transform="translate(150 0)"/>
      <use xlink:href="#SimHei-32" transform="translate(200 0)"/>
      <use xlink:href="#SimHei-20" transform="translate(250 0)"/>
      <use xlink:href="#SimHei-28" transform="translate(300 0)"/>
      <use xlink:href="#SimHei-591a" transform="translate(350 0)"/>
      <use xlink:href="#SimHei-667a" transform="translate(450 0)"/>
      <use xlink:href="#SimHei-80fd" transform="translate(550 0)"/>
      <use xlink:href="#SimHei-4f53" transform="translate(650 0)"/>
      <use xlink:href="#SimHei-2b" transform="translate(750 0)"/>
      <use xlink:href="#SimHei-60c5" transform="translate(800 0)"/>
      <use xlink:href="#SimHei-7eea" transform="translate(900 0)"/>
      <use xlink:href="#SimHei-2b" transform="translate(1000 0)"/>
      <use xlink:href="#SimHei-534f" transform="translate(1050 0)"/>
      <use xlink:href="#SimHei-540c" transform="translate(1150 0)"/>
      <use xlink:href="#SimHei-29" transform="translate(1250 0)"/>
     </g>
    </g>
   </g>
  </g>
 </g>
 <defs>
  <clipPath id="p397aa98597">
   <rect x="63.002" y="29.22" width="645.118" height="355.735"/>
  </clipPath>
 </defs>
</svg>
