<?xml version="1.0" encoding="utf-8" standalone="no"?>
<!DOCTYPE svg PUBLIC "-//W3C//DTD SVG 1.1//EN"
  "http://www.w3.org/Graphics/SVG/1.1/DTD/svg11.dtd">
<svg xmlns:xlink="http://www.w3.org/1999/xlink" width="720pt" height="432pt" viewBox="0 0 720 432" xmlns="http://www.w3.org/2000/svg" version="1.1">
 <metadata>
  <rdf:RDF xmlns:dc="http://purl.org/dc/elements/1.1/" xmlns:cc="http://creativecommons.org/ns#" xmlns:rdf="http://www.w3.org/1999/02/22-rdf-syntax-ns#">
   <cc:Work>
    <dc:type rdf:resource="http://purl.org/dc/dcmitype/StillImage"/>
    <dc:date>2026-07-09T18:26:52.224099</dc:date>
    <dc:format>image/svg+xml</dc:format>
    <dc:creator>
     <cc:Agent>
      <dc:title>Matplotlib v3.10.9, https://matplotlib.org/</dc:title>
     </cc:Agent>
    </dc:creator>
   </cc:Work>
  </rdf:RDF>
 </metadata>
 <defs>
  <style type="text/css">*{stroke-linejoin: round; stroke-linecap: butt}</style>
 </defs>
 <g id="figure_1">
  <g id="patch_1">
   <path d="M 0 432 
L 720 432 
L 720 0 
L 0 0 
z
" style="fill: #ffffff"/>
  </g>
  <g id="axes_1">
   <g id="patch_2">
    <path d="M 80.805324 52.78639 
Q 168.19965 68.714624 250.094407 53.78828 
" clip-path="url(#p8b89a1d946)" style="fill: none; stroke: #ff0000; stroke-opacity: 0.6; stroke-width: 5; stroke-linecap: round"/>
    <path d="M 241.50683 51.287577 
L 250.094407 53.78828 
L 242.941298 59.15792 
z
" clip-path="url(#p8b89a1d946)" style="fill: #ff0000; fill-opacity: 0.6; stroke: #ff0000; stroke-opacity: 0.6; stroke-width: 5; stroke-linecap: round"/>
   </g>
   <g id="patch_3">
    <path d="M 272.606977 52.78639 
Q 360.001303 68.714624 445.619259 53.10968 
" clip-path="url(#p8b89a1d946)" style="fill: none; stroke: #ff0000; stroke-opacity: 0.6; stroke-width: 1.615008; stroke-linecap: round"/>
    <path d="M 437.031682 50.608977 
L 445.619259 53.10968 
L 438.466151 58.47932 
z
" clip-path="url(#p8b89a1d946)" style="fill: #ff0000; fill-opacity: 0.6; stroke: #ff0000; stroke-opacity: 0.6; stroke-width: 1.615008; stroke-linecap: round"/>
   </g>
   <g id="patch_4">
    <path d="M 464.40863 52.78639 
Q 551.802956 68.714624 638.010045 53.002303 
" clip-path="url(#p8b89a1d946)" style="fill: none; stroke: #ff0000; stroke-opacity: 0.6; stroke-width: 1.079391; stroke-linecap: round"/>
    <path d="M 629.422468 50.5016 
L 638.010045 53.002303 
L 630.856936 58.371943 
z
" clip-path="url(#p8b89a1d946)" style="fill: #ff0000; fill-opacity: 0.6; stroke: #ff0000; stroke-opacity: 0.6; stroke-width: 1.079391; stroke-linecap: round"/>
   </g>
   <g id="text_1">
    <g id="patch_5">
     <path d="M 158.198233 58.222805 
L 178.198233 58.222805 
Q 181.198233 58.222805 181.198233 55.222805 
L 181.198233 47.097805 
Q 181.198233 44.097805 178.198233 44.097805 
L 158.198233 44.097805 
Q 155.198233 44.097805 155.198233 47.097805 
L 155.198233 55.222805 
Q 155.198233 58.222805 158.198233 58.222805 
z
" clip-path="url(#p8b89a1d946)" style="fill: #ffffff; stroke: #ffffff; stroke-linejoin: miter"/>
    </g>
    <g clip-path="url(#p8b89a1d946)">
     <!-- 1839 -->
     <g style="fill: #ff0000" transform="translate(158.198233 53.972805) scale(0.1 -0.1)">
      <defs>
       <path id="SimHei-31" d="M 1400 3600 
Q 1075 3275 575 2975 
L 575 3450 
Q 1200 3875 1600 4450 
L 1900 4450 
L 1900 150 
L 1400 150 
L 1400 3600 
z
" transform="scale(0.015625)"/>
       <path id="SimHei-38" d="M 175 1375 
Q 175 1675 325 1962 
Q 475 2250 825 2425 
Q 525 2600 425 2812 
Q 325 3025 312 3300 
Q 300 3575 387 3775 
Q 475 3975 650 4150 
Q 825 4325 1037 4387 
Q 1250 4450 1500 4450 
Q 1750 4450 1950 4400 
Q 2150 4350 2375 4187 
Q 2600 4025 2700 3725 
Q 2800 3425 2687 3025 
Q 2575 2625 2100 2400 
Q 2525 2275 2700 2012 
Q 2875 1750 2875 1375 
Q 2875 1000 2762 775 
Q 2650 550 2512 400 
Q 2375 250 2137 162 
Q 1900 75 1537 75 
Q 1175 75 912 162 
Q 650 250 475 425 
Q 300 600 237 837 
Q 175 1075 175 1375 
z
M 687 1400 
Q 675 1100 787 875 
Q 900 650 1200 587 
Q 1500 525 1825 600 
Q 2150 675 2275 950 
Q 2400 1225 2362 1500 
Q 2325 1775 2050 1962 
Q 1775 2150 1450 2125 
Q 1125 2100 912 1900 
Q 700 1700 687 1400 
z
M 775 3350 
Q 775 3100 950 2875 
Q 1125 2650 1500 2650 
Q 1875 2650 2062 2875 
Q 2250 3100 2237 3412 
Q 2225 3725 2012 3875 
Q 1800 4025 1437 4000 
Q 1075 3975 925 3787 
Q 775 3600 775 3350 
z
" transform="scale(0.015625)"/>
       <path id="SimHei-33" d="M 250 1225 
L 700 1300 
Q 800 975 1025 762 
Q 1250 550 1587 562 
Q 1925 575 2125 837 
Q 2325 1100 2300 1437 
Q 2275 1775 2037 1962 
Q 1800 2150 1275 2225 
L 1275 2550 
Q 1800 2600 2037 2825 
Q 2275 3050 2250 3412 
Q 2225 3775 1925 3937 
Q 1625 4100 1287 3975 
Q 950 3850 750 3275 
L 300 3350 
Q 450 3800 712 4100 
Q 975 4400 1425 4450 
Q 1875 4500 2212 4337 
Q 2550 4175 2687 3837 
Q 2825 3500 2725 3100 
Q 2625 2700 2150 2400 
Q 2500 2250 2687 1950 
Q 2875 1650 2812 1162 
Q 2750 675 2375 375 
Q 2000 75 1525 87 
Q 1050 100 700 387 
Q 350 675 250 1225 
z
" transform="scale(0.015625)"/>
       <path id="SimHei-39" d="M 800 75 
Q 1350 1000 1700 1750 
Q 1075 1650 662 1912 
Q 250 2175 162 2625 
Q 75 3075 175 3437 
Q 275 3800 487 4037 
Q 700 4275 1000 4375 
Q 1300 4475 1537 4475 
Q 1775 4475 2025 4375 
Q 2275 4275 2475 4075 
Q 2675 3875 2750 3662 
Q 2825 3450 2825 3112 
Q 2825 2775 2575 2250 
Q 2325 1725 1350 75 
L 800 75 
z
M 662 2875 
Q 700 2550 937 2337 
Q 1175 2125 1450 2150 
Q 1725 2175 1887 2300 
Q 2050 2425 2200 2725 
Q 2300 3100 2250 3362 
Q 2200 3625 1987 3800 
Q 1775 3975 1525 3975 
Q 1375 4000 1137 3900 
Q 900 3800 762 3500 
Q 625 3200 662 2875 
z
" transform="scale(0.015625)"/>
      </defs>
      <use xlink:href="#SimHei-31"/>
      <use xlink:href="#SimHei-38" transform="translate(50 0)"/>
      <use xlink:href="#SimHei-33" transform="translate(100 0)"/>
      <use xlink:href="#SimHei-39" transform="translate(150 0)"/>
     </g>
    </g>
   </g>
   <g id="text_2">
    <g id="patch_6">
     <path d="M 352.499886 58.222805 
L 367.499886 58.222805 
Q 370.499886 58.222805 370.499886 55.222805 
L 370.499886 47.097805 
Q 370.499886 44.097805 367.499886 44.097805 
L 352.499886 44.097805 
Q 349.499886 44.097805 349.499886 47.097805 
L 349.499886 55.222805 
Q 349.499886 58.222805 352.499886 58.222805 
z
" clip-path="url(#p8b89a1d946)" style="fill: #ffffff; stroke: #ffffff; stroke-linejoin: miter"/>
    </g>
    <g clip-path="url(#p8b89a1d946)">
     <!-- 594 -->
     <g style="fill: #ff0000" transform="translate(352.499886 53.972805) scale(0.1 -0.1)">
      <defs>
       <path id="SimHei-35" d="M 550 1325 
Q 725 650 1150 575 
Q 1575 500 1837 662 
Q 2100 825 2212 1087 
Q 2325 1350 2312 1675 
Q 2300 2000 2137 2225 
Q 1975 2450 1725 2525 
Q 1475 2600 1162 2525 
Q 850 2450 650 2175 
L 225 2225 
Q 275 2375 700 4375 
L 2675 4375 
L 2675 3925 
L 1075 3925 
Q 950 3250 825 2850 
Q 1200 3025 1525 3012 
Q 1850 3000 2150 2862 
Q 2450 2725 2587 2487 
Q 2725 2250 2787 2012 
Q 2850 1775 2837 1500 
Q 2825 1225 2725 937 
Q 2625 650 2425 462 
Q 2225 275 1937 162 
Q 1650 50 1275 75 
Q 900 100 562 350 
Q 225 600 100 1200 
L 550 1325 
z
" transform="scale(0.015625)"/>
       <path id="SimHei-34" d="M 2000 1100 
L 75 1100 
L 75 1525 
L 2100 4450 
L 2475 4450 
L 2475 1525 
L 3075 1525 
L 3075 1100 
L 2475 1100 
L 2475 150 
L 2000 150 
L 2000 1100 
z
M 2000 1525 
L 2000 3500 
L 600 1525 
L 2000 1525 
z
" transform="scale(0.015625)"/>
      </defs>
      <use xlink:href="#SimHei-35"/>
      <use xlink:href="#SimHei-39" transform="translate(50 0)"/>
      <use xlink:href="#SimHei-34" transform="translate(100 0)"/>
     </g>
    </g>
   </g>
   <g id="text_3">
    <g id="patch_7">
     <path d="M 544.301539 58.222805 
L 559.301539 58.222805 
Q 562.301539 58.222805 562.301539 55.222805 
L 562.301539 47.097805 
Q 562.301539 44.097805 559.301539 44.097805 
L 544.301539 44.097805 
Q 541.301539 44.097805 541.301539 47.097805 
L 541.301539 55.222805 
Q 541.301539 58.222805 544.301539 58.222805 
z
" clip-path="url(#p8b89a1d946)" style="fill: #ffffff; stroke: #ffffff; stroke-linejoin: miter"/>
    </g>
    <g clip-path="url(#p8b89a1d946)">
     <!-- 397 -->
     <g style="fill: #ff0000" transform="translate(544.301539 53.972805) scale(0.1 -0.1)">
      <defs>
       <path id="SimHei-37" d="M 850 150 
Q 1300 2050 2425 3925 
L 275 3925 
L 275 4375 
L 2950 4375 
L 2950 3950 
Q 1775 2050 1400 150 
L 850 150 
z
" transform="scale(0.015625)"/>
      </defs>
      <use xlink:href="#SimHei-33"/>
      <use xlink:href="#SimHei-39" transform="translate(50 0)"/>
      <use xlink:href="#SimHei-37" transform="translate(100 0)"/>
     </g>
    </g>
   </g>
   <g id="PathCollection_1">
    <defs>
     <path id="m586ecccfe5" d="M 0 22.36068 
C 5.930122 22.36068 11.618159 20.004617 15.811388 15.811388 
C 20.004617 11.618159 22.36068 5.930122 22.36068 0 
C 22.36068 -5.930122 20.004617 -11.618159 15.811388 -15.811388 
C 11.618159 -20.004617 5.930122 -22.36068 0 -22.36068 
C -5.930122 -22.36068 -11.618159 -20.004617 -15.811388 -15.811388 
C -20.004617 -11.618159 -22.36068 -5.930122 -22.36068 0 
C -22.36068 5.930122 -20.004617 11.618159 -15.811388 15.811388 
C -11.618159 20.004617 -5.930122 22.36068 0 22.36068 
z
" style="stroke: #000000; stroke-width: 2"/>
    </defs>
    <g clip-path="url(#p8b89a1d946)">
     <use xlink:href="#m586ecccfe5" x="72.297521" y="51.160305" style="fill: #add8e6; stroke: #000000; stroke-width: 2"/>
     <use xlink:href="#m586ecccfe5" x="264.099174" y="51.160305" style="fill: #add8e6; stroke: #000000; stroke-width: 2"/>
     <use xlink:href="#m586ecccfe5" x="455.900826" y="51.160305" style="fill: #add8e6; stroke: #000000; stroke-width: 2"/>
     <use xlink:href="#m586ecccfe5" x="647.702479" y="51.160305" style="fill: #add8e6; stroke: #000000; stroke-width: 2"/>
    </g>
   </g>
   <g id="text_4">
    <g clip-path="url(#p8b89a1d946)">
     <!-- 零售商 -->
     <g transform="translate(54.297521 55.261868) scale(0.12 -0.12)">
      <defs>
       <path id="SimHei-96f6" d="M 3375 2525 
Q 3425 2425 3950 2125 
Q 4475 1825 4975 1675 
Q 5475 1525 6075 1450 
Q 5875 1200 5775 925 
Q 5325 1025 4900 1175 
Q 4475 1325 3950 1637 
Q 3425 1950 3100 2250 
Q 2875 2075 2512 1812 
Q 2150 1550 1662 1312 
Q 1175 1075 625 900 
Q 525 1100 325 1375 
Q 800 1450 1175 1600 
Q 1550 1750 1875 1925 
Q 2200 2100 2475 2325 
Q 2750 2550 2925 2825 
Q 2950 3100 2950 3450 
L 2950 3925 
L 950 3925 
L 950 3250 
L 475 3250 
L 475 4300 
L 2950 4300 
L 2950 4700 
L 1775 4700 
Q 1425 4700 1100 4675 
L 1100 5100 
Q 1425 5075 1750 5075 
L 4625 5075 
Q 4875 5075 5325 5100 
L 5325 4675 
Q 4875 4700 4475 4700 
L 3400 4700 
L 3400 4300 
L 5875 4300 
Q 5850 4050 5850 3800 
Q 5850 3550 5875 3300 
L 5400 3300 
L 5400 3925 
L 3400 3925 
L 3400 3450 
Q 3400 3175 3425 2825 
L 3050 2825 
Q 3250 2750 3525 2675 
L 3375 2525 
z
M 2300 500 
Q 2750 350 3175 200 
Q 3325 325 3750 775 
L 2325 775 
Q 1900 775 1475 750 
L 1475 1200 
Q 1900 1175 2325 1175 
L 4700 1175 
Q 4475 950 4150 587 
Q 3825 225 3625 50 
Q 3775 -25 3950 -87 
Q 4125 -150 4400 -275 
Q 4250 -475 4125 -700 
Q 3450 -400 2950 -212 
Q 2450 -25 2100 75 
Q 2225 275 2300 500 
z
M 5075 2600 
L 3750 2600 
L 3750 2950 
L 5075 2950 
L 5075 2600 
z
M 5075 3325 
L 3775 3325 
L 3775 3675 
L 5075 3675 
L 5075 3325 
z
M 2500 3325 
L 1250 3325 
L 1250 3675 
L 2500 3675 
L 2500 3325 
z
M 2475 2600 
L 1225 2600 
L 1225 2950 
L 2475 2950 
L 2475 2600 
z
M 3100 1950 
Q 3200 1800 3237 1712 
Q 3275 1625 3400 1400 
Q 3150 1300 2975 1200 
Q 2850 1500 2700 1775 
Q 2975 1875 3100 1950 
z
" transform="scale(0.015625)"/>
       <path id="SimHei-552e" d="M 2325 4925 
Q 2200 4825 1950 4425 
L 4925 4425 
Q 5350 4425 5775 4450 
L 5775 4050 
Q 5350 4075 4925 4075 
L 3775 4075 
L 3775 3650 
L 4650 3650 
Q 5075 3650 5450 3675 
L 5450 3225 
Q 5100 3275 4675 3275 
L 3775 3275 
L 3775 2850 
L 5475 2850 
L 5475 2425 
Q 5125 2450 4700 2450 
L 3775 2450 
L 3775 1975 
L 4825 1975 
Q 5325 1975 5900 2000 
L 5900 1550 
Q 5350 1600 4825 1600 
L 1800 1600 
L 1800 1375 
L 1275 1375 
Q 1300 1975 1300 3400 
Q 975 2850 700 2575 
Q 525 2800 350 2900 
Q 625 3225 837 3537 
Q 1050 3850 1300 4237 
Q 1550 4625 1725 5225 
Q 2050 5050 2325 4925 
z
M 5350 1175 
Q 5325 800 5325 275 
Q 5325 -250 5350 -650 
L 4825 -650 
L 4825 -375 
L 1725 -375 
L 1725 -675 
L 1200 -675 
Q 1250 -250 1250 275 
Q 1250 800 1200 1175 
L 5350 1175 
z
M 4825 25 
L 4825 775 
L 1725 775 
L 1725 25 
L 4825 25 
z
M 3275 1975 
L 3275 2450 
L 1800 2450 
L 1800 1975 
L 3275 1975 
z
M 3275 3650 
L 3275 4075 
L 1800 4075 
L 1800 3650 
L 3275 3650 
z
M 3275 2850 
L 3275 3275 
L 1800 3275 
L 1800 2850 
L 3275 2850 
z
M 3600 5275 
Q 3850 4875 3950 4675 
Q 3800 4625 3500 4500 
Q 3425 4700 3175 5075 
Q 3400 5150 3600 5275 
z
" transform="scale(0.015625)"/>
       <path id="SimHei-5546" d="M 3150 5225 
Q 3475 4725 3550 4525 
L 4975 4525 
Q 5475 4525 5975 4550 
L 5975 4100 
Q 5475 4125 4975 4125 
L 2100 4125 
Q 2575 3625 2675 3475 
Q 2500 3400 2300 3250 
L 3650 3250 
Q 3800 3650 3950 4100 
Q 4200 4000 4525 3925 
Q 4350 3700 4125 3250 
L 5525 3250 
Q 5500 2950 5500 2425 
L 5500 -50 
Q 5500 -350 5225 -475 
Q 4950 -600 4475 -675 
Q 4450 -375 4275 -125 
Q 4775 -150 4900 -75 
Q 5025 0 5025 175 
L 5025 2900 
L 1375 2900 
L 1375 -600 
L 875 -600 
Q 900 50 900 325 
L 900 2475 
Q 900 2725 875 3250 
L 2250 3250 
Q 2075 3550 1675 3875 
Q 1875 3975 2050 4125 
L 1475 4125 
Q 900 4125 475 4100 
L 475 4550 
Q 900 4525 1450 4525 
L 3000 4525 
Q 2925 4775 2675 5050 
Q 2925 5125 3150 5225 
z
M 2600 2650 
Q 2850 2475 3075 2350 
Q 2825 2225 2350 1675 
L 4250 1675 
Q 4225 1350 4225 975 
Q 4225 600 4250 225 
L 2300 225 
Q 2325 600 2325 950 
Q 2325 1325 2300 1625 
Q 2125 1475 1950 1350 
Q 1825 1525 1575 1625 
Q 2350 2225 2600 2650 
z
M 3750 600 
L 3750 1300 
L 2775 1300 
L 2775 600 
L 3750 600 
z
M 3775 2675 
Q 4475 2225 4900 1850 
Q 4675 1725 4525 1525 
Q 4275 1825 3475 2350 
Q 3650 2475 3775 2675 
z
" transform="scale(0.015625)"/>
      </defs>
      <use xlink:href="#SimHei-96f6"/>
      <use xlink:href="#SimHei-552e" transform="translate(100 0)"/>
      <use xlink:href="#SimHei-5546" transform="translate(200 0)"/>
     </g>
    </g>
   </g>
   <g id="text_5">
    <g clip-path="url(#p8b89a1d946)">
     <!-- 批发商 -->
     <g transform="translate(246.099174 55.214993) scale(0.12 -0.12)">
      <defs>
       <path id="SimHei-6279" d="M 625 -75 
Q 1025 -50 1137 -12 
Q 1250 25 1250 175 
L 1250 1575 
Q 775 1375 525 1200 
Q 475 1425 250 1700 
Q 600 1775 1250 2050 
L 1250 3325 
Q 725 3325 400 3300 
L 400 3775 
Q 725 3750 1250 3750 
Q 1250 4550 1225 5125 
L 1775 5125 
Q 1725 4850 1725 3750 
Q 1975 3750 2350 3775 
L 2350 3300 
Q 2000 3325 1725 3325 
L 1725 2200 
Q 1825 2250 2300 2450 
Q 2300 2250 2325 2025 
Q 1950 1850 1725 1750 
L 1725 -25 
Q 1725 -300 1512 -412 
Q 1300 -525 825 -650 
Q 750 -250 625 -75 
z
M 6175 3250 
Q 5800 3000 4875 2275 
L 4875 175 
Q 4875 -75 5075 -75 
L 5475 -75 
Q 5550 -25 5600 87 
Q 5650 200 5650 600 
Q 5875 475 6175 425 
Q 6050 -175 5925 -287 
Q 5800 -400 5600 -425 
L 4900 -425 
Q 4425 -425 4400 0 
L 4400 4525 
Q 4400 4850 4375 5150 
L 4900 5150 
Q 4875 4875 4875 4600 
L 4875 2775 
Q 5275 3075 5725 3625 
Q 5950 3400 6175 3250 
z
M 2575 -75 
Q 2750 75 2750 300 
L 2750 4425 
Q 2750 4700 2725 4950 
L 3250 4950 
Q 3200 4675 3200 4425 
L 3200 3000 
Q 3775 3000 4050 3025 
L 4050 2550 
Q 3750 2575 3200 2575 
L 3200 225 
Q 3425 325 3925 700 
Q 3950 475 4050 250 
Q 3825 125 3437 -87 
Q 3050 -300 2825 -525 
L 2575 -75 
z
" transform="scale(0.015625)"/>
       <path id="SimHei-53d1" d="M 3475 4925 
Q 3350 4650 3275 4362 
Q 3200 4075 3075 3575 
L 5075 3575 
Q 5325 3575 5825 3600 
L 5825 3125 
Q 5325 3150 5075 3150 
L 2975 3150 
Q 2825 2775 2650 2400 
L 5300 2400 
Q 4825 1250 3975 475 
Q 4650 0 5950 -150 
Q 5775 -350 5650 -650 
Q 5150 -550 4625 -362 
Q 4100 -175 3600 175 
Q 3200 -75 2625 -312 
Q 2050 -550 1450 -700 
Q 1400 -450 1200 -225 
Q 1750 -150 2300 37 
Q 2850 225 3275 500 
Q 2850 925 2325 1725 
Q 2050 1275 1625 850 
Q 1200 425 700 75 
Q 600 250 300 450 
Q 675 650 1037 975 
Q 1400 1300 1800 1837 
Q 2200 2375 2475 3150 
Q 1825 3150 1475 3125 
Q 1125 3100 950 3025 
Q 875 3250 750 3500 
Q 1000 3550 1112 3875 
Q 1225 4200 1350 4875 
Q 1550 4775 1900 4675 
Q 1775 4425 1675 4162 
Q 1575 3900 1450 3575 
L 2600 3575 
Q 2800 4375 2900 5100 
Q 3175 4950 3475 4925 
z
M 2675 2000 
Q 3025 1375 3650 750 
Q 4200 1200 4625 2000 
L 2675 2000 
z
M 4400 5075 
Q 4825 4600 5250 4100 
Q 5075 4000 4825 3775 
Q 4425 4350 4050 4750 
Q 4225 4875 4400 5075 
z
" transform="scale(0.015625)"/>
      </defs>
      <use xlink:href="#SimHei-6279"/>
      <use xlink:href="#SimHei-53d1" transform="translate(100 0)"/>
      <use xlink:href="#SimHei-5546" transform="translate(200 0)"/>
     </g>
    </g>
   </g>
   <g id="text_6">
    <g clip-path="url(#p8b89a1d946)">
     <!-- 分销商 -->
     <g transform="translate(437.900826 55.191555) scale(0.12 -0.12)">
      <defs>
       <path id="SimHei-5206" d="M 1000 -650 
Q 825 -375 575 -225 
Q 975 -75 1300 137 
Q 1625 350 1875 662 
Q 2125 975 2250 1350 
Q 2375 1725 2425 2275 
Q 1850 2275 1500 2250 
L 1500 2775 
Q 1900 2750 2525 2750 
L 5025 2750 
Q 4975 2375 4950 2100 
L 4750 250 
Q 4700 -200 4350 -350 
Q 4000 -500 3575 -525 
Q 3550 -275 3325 50 
Q 3850 25 4037 87 
Q 4225 150 4275 525 
L 4450 2275 
L 2950 2275 
Q 2875 1625 2737 1187 
Q 2600 750 2350 425 
Q 2100 100 1750 -175 
Q 1400 -450 1000 -650 
z
M 3950 5175 
Q 4125 4650 4662 3975 
Q 5200 3300 6175 2800 
Q 5975 2625 5775 2275 
Q 5325 2600 4987 2887 
Q 4650 3175 4425 3425 
Q 4200 3675 3925 4137 
Q 3650 4600 3475 5000 
Q 3750 5075 3950 5175 
z
M 2700 4825 
Q 2475 4425 2325 4125 
Q 2175 3825 2025 3587 
Q 1875 3350 1575 2950 
Q 1275 2550 850 2125 
Q 625 2350 400 2475 
Q 900 2925 1187 3300 
Q 1475 3675 1737 4112 
Q 2000 4550 2200 5075 
Q 2400 4925 2700 4825 
z
" transform="scale(0.015625)"/>
       <path id="SimHei-9500" d="M 4175 4325 
Q 4175 4700 4150 5125 
L 4650 5125 
Q 4625 4850 4625 4325 
L 4625 3225 
L 5825 3225 
Q 5800 2850 5800 2225 
L 5800 50 
Q 5800 -300 5562 -375 
Q 5325 -450 4925 -525 
Q 4875 -275 4700 -25 
Q 5275 0 5300 112 
Q 5325 225 5325 825 
L 3575 825 
L 3575 -450 
L 3100 -450 
Q 3125 75 3125 400 
L 3125 2175 
Q 3125 2800 3100 3225 
L 4175 3225 
L 4175 4325 
z
M 2350 2700 
Q 2025 2725 1700 2725 
L 1700 1975 
Q 2125 1975 2600 2000 
L 2600 1550 
Q 2125 1575 1700 1575 
L 1700 425 
Q 1925 575 2250 925 
Q 2325 700 2500 475 
Q 2250 300 1975 87 
Q 1700 -125 1400 -450 
Q 1275 -225 1075 -50 
Q 1225 100 1250 400 
L 1250 1575 
Q 950 1575 525 1550 
L 525 2000 
Q 950 1975 1250 1975 
L 1250 2725 
Q 950 2725 750 2700 
L 750 3150 
Q 1075 3125 1500 3125 
Q 1950 3125 2350 3150 
L 2350 2700 
z
M 625 3075 
Q 450 3275 225 3375 
Q 600 3750 875 4200 
Q 1150 4650 1325 5125 
Q 1675 4925 1875 4850 
Q 1550 4400 1450 4200 
Q 2075 4200 2500 4225 
L 2500 3750 
Q 2075 3775 1200 3775 
Q 825 3275 625 3075 
z
M 5325 2200 
L 5325 2850 
L 3575 2850 
L 3575 2200 
L 5325 2200 
z
M 5325 1200 
L 5325 1825 
L 3575 1825 
L 3575 1200 
L 5325 1200 
z
M 6050 4550 
Q 5850 4300 5450 3525 
Q 5225 3650 4975 3725 
Q 5250 4050 5525 4775 
Q 5725 4650 6050 4550 
z
M 3200 4775 
Q 3600 4150 3800 3800 
Q 3575 3700 3350 3550 
Q 3175 3950 2775 4525 
Q 3025 4625 3200 4775 
z
" transform="scale(0.015625)"/>
      </defs>
      <use xlink:href="#SimHei-5206"/>
      <use xlink:href="#SimHei-9500" transform="translate(100 0)"/>
      <use xlink:href="#SimHei-5546" transform="translate(200 0)"/>
     </g>
    </g>
   </g>
   <g id="text_7">
    <g clip-path="url(#p8b89a1d946)">
     <!-- 制造商 -->
     <g transform="translate(629.702479 55.191555) scale(0.12 -0.12)">
      <defs>
       <path id="SimHei-5236" d="M 1325 4625 
Q 1175 4375 1075 4150 
L 1800 4150 
Q 1800 4775 1775 5125 
L 2350 5125 
Q 2325 4800 2325 4150 
L 2700 4150 
Q 3200 4150 3600 4175 
L 3600 3725 
Q 3250 3750 2725 3750 
L 2325 3750 
L 2325 3025 
L 2950 3025 
Q 3325 3025 3750 3050 
L 3750 2625 
L 2325 2625 
L 2325 1950 
L 3675 1950 
Q 3650 1650 3637 1125 
Q 3625 600 3612 412 
Q 3600 225 3400 137 
Q 3200 50 2825 -25 
Q 2775 250 2650 550 
Q 2975 550 3050 587 
Q 3125 625 3125 975 
L 3125 1550 
L 2325 1550 
L 2325 175 
Q 2325 -250 2350 -550 
L 1775 -550 
Q 1800 -75 1800 175 
L 1800 1550 
L 1025 1550 
L 1025 -25 
L 500 -25 
Q 525 300 525 650 
L 525 1200 
Q 525 1675 500 1950 
L 1800 1950 
L 1800 2625 
L 1000 2625 
Q 550 2625 225 2600 
L 225 3050 
Q 550 3025 1000 3025 
L 1800 3025 
L 1800 3750 
L 925 3750 
Q 800 3450 675 3250 
Q 450 3400 225 3500 
Q 400 3750 525 4075 
Q 650 4400 750 4800 
Q 1000 4700 1325 4625 
z
M 5875 5075 
Q 5850 4825 5850 4350 
L 5850 25 
Q 5850 -325 5587 -412 
Q 5325 -500 4825 -575 
Q 4750 -250 4625 0 
Q 5050 0 5200 25 
Q 5350 50 5350 350 
L 5350 4350 
Q 5350 4775 5325 5075 
L 5875 5075 
z
M 4675 4325 
Q 4650 3975 4650 3700 
L 4650 1625 
Q 4650 1275 4675 775 
L 4125 775 
Q 4175 1200 4175 1625 
L 4175 3700 
Q 4175 3950 4125 4325 
L 4675 4325 
z
" transform="scale(0.015625)"/>
       <path id="SimHei-9020" d="M 5525 2325 
Q 5500 1825 5500 1350 
Q 5500 875 5525 400 
L 5000 400 
L 5000 750 
L 3025 750 
L 3025 425 
L 2525 425 
Q 2550 900 2550 1375 
Q 2550 1850 2525 2325 
L 5525 2325 
z
M 200 -100 
Q 950 475 1250 625 
L 1250 2600 
Q 775 2600 350 2575 
L 350 3025 
Q 850 3000 1750 3000 
Q 1725 2525 1725 2250 
L 1725 675 
Q 2050 325 2600 175 
Q 3150 25 4075 0 
Q 5000 -25 6200 50 
Q 6000 -200 5975 -525 
Q 3575 -475 3125 -400 
Q 2675 -325 2375 -212 
Q 2075 -100 1762 112 
Q 1450 325 1125 37 
Q 800 -250 600 -525 
Q 425 -300 200 -100 
z
M 3150 4900 
Q 3000 4625 2950 4400 
L 3800 4400 
Q 3800 5000 3775 5225 
L 4275 5225 
Q 4250 4975 4250 4400 
Q 5150 4400 5625 4425 
L 5625 4000 
Q 5175 4025 4250 4025 
L 4250 3200 
Q 5575 3200 6050 3225 
L 6050 2775 
Q 5575 2800 3975 2800 
Q 2400 2800 1950 2775 
L 1950 3225 
Q 2400 3200 3800 3200 
L 3800 4025 
L 2825 4025 
Q 2675 3750 2550 3450 
Q 2325 3550 2100 3625 
Q 2400 4175 2600 5025 
Q 2850 4975 3150 4900 
z
M 5000 1125 
L 5000 1925 
L 3025 1925 
L 3025 1125 
L 5000 1125 
z
M 1775 4000 
Q 1575 3850 1350 3725 
Q 1000 4250 650 4725 
Q 850 4875 1025 5025 
Q 1625 4225 1775 4000 
z
" transform="scale(0.015625)"/>
      </defs>
      <use xlink:href="#SimHei-5236"/>
      <use xlink:href="#SimHei-9020" transform="translate(100 0)"/>
      <use xlink:href="#SimHei-5546" transform="translate(200 0)"/>
     </g>
    </g>
   </g>
   <g id="text_8">
    <!-- 情绪传染网络图（共2830次传染事件） -->
    <g transform="translate(241 23.085) scale(0.14 -0.14)">
     <defs>
      <path id="SimHei-60c5" d="M 2775 1475 
Q 2775 2050 2750 2525 
L 5600 2525 
Q 5575 2100 5575 1725 
L 5575 -150 
Q 5575 -425 5375 -500 
Q 5175 -575 4875 -625 
Q 4850 -400 4700 -150 
Q 5050 -150 5100 -75 
Q 5150 0 5150 475 
L 3225 475 
L 3225 -625 
L 2750 -625 
Q 2775 -50 2775 375 
L 2775 1475 
z
M 2375 3250 
Q 2975 3225 3475 3225 
L 3975 3225 
L 3975 3625 
L 3500 3625 
Q 3075 3625 2625 3600 
L 2625 4025 
Q 3075 4000 3500 4000 
L 3975 4000 
L 3975 4350 
L 3450 4350 
Q 3050 4350 2475 4325 
L 2475 4750 
Q 3075 4725 3450 4725 
L 3975 4725 
Q 3975 4975 3950 5225 
L 4475 5225 
Q 4450 4975 4450 4725 
L 5125 4725 
Q 5550 4725 5925 4750 
L 5925 4325 
Q 5550 4350 5125 4350 
L 4450 4350 
L 4450 4000 
L 4925 4000 
Q 5325 4000 5750 4025 
L 5750 3600 
Q 5300 3625 4925 3625 
L 4450 3625 
L 4450 3225 
L 5175 3225 
Q 5775 3225 6150 3250 
L 6150 2825 
Q 5775 2850 5150 2850 
L 3500 2850 
Q 2850 2850 2375 2825 
L 2375 3250 
z
M 1675 5225 
Q 1650 4800 1650 4400 
L 1650 425 
Q 1650 -100 1675 -600 
L 1150 -600 
Q 1200 -100 1200 425 
L 1200 4325 
Q 1200 4825 1150 5225 
L 1675 5225 
z
M 5125 850 
L 5125 1325 
L 3225 1325 
L 3225 850 
L 5125 850 
z
M 5125 1700 
L 5125 2150 
L 3225 2150 
L 3225 1700 
L 5125 1700 
z
M 1050 3900 
Q 1000 3675 725 2275 
Q 500 2350 250 2375 
Q 425 2750 575 3975 
Q 800 3925 1050 3900 
z
M 1975 3125 
Q 1925 3425 1775 3975 
Q 1950 4000 2200 4075 
Q 2350 3550 2450 3275 
Q 2175 3200 1975 3125 
z
" transform="scale(0.015625)"/>
      <path id="SimHei-7eea" d="M 3700 4375 
Q 3700 4700 3675 5175 
L 4175 5175 
Q 4150 4775 4150 4375 
Q 4350 4375 4750 4400 
L 4750 3975 
Q 4375 4000 4150 4000 
L 4150 3200 
L 4325 3200 
Q 4625 3575 4900 4000 
Q 5175 4425 5350 4825 
Q 5600 4625 5925 4500 
Q 5675 4250 5387 3850 
Q 5100 3450 4900 3200 
L 5275 3200 
Q 5725 3200 6200 3225 
L 6200 2800 
Q 5750 2825 5275 2825 
L 4625 2825 
Q 4325 2525 4075 2200 
L 5625 2200 
Q 5600 1825 5600 1175 
L 5600 400 
Q 5600 125 5625 -475 
L 5150 -475 
L 5150 -200 
L 3450 -200 
L 3450 -600 
L 2975 -600 
Q 3000 -50 3000 425 
L 3000 1275 
Q 2850 1150 2525 850 
Q 2375 1025 2175 1200 
Q 2750 1625 3000 1850 
Q 3000 2000 2975 2200 
L 3425 2200 
Q 3750 2475 4025 2825 
L 3475 2825 
Q 2925 2825 2475 2800 
L 2475 3225 
Q 2925 3200 3475 3200 
L 3700 3200 
L 3700 4000 
Q 3175 4000 2825 3975 
L 2825 4400 
Q 3250 4375 3700 4375 
z
M 1950 4850 
Q 1725 4600 1487 4125 
Q 1250 3650 950 3125 
L 1700 3125 
Q 1950 3525 2125 4050 
Q 2350 3925 2700 3850 
Q 2575 3725 2250 3212 
Q 1925 2700 1250 1650 
Q 1900 1725 2400 1775 
Q 2325 1525 2300 1300 
Q 1925 1300 1500 1262 
Q 1075 1225 650 1100 
Q 600 1325 525 1600 
Q 700 1650 975 1975 
Q 1250 2300 1500 2750 
Q 900 2750 450 2600 
Q 375 2850 250 3150 
Q 525 3300 825 3875 
Q 1125 4450 1325 5075 
Q 1600 4950 1950 4850 
z
M 5150 1200 
L 5150 1825 
L 3500 1825 
L 3500 1200 
L 5150 1200 
z
M 2475 675 
Q 2425 425 2450 225 
Q 2075 175 1537 50 
Q 1000 -75 475 -250 
Q 375 75 225 300 
Q 900 375 1312 450 
Q 1725 525 2475 675 
z
M 5150 250 
L 5150 775 
L 3500 775 
L 3500 250 
L 5150 250 
z
" transform="scale(0.015625)"/>
      <path id="SimHei-4f20" d="M 5500 1975 
Q 5025 925 4700 250 
Q 4975 100 5450 -200 
Q 5300 -375 5125 -675 
Q 4700 -375 4012 12 
Q 3325 400 3050 525 
Q 3175 750 3275 950 
Q 3600 800 4275 475 
Q 4525 975 4750 1550 
L 2800 1550 
Q 2950 2000 3125 2650 
L 2575 2650 
Q 2200 2650 1925 2625 
L 1925 3075 
Q 2250 3050 2600 3050 
L 3200 3050 
Q 3300 3525 3350 3825 
L 2975 3825 
Q 2525 3825 2250 3800 
L 2250 4250 
Q 2550 4225 2950 4225 
L 3425 4225 
Q 3525 4950 3525 5225 
Q 3850 5150 4100 5125 
Q 4025 5000 3875 4225 
L 4950 4225 
Q 5350 4225 5700 4250 
L 5700 3800 
Q 5375 3825 4925 3825 
L 3825 3825 
Q 3775 3550 3675 3050 
L 5250 3050 
Q 5750 3050 6025 3075 
L 6025 2625 
Q 5725 2650 5250 2650 
L 3600 2650 
Q 3500 2250 3425 1975 
L 5500 1975 
z
M 2225 4875 
Q 2025 4675 1650 3750 
L 1650 550 
Q 1650 -25 1675 -525 
L 1125 -525 
Q 1175 -125 1175 525 
L 1175 3000 
Q 800 2400 550 2050 
Q 450 2250 200 2450 
Q 500 2800 925 3525 
Q 1350 4250 1625 5175 
Q 1850 5050 2225 4875 
z
" transform="scale(0.015625)"/>
      <path id="SimHei-67d3" d="M 5825 -450 
Q 4750 -150 4250 250 
Q 3750 650 3450 1150 
Q 3450 -300 3475 -600 
L 2950 -600 
Q 2975 -275 2975 1075 
Q 2600 550 2012 150 
Q 1425 -250 625 -575 
Q 550 -325 200 -100 
Q 1075 100 1662 487 
Q 2250 875 2475 1225 
L 1225 1225 
Q 875 1225 400 1200 
L 400 1650 
Q 875 1625 1225 1625 
L 2975 1625 
Q 2975 1825 2950 2150 
L 3475 2150 
Q 3450 1850 3450 1625 
L 5300 1625 
Q 5625 1625 6000 1650 
L 6000 1200 
Q 5625 1225 5300 1225 
L 3950 1225 
Q 4350 675 5000 400 
Q 5650 125 6175 75 
Q 5850 -250 5825 -450 
z
M 1825 2300 
Q 2550 2575 2925 3012 
Q 3300 3450 3400 4000 
Q 3025 4000 2575 3975 
L 2575 4425 
Q 3050 4400 3425 4400 
Q 3450 4925 3425 5250 
Q 3725 5175 4000 5175 
Q 3925 5025 3900 4400 
L 5125 4400 
Q 5100 4150 5075 3850 
L 5000 2850 
Q 5025 2600 5175 2600 
L 5450 2600 
Q 5575 2600 5612 2700 
Q 5650 2800 5675 3200 
Q 5875 3025 6200 3000 
Q 6100 2325 5912 2262 
Q 5725 2200 5387 2187 
Q 5050 2175 4787 2237 
Q 4525 2300 4550 2700 
L 4625 4000 
L 3875 4000 
Q 3800 3425 3475 2937 
Q 3150 2450 2275 1925 
Q 2175 2100 1825 2300 
z
M 2175 2925 
Q 1225 2175 850 1875 
Q 700 2125 500 2300 
Q 1100 2600 2000 3375 
Q 2050 3175 2175 2925 
z
M 675 4150 
Q 1375 3825 1750 3600 
Q 1575 3375 1475 3175 
Q 1225 3400 450 3750 
Q 600 3925 675 4150 
z
M 1850 4150 
Q 1475 4475 900 4775 
Q 1025 4925 1175 5125 
Q 1750 4800 2175 4550 
Q 1950 4325 1850 4150 
z
" transform="scale(0.015625)"/>
      <path id="SimHei-7f51" d="M 5875 4900 
Q 5825 4575 5825 3975 
L 5825 0 
Q 5825 -400 5537 -462 
Q 5250 -525 4775 -600 
Q 4725 -350 4525 -50 
Q 5025 -75 5175 -25 
Q 5325 25 5325 250 
L 5325 4475 
L 1100 4475 
L 1100 -600 
L 550 -600 
Q 600 -100 600 250 
L 600 3975 
Q 600 4375 550 4900 
L 5875 4900 
z
M 3675 3525 
Q 4050 2800 4175 2600 
Q 4475 3625 4550 4050 
Q 4825 3900 5100 3775 
Q 4975 3600 4825 3150 
Q 4675 2700 4450 2100 
Q 4725 1575 5125 875 
Q 4850 800 4625 675 
L 4175 1575 
Q 4000 1225 3825 962 
Q 3650 700 3350 300 
Q 3175 500 2850 575 
Q 3075 800 3337 1125 
Q 3600 1450 3925 2075 
Q 3575 2800 3200 3300 
Q 3400 3375 3675 3525 
z
M 1725 3800 
Q 1875 3525 2037 3237 
Q 2200 2950 2375 2675 
Q 2675 3675 2725 4050 
Q 3000 3950 3325 3850 
Q 3175 3675 3050 3312 
Q 2925 2950 2650 2200 
Q 2875 1850 3200 1300 
Q 2950 1150 2775 975 
Q 2525 1500 2400 1700 
Q 1950 775 1600 325 
Q 1400 500 1175 575 
Q 1575 1000 2150 2175 
Q 1550 3250 1250 3600 
Q 1475 3700 1725 3800 
z
" transform="scale(0.015625)"/>
      <path id="SimHei-7edc" d="M 2400 3100 
Q 2675 3400 2850 3700 
Q 3025 4000 3187 4362 
Q 3350 4725 3450 5200 
Q 3725 5075 4050 5025 
Q 3900 4800 3725 4450 
L 5750 4450 
Q 5375 3700 5125 3325 
Q 4875 2950 4600 2650 
Q 4925 2425 5375 2275 
Q 5825 2125 6200 2050 
Q 6075 1850 5950 1525 
Q 5700 1600 5500 1675 
Q 5450 1325 5450 1025 
L 5450 125 
Q 5450 -250 5475 -650 
L 5000 -650 
L 5000 -175 
L 3500 -175 
L 3500 -700 
L 3025 -700 
Q 3050 -325 3050 0 
L 3050 1000 
Q 3050 1200 3025 1675 
Q 2875 1600 2600 1500 
Q 2500 1775 2325 1975 
Q 2700 2075 3162 2262 
Q 3625 2450 3900 2675 
Q 3575 3100 3350 3625 
Q 3075 3200 2800 2825 
Q 2650 2975 2400 3100 
z
M 1825 4725 
Q 1650 4500 1425 4037 
Q 1200 3575 900 3050 
L 1600 3050 
Q 1875 3575 2000 3975 
Q 2250 3775 2500 3650 
Q 2350 3475 2050 2937 
Q 1750 2400 1225 1525 
Q 1975 1650 2300 1700 
Q 2275 1375 2300 1225 
Q 1700 1150 1375 1087 
Q 1050 1025 625 925 
Q 550 1200 450 1400 
Q 700 1500 937 1850 
Q 1175 2200 1425 2700 
Q 750 2675 400 2525 
Q 325 2750 225 3025 
Q 525 3175 825 3787 
Q 1125 4400 1275 5000 
Q 1550 4825 1825 4725 
z
M 5000 225 
L 5000 1300 
L 3500 1300 
L 3500 225 
L 5000 225 
z
M 2375 700 
Q 2425 450 2425 250 
Q 2150 200 1637 25 
Q 1125 -150 650 -350 
Q 550 -50 425 200 
Q 1050 325 1462 425 
Q 1875 525 2375 700 
z
M 4275 2975 
Q 4425 3125 4637 3425 
Q 4850 3725 5000 4050 
L 3650 4050 
Q 3900 3425 4275 2975 
z
M 5475 1700 
Q 5125 1850 4812 2000 
Q 4500 2150 4225 2350 
Q 3925 2150 3662 2000 
Q 3400 1850 3075 1700 
L 5475 1700 
z
" transform="scale(0.015625)"/>
      <path id="SimHei-56fe" d="M 5800 4975 
Q 5775 4350 5775 3600 
L 5775 925 
Q 5775 150 5800 -600 
L 5300 -600 
L 5300 -275 
L 1125 -275 
L 1125 -650 
L 625 -650 
Q 650 125 650 950 
L 650 3600 
Q 650 4325 625 4975 
L 5800 4975 
z
M 5300 150 
L 5300 4575 
L 1125 4575 
L 1125 150 
L 5300 150 
z
M 3225 4250 
Q 3075 4100 2950 3925 
L 4625 3925 
Q 4525 3700 4300 3375 
Q 4075 3050 3600 2600 
Q 4350 2225 5075 2150 
Q 4900 1925 4775 1675 
Q 3850 1950 3225 2350 
Q 2500 1875 1675 1650 
Q 1600 1875 1400 2075 
Q 2200 2200 2875 2600 
Q 2525 2925 2375 3150 
Q 2150 2900 1900 2650 
Q 1725 2850 1525 2950 
Q 1950 3300 2250 3737 
Q 2550 4175 2675 4475 
Q 2925 4350 3225 4250 
z
M 2450 1275 
Q 3550 950 4100 725 
Q 3975 525 3850 300 
Q 2825 725 2275 850 
Q 2375 1050 2450 1275 
z
M 2925 2050 
Q 3775 1700 4075 1600 
Q 3950 1400 3850 1150 
Q 3000 1550 2700 1650 
Q 2825 1825 2925 2050 
z
M 2625 3450 
Q 3000 3025 3275 2850 
Q 3600 3100 3875 3525 
L 2675 3525 
L 2625 3450 
z
" transform="scale(0.015625)"/>
      <path id="SimHei-ff08" d="M 5425 5100 
L 5700 4775 
Q 4275 3725 4325 2350 
Q 4350 1025 5675 50 
L 5400 -275 
Q 3875 825 3925 2500 
Q 3925 3875 5425 5100 
z
" transform="scale(0.015625)"/>
      <path id="SimHei-5171" d="M 2025 3700 
Q 2025 4700 2000 5000 
L 2600 5000 
Q 2550 4700 2550 3700 
L 3925 3700 
Q 3925 4725 3900 5025 
L 4500 5025 
Q 4450 4725 4450 3700 
L 4950 3700 
Q 5400 3700 5725 3725 
L 5725 3275 
Q 5400 3300 4950 3300 
L 4450 3300 
L 4450 1850 
L 5300 1850 
Q 5750 1850 6050 1875 
L 6050 1425 
Q 5775 1450 5325 1450 
L 1075 1450 
Q 600 1450 325 1425 
L 325 1875 
Q 600 1850 1075 1850 
L 2025 1850 
L 2025 3300 
L 1600 3300 
Q 1000 3300 700 3275 
L 700 3725 
Q 1025 3700 1625 3700 
L 2025 3700 
z
M 3925 1850 
L 3925 3300 
L 2550 3300 
L 2550 1850 
L 3925 1850 
z
M 2875 725 
Q 2525 550 1962 137 
Q 1400 -275 850 -525 
Q 675 -275 450 -100 
Q 975 125 1437 412 
Q 1900 700 2325 1125 
Q 2600 900 2875 725 
z
M 4050 1125 
Q 4350 950 4925 600 
Q 5500 250 5925 -100 
Q 5700 -275 5525 -500 
Q 5100 -175 4587 162 
Q 4075 500 3675 700 
Q 3875 900 4050 1125 
z
" transform="scale(0.015625)"/>
      <path id="SimHei-32" d="M 300 250 
Q 325 625 650 925 
Q 975 1225 1475 1862 
Q 1975 2500 2125 2850 
Q 2275 3200 2237 3450 
Q 2200 3700 2000 3862 
Q 1800 4025 1537 4000 
Q 1275 3975 1037 3800 
Q 800 3625 675 3275 
L 200 3350 
Q 400 3925 712 4187 
Q 1025 4450 1450 4475 
Q 1700 4500 1900 4462 
Q 2100 4425 2312 4287 
Q 2525 4150 2662 3875 
Q 2800 3600 2762 3212 
Q 2725 2825 2375 2287 
Q 2025 1750 1025 600 
L 2825 600 
L 2825 150 
L 300 150 
L 300 250 
z
" transform="scale(0.015625)"/>
      <path id="SimHei-30" d="M 225 2537 
Q 250 3200 412 3587 
Q 575 3975 875 4225 
Q 1175 4475 1612 4475 
Q 2050 4475 2375 4112 
Q 2700 3750 2800 3200 
Q 2900 2650 2862 1937 
Q 2825 1225 2612 775 
Q 2400 325 1975 150 
Q 1550 -25 1125 187 
Q 700 400 525 750 
Q 350 1100 275 1487 
Q 200 1875 225 2537 
z
M 750 2687 
Q 675 2000 800 1462 
Q 925 925 1212 700 
Q 1500 475 1800 612 
Q 2100 750 2237 1162 
Q 2375 1575 2375 2062 
Q 2375 2550 2337 2950 
Q 2300 3350 2112 3675 
Q 1925 4000 1612 4012 
Q 1300 4025 1062 3700 
Q 825 3375 750 2687 
z
" transform="scale(0.015625)"/>
      <path id="SimHei-6b21" d="M 4150 3025 
Q 4000 2550 4050 2187 
Q 4100 1825 4275 1450 
Q 4450 1075 4800 750 
Q 5150 425 5475 212 
Q 5800 0 6150 -150 
Q 5875 -350 5750 -625 
Q 5250 -325 4887 -25 
Q 4525 275 4275 612 
Q 4025 950 3825 1425 
Q 3525 625 2950 125 
Q 2375 -375 1850 -650 
Q 1675 -400 1475 -225 
Q 2025 0 2487 362 
Q 2950 725 3162 1100 
Q 3375 1475 3450 1825 
Q 3525 2175 3537 2400 
Q 3550 2625 3525 3125 
Q 3825 3050 4150 3025 
z
M 3700 4975 
Q 3625 4900 3475 4575 
Q 3325 4250 3250 4075 
L 5775 4075 
Q 5650 3725 5550 3362 
Q 5450 3000 5275 2500 
Q 5000 2575 4775 2600 
Q 5025 3350 5100 3650 
L 3100 3650 
Q 2975 3400 2812 3100 
Q 2650 2800 2425 2450 
Q 2275 2600 1975 2700 
Q 2300 3050 2625 3762 
Q 2950 4475 3125 5200 
Q 3450 5025 3700 4975 
z
M 2025 2000 
Q 1825 1675 1475 1087 
Q 1125 500 725 -200 
Q 500 -25 250 175 
Q 725 725 1037 1262 
Q 1350 1800 1575 2325 
Q 1750 2175 2025 2000 
z
M 900 4750 
Q 1725 3725 1950 3375 
Q 1750 3250 1500 3050 
Q 1250 3525 500 4425 
Q 700 4575 900 4750 
z
" transform="scale(0.015625)"/>
      <path id="SimHei-4e8b" d="M 5225 1600 
Q 5600 1600 6050 1625 
L 6050 1175 
Q 5800 1200 5225 1200 
Q 5225 550 5250 175 
L 4750 175 
L 4750 425 
L 3400 425 
L 3400 -50 
Q 3375 -350 3187 -450 
Q 3000 -550 2450 -625 
Q 2400 -375 2200 -75 
Q 2650 -75 2800 -50 
Q 2950 -25 2950 100 
L 2950 425 
L 1550 425 
Q 1275 425 900 400 
L 900 850 
Q 1275 825 1550 825 
L 2950 825 
L 2950 1200 
L 1075 1200 
Q 750 1200 450 1175 
L 450 1625 
Q 750 1600 1075 1600 
L 2950 1600 
L 2950 1950 
L 1500 1950 
Q 1225 1950 900 1925 
L 900 2375 
Q 1225 2350 1500 2350 
L 2950 2350 
L 2950 2675 
L 1200 2675 
Q 1225 3050 1225 3350 
Q 1225 3675 1200 3975 
L 2950 3975 
L 2950 4325 
L 1175 4325 
Q 775 4325 425 4300 
L 425 4750 
Q 775 4725 1150 4725 
L 2950 4725 
Q 2950 4900 2925 5175 
L 3425 5175 
Q 3400 4975 3400 4725 
L 5100 4725 
Q 5525 4725 5975 4750 
L 5975 4300 
Q 5525 4325 5100 4325 
L 3400 4325 
L 3400 3975 
L 5200 3975 
Q 5175 3675 5175 3350 
Q 5175 3025 5200 2675 
L 3400 2675 
L 3400 2350 
L 5250 2350 
Q 5225 2100 5225 1600 
z
M 4700 3075 
L 4700 3575 
L 3400 3575 
L 3400 3075 
L 4700 3075 
z
M 2950 3075 
L 2950 3575 
L 1675 3575 
L 1675 3075 
L 2950 3075 
z
M 4750 825 
L 4750 1200 
L 3400 1200 
L 3400 825 
L 4750 825 
z
M 4750 1600 
L 4750 1950 
L 3400 1950 
L 3400 1600 
L 4750 1600 
z
" transform="scale(0.015625)"/>
      <path id="SimHei-4ef6" d="M 3275 4475 
Q 3150 4375 2925 3775 
L 3900 3775 
L 3900 4275 
Q 3900 4900 3875 5125 
L 4400 5125 
Q 4375 4925 4375 4300 
L 4375 3775 
L 5125 3775 
Q 5450 3775 5725 3800 
L 5725 3325 
Q 5450 3350 5125 3350 
L 4375 3350 
L 4375 2000 
L 5200 2000 
Q 5575 2000 6100 2025 
L 6100 1550 
Q 5675 1575 5175 1575 
L 4375 1575 
L 4375 275 
Q 4375 -100 4400 -550 
L 3875 -550 
Q 3900 -100 3900 275 
L 3900 1575 
L 2925 1575 
Q 2500 1575 1925 1550 
L 1925 2025 
Q 2475 2000 2825 2000 
L 3900 2000 
L 3900 3350 
L 2775 3350 
Q 2700 3150 2350 2425 
Q 2275 2500 1900 2650 
Q 2150 3025 2350 3500 
Q 2550 3975 2700 4700 
Q 2900 4575 3275 4475 
z
M 1150 3200 
Q 900 2825 550 2375 
Q 425 2625 200 2750 
Q 650 3200 1025 3850 
Q 1400 4500 1650 5250 
Q 1950 5050 2175 4975 
Q 2000 4825 1625 4025 
L 1625 625 
Q 1625 -175 1650 -575 
L 1125 -575 
Q 1150 -225 1150 600 
L 1150 3200 
z
" transform="scale(0.015625)"/>
      <path id="SimHei-ff09" d="M 1000 5100 
Q 2500 3875 2500 2500 
Q 2550 825 1025 -275 
L 750 50 
Q 2075 1025 2100 2350 
Q 2150 3725 725 4775 
L 1000 5100 
z
" transform="scale(0.015625)"/>
     </defs>
     <use xlink:href="#SimHei-60c5"/>
     <use xlink:href="#SimHei-7eea" transform="translate(100 0)"/>
     <use xlink:href="#SimHei-4f20" transform="translate(200 0)"/>
     <use xlink:href="#SimHei-67d3" transform="translate(300 0)"/>
     <use xlink:href="#SimHei-7f51" transform="translate(400 0)"/>
     <use xlink:href="#SimHei-7edc" transform="translate(500 0)"/>
     <use xlink:href="#SimHei-56fe" transform="translate(600 0)"/>
     <use xlink:href="#SimHei-ff08" transform="translate(700 0)"/>
     <use xlink:href="#SimHei-5171" transform="translate(800 0)"/>
     <use xlink:href="#SimHei-32" transform="translate(900 0)"/>
     <use xlink:href="#SimHei-38" transform="translate(950 0)"/>
     <use xlink:href="#SimHei-33" transform="translate(1000 0)"/>
     <use xlink:href="#SimHei-30" transform="translate(1050 0)"/>
     <use xlink:href="#SimHei-6b21" transform="translate(1100 0)"/>
     <use xlink:href="#SimHei-4f20" transform="translate(1200 0)"/>
     <use xlink:href="#SimHei-67d3" transform="translate(1300 0)"/>
     <use xlink:href="#SimHei-4e8b" transform="translate(1400 0)"/>
     <use xlink:href="#SimHei-4ef6" transform="translate(1500 0)"/>
     <use xlink:href="#SimHei-ff09" transform="translate(1600 0)"/>
    </g>
   </g>
  </g>
 </g>
 <defs>
  <clipPath id="p8b89a1d946">
   <rect x="11.88" y="29.085" width="696.24" height="391.035"/>
  </clipPath>
 </defs>
</svg>
