<?xml version="1.0" encoding="utf-8" standalone="no"?>
<!DOCTYPE svg PUBLIC "-//W3C//DTD SVG 1.1//EN"
  "http://www.w3.org/Graphics/SVG/1.1/DTD/svg11.dtd">
<svg xmlns:xlink="http://www.w3.org/1999/xlink" width="576pt" height="360pt" viewBox="0 0 576 360" xmlns="http://www.w3.org/2000/svg" version="1.1">
 <metadata>
  <rdf:RDF xmlns:dc="http://purl.org/dc/elements/1.1/" xmlns:cc="http://creativecommons.org/ns#" xmlns:rdf="http://www.w3.org/1999/02/22-rdf-syntax-ns#">
   <cc:Work>
    <dc:type rdf:resource="http://purl.org/dc/dcmitype/StillImage"/>
    <dc:date>2026-07-09T19:59:33.360870</dc:date>
    <dc:format>image/svg+xml</dc:format>
    <dc:creator>
     <cc:Agent>
      <dc:title>Matplotlib v3.10.9, https://matplotlib.org/</dc:title>
     </cc:Agent>
    </dc:creator>
   </cc:Work>
  </rdf:RDF>
 </metadata>
 <defs>
  <style type="text/css">*{stroke-linejoin: round; stroke-linecap: butt}</style>
 </defs>
 <g id="figure_1">
  <g id="patch_1">
   <path d="M 0 360 
L 576 360 
L 576 0 
L 0 0 
z
" style="fill: #ffffff"/>
  </g>
  <g id="axes_1">
   <g id="patch_2">
    <path d="M 46.2125 315.4975 
L 553.764281 315.4975 
L 553.764281 29.22 
L 46.2125 29.22 
z
" style="fill: #ffffff"/>
   </g>
   <g id="patch_3">
    <path d="M 69.283036 315.4975 
L 78.51125 315.4975 
L 78.51125 42.852262 
L 69.283036 42.852262 
z
" clip-path="url(#pb9f37262fc)" style="fill: #e67e22; opacity: 0.8; stroke: #000000; stroke-width: 0.5; stroke-linejoin: miter"/>
   </g>
   <g id="patch_4">
    <path d="M 78.51125 315.4975 
L 87.739464 315.4975 
L 87.739464 312.026464 
L 78.51125 312.026464 
z
" clip-path="url(#pb9f37262fc)" style="fill: #e67e22; opacity: 0.8; stroke: #000000; stroke-width: 0.5; stroke-linejoin: miter"/>
   </g>
   <g id="patch_5">
    <path d="M 87.739464 315.4975 
L 96.967678 315.4975 
L 96.967678 312.041823 
L 87.739464 312.041823 
z
" clip-path="url(#pb9f37262fc)" style="fill: #e67e22; opacity: 0.8; stroke: #000000; stroke-width: 0.5; stroke-linejoin: miter"/>
   </g>
   <g id="patch_6">
    <path d="M 96.967678 315.4975 
L 106.195892 315.4975 
L 106.195892 315.021384 
L 96.967678 315.021384 
z
" clip-path="url(#pb9f37262fc)" style="fill: #e67e22; opacity: 0.8; stroke: #000000; stroke-width: 0.5; stroke-linejoin: miter"/>
   </g>
   <g id="patch_7">
    <path d="M 106.195892 315.4975 
L 115.424107 315.4975 
L 115.424107 314.192022 
L 106.195892 314.192022 
z
" clip-path="url(#pb9f37262fc)" style="fill: #e67e22; opacity: 0.8; stroke: #000000; stroke-width: 0.5; stroke-linejoin: miter"/>
   </g>
   <g id="patch_8">
    <path d="M 115.424107 315.4975 
L 124.652321 315.4975 
L 124.652321 314.52991 
L 115.424107 314.52991 
z
" clip-path="url(#pb9f37262fc)" style="fill: #e67e22; opacity: 0.8; stroke: #000000; stroke-width: 0.5; stroke-linejoin: miter"/>
   </g>
   <g id="patch_9">
    <path d="M 124.652321 315.4975 
L 133.880535 315.4975 
L 133.880535 314.360966 
L 124.652321 314.360966 
z
" clip-path="url(#pb9f37262fc)" style="fill: #e67e22; opacity: 0.8; stroke: #000000; stroke-width: 0.5; stroke-linejoin: miter"/>
   </g>
   <g id="patch_10">
    <path d="M 133.880535 315.4975 
L 143.108749 315.4975 
L 143.108749 314.483835 
L 133.880535 314.483835 
z
" clip-path="url(#pb9f37262fc)" style="fill: #e67e22; opacity: 0.8; stroke: #000000; stroke-width: 0.5; stroke-linejoin: miter"/>
   </g>
   <g id="patch_11">
    <path d="M 143.108749 315.4975 
L 152.336963 315.4975 
L 152.336963 310.15272 
L 143.108749 310.15272 
z
" clip-path="url(#pb9f37262fc)" style="fill: #e67e22; opacity: 0.8; stroke: #000000; stroke-width: 0.5; stroke-linejoin: miter"/>
   </g>
   <g id="patch_12">
    <path d="M 152.336963 315.4975 
L 161.565178 315.4975 
L 161.565178 314.791006 
L 152.336963 314.791006 
z
" clip-path="url(#pb9f37262fc)" style="fill: #e67e22; opacity: 0.8; stroke: #000000; stroke-width: 0.5; stroke-linejoin: miter"/>
   </g>
   <g id="patch_13">
    <path d="M 161.565178 315.4975 
L 170.793392 315.4975 
L 170.793392 315.359273 
L 161.565178 315.359273 
z
" clip-path="url(#pb9f37262fc)" style="fill: #e67e22; opacity: 0.8; stroke: #000000; stroke-width: 0.5; stroke-linejoin: miter"/>
   </g>
   <g id="patch_14">
    <path d="M 170.793392 315.4975 
L 180.021606 315.4975 
L 180.021606 315.38999 
L 170.793392 315.38999 
z
" clip-path="url(#pb9f37262fc)" style="fill: #e67e22; opacity: 0.8; stroke: #000000; stroke-width: 0.5; stroke-linejoin: miter"/>
   </g>
   <g id="patch_15">
    <path d="M 180.021606 315.4975 
L 189.24982 315.4975 
L 189.24982 315.420707 
L 180.021606 315.420707 
z
" clip-path="url(#pb9f37262fc)" style="fill: #e67e22; opacity: 0.8; stroke: #000000; stroke-width: 0.5; stroke-linejoin: miter"/>
   </g>
   <g id="patch_16">
    <path d="M 189.24982 315.4975 
L 198.478034 315.4975 
L 198.478034 312.164691 
L 189.24982 312.164691 
z
" clip-path="url(#pb9f37262fc)" style="fill: #e67e22; opacity: 0.8; stroke: #000000; stroke-width: 0.5; stroke-linejoin: miter"/>
   </g>
   <g id="patch_17">
    <path d="M 198.478034 315.4975 
L 207.706249 315.4975 
L 207.706249 315.128894 
L 198.478034 315.128894 
z
" clip-path="url(#pb9f37262fc)" style="fill: #e67e22; opacity: 0.8; stroke: #000000; stroke-width: 0.5; stroke-linejoin: miter"/>
   </g>
   <g id="patch_18">
    <path d="M 207.706249 315.4975 
L 216.934463 315.4975 
L 216.934463 315.38999 
L 207.706249 315.38999 
z
" clip-path="url(#pb9f37262fc)" style="fill: #e67e22; opacity: 0.8; stroke: #000000; stroke-width: 0.5; stroke-linejoin: miter"/>
   </g>
   <g id="patch_19">
    <path d="M 216.934463 315.4975 
L 226.162677 315.4975 
L 226.162677 315.451424 
L 216.934463 315.451424 
z
" clip-path="url(#pb9f37262fc)" style="fill: #e67e22; opacity: 0.8; stroke: #000000; stroke-width: 0.5; stroke-linejoin: miter"/>
   </g>
   <g id="patch_20">
    <path d="M 226.162677 315.4975 
L 235.390891 315.4975 
L 235.390891 312.732958 
L 226.162677 312.732958 
z
" clip-path="url(#pb9f37262fc)" style="fill: #e67e22; opacity: 0.8; stroke: #000000; stroke-width: 0.5; stroke-linejoin: miter"/>
   </g>
   <g id="patch_21">
    <path d="M 235.390891 315.4975 
L 244.619105 315.4975 
L 244.619105 315.466783 
L 235.390891 315.466783 
z
" clip-path="url(#pb9f37262fc)" style="fill: #e67e22; opacity: 0.8; stroke: #000000; stroke-width: 0.5; stroke-linejoin: miter"/>
   </g>
   <g id="patch_22">
    <path d="M 244.619105 315.4975 
L 253.84732 315.4975 
L 253.84732 313.408735 
L 244.619105 313.408735 
z
" clip-path="url(#pb9f37262fc)" style="fill: #e67e22; opacity: 0.8; stroke: #000000; stroke-width: 0.5; stroke-linejoin: miter"/>
   </g>
   <g id="patch_23">
    <path d="M 253.84732 315.4975 
L 263.075534 315.4975 
L 263.075534 313.992361 
L 253.84732 313.992361 
z
" clip-path="url(#pb9f37262fc)" style="fill: #e67e22; opacity: 0.8; stroke: #000000; stroke-width: 0.5; stroke-linejoin: miter"/>
   </g>
   <g id="patch_24">
    <path d="M 263.075534 315.4975 
L 272.303748 315.4975 
L 272.303748 314.314891 
L 263.075534 314.314891 
z
" clip-path="url(#pb9f37262fc)" style="fill: #e67e22; opacity: 0.8; stroke: #000000; stroke-width: 0.5; stroke-linejoin: miter"/>
   </g>
   <g id="patch_25">
    <path d="M 272.303748 315.4975 
L 281.531962 315.4975 
L 281.531962 313.977002 
L 272.303748 313.977002 
z
" clip-path="url(#pb9f37262fc)" style="fill: #e67e22; opacity: 0.8; stroke: #000000; stroke-width: 0.5; stroke-linejoin: miter"/>
   </g>
   <g id="patch_26">
    <path d="M 281.531962 315.4975 
L 290.760176 315.4975 
L 290.760176 314.207381 
L 281.531962 314.207381 
z
" clip-path="url(#pb9f37262fc)" style="fill: #e67e22; opacity: 0.8; stroke: #000000; stroke-width: 0.5; stroke-linejoin: miter"/>
   </g>
   <g id="patch_27">
    <path d="M 290.760176 315.4975 
L 299.988391 315.4975 
L 299.988391 315.359273 
L 290.760176 315.359273 
z
" clip-path="url(#pb9f37262fc)" style="fill: #e67e22; opacity: 0.8; stroke: #000000; stroke-width: 0.5; stroke-linejoin: miter"/>
   </g>
   <g id="patch_28">
    <path d="M 299.988391 315.4975 
L 309.216605 315.4975 
L 309.216605 315.420707 
L 299.988391 315.420707 
z
" clip-path="url(#pb9f37262fc)" style="fill: #e67e22; opacity: 0.8; stroke: #000000; stroke-width: 0.5; stroke-linejoin: miter"/>
   </g>
   <g id="patch_29">
    <path d="M 309.216605 315.4975 
L 318.444819 315.4975 
L 318.444819 315.420707 
L 309.216605 315.420707 
z
" clip-path="url(#pb9f37262fc)" style="fill: #e67e22; opacity: 0.8; stroke: #000000; stroke-width: 0.5; stroke-linejoin: miter"/>
   </g>
   <g id="patch_30">
    <path d="M 318.444819 315.4975 
L 327.673033 315.4975 
L 327.673033 315.374631 
L 318.444819 315.374631 
z
" clip-path="url(#pb9f37262fc)" style="fill: #e67e22; opacity: 0.8; stroke: #000000; stroke-width: 0.5; stroke-linejoin: miter"/>
   </g>
   <g id="patch_31">
    <path d="M 327.673033 315.4975 
L 336.901248 315.4975 
L 336.901248 315.38999 
L 327.673033 315.38999 
z
" clip-path="url(#pb9f37262fc)" style="fill: #e67e22; opacity: 0.8; stroke: #000000; stroke-width: 0.5; stroke-linejoin: miter"/>
   </g>
   <g id="patch_32">
    <path d="M 336.901248 315.4975 
L 346.129462 315.4975 
L 346.129462 315.38999 
L 336.901248 315.38999 
z
" clip-path="url(#pb9f37262fc)" style="fill: #e67e22; opacity: 0.8; stroke: #000000; stroke-width: 0.5; stroke-linejoin: miter"/>
   </g>
   <g id="patch_33">
    <path d="M 346.129462 315.4975 
L 355.357676 315.4975 
L 355.357676 315.328556 
L 346.129462 315.328556 
z
" clip-path="url(#pb9f37262fc)" style="fill: #e67e22; opacity: 0.8; stroke: #000000; stroke-width: 0.5; stroke-linejoin: miter"/>
   </g>
   <g id="patch_34">
    <path d="M 355.357676 315.4975 
L 364.58589 315.4975 
L 364.58589 315.405349 
L 355.357676 315.405349 
z
" clip-path="url(#pb9f37262fc)" style="fill: #e67e22; opacity: 0.8; stroke: #000000; stroke-width: 0.5; stroke-linejoin: miter"/>
   </g>
   <g id="patch_35">
    <path d="M 364.58589 315.4975 
L 373.814104 315.4975 
L 373.814104 315.374631 
L 364.58589 315.374631 
z
" clip-path="url(#pb9f37262fc)" style="fill: #e67e22; opacity: 0.8; stroke: #000000; stroke-width: 0.5; stroke-linejoin: miter"/>
   </g>
   <g id="patch_36">
    <path d="M 373.814104 315.4975 
L 383.042319 315.4975 
L 383.042319 315.420707 
L 373.814104 315.420707 
z
" clip-path="url(#pb9f37262fc)" style="fill: #e67e22; opacity: 0.8; stroke: #000000; stroke-width: 0.5; stroke-linejoin: miter"/>
   </g>
   <g id="patch_37">
    <path d="M 383.042319 315.4975 
L 392.270533 315.4975 
L 392.270533 315.466783 
L 383.042319 315.466783 
z
" clip-path="url(#pb9f37262fc)" style="fill: #e67e22; opacity: 0.8; stroke: #000000; stroke-width: 0.5; stroke-linejoin: miter"/>
   </g>
   <g id="patch_38">
    <path d="M 392.270533 315.4975 
L 401.498747 315.4975 
L 401.498747 315.420707 
L 392.270533 315.420707 
z
" clip-path="url(#pb9f37262fc)" style="fill: #e67e22; opacity: 0.8; stroke: #000000; stroke-width: 0.5; stroke-linejoin: miter"/>
   </g>
   <g id="patch_39">
    <path d="M 401.498747 315.4975 
L 410.726961 315.4975 
L 410.726961 315.436066 
L 401.498747 315.436066 
z
" clip-path="url(#pb9f37262fc)" style="fill: #e67e22; opacity: 0.8; stroke: #000000; stroke-width: 0.5; stroke-linejoin: miter"/>
   </g>
   <g id="patch_40">
    <path d="M 410.726961 315.4975 
L 419.955175 315.4975 
L 419.955175 315.38999 
L 410.726961 315.38999 
z
" clip-path="url(#pb9f37262fc)" style="fill: #e67e22; opacity: 0.8; stroke: #000000; stroke-width: 0.5; stroke-linejoin: miter"/>
   </g>
   <g id="patch_41">
    <path d="M 419.955175 315.4975 
L 429.18339 315.4975 
L 429.18339 315.436066 
L 419.955175 315.436066 
z
" clip-path="url(#pb9f37262fc)" style="fill: #e67e22; opacity: 0.8; stroke: #000000; stroke-width: 0.5; stroke-linejoin: miter"/>
   </g>
   <g id="patch_42">
    <path d="M 429.18339 315.4975 
L 438.411604 315.4975 
L 438.411604 315.436066 
L 429.18339 315.436066 
z
" clip-path="url(#pb9f37262fc)" style="fill: #e67e22; opacity: 0.8; stroke: #000000; stroke-width: 0.5; stroke-linejoin: miter"/>
   </g>
   <g id="patch_43">
    <path d="M 438.411604 315.4975 
L 447.639818 315.4975 
L 447.639818 315.482141 
L 438.411604 315.482141 
z
" clip-path="url(#pb9f37262fc)" style="fill: #e67e22; opacity: 0.8; stroke: #000000; stroke-width: 0.5; stroke-linejoin: miter"/>
   </g>
   <g id="patch_44">
    <path d="M 447.639818 315.4975 
L 456.868032 315.4975 
L 456.868032 315.482141 
L 447.639818 315.482141 
z
" clip-path="url(#pb9f37262fc)" style="fill: #e67e22; opacity: 0.8; stroke: #000000; stroke-width: 0.5; stroke-linejoin: miter"/>
   </g>
   <g id="patch_45">
    <path d="M 456.868032 315.4975 
L 466.096246 315.4975 
L 466.096246 315.420707 
L 456.868032 315.420707 
z
" clip-path="url(#pb9f37262fc)" style="fill: #e67e22; opacity: 0.8; stroke: #000000; stroke-width: 0.5; stroke-linejoin: miter"/>
   </g>
   <g id="patch_46">
    <path d="M 466.096246 315.4975 
L 475.324461 315.4975 
L 475.324461 315.4975 
L 466.096246 315.4975 
z
" clip-path="url(#pb9f37262fc)" style="fill: #e67e22; opacity: 0.8; stroke: #000000; stroke-width: 0.5; stroke-linejoin: miter"/>
   </g>
   <g id="patch_47">
    <path d="M 475.324461 315.4975 
L 484.552675 315.4975 
L 484.552675 315.436066 
L 475.324461 315.436066 
z
" clip-path="url(#pb9f37262fc)" style="fill: #e67e22; opacity: 0.8; stroke: #000000; stroke-width: 0.5; stroke-linejoin: miter"/>
   </g>
   <g id="patch_48">
    <path d="M 484.552675 315.4975 
L 493.780889 315.4975 
L 493.780889 315.436066 
L 484.552675 315.436066 
z
" clip-path="url(#pb9f37262fc)" style="fill: #e67e22; opacity: 0.8; stroke: #000000; stroke-width: 0.5; stroke-linejoin: miter"/>
   </g>
   <g id="patch_49">
    <path d="M 493.780889 315.4975 
L 503.009103 315.4975 
L 503.009103 315.374631 
L 493.780889 315.374631 
z
" clip-path="url(#pb9f37262fc)" style="fill: #e67e22; opacity: 0.8; stroke: #000000; stroke-width: 0.5; stroke-linejoin: miter"/>
   </g>
   <g id="patch_50">
    <path d="M 503.009103 315.4975 
L 512.237317 315.4975 
L 512.237317 315.38999 
L 503.009103 315.38999 
z
" clip-path="url(#pb9f37262fc)" style="fill: #e67e22; opacity: 0.8; stroke: #000000; stroke-width: 0.5; stroke-linejoin: miter"/>
   </g>
   <g id="patch_51">
    <path d="M 512.237317 315.4975 
L 521.465532 315.4975 
L 521.465532 315.405349 
L 512.237317 315.405349 
z
" clip-path="url(#pb9f37262fc)" style="fill: #e67e22; opacity: 0.8; stroke: #000000; stroke-width: 0.5; stroke-linejoin: miter"/>
   </g>
   <g id="patch_52">
    <path d="M 521.465532 315.4975 
L 530.693746 315.4975 
L 530.693746 315.451424 
L 521.465532 315.451424 
z
" clip-path="url(#pb9f37262fc)" style="fill: #e67e22; opacity: 0.8; stroke: #000000; stroke-width: 0.5; stroke-linejoin: miter"/>
   </g>
   <g id="matplotlib.axis_1">
    <g id="xtick_1">
     <g id="line2d_1">
      <path d="M 91.81424 315.4975 
L 91.81424 29.22 
" clip-path="url(#pb9f37262fc)" style="fill: none; stroke-dasharray: 2.96,1.28; stroke-dashoffset: 0; stroke: #b0b0b0; stroke-opacity: 0.3; stroke-width: 0.8"/>
     </g>
     <g id="line2d_2">
      <defs>
       <path id="m204da95039" d="M 0 0 
L 0 3.5 
" style="stroke: #000000; stroke-width: 0.8"/>
      </defs>
      <g>
       <use xlink:href="#m204da95039" x="91.81424" y="315.4975" style="stroke: #000000; stroke-width: 0.8"/>
      </g>
     </g>
     <g id="text_1">
      <!-- -0.75 -->
      <g transform="translate(78.06424 330.06) scale(0.11 -0.11)">
       <defs>
        <path id="SimHei-2d" d="M 2975 2125 
L 125 2125 
L 125 2525 
L 2975 2525 
L 2975 2125 
z
" transform="scale(0.015625)"/>
        <path id="SimHei-30" d="M 225 2537 
Q 250 3200 412 3587 
Q 575 3975 875 4225 
Q 1175 4475 1612 4475 
Q 2050 4475 2375 4112 
Q 2700 3750 2800 3200 
Q 2900 2650 2862 1937 
Q 2825 1225 2612 775 
Q 2400 325 1975 150 
Q 1550 -25 1125 187 
Q 700 400 525 750 
Q 350 1100 275 1487 
Q 200 1875 225 2537 
z
M 750 2687 
Q 675 2000 800 1462 
Q 925 925 1212 700 
Q 1500 475 1800 612 
Q 2100 750 2237 1162 
Q 2375 1575 2375 2062 
Q 2375 2550 2337 2950 
Q 2300 3350 2112 3675 
Q 1925 4000 1612 4012 
Q 1300 4025 1062 3700 
Q 825 3375 750 2687 
z
" transform="scale(0.015625)"/>
        <path id="SimHei-2e" d="M 1075 125 
L 500 125 
L 500 675 
L 1075 675 
L 1075 125 
z
" transform="scale(0.015625)"/>
        <path id="SimHei-37" d="M 850 150 
Q 1300 2050 2425 3925 
L 275 3925 
L 275 4375 
L 2950 4375 
L 2950 3950 
Q 1775 2050 1400 150 
L 850 150 
z
" transform="scale(0.015625)"/>
        <path id="SimHei-35" d="M 550 1325 
Q 725 650 1150 575 
Q 1575 500 1837 662 
Q 2100 825 2212 1087 
Q 2325 1350 2312 1675 
Q 2300 2000 2137 2225 
Q 1975 2450 1725 2525 
Q 1475 2600 1162 2525 
Q 850 2450 650 2175 
L 225 2225 
Q 275 2375 700 4375 
L 2675 4375 
L 2675 3925 
L 1075 3925 
Q 950 3250 825 2850 
Q 1200 3025 1525 3012 
Q 1850 3000 2150 2862 
Q 2450 2725 2587 2487 
Q 2725 2250 2787 2012 
Q 2850 1775 2837 1500 
Q 2825 1225 2725 937 
Q 2625 650 2425 462 
Q 2225 275 1937 162 
Q 1650 50 1275 75 
Q 900 100 562 350 
Q 225 600 100 1200 
L 550 1325 
z
" transform="scale(0.015625)"/>
       </defs>
       <use xlink:href="#SimHei-2d"/>
       <use xlink:href="#SimHei-30" transform="translate(50 0)"/>
       <use xlink:href="#SimHei-2e" transform="translate(100 0)"/>
       <use xlink:href="#SimHei-37" transform="translate(150 0)"/>
       <use xlink:href="#SimHei-35" transform="translate(200 0)"/>
      </g>
     </g>
    </g>
    <g id="xtick_2">
     <g id="line2d_3">
      <path d="M 157.705703 315.4975 
L 157.705703 29.22 
" clip-path="url(#pb9f37262fc)" style="fill: none; stroke-dasharray: 2.96,1.28; stroke-dashoffset: 0; stroke: #b0b0b0; stroke-opacity: 0.3; stroke-width: 0.8"/>
     </g>
     <g id="line2d_4">
      <g>
       <use xlink:href="#m204da95039" x="157.705703" y="315.4975" style="stroke: #000000; stroke-width: 0.8"/>
      </g>
     </g>
     <g id="text_2">
      <!-- -0.50 -->
      <g transform="translate(143.955703 330.06) scale(0.11 -0.11)">
       <use xlink:href="#SimHei-2d"/>
       <use xlink:href="#SimHei-30" transform="translate(50 0)"/>
       <use xlink:href="#SimHei-2e" transform="translate(100 0)"/>
       <use xlink:href="#SimHei-35" transform="translate(150 0)"/>
       <use xlink:href="#SimHei-30" transform="translate(200 0)"/>
      </g>
     </g>
    </g>
    <g id="xtick_3">
     <g id="line2d_5">
      <path d="M 223.597166 315.4975 
L 223.597166 29.22 
" clip-path="url(#pb9f37262fc)" style="fill: none; stroke-dasharray: 2.96,1.28; stroke-dashoffset: 0; stroke: #b0b0b0; stroke-opacity: 0.3; stroke-width: 0.8"/>
     </g>
     <g id="line2d_6">
      <g>
       <use xlink:href="#m204da95039" x="223.597166" y="315.4975" style="stroke: #000000; stroke-width: 0.8"/>
      </g>
     </g>
     <g id="text_3">
      <!-- -0.25 -->
      <g transform="translate(209.847166 330.06) scale(0.11 -0.11)">
       <defs>
        <path id="SimHei-32" d="M 300 250 
Q 325 625 650 925 
Q 975 1225 1475 1862 
Q 1975 2500 2125 2850 
Q 2275 3200 2237 3450 
Q 2200 3700 2000 3862 
Q 1800 4025 1537 4000 
Q 1275 3975 1037 3800 
Q 800 3625 675 3275 
L 200 3350 
Q 400 3925 712 4187 
Q 1025 4450 1450 4475 
Q 1700 4500 1900 4462 
Q 2100 4425 2312 4287 
Q 2525 4150 2662 3875 
Q 2800 3600 2762 3212 
Q 2725 2825 2375 2287 
Q 2025 1750 1025 600 
L 2825 600 
L 2825 150 
L 300 150 
L 300 250 
z
" transform="scale(0.015625)"/>
       </defs>
       <use xlink:href="#SimHei-2d"/>
       <use xlink:href="#SimHei-30" transform="translate(50 0)"/>
       <use xlink:href="#SimHei-2e" transform="translate(100 0)"/>
       <use xlink:href="#SimHei-32" transform="translate(150 0)"/>
       <use xlink:href="#SimHei-35" transform="translate(200 0)"/>
      </g>
     </g>
    </g>
    <g id="xtick_4">
     <g id="line2d_7">
      <path d="M 289.488629 315.4975 
L 289.488629 29.22 
" clip-path="url(#pb9f37262fc)" style="fill: none; stroke-dasharray: 2.96,1.28; stroke-dashoffset: 0; stroke: #b0b0b0; stroke-opacity: 0.3; stroke-width: 0.8"/>
     </g>
     <g id="line2d_8">
      <g>
       <use xlink:href="#m204da95039" x="289.488629" y="315.4975" style="stroke: #000000; stroke-width: 0.8"/>
      </g>
     </g>
     <g id="text_4">
      <!-- 0.00 -->
      <g transform="translate(278.488629 330.06) scale(0.11 -0.11)">
       <use xlink:href="#SimHei-30"/>
       <use xlink:href="#SimHei-2e" transform="translate(50 0)"/>
       <use xlink:href="#SimHei-30" transform="translate(100 0)"/>
       <use xlink:href="#SimHei-30" transform="translate(150 0)"/>
      </g>
     </g>
    </g>
    <g id="xtick_5">
     <g id="line2d_9">
      <path d="M 355.380092 315.4975 
L 355.380092 29.22 
" clip-path="url(#pb9f37262fc)" style="fill: none; stroke-dasharray: 2.96,1.28; stroke-dashoffset: 0; stroke: #b0b0b0; stroke-opacity: 0.3; stroke-width: 0.8"/>
     </g>
     <g id="line2d_10">
      <g>
       <use xlink:href="#m204da95039" x="355.380092" y="315.4975" style="stroke: #000000; stroke-width: 0.8"/>
      </g>
     </g>
     <g id="text_5">
      <!-- 0.25 -->
      <g transform="translate(344.380092 330.06) scale(0.11 -0.11)">
       <use xlink:href="#SimHei-30"/>
       <use xlink:href="#SimHei-2e" transform="translate(50 0)"/>
       <use xlink:href="#SimHei-32" transform="translate(100 0)"/>
       <use xlink:href="#SimHei-35" transform="translate(150 0)"/>
      </g>
     </g>
    </g>
    <g id="xtick_6">
     <g id="line2d_11">
      <path d="M 421.271555 315.4975 
L 421.271555 29.22 
" clip-path="url(#pb9f37262fc)" style="fill: none; stroke-dasharray: 2.96,1.28; stroke-dashoffset: 0; stroke: #b0b0b0; stroke-opacity: 0.3; stroke-width: 0.8"/>
     </g>
     <g id="line2d_12">
      <g>
       <use xlink:href="#m204da95039" x="421.271555" y="315.4975" style="stroke: #000000; stroke-width: 0.8"/>
      </g>
     </g>
     <g id="text_6">
      <!-- 0.50 -->
      <g transform="translate(410.271555 330.06) scale(0.11 -0.11)">
       <use xlink:href="#SimHei-30"/>
       <use xlink:href="#SimHei-2e" transform="translate(50 0)"/>
       <use xlink:href="#SimHei-35" transform="translate(100 0)"/>
       <use xlink:href="#SimHei-30" transform="translate(150 0)"/>
      </g>
     </g>
    </g>
    <g id="xtick_7">
     <g id="line2d_13">
      <path d="M 487.163018 315.4975 
L 487.163018 29.22 
" clip-path="url(#pb9f37262fc)" style="fill: none; stroke-dasharray: 2.96,1.28; stroke-dashoffset: 0; stroke: #b0b0b0; stroke-opacity: 0.3; stroke-width: 0.8"/>
     </g>
     <g id="line2d_14">
      <g>
       <use xlink:href="#m204da95039" x="487.163018" y="315.4975" style="stroke: #000000; stroke-width: 0.8"/>
      </g>
     </g>
     <g id="text_7">
      <!-- 0.75 -->
      <g transform="translate(476.163018 330.06) scale(0.11 -0.11)">
       <use xlink:href="#SimHei-30"/>
       <use xlink:href="#SimHei-2e" transform="translate(50 0)"/>
       <use xlink:href="#SimHei-37" transform="translate(100 0)"/>
       <use xlink:href="#SimHei-35" transform="translate(150 0)"/>
      </g>
     </g>
    </g>
    <g id="xtick_8">
     <g id="line2d_15">
      <path d="M 553.05448 315.4975 
L 553.05448 29.22 
" clip-path="url(#pb9f37262fc)" style="fill: none; stroke-dasharray: 2.96,1.28; stroke-dashoffset: 0; stroke: #b0b0b0; stroke-opacity: 0.3; stroke-width: 0.8"/>
     </g>
     <g id="line2d_16">
      <g>
       <use xlink:href="#m204da95039" x="553.05448" y="315.4975" style="stroke: #000000; stroke-width: 0.8"/>
      </g>
     </g>
     <g id="text_8">
      <!-- 1.00 -->
      <g transform="translate(542.05448 330.06) scale(0.11 -0.11)">
       <defs>
        <path id="SimHei-31" d="M 1400 3600 
Q 1075 3275 575 2975 
L 575 3450 
Q 1200 3875 1600 4450 
L 1900 4450 
L 1900 150 
L 1400 150 
L 1400 3600 
z
" transform="scale(0.015625)"/>
       </defs>
       <use xlink:href="#SimHei-31"/>
       <use xlink:href="#SimHei-2e" transform="translate(50 0)"/>
       <use xlink:href="#SimHei-30" transform="translate(100 0)"/>
       <use xlink:href="#SimHei-30" transform="translate(150 0)"/>
      </g>
     </g>
    </g>
    <g id="text_9">
     <!-- 情绪状态 E_t -->
     <g transform="translate(260.988391 346.099063) scale(0.13 -0.13)">
      <defs>
       <path id="SimHei-60c5" d="M 2775 1475 
Q 2775 2050 2750 2525 
L 5600 2525 
Q 5575 2100 5575 1725 
L 5575 -150 
Q 5575 -425 5375 -500 
Q 5175 -575 4875 -625 
Q 4850 -400 4700 -150 
Q 5050 -150 5100 -75 
Q 5150 0 5150 475 
L 3225 475 
L 3225 -625 
L 2750 -625 
Q 2775 -50 2775 375 
L 2775 1475 
z
M 2375 3250 
Q 2975 3225 3475 3225 
L 3975 3225 
L 3975 3625 
L 3500 3625 
Q 3075 3625 2625 3600 
L 2625 4025 
Q 3075 4000 3500 4000 
L 3975 4000 
L 3975 4350 
L 3450 4350 
Q 3050 4350 2475 4325 
L 2475 4750 
Q 3075 4725 3450 4725 
L 3975 4725 
Q 3975 4975 3950 5225 
L 4475 5225 
Q 4450 4975 4450 4725 
L 5125 4725 
Q 5550 4725 5925 4750 
L 5925 4325 
Q 5550 4350 5125 4350 
L 4450 4350 
L 4450 4000 
L 4925 4000 
Q 5325 4000 5750 4025 
L 5750 3600 
Q 5300 3625 4925 3625 
L 4450 3625 
L 4450 3225 
L 5175 3225 
Q 5775 3225 6150 3250 
L 6150 2825 
Q 5775 2850 5150 2850 
L 3500 2850 
Q 2850 2850 2375 2825 
L 2375 3250 
z
M 1675 5225 
Q 1650 4800 1650 4400 
L 1650 425 
Q 1650 -100 1675 -600 
L 1150 -600 
Q 1200 -100 1200 425 
L 1200 4325 
Q 1200 4825 1150 5225 
L 1675 5225 
z
M 5125 850 
L 5125 1325 
L 3225 1325 
L 3225 850 
L 5125 850 
z
M 5125 1700 
L 5125 2150 
L 3225 2150 
L 3225 1700 
L 5125 1700 
z
M 1050 3900 
Q 1000 3675 725 2275 
Q 500 2350 250 2375 
Q 425 2750 575 3975 
Q 800 3925 1050 3900 
z
M 1975 3125 
Q 1925 3425 1775 3975 
Q 1950 4000 2200 4075 
Q 2350 3550 2450 3275 
Q 2175 3200 1975 3125 
z
" transform="scale(0.015625)"/>
       <path id="SimHei-7eea" d="M 3700 4375 
Q 3700 4700 3675 5175 
L 4175 5175 
Q 4150 4775 4150 4375 
Q 4350 4375 4750 4400 
L 4750 3975 
Q 4375 4000 4150 4000 
L 4150 3200 
L 4325 3200 
Q 4625 3575 4900 4000 
Q 5175 4425 5350 4825 
Q 5600 4625 5925 4500 
Q 5675 4250 5387 3850 
Q 5100 3450 4900 3200 
L 5275 3200 
Q 5725 3200 6200 3225 
L 6200 2800 
Q 5750 2825 5275 2825 
L 4625 2825 
Q 4325 2525 4075 2200 
L 5625 2200 
Q 5600 1825 5600 1175 
L 5600 400 
Q 5600 125 5625 -475 
L 5150 -475 
L 5150 -200 
L 3450 -200 
L 3450 -600 
L 2975 -600 
Q 3000 -50 3000 425 
L 3000 1275 
Q 2850 1150 2525 850 
Q 2375 1025 2175 1200 
Q 2750 1625 3000 1850 
Q 3000 2000 2975 2200 
L 3425 2200 
Q 3750 2475 4025 2825 
L 3475 2825 
Q 2925 2825 2475 2800 
L 2475 3225 
Q 2925 3200 3475 3200 
L 3700 3200 
L 3700 4000 
Q 3175 4000 2825 3975 
L 2825 4400 
Q 3250 4375 3700 4375 
z
M 1950 4850 
Q 1725 4600 1487 4125 
Q 1250 3650 950 3125 
L 1700 3125 
Q 1950 3525 2125 4050 
Q 2350 3925 2700 3850 
Q 2575 3725 2250 3212 
Q 1925 2700 1250 1650 
Q 1900 1725 2400 1775 
Q 2325 1525 2300 1300 
Q 1925 1300 1500 1262 
Q 1075 1225 650 1100 
Q 600 1325 525 1600 
Q 700 1650 975 1975 
Q 1250 2300 1500 2750 
Q 900 2750 450 2600 
Q 375 2850 250 3150 
Q 525 3300 825 3875 
Q 1125 4450 1325 5075 
Q 1600 4950 1950 4850 
z
M 5150 1200 
L 5150 1825 
L 3500 1825 
L 3500 1200 
L 5150 1200 
z
M 2475 675 
Q 2425 425 2450 225 
Q 2075 175 1537 50 
Q 1000 -75 475 -250 
Q 375 75 225 300 
Q 900 375 1312 450 
Q 1725 525 2475 675 
z
M 5150 250 
L 5150 775 
L 3500 775 
L 3500 250 
L 5150 250 
z
" transform="scale(0.015625)"/>
       <path id="SimHei-72b6" d="M 2225 -275 
Q 2675 25 2975 475 
Q 3275 925 3450 1350 
Q 3625 1775 3700 2175 
Q 3775 2575 3800 2875 
L 3225 2875 
Q 2850 2875 2500 2850 
L 2500 3325 
Q 2850 3300 3200 3300 
L 3825 3300 
Q 3825 3975 3812 4375 
Q 3800 4775 3775 5075 
L 4425 5075 
Q 4350 4750 4337 4412 
Q 4325 4075 4325 3300 
L 5350 3300 
Q 5625 3300 5975 3325 
L 5975 2850 
Q 5625 2875 5350 2875 
L 4375 2875 
Q 4675 1450 5012 962 
Q 5350 475 5625 262 
Q 5900 50 6125 -75 
Q 5775 -225 5625 -525 
Q 5225 -200 4987 112 
Q 4750 425 4587 725 
Q 4425 1025 4312 1337 
Q 4200 1650 4125 2000 
Q 4000 1400 3812 975 
Q 3625 550 3425 237 
Q 3225 -75 2750 -625 
Q 2525 -400 2225 -275 
z
M 2225 5200 
Q 2200 4825 2200 4250 
L 2200 775 
Q 2200 50 2225 -625 
L 1675 -625 
Q 1700 75 1700 775 
L 1700 1950 
Q 1525 1750 1200 1350 
Q 875 950 700 750 
Q 500 1000 275 1150 
Q 575 1375 912 1712 
Q 1250 2050 1700 2600 
L 1700 4250 
Q 1700 4825 1675 5200 
L 2225 5200 
z
M 625 4325 
Q 800 4125 1000 3875 
Q 1200 3625 1375 3375 
Q 1175 3225 1050 3075 
Q 850 3350 250 4050 
Q 400 4175 625 4325 
z
M 5475 3650 
Q 5250 3975 4700 4475 
Q 4900 4625 5025 4750 
Q 5250 4575 5425 4387 
Q 5600 4200 5825 3975 
Q 5625 3800 5475 3650 
z
" transform="scale(0.015625)"/>
       <path id="SimHei-6001" d="M 2575 4325 
Q 2700 4800 2725 5250 
Q 3075 5125 3350 5100 
Q 3225 4875 3100 4325 
L 5025 4325 
Q 5375 4325 5825 4375 
L 5825 3850 
Q 5350 3875 5000 3875 
L 3975 3875 
Q 4225 3300 4575 2987 
Q 4925 2675 5250 2525 
Q 5575 2375 6100 2275 
Q 5800 2075 5675 1775 
Q 4900 2100 4525 2412 
Q 4150 2725 3900 3075 
Q 3650 3425 3500 3875 
L 2975 3875 
Q 2675 3200 2187 2687 
Q 1700 2175 725 1625 
Q 650 1850 300 2075 
Q 900 2275 1512 2750 
Q 2125 3225 2425 3875 
L 1300 3875 
Q 900 3875 450 3850 
L 450 4375 
Q 875 4325 1300 4325 
L 2575 4325 
z
M 2525 1350 
Q 2500 875 2500 575 
Q 2500 300 2512 150 
Q 2525 0 2800 0 
L 3825 0 
Q 4025 -25 4175 62 
Q 4325 150 4400 625 
Q 4650 450 4975 375 
Q 4775 -150 4625 -312 
Q 4475 -475 4000 -450 
L 2500 -450 
Q 2050 -400 2012 -162 
Q 1975 75 1975 425 
Q 1975 800 1950 1350 
L 2525 1350 
z
M 1425 1175 
Q 1175 450 825 -325 
Q 625 -175 325 -125 
Q 775 625 875 1375 
Q 1175 1250 1425 1175 
z
M 5175 1525 
Q 5600 950 6050 350 
Q 5800 175 5600 0 
Q 5225 700 4750 1250 
Q 5000 1350 5175 1525 
z
M 2700 3050 
Q 3175 2675 3500 2325 
Q 3275 2175 3100 1975 
Q 2825 2350 2350 2700 
L 2700 3050 
z
M 3375 1750 
Q 3625 1350 3825 925 
Q 3625 800 3375 675 
Q 3200 1175 2950 1525 
Q 3175 1600 3375 1750 
z
" transform="scale(0.015625)"/>
       <path id="SimHei-20" transform="scale(0.015625)"/>
       <path id="SimHei-45" d="M 2900 125 
L 350 125 
L 350 4400 
L 2775 4400 
L 2775 3925 
L 925 3925 
L 925 2600 
L 2625 2600 
L 2625 2125 
L 925 2125 
L 925 600 
L 2900 600 
L 2900 125 
z
" transform="scale(0.015625)"/>
       <path id="SimHei-5f" d="M 3150 -850 
L 0 -850 
L 0 -550 
L 3150 -550 
L 3150 -850 
z
" transform="scale(0.015625)"/>
       <path id="SimHei-74" d="M 2750 200 
Q 2625 150 2462 112 
Q 2300 75 2025 75 
Q 1575 75 1300 325 
Q 1025 575 1025 1025 
L 1025 2525 
L 175 2525 
L 175 2925 
L 1025 2925 
L 1025 3900 
L 1525 3900 
L 1525 2925 
L 2550 2925 
L 2550 2525 
L 1525 2525 
L 1525 1000 
Q 1525 800 1625 662 
Q 1725 525 2000 525 
Q 2275 525 2450 575 
Q 2625 625 2750 700 
L 2750 200 
z
" transform="scale(0.015625)"/>
      </defs>
      <use xlink:href="#SimHei-60c5"/>
      <use xlink:href="#SimHei-7eea" transform="translate(100 0)"/>
      <use xlink:href="#SimHei-72b6" transform="translate(200 0)"/>
      <use xlink:href="#SimHei-6001" transform="translate(300 0)"/>
      <use xlink:href="#SimHei-20" transform="translate(400 0)"/>
      <use xlink:href="#SimHei-45" transform="translate(450 0)"/>
      <use xlink:href="#SimHei-5f" transform="translate(500 0)"/>
      <use xlink:href="#SimHei-74" transform="translate(550 0)"/>
     </g>
    </g>
   </g>
   <g id="matplotlib.axis_2">
    <g id="ytick_1">
     <g id="line2d_17">
      <path d="M 46.2125 315.4975 
L 553.764281 315.4975 
" clip-path="url(#pb9f37262fc)" style="fill: none; stroke-dasharray: 2.96,1.28; stroke-dashoffset: 0; stroke: #b0b0b0; stroke-opacity: 0.3; stroke-width: 0.8"/>
     </g>
     <g id="line2d_18">
      <defs>
       <path id="m61081a0a7b" d="M 0 0 
L -3.5 0 
" style="stroke: #000000; stroke-width: 0.8"/>
      </defs>
      <g>
       <use xlink:href="#m61081a0a7b" x="46.2125" y="315.4975" style="stroke: #000000; stroke-width: 0.8"/>
      </g>
     </g>
     <g id="text_10">
      <!-- 0 -->
      <g transform="translate(33.7125 319.27875) scale(0.11 -0.11)">
       <use xlink:href="#SimHei-30"/>
      </g>
     </g>
    </g>
    <g id="ytick_2">
     <g id="line2d_19">
      <path d="M 46.2125 261.722657 
L 553.764281 261.722657 
" clip-path="url(#pb9f37262fc)" style="fill: none; stroke-dasharray: 2.96,1.28; stroke-dashoffset: 0; stroke: #b0b0b0; stroke-opacity: 0.3; stroke-width: 0.8"/>
     </g>
     <g id="line2d_20">
      <g>
       <use xlink:href="#m61081a0a7b" x="46.2125" y="261.722657" style="stroke: #000000; stroke-width: 0.8"/>
      </g>
     </g>
     <g id="text_11">
      <!-- 5 -->
      <g transform="translate(33.7125 265.503907) scale(0.11 -0.11)">
       <use xlink:href="#SimHei-35"/>
      </g>
     </g>
    </g>
    <g id="ytick_3">
     <g id="line2d_21">
      <path d="M 46.2125 207.947813 
L 553.764281 207.947813 
" clip-path="url(#pb9f37262fc)" style="fill: none; stroke-dasharray: 2.96,1.28; stroke-dashoffset: 0; stroke: #b0b0b0; stroke-opacity: 0.3; stroke-width: 0.8"/>
     </g>
     <g id="line2d_22">
      <g>
       <use xlink:href="#m61081a0a7b" x="46.2125" y="207.947813" style="stroke: #000000; stroke-width: 0.8"/>
      </g>
     </g>
     <g id="text_12">
      <!-- 10 -->
      <g transform="translate(28.2125 211.729063) scale(0.11 -0.11)">
       <use xlink:href="#SimHei-31"/>
       <use xlink:href="#SimHei-30" transform="translate(50 0)"/>
      </g>
     </g>
    </g>
    <g id="ytick_4">
     <g id="line2d_23">
      <path d="M 46.2125 154.17297 
L 553.764281 154.17297 
" clip-path="url(#pb9f37262fc)" style="fill: none; stroke-dasharray: 2.96,1.28; stroke-dashoffset: 0; stroke: #b0b0b0; stroke-opacity: 0.3; stroke-width: 0.8"/>
     </g>
     <g id="line2d_24">
      <g>
       <use xlink:href="#m61081a0a7b" x="46.2125" y="154.17297" style="stroke: #000000; stroke-width: 0.8"/>
      </g>
     </g>
     <g id="text_13">
      <!-- 15 -->
      <g transform="translate(28.2125 157.95422) scale(0.11 -0.11)">
       <use xlink:href="#SimHei-31"/>
       <use xlink:href="#SimHei-35" transform="translate(50 0)"/>
      </g>
     </g>
    </g>
    <g id="ytick_5">
     <g id="line2d_25">
      <path d="M 46.2125 100.398127 
L 553.764281 100.398127 
" clip-path="url(#pb9f37262fc)" style="fill: none; stroke-dasharray: 2.96,1.28; stroke-dashoffset: 0; stroke: #b0b0b0; stroke-opacity: 0.3; stroke-width: 0.8"/>
     </g>
     <g id="line2d_26">
      <g>
       <use xlink:href="#m61081a0a7b" x="46.2125" y="100.398127" style="stroke: #000000; stroke-width: 0.8"/>
      </g>
     </g>
     <g id="text_14">
      <!-- 20 -->
      <g transform="translate(28.2125 104.179377) scale(0.11 -0.11)">
       <use xlink:href="#SimHei-32"/>
       <use xlink:href="#SimHei-30" transform="translate(50 0)"/>
      </g>
     </g>
    </g>
    <g id="ytick_6">
     <g id="line2d_27">
      <path d="M 46.2125 46.623284 
L 553.764281 46.623284 
" clip-path="url(#pb9f37262fc)" style="fill: none; stroke-dasharray: 2.96,1.28; stroke-dashoffset: 0; stroke: #b0b0b0; stroke-opacity: 0.3; stroke-width: 0.8"/>
     </g>
     <g id="line2d_28">
      <g>
       <use xlink:href="#m61081a0a7b" x="46.2125" y="46.623284" style="stroke: #000000; stroke-width: 0.8"/>
      </g>
     </g>
     <g id="text_15">
      <!-- 25 -->
      <g transform="translate(28.2125 50.404534) scale(0.11 -0.11)">
       <use xlink:href="#SimHei-32"/>
       <use xlink:href="#SimHei-35" transform="translate(50 0)"/>
      </g>
     </g>
    </g>
    <g id="text_16">
     <!-- 密度 -->
     <g transform="translate(22.5875 185.35875) rotate(-90) scale(0.13 -0.13)">
      <defs>
       <path id="SimHei-5bc6" d="M 4825 3350 
Q 4475 3125 3962 2750 
Q 3450 2375 2775 2025 
L 4025 2025 
Q 4550 2025 4550 2600 
Q 4800 2450 5150 2325 
Q 4900 1775 4712 1687 
Q 4525 1600 4200 1600 
L 2875 1600 
Q 2225 1575 2175 1675 
Q 1125 1325 575 1175 
Q 475 1425 250 1675 
Q 850 1725 1262 1850 
Q 1675 1975 2000 2100 
L 2000 2750 
Q 2000 3000 1975 3400 
L 2550 3400 
Q 2525 3025 2525 2775 
L 2525 2350 
Q 2900 2525 3425 2887 
Q 3950 3250 4325 3775 
Q 4475 3625 4825 3350 
z
M 1225 550 
Q 1225 825 1200 1125 
L 1750 1125 
Q 1725 775 1725 525 
L 1725 0 
L 3075 0 
L 3075 700 
Q 3075 950 3025 1375 
L 3600 1375 
Q 3575 1100 3575 675 
L 3575 0 
L 4975 0 
L 4975 625 
Q 4975 875 4950 1200 
L 5500 1200 
Q 5475 900 5475 600 
L 5475 -225 
Q 5475 -425 5500 -700 
L 4975 -700 
L 4975 -400 
L 1200 -400 
Q 1225 -150 1225 75 
L 1225 550 
z
M 5375 3575 
L 5375 4150 
L 1150 4150 
L 1150 3550 
L 600 3550 
Q 625 3700 625 4000 
Q 625 4300 600 4575 
L 2975 4575 
Q 2900 4800 2775 5050 
Q 3000 5125 3325 5225 
Q 3425 5075 3575 4575 
L 5925 4575 
Q 5900 4250 5900 4025 
Q 5900 3825 5925 3575 
L 5375 3575 
z
M 1650 3275 
Q 1500 2850 1225 2250 
Q 900 2350 675 2400 
Q 950 2800 1100 3400 
Q 1350 3325 1650 3275 
z
M 5450 3325 
Q 5775 2925 6100 2450 
Q 5825 2350 5625 2200 
Q 5350 2675 5000 3050 
Q 5200 3175 5450 3325 
z
M 3225 3150 
Q 2875 3600 2575 3825 
Q 2775 3950 2975 4125 
Q 3175 3975 3650 3475 
Q 3450 3300 3225 3150 
z
" transform="scale(0.015625)"/>
       <path id="SimHei-5ea6" d="M 1750 1675 
Q 2450 1650 2875 1650 
L 5200 1650 
Q 4975 1250 4650 850 
Q 4325 450 4025 200 
Q 4350 50 4950 -50 
Q 5550 -150 6100 -150 
Q 5950 -300 5825 -650 
Q 5100 -550 4550 -412 
Q 4000 -275 3625 -100 
Q 3100 -325 2587 -462 
Q 2075 -600 1525 -675 
Q 1450 -475 1225 -250 
Q 1675 -250 2250 -125 
Q 2825 0 3250 200 
Q 2825 550 2400 1275 
L 1750 1250 
L 1750 1675 
z
M 2975 5075 
Q 3250 5150 3475 5250 
Q 3625 4975 3775 4525 
L 4700 4525 
Q 4975 4525 5700 4550 
L 5700 4100 
Q 5000 4125 4650 4125 
L 1375 4125 
Q 1375 3000 1350 2312 
Q 1325 1625 1212 950 
Q 1100 275 725 -525 
Q 500 -375 250 -300 
Q 650 400 762 1075 
Q 875 1750 887 2800 
Q 900 3850 875 4525 
L 3200 4525 
Q 3100 4850 2975 5075 
z
M 2475 3300 
Q 2475 3700 2450 3925 
L 2975 3925 
Q 2950 3725 2950 3300 
L 4300 3300 
Q 4300 3700 4275 3950 
L 4800 3950 
Q 4775 3650 4775 3300 
Q 5325 3300 5725 3325 
L 5725 2900 
Q 5350 2925 4775 2925 
Q 4775 2250 4800 1950 
L 2450 1950 
Q 2475 2350 2475 2925 
Q 2175 2925 1600 2900 
L 1600 3325 
Q 2175 3300 2475 3300 
z
M 4300 2350 
L 4300 2925 
L 2950 2925 
L 2950 2350 
L 4300 2350 
z
M 2875 1275 
Q 3200 775 3650 425 
Q 4025 700 4425 1275 
L 2900 1275 
L 2875 1275 
z
" transform="scale(0.015625)"/>
      </defs>
      <use xlink:href="#SimHei-5bc6"/>
      <use xlink:href="#SimHei-5ea6" transform="translate(100 0)"/>
     </g>
    </g>
   </g>
   <g id="line2d_29">
    <path d="M 289.488629 315.4975 
L 289.488629 29.22 
" clip-path="url(#pb9f37262fc)" style="fill: none; stroke: #808080; stroke-opacity: 0.5; stroke-linecap: square"/>
   </g>
   <g id="line2d_30">
    <path d="M 84.412964 315.4975 
L 84.412964 29.22 
" clip-path="url(#pb9f37262fc)" style="fill: none; stroke-dasharray: 5.55,2.4; stroke-dashoffset: 0; stroke: #ff0000; stroke-width: 1.5"/>
   </g>
   <g id="patch_53">
    <path d="M 46.2125 315.4975 
L 46.2125 29.22 
" style="fill: none; stroke: #000000; stroke-width: 0.8; stroke-linejoin: miter; stroke-linecap: square"/>
   </g>
   <g id="patch_54">
    <path d="M 553.764281 315.4975 
L 553.764281 29.22 
" style="fill: none; stroke: #000000; stroke-width: 0.8; stroke-linejoin: miter; stroke-linecap: square"/>
   </g>
   <g id="patch_55">
    <path d="M 46.2125 315.4975 
L 553.764281 315.4975 
" style="fill: none; stroke: #000000; stroke-width: 0.8; stroke-linejoin: miter; stroke-linecap: square"/>
   </g>
   <g id="patch_56">
    <path d="M 46.2125 29.22 
L 553.764281 29.22 
" style="fill: none; stroke: #000000; stroke-width: 0.8; stroke-linejoin: miter; stroke-linecap: square"/>
   </g>
   <g id="text_17">
    <!-- Exp_1b分销商情绪状态分布 -->
    <g transform="translate(215.988391 23.22) scale(0.14 -0.14)">
     <defs>
      <path id="SimHei-78" d="M 2875 125 
L 2275 125 
L 1550 1200 
L 825 125 
L 225 125 
L 1250 1550 
L 300 2925 
L 900 2925 
L 1550 1875 
L 2200 2925 
L 2800 2925 
L 1850 1550 
L 2875 125 
z
" transform="scale(0.015625)"/>
      <path id="SimHei-70" d="M 2825 1525 
Q 2825 800 2475 425 
Q 2125 50 1625 50 
Q 1350 50 1150 162 
Q 950 275 800 500 
L 800 -800 
L 300 -800 
L 300 2925 
L 800 2925 
L 800 2550 
Q 950 2775 1150 2875 
Q 1350 2975 1625 2975 
Q 2125 2975 2475 2612 
Q 2825 2250 2825 1525 
z
M 2275 1525 
Q 2275 2000 2087 2262 
Q 1900 2525 1525 2525 
Q 1225 2525 1012 2262 
Q 800 2000 800 1525 
Q 800 1050 1012 775 
Q 1225 500 1525 500 
Q 1900 500 2087 775 
Q 2275 1050 2275 1525 
z
" transform="scale(0.015625)"/>
      <path id="SimHei-62" d="M 2825 1525 
Q 2825 800 2475 437 
Q 2125 75 1625 75 
Q 1350 75 1150 175 
Q 950 275 800 500 
L 800 125 
L 300 125 
L 300 4400 
L 800 4400 
L 800 2550 
Q 950 2775 1150 2887 
Q 1350 3000 1625 3000 
Q 2125 3000 2475 2625 
Q 2825 2250 2825 1525 
z
M 2275 1525 
Q 2275 2000 2087 2275 
Q 1900 2550 1525 2550 
Q 1225 2550 1012 2275 
Q 800 2000 800 1525 
Q 800 1050 1012 787 
Q 1225 525 1525 525 
Q 1900 525 2087 787 
Q 2275 1050 2275 1525 
z
" transform="scale(0.015625)"/>
      <path id="SimHei-5206" d="M 1000 -650 
Q 825 -375 575 -225 
Q 975 -75 1300 137 
Q 1625 350 1875 662 
Q 2125 975 2250 1350 
Q 2375 1725 2425 2275 
Q 1850 2275 1500 2250 
L 1500 2775 
Q 1900 2750 2525 2750 
L 5025 2750 
Q 4975 2375 4950 2100 
L 4750 250 
Q 4700 -200 4350 -350 
Q 4000 -500 3575 -525 
Q 3550 -275 3325 50 
Q 3850 25 4037 87 
Q 4225 150 4275 525 
L 4450 2275 
L 2950 2275 
Q 2875 1625 2737 1187 
Q 2600 750 2350 425 
Q 2100 100 1750 -175 
Q 1400 -450 1000 -650 
z
M 3950 5175 
Q 4125 4650 4662 3975 
Q 5200 3300 6175 2800 
Q 5975 2625 5775 2275 
Q 5325 2600 4987 2887 
Q 4650 3175 4425 3425 
Q 4200 3675 3925 4137 
Q 3650 4600 3475 5000 
Q 3750 5075 3950 5175 
z
M 2700 4825 
Q 2475 4425 2325 4125 
Q 2175 3825 2025 3587 
Q 1875 3350 1575 2950 
Q 1275 2550 850 2125 
Q 625 2350 400 2475 
Q 900 2925 1187 3300 
Q 1475 3675 1737 4112 
Q 2000 4550 2200 5075 
Q 2400 4925 2700 4825 
z
" transform="scale(0.015625)"/>
      <path id="SimHei-9500" d="M 4175 4325 
Q 4175 4700 4150 5125 
L 4650 5125 
Q 4625 4850 4625 4325 
L 4625 3225 
L 5825 3225 
Q 5800 2850 5800 2225 
L 5800 50 
Q 5800 -300 5562 -375 
Q 5325 -450 4925 -525 
Q 4875 -275 4700 -25 
Q 5275 0 5300 112 
Q 5325 225 5325 825 
L 3575 825 
L 3575 -450 
L 3100 -450 
Q 3125 75 3125 400 
L 3125 2175 
Q 3125 2800 3100 3225 
L 4175 3225 
L 4175 4325 
z
M 2350 2700 
Q 2025 2725 1700 2725 
L 1700 1975 
Q 2125 1975 2600 2000 
L 2600 1550 
Q 2125 1575 1700 1575 
L 1700 425 
Q 1925 575 2250 925 
Q 2325 700 2500 475 
Q 2250 300 1975 87 
Q 1700 -125 1400 -450 
Q 1275 -225 1075 -50 
Q 1225 100 1250 400 
L 1250 1575 
Q 950 1575 525 1550 
L 525 2000 
Q 950 1975 1250 1975 
L 1250 2725 
Q 950 2725 750 2700 
L 750 3150 
Q 1075 3125 1500 3125 
Q 1950 3125 2350 3150 
L 2350 2700 
z
M 625 3075 
Q 450 3275 225 3375 
Q 600 3750 875 4200 
Q 1150 4650 1325 5125 
Q 1675 4925 1875 4850 
Q 1550 4400 1450 4200 
Q 2075 4200 2500 4225 
L 2500 3750 
Q 2075 3775 1200 3775 
Q 825 3275 625 3075 
z
M 5325 2200 
L 5325 2850 
L 3575 2850 
L 3575 2200 
L 5325 2200 
z
M 5325 1200 
L 5325 1825 
L 3575 1825 
L 3575 1200 
L 5325 1200 
z
M 6050 4550 
Q 5850 4300 5450 3525 
Q 5225 3650 4975 3725 
Q 5250 4050 5525 4775 
Q 5725 4650 6050 4550 
z
M 3200 4775 
Q 3600 4150 3800 3800 
Q 3575 3700 3350 3550 
Q 3175 3950 2775 4525 
Q 3025 4625 3200 4775 
z
" transform="scale(0.015625)"/>
      <path id="SimHei-5546" d="M 3150 5225 
Q 3475 4725 3550 4525 
L 4975 4525 
Q 5475 4525 5975 4550 
L 5975 4100 
Q 5475 4125 4975 4125 
L 2100 4125 
Q 2575 3625 2675 3475 
Q 2500 3400 2300 3250 
L 3650 3250 
Q 3800 3650 3950 4100 
Q 4200 4000 4525 3925 
Q 4350 3700 4125 3250 
L 5525 3250 
Q 5500 2950 5500 2425 
L 5500 -50 
Q 5500 -350 5225 -475 
Q 4950 -600 4475 -675 
Q 4450 -375 4275 -125 
Q 4775 -150 4900 -75 
Q 5025 0 5025 175 
L 5025 2900 
L 1375 2900 
L 1375 -600 
L 875 -600 
Q 900 50 900 325 
L 900 2475 
Q 900 2725 875 3250 
L 2250 3250 
Q 2075 3550 1675 3875 
Q 1875 3975 2050 4125 
L 1475 4125 
Q 900 4125 475 4100 
L 475 4550 
Q 900 4525 1450 4525 
L 3000 4525 
Q 2925 4775 2675 5050 
Q 2925 5125 3150 5225 
z
M 2600 2650 
Q 2850 2475 3075 2350 
Q 2825 2225 2350 1675 
L 4250 1675 
Q 4225 1350 4225 975 
Q 4225 600 4250 225 
L 2300 225 
Q 2325 600 2325 950 
Q 2325 1325 2300 1625 
Q 2125 1475 1950 1350 
Q 1825 1525 1575 1625 
Q 2350 2225 2600 2650 
z
M 3750 600 
L 3750 1300 
L 2775 1300 
L 2775 600 
L 3750 600 
z
M 3775 2675 
Q 4475 2225 4900 1850 
Q 4675 1725 4525 1525 
Q 4275 1825 3475 2350 
Q 3650 2475 3775 2675 
z
" transform="scale(0.015625)"/>
      <path id="SimHei-5e03" d="M 2375 4225 
Q 2650 4775 2775 5300 
Q 3125 5175 3400 5075 
Q 3275 4975 2950 4225 
L 4800 4225 
Q 5550 4225 6025 4250 
L 6025 3800 
L 2725 3800 
Q 2325 3100 1975 2675 
L 3275 2675 
Q 3275 3225 3250 3575 
L 3775 3575 
Q 3750 3225 3750 2675 
L 5500 2675 
Q 5475 2225 5475 1775 
L 5475 750 
Q 5475 275 5212 150 
Q 4950 25 4450 -25 
Q 4400 325 4225 550 
Q 4800 550 4912 625 
Q 5025 700 5000 1025 
L 5000 2250 
L 3750 2250 
L 3750 550 
Q 3750 25 3775 -600 
L 3250 -600 
Q 3275 25 3275 550 
L 3275 2250 
L 2100 2250 
L 2100 0 
L 1600 0 
Q 1625 525 1625 1025 
L 1625 2225 
Q 1300 1850 650 1275 
Q 475 1475 200 1650 
Q 750 2025 1262 2562 
Q 1775 3100 2150 3800 
L 1550 3800 
Q 925 3800 400 3775 
L 400 4250 
Q 925 4225 1550 4225 
L 2375 4225 
z
" transform="scale(0.015625)"/>
     </defs>
     <use xlink:href="#SimHei-45"/>
     <use xlink:href="#SimHei-78" transform="translate(50 0)"/>
     <use xlink:href="#SimHei-70" transform="translate(100 0)"/>
     <use xlink:href="#SimHei-5f" transform="translate(150 0)"/>
     <use xlink:href="#SimHei-31" transform="translate(200 0)"/>
     <use xlink:href="#SimHei-62" transform="translate(250 0)"/>
     <use xlink:href="#SimHei-5206" transform="translate(300 0)"/>
     <use xlink:href="#SimHei-9500" transform="translate(400 0)"/>
     <use xlink:href="#SimHei-5546" transform="translate(500 0)"/>
     <use xlink:href="#SimHei-60c5" transform="translate(600 0)"/>
     <use xlink:href="#SimHei-7eea" transform="translate(700 0)"/>
     <use xlink:href="#SimHei-72b6" transform="translate(800 0)"/>
     <use xlink:href="#SimHei-6001" transform="translate(900 0)"/>
     <use xlink:href="#SimHei-5206" transform="translate(1000 0)"/>
     <use xlink:href="#SimHei-5e03" transform="translate(1100 0)"/>
    </g>
   </g>
   <g id="legend_1">
    <g id="patch_57">
     <path d="M 450.364281 53.48875 
L 546.064281 53.48875 
Q 548.264281 53.48875 548.264281 51.28875 
L 548.264281 36.92 
Q 548.264281 34.72 546.064281 34.72 
L 450.364281 34.72 
Q 448.164281 34.72 448.164281 36.92 
L 448.164281 51.28875 
Q 448.164281 53.48875 450.364281 53.48875 
z
" style="fill: #ffffff; opacity: 0.8; stroke: #cccccc; stroke-linejoin: miter"/>
    </g>
    <g id="line2d_31">
     <path d="M 452.564281 43.86375 
L 463.564281 43.86375 
L 474.564281 43.86375 
" style="fill: none; stroke-dasharray: 5.55,2.4; stroke-dashoffset: 0; stroke: #ff0000; stroke-width: 1.5"/>
    </g>
    <g id="text_18">
     <!-- 均值=-0.778 -->
     <g transform="translate(483.364281 47.71375) scale(0.11 -0.11)">
      <defs>
       <path id="SimHei-5747" d="M 5775 275 
Q 5775 -325 5362 -450 
Q 4950 -575 4425 -600 
Q 4375 -275 4250 25 
Q 4950 -25 5125 62 
Q 5300 150 5300 500 
L 5375 3700 
L 3550 3700 
Q 3425 3375 3262 3037 
Q 3100 2700 2925 2400 
Q 2675 2550 2475 2625 
Q 3150 3625 3500 5200 
Q 3800 5100 4075 5025 
Q 3975 4875 3875 4650 
Q 3775 4425 3675 4125 
L 5900 4125 
L 5775 275 
z
M 1250 3625 
L 1250 4375 
Q 1250 4775 1225 5100 
L 1775 5100 
Q 1750 4725 1750 4375 
L 1750 3625 
L 1900 3625 
Q 2200 3625 2525 3650 
L 2525 3150 
Q 2200 3175 1900 3175 
L 1750 3175 
L 1750 1100 
L 2500 1375 
Q 2475 1125 2525 900 
Q 1225 475 962 362 
Q 700 250 475 150 
Q 375 475 250 750 
Q 575 800 800 850 
Q 1025 900 1250 975 
L 1250 3175 
L 1125 3175 
Q 850 3175 400 3150 
L 400 3650 
Q 850 3625 1100 3625 
L 1250 3625 
z
M 4950 1625 
Q 4675 1425 4137 1050 
Q 3600 675 3175 300 
Q 3000 575 2850 775 
Q 3350 1050 3762 1325 
Q 4175 1600 4775 2075 
Q 4825 1850 4950 1625 
z
M 3775 3150 
Q 4125 2800 4475 2300 
Q 4250 2125 4100 1975 
Q 3900 2325 3450 2825 
Q 3600 3000 3775 3150 
z
" transform="scale(0.015625)"/>
       <path id="SimHei-503c" d="M 3675 4450 
L 3675 5100 
Q 3975 5075 4350 5050 
Q 4225 4875 4200 4450 
L 5125 4450 
Q 5550 4450 5875 4475 
L 5875 4025 
Q 5525 4050 5125 4050 
L 4175 4050 
L 4125 3500 
L 5400 3500 
Q 5375 3200 5375 2700 
L 5375 150 
Q 5875 150 6100 175 
L 6100 -275 
Q 5775 -250 5200 -250 
L 2850 -250 
Q 2275 -250 1900 -275 
L 1900 175 
Q 2125 150 2600 150 
L 2600 2700 
Q 2600 3175 2575 3500 
L 3600 3500 
L 3650 4050 
L 3200 4050 
Q 2575 4050 2225 4025 
L 2225 4475 
Q 2550 4450 3200 4450 
L 3675 4450 
z
M 2225 4900 
Q 2025 4675 1650 3750 
L 1650 450 
Q 1650 -75 1675 -550 
L 1150 -550 
Q 1175 -125 1175 375 
L 1175 2950 
Q 875 2450 625 2150 
Q 425 2425 250 2575 
Q 500 2825 937 3537 
Q 1375 4250 1625 5150 
Q 1975 4975 2225 4900 
z
M 4925 2650 
L 4925 3150 
L 3075 3150 
L 3075 2650 
L 4925 2650 
z
M 4925 150 
L 4925 625 
L 3075 625 
L 3075 150 
L 4925 150 
z
M 4925 1000 
L 4925 1450 
L 3075 1450 
L 3075 1000 
L 4925 1000 
z
M 4925 1825 
L 4925 2275 
L 3075 2275 
L 3075 1825 
L 4925 1825 
z
" transform="scale(0.015625)"/>
       <path id="SimHei-3d" d="M 2975 2900 
L 125 2900 
L 125 3300 
L 2975 3300 
L 2975 2900 
z
M 2975 1375 
L 125 1375 
L 125 1775 
L 2975 1775 
L 2975 1375 
z
" transform="scale(0.015625)"/>
       <path id="SimHei-38" d="M 175 1375 
Q 175 1675 325 1962 
Q 475 2250 825 2425 
Q 525 2600 425 2812 
Q 325 3025 312 3300 
Q 300 3575 387 3775 
Q 475 3975 650 4150 
Q 825 4325 1037 4387 
Q 1250 4450 1500 4450 
Q 1750 4450 1950 4400 
Q 2150 4350 2375 4187 
Q 2600 4025 2700 3725 
Q 2800 3425 2687 3025 
Q 2575 2625 2100 2400 
Q 2525 2275 2700 2012 
Q 2875 1750 2875 1375 
Q 2875 1000 2762 775 
Q 2650 550 2512 400 
Q 2375 250 2137 162 
Q 1900 75 1537 75 
Q 1175 75 912 162 
Q 650 250 475 425 
Q 300 600 237 837 
Q 175 1075 175 1375 
z
M 687 1400 
Q 675 1100 787 875 
Q 900 650 1200 587 
Q 1500 525 1825 600 
Q 2150 675 2275 950 
Q 2400 1225 2362 1500 
Q 2325 1775 2050 1962 
Q 1775 2150 1450 2125 
Q 1125 2100 912 1900 
Q 700 1700 687 1400 
z
M 775 3350 
Q 775 3100 950 2875 
Q 1125 2650 1500 2650 
Q 1875 2650 2062 2875 
Q 2250 3100 2237 3412 
Q 2225 3725 2012 3875 
Q 1800 4025 1437 4000 
Q 1075 3975 925 3787 
Q 775 3600 775 3350 
z
" transform="scale(0.015625)"/>
      </defs>
      <use xlink:href="#SimHei-5747"/>
      <use xlink:href="#SimHei-503c" transform="translate(100 0)"/>
      <use xlink:href="#SimHei-3d" transform="translate(200 0)"/>
      <use xlink:href="#SimHei-2d" transform="translate(250 0)"/>
      <use xlink:href="#SimHei-30" transform="translate(300 0)"/>
      <use xlink:href="#SimHei-2e" transform="translate(350 0)"/>
      <use xlink:href="#SimHei-37" transform="translate(400 0)"/>
      <use xlink:href="#SimHei-37" transform="translate(450 0)"/>
      <use xlink:href="#SimHei-38" transform="translate(500 0)"/>
     </g>
    </g>
   </g>
  </g>
 </g>
 <defs>
  <clipPath id="pb9f37262fc">
   <rect x="46.2125" y="29.22" width="507.551781" height="286.2775"/>
  </clipPath>
 </defs>
</svg>
