<?xml version="1.0" encoding="utf-8" standalone="no"?>
<!DOCTYPE svg PUBLIC "-//W3C//DTD SVG 1.1//EN"
  "http://www.w3.org/Graphics/SVG/1.1/DTD/svg11.dtd">
<svg xmlns:xlink="http://www.w3.org/1999/xlink" width="1008pt" height="360pt" viewBox="0 0 1008 360" xmlns="http://www.w3.org/2000/svg" version="1.1">
 <metadata>
  <rdf:RDF xmlns:dc="http://purl.org/dc/elements/1.1/" xmlns:cc="http://creativecommons.org/ns#" xmlns:rdf="http://www.w3.org/1999/02/22-rdf-syntax-ns#">
   <cc:Work>
    <dc:type rdf:resource="http://purl.org/dc/dcmitype/StillImage"/>
    <dc:date>2026-07-09T20:03:34.074354</dc:date>
    <dc:format>image/svg+xml</dc:format>
    <dc:creator>
     <cc:Agent>
      <dc:title>Matplotlib v3.10.9, https://matplotlib.org/</dc:title>
     </cc:Agent>
    </dc:creator>
   </cc:Work>
  </rdf:RDF>
 </metadata>
 <defs>
  <style type="text/css">*{stroke-linejoin: round; stroke-linecap: butt}</style>
 </defs>
 <g id="figure_1">
  <g id="patch_1">
   <path d="M 0 360 
L 1008 360 
L 1008 0 
L 0 0 
z
" style="fill: #ffffff"/>
  </g>
  <g id="axes_1">
   <g id="patch_2">
    <path d="M 63.4025 316.5775 
L 982.395 316.5775 
L 982.395 29.04 
L 63.4025 29.04 
z
" style="fill: #ffffff"/>
   </g>
   <g id="matplotlib.axis_1">
    <g id="xtick_1">
     <g id="line2d_1">
      <path d="M 63.4025 316.5775 
L 63.4025 29.04 
" clip-path="url(#pbf186dec7d)" style="fill: none; stroke-dasharray: 2.96,1.28; stroke-dashoffset: 0; stroke: #b0b0b0; stroke-opacity: 0.3; stroke-width: 0.8"/>
     </g>
     <g id="line2d_2">
      <defs>
       <path id="mfc3cc340cb" d="M 0 0 
L 0 3.5 
" style="stroke: #000000; stroke-width: 0.8"/>
      </defs>
      <g>
       <use xlink:href="#mfc3cc340cb" x="63.4025" y="316.5775" style="stroke: #000000; stroke-width: 0.8"/>
      </g>
     </g>
     <g id="text_1">
      <!-- 0 -->
      <g transform="translate(60.6525 331.14) scale(0.11 -0.11)">
       <defs>
        <path id="SimHei-30" d="M 225 2537 
Q 250 3200 412 3587 
Q 575 3975 875 4225 
Q 1175 4475 1612 4475 
Q 2050 4475 2375 4112 
Q 2700 3750 2800 3200 
Q 2900 2650 2862 1937 
Q 2825 1225 2612 775 
Q 2400 325 1975 150 
Q 1550 -25 1125 187 
Q 700 400 525 750 
Q 350 1100 275 1487 
Q 200 1875 225 2537 
z
M 750 2687 
Q 675 2000 800 1462 
Q 925 925 1212 700 
Q 1500 475 1800 612 
Q 2100 750 2237 1162 
Q 2375 1575 2375 2062 
Q 2375 2550 2337 2950 
Q 2300 3350 2112 3675 
Q 1925 4000 1612 4012 
Q 1300 4025 1062 3700 
Q 825 3375 750 2687 
z
" transform="scale(0.015625)"/>
       </defs>
       <use xlink:href="#SimHei-30"/>
      </g>
     </g>
    </g>
    <g id="xtick_2">
     <g id="line2d_3">
      <path d="M 178.276563 316.5775 
L 178.276563 29.04 
" clip-path="url(#pbf186dec7d)" style="fill: none; stroke-dasharray: 2.96,1.28; stroke-dashoffset: 0; stroke: #b0b0b0; stroke-opacity: 0.3; stroke-width: 0.8"/>
     </g>
     <g id="line2d_4">
      <g>
       <use xlink:href="#mfc3cc340cb" x="178.276563" y="316.5775" style="stroke: #000000; stroke-width: 0.8"/>
      </g>
     </g>
     <g id="text_2">
      <!-- 2500 -->
      <g transform="translate(167.276563 331.14) scale(0.11 -0.11)">
       <defs>
        <path id="SimHei-32" d="M 300 250 
Q 325 625 650 925 
Q 975 1225 1475 1862 
Q 1975 2500 2125 2850 
Q 2275 3200 2237 3450 
Q 2200 3700 2000 3862 
Q 1800 4025 1537 4000 
Q 1275 3975 1037 3800 
Q 800 3625 675 3275 
L 200 3350 
Q 400 3925 712 4187 
Q 1025 4450 1450 4475 
Q 1700 4500 1900 4462 
Q 2100 4425 2312 4287 
Q 2525 4150 2662 3875 
Q 2800 3600 2762 3212 
Q 2725 2825 2375 2287 
Q 2025 1750 1025 600 
L 2825 600 
L 2825 150 
L 300 150 
L 300 250 
z
" transform="scale(0.015625)"/>
        <path id="SimHei-35" d="M 550 1325 
Q 725 650 1150 575 
Q 1575 500 1837 662 
Q 2100 825 2212 1087 
Q 2325 1350 2312 1675 
Q 2300 2000 2137 2225 
Q 1975 2450 1725 2525 
Q 1475 2600 1162 2525 
Q 850 2450 650 2175 
L 225 2225 
Q 275 2375 700 4375 
L 2675 4375 
L 2675 3925 
L 1075 3925 
Q 950 3250 825 2850 
Q 1200 3025 1525 3012 
Q 1850 3000 2150 2862 
Q 2450 2725 2587 2487 
Q 2725 2250 2787 2012 
Q 2850 1775 2837 1500 
Q 2825 1225 2725 937 
Q 2625 650 2425 462 
Q 2225 275 1937 162 
Q 1650 50 1275 75 
Q 900 100 562 350 
Q 225 600 100 1200 
L 550 1325 
z
" transform="scale(0.015625)"/>
       </defs>
       <use xlink:href="#SimHei-32"/>
       <use xlink:href="#SimHei-35" transform="translate(50 0)"/>
       <use xlink:href="#SimHei-30" transform="translate(100 0)"/>
       <use xlink:href="#SimHei-30" transform="translate(150 0)"/>
      </g>
     </g>
    </g>
    <g id="xtick_3">
     <g id="line2d_5">
      <path d="M 293.150625 316.5775 
L 293.150625 29.04 
" clip-path="url(#pbf186dec7d)" style="fill: none; stroke-dasharray: 2.96,1.28; stroke-dashoffset: 0; stroke: #b0b0b0; stroke-opacity: 0.3; stroke-width: 0.8"/>
     </g>
     <g id="line2d_6">
      <g>
       <use xlink:href="#mfc3cc340cb" x="293.150625" y="316.5775" style="stroke: #000000; stroke-width: 0.8"/>
      </g>
     </g>
     <g id="text_3">
      <!-- 5000 -->
      <g transform="translate(282.150625 331.14) scale(0.11 -0.11)">
       <use xlink:href="#SimHei-35"/>
       <use xlink:href="#SimHei-30" transform="translate(50 0)"/>
       <use xlink:href="#SimHei-30" transform="translate(100 0)"/>
       <use xlink:href="#SimHei-30" transform="translate(150 0)"/>
      </g>
     </g>
    </g>
    <g id="xtick_4">
     <g id="line2d_7">
      <path d="M 408.024688 316.5775 
L 408.024688 29.04 
" clip-path="url(#pbf186dec7d)" style="fill: none; stroke-dasharray: 2.96,1.28; stroke-dashoffset: 0; stroke: #b0b0b0; stroke-opacity: 0.3; stroke-width: 0.8"/>
     </g>
     <g id="line2d_8">
      <g>
       <use xlink:href="#mfc3cc340cb" x="408.024688" y="316.5775" style="stroke: #000000; stroke-width: 0.8"/>
      </g>
     </g>
     <g id="text_4">
      <!-- 7500 -->
      <g transform="translate(397.024688 331.14) scale(0.11 -0.11)">
       <defs>
        <path id="SimHei-37" d="M 850 150 
Q 1300 2050 2425 3925 
L 275 3925 
L 275 4375 
L 2950 4375 
L 2950 3950 
Q 1775 2050 1400 150 
L 850 150 
z
" transform="scale(0.015625)"/>
       </defs>
       <use xlink:href="#SimHei-37"/>
       <use xlink:href="#SimHei-35" transform="translate(50 0)"/>
       <use xlink:href="#SimHei-30" transform="translate(100 0)"/>
       <use xlink:href="#SimHei-30" transform="translate(150 0)"/>
      </g>
     </g>
    </g>
    <g id="xtick_5">
     <g id="line2d_9">
      <path d="M 522.89875 316.5775 
L 522.89875 29.04 
" clip-path="url(#pbf186dec7d)" style="fill: none; stroke-dasharray: 2.96,1.28; stroke-dashoffset: 0; stroke: #b0b0b0; stroke-opacity: 0.3; stroke-width: 0.8"/>
     </g>
     <g id="line2d_10">
      <g>
       <use xlink:href="#mfc3cc340cb" x="522.89875" y="316.5775" style="stroke: #000000; stroke-width: 0.8"/>
      </g>
     </g>
     <g id="text_5">
      <!-- 10000 -->
      <g transform="translate(509.14875 331.14) scale(0.11 -0.11)">
       <defs>
        <path id="SimHei-31" d="M 1400 3600 
Q 1075 3275 575 2975 
L 575 3450 
Q 1200 3875 1600 4450 
L 1900 4450 
L 1900 150 
L 1400 150 
L 1400 3600 
z
" transform="scale(0.015625)"/>
       </defs>
       <use xlink:href="#SimHei-31"/>
       <use xlink:href="#SimHei-30" transform="translate(50 0)"/>
       <use xlink:href="#SimHei-30" transform="translate(100 0)"/>
       <use xlink:href="#SimHei-30" transform="translate(150 0)"/>
       <use xlink:href="#SimHei-30" transform="translate(200 0)"/>
      </g>
     </g>
    </g>
    <g id="xtick_6">
     <g id="line2d_11">
      <path d="M 637.772813 316.5775 
L 637.772813 29.04 
" clip-path="url(#pbf186dec7d)" style="fill: none; stroke-dasharray: 2.96,1.28; stroke-dashoffset: 0; stroke: #b0b0b0; stroke-opacity: 0.3; stroke-width: 0.8"/>
     </g>
     <g id="line2d_12">
      <g>
       <use xlink:href="#mfc3cc340cb" x="637.772813" y="316.5775" style="stroke: #000000; stroke-width: 0.8"/>
      </g>
     </g>
     <g id="text_6">
      <!-- 12500 -->
      <g transform="translate(624.022813 331.14) scale(0.11 -0.11)">
       <use xlink:href="#SimHei-31"/>
       <use xlink:href="#SimHei-32" transform="translate(50 0)"/>
       <use xlink:href="#SimHei-35" transform="translate(100 0)"/>
       <use xlink:href="#SimHei-30" transform="translate(150 0)"/>
       <use xlink:href="#SimHei-30" transform="translate(200 0)"/>
      </g>
     </g>
    </g>
    <g id="xtick_7">
     <g id="line2d_13">
      <path d="M 752.646875 316.5775 
L 752.646875 29.04 
" clip-path="url(#pbf186dec7d)" style="fill: none; stroke-dasharray: 2.96,1.28; stroke-dashoffset: 0; stroke: #b0b0b0; stroke-opacity: 0.3; stroke-width: 0.8"/>
     </g>
     <g id="line2d_14">
      <g>
       <use xlink:href="#mfc3cc340cb" x="752.646875" y="316.5775" style="stroke: #000000; stroke-width: 0.8"/>
      </g>
     </g>
     <g id="text_7">
      <!-- 15000 -->
      <g transform="translate(738.896875 331.14) scale(0.11 -0.11)">
       <use xlink:href="#SimHei-31"/>
       <use xlink:href="#SimHei-35" transform="translate(50 0)"/>
       <use xlink:href="#SimHei-30" transform="translate(100 0)"/>
       <use xlink:href="#SimHei-30" transform="translate(150 0)"/>
       <use xlink:href="#SimHei-30" transform="translate(200 0)"/>
      </g>
     </g>
    </g>
    <g id="xtick_8">
     <g id="line2d_15">
      <path d="M 867.520938 316.5775 
L 867.520938 29.04 
" clip-path="url(#pbf186dec7d)" style="fill: none; stroke-dasharray: 2.96,1.28; stroke-dashoffset: 0; stroke: #b0b0b0; stroke-opacity: 0.3; stroke-width: 0.8"/>
     </g>
     <g id="line2d_16">
      <g>
       <use xlink:href="#mfc3cc340cb" x="867.520938" y="316.5775" style="stroke: #000000; stroke-width: 0.8"/>
      </g>
     </g>
     <g id="text_8">
      <!-- 17500 -->
      <g transform="translate(853.770938 331.14) scale(0.11 -0.11)">
       <use xlink:href="#SimHei-31"/>
       <use xlink:href="#SimHei-37" transform="translate(50 0)"/>
       <use xlink:href="#SimHei-35" transform="translate(100 0)"/>
       <use xlink:href="#SimHei-30" transform="translate(150 0)"/>
       <use xlink:href="#SimHei-30" transform="translate(200 0)"/>
      </g>
     </g>
    </g>
    <g id="xtick_9">
     <g id="line2d_17">
      <path d="M 982.395 316.5775 
L 982.395 29.04 
" clip-path="url(#pbf186dec7d)" style="fill: none; stroke-dasharray: 2.96,1.28; stroke-dashoffset: 0; stroke: #b0b0b0; stroke-opacity: 0.3; stroke-width: 0.8"/>
     </g>
     <g id="line2d_18">
      <g>
       <use xlink:href="#mfc3cc340cb" x="982.395" y="316.5775" style="stroke: #000000; stroke-width: 0.8"/>
      </g>
     </g>
     <g id="text_9">
      <!-- 20000 -->
      <g transform="translate(968.645 331.14) scale(0.11 -0.11)">
       <use xlink:href="#SimHei-32"/>
       <use xlink:href="#SimHei-30" transform="translate(50 0)"/>
       <use xlink:href="#SimHei-30" transform="translate(100 0)"/>
       <use xlink:href="#SimHei-30" transform="translate(150 0)"/>
       <use xlink:href="#SimHei-30" transform="translate(200 0)"/>
      </g>
     </g>
    </g>
    <g id="text_10">
     <!-- 订货周期 -->
     <g transform="translate(496.89875 346.772812) scale(0.13 -0.13)">
      <defs>
       <path id="SimHei-8ba2" d="M 5250 4750 
Q 5525 4750 6125 4775 
L 6125 4300 
Q 5575 4325 4775 4325 
L 4775 100 
Q 4775 -350 4387 -462 
Q 4000 -575 3600 -600 
Q 3575 -275 3400 75 
Q 3825 25 4050 50 
Q 4275 75 4300 300 
L 4300 4325 
L 3225 4325 
Q 2850 4325 2450 4300 
L 2450 4775 
Q 3075 4750 3250 4750 
L 5250 4750 
z
M 1850 425 
Q 2400 900 2750 1225 
Q 2825 925 2950 725 
Q 2575 425 2175 87 
Q 1775 -250 1500 -550 
Q 1350 -325 1150 -150 
Q 1400 50 1375 400 
L 1375 2725 
L 1025 2725 
Q 600 2725 300 2700 
L 300 3175 
Q 600 3150 1025 3150 
L 1875 3150 
Q 1875 2675 1850 2250 
L 1850 425 
z
M 1150 5125 
Q 1525 4775 2150 4100 
Q 1950 3925 1725 3700 
Q 1300 4275 775 4750 
Q 1000 4950 1150 5125 
z
" transform="scale(0.015625)"/>
       <path id="SimHei-8d27" d="M 3975 5075 
Q 3950 4750 3950 4100 
Q 4075 4175 4525 4375 
Q 4975 4575 5375 4900 
Q 5550 4625 5700 4400 
Q 5425 4325 4987 4112 
Q 4550 3900 3950 3650 
L 3950 3225 
Q 3950 3025 4300 3025 
L 5125 3025 
Q 5425 3025 5487 3150 
Q 5550 3275 5575 3625 
Q 5850 3450 6125 3375 
Q 5975 2875 5825 2750 
Q 5675 2625 5475 2625 
L 4000 2625 
Q 3425 2625 3425 3125 
L 3425 3525 
Q 2900 3325 2575 3225 
Q 2425 3500 2350 3650 
Q 2750 3750 3425 3925 
Q 3425 4750 3400 5075 
L 3975 5075 
z
M 5200 2200 
Q 5175 1825 5175 1425 
Q 5175 1050 5200 600 
L 4625 600 
L 4625 1775 
L 1950 1775 
L 1950 625 
L 1400 625 
Q 1425 1025 1425 1400 
Q 1425 1800 1400 2200 
L 5200 2200 
z
M 2625 4850 
Q 2425 4700 2050 4300 
Q 2050 2900 2075 2450 
L 1500 2450 
Q 1525 2900 1525 3825 
Q 1300 3625 1100 3425 
Q 900 3225 700 3050 
Q 475 3250 325 3400 
Q 850 3725 1325 4237 
Q 1800 4750 2050 5175 
Q 2325 4925 2625 4850 
z
M 3550 1325 
Q 3425 975 3312 687 
Q 3200 400 2925 137 
Q 2650 -125 2150 -325 
Q 1650 -525 800 -675 
Q 725 -400 475 -100 
Q 1200 -75 1675 25 
Q 2150 125 2412 325 
Q 2675 525 2787 775 
Q 2900 1025 2975 1400 
Q 3250 1350 3550 1325 
z
M 5575 -675 
Q 5125 -400 4650 -187 
Q 4175 25 3575 250 
Q 3725 500 3825 725 
Q 4350 500 4800 300 
Q 5250 100 5875 -175 
Q 5700 -400 5575 -675 
z
" transform="scale(0.015625)"/>
       <path id="SimHei-5468" d="M 5600 4925 
Q 5575 4400 5575 3800 
L 5575 50 
Q 5550 -375 5325 -462 
Q 5100 -550 4325 -600 
Q 4300 -400 4125 -75 
Q 4800 -100 4962 -37 
Q 5125 25 5100 225 
L 5100 4525 
L 1500 4525 
Q 1500 2575 1450 1887 
Q 1400 1200 1237 550 
Q 1075 -100 775 -625 
Q 625 -450 275 -225 
Q 650 225 825 1000 
Q 1000 1775 1025 2587 
Q 1050 3400 1000 4925 
L 5600 4925 
z
M 2050 325 
Q 2075 625 2075 950 
L 2075 1400 
Q 2075 1625 2050 1925 
L 4400 1925 
Q 4375 1725 4375 1450 
L 4375 875 
Q 4375 600 4400 325 
L 2050 325 
z
M 3000 3800 
Q 3000 4150 2975 4375 
L 3475 4375 
Q 3450 4075 3450 3800 
Q 4100 3800 4475 3825 
L 4475 3350 
Q 4125 3375 3450 3375 
L 3450 2800 
Q 4200 2800 4825 2825 
L 4825 2350 
Q 4175 2375 3725 2375 
L 2750 2375 
Q 2325 2375 1725 2350 
L 1725 2825 
Q 2325 2800 3000 2800 
L 3000 3375 
Q 2500 3375 1975 3350 
L 1975 3825 
Q 2475 3800 3000 3800 
z
M 3900 725 
L 3900 1525 
L 2550 1525 
L 2550 725 
L 3900 725 
z
" transform="scale(0.015625)"/>
       <path id="SimHei-671f" d="M 4900 -25 
Q 5475 -100 5425 175 
L 5425 1575 
L 4325 1575 
Q 4275 975 4050 425 
Q 3825 -125 3400 -600 
Q 3225 -375 2925 -275 
Q 3350 150 3562 625 
Q 3775 1100 3812 1575 
Q 3850 2050 3850 3125 
Q 3850 4225 3825 4875 
L 5950 4875 
Q 5925 4400 5925 3725 
L 5925 50 
Q 5925 -300 5700 -425 
Q 5475 -550 5100 -600 
Q 5100 -325 4900 -25 
z
M 950 4300 
Q 950 4675 925 5125 
L 1450 5125 
Q 1425 4625 1425 4300 
L 2550 4300 
Q 2550 4775 2525 5125 
L 3075 5125 
Q 3050 4700 3050 4300 
Q 3225 4300 3500 4325 
L 3500 3900 
Q 3250 3925 3050 3925 
L 3050 1550 
Q 3250 1550 3500 1575 
L 3500 1150 
Q 3025 1175 2575 1175 
L 1225 1175 
Q 675 1175 275 1150 
L 275 1575 
Q 650 1550 950 1550 
L 950 3925 
Q 725 3925 425 3900 
L 425 4325 
Q 700 4300 950 4300 
z
M 5425 3375 
L 5425 4500 
L 4350 4500 
L 4350 3375 
L 5425 3375 
z
M 5425 1950 
L 5425 3000 
L 4350 3000 
L 4350 1950 
L 5425 1950 
z
M 1600 725 
Q 1425 650 1162 287 
Q 900 -75 650 -350 
Q 400 -175 225 -75 
Q 450 100 700 412 
Q 950 725 1100 1025 
L 1600 725 
z
M 2550 3375 
L 2550 3925 
L 1425 3925 
L 1425 3375 
L 2550 3375 
z
M 2550 1550 
L 2550 2100 
L 1425 2100 
L 1425 1550 
L 2550 1550 
z
M 2550 2475 
L 2550 3000 
L 1425 3000 
L 1425 2475 
L 2550 2475 
z
M 2850 -75 
Q 2450 525 2225 725 
Q 2375 825 2550 1025 
Q 2850 725 3250 275 
Q 3050 125 2850 -75 
z
" transform="scale(0.015625)"/>
      </defs>
      <use xlink:href="#SimHei-8ba2"/>
      <use xlink:href="#SimHei-8d27" transform="translate(100 0)"/>
      <use xlink:href="#SimHei-5468" transform="translate(200 0)"/>
      <use xlink:href="#SimHei-671f" transform="translate(300 0)"/>
     </g>
    </g>
   </g>
   <g id="matplotlib.axis_2">
    <g id="ytick_1">
     <g id="line2d_19">
      <path d="M 63.4025 303.507614 
L 982.395 303.507614 
" clip-path="url(#pbf186dec7d)" style="fill: none; stroke-dasharray: 2.96,1.28; stroke-dashoffset: 0; stroke: #b0b0b0; stroke-opacity: 0.3; stroke-width: 0.8"/>
     </g>
     <g id="line2d_20">
      <defs>
       <path id="m317e85c246" d="M 0 0 
L -3.5 0 
" style="stroke: #000000; stroke-width: 0.8"/>
      </defs>
      <g>
       <use xlink:href="#m317e85c246" x="63.4025" y="303.507614" style="stroke: #000000; stroke-width: 0.8"/>
      </g>
     </g>
     <g id="text_11">
      <!-- -1.00 -->
      <g transform="translate(28.9025 307.288864) scale(0.11 -0.11)">
       <defs>
        <path id="SimHei-2d" d="M 2975 2125 
L 125 2125 
L 125 2525 
L 2975 2525 
L 2975 2125 
z
" transform="scale(0.015625)"/>
        <path id="SimHei-2e" d="M 1075 125 
L 500 125 
L 500 675 
L 1075 675 
L 1075 125 
z
" transform="scale(0.015625)"/>
       </defs>
       <use xlink:href="#SimHei-2d"/>
       <use xlink:href="#SimHei-31" transform="translate(50 0)"/>
       <use xlink:href="#SimHei-2e" transform="translate(100 0)"/>
       <use xlink:href="#SimHei-30" transform="translate(150 0)"/>
       <use xlink:href="#SimHei-30" transform="translate(200 0)"/>
      </g>
     </g>
    </g>
    <g id="ytick_2">
     <g id="line2d_21">
      <path d="M 63.4025 270.832898 
L 982.395 270.832898 
" clip-path="url(#pbf186dec7d)" style="fill: none; stroke-dasharray: 2.96,1.28; stroke-dashoffset: 0; stroke: #b0b0b0; stroke-opacity: 0.3; stroke-width: 0.8"/>
     </g>
     <g id="line2d_22">
      <g>
       <use xlink:href="#m317e85c246" x="63.4025" y="270.832898" style="stroke: #000000; stroke-width: 0.8"/>
      </g>
     </g>
     <g id="text_12">
      <!-- -0.75 -->
      <g transform="translate(28.9025 274.614148) scale(0.11 -0.11)">
       <use xlink:href="#SimHei-2d"/>
       <use xlink:href="#SimHei-30" transform="translate(50 0)"/>
       <use xlink:href="#SimHei-2e" transform="translate(100 0)"/>
       <use xlink:href="#SimHei-37" transform="translate(150 0)"/>
       <use xlink:href="#SimHei-35" transform="translate(200 0)"/>
      </g>
     </g>
    </g>
    <g id="ytick_3">
     <g id="line2d_23">
      <path d="M 63.4025 238.158182 
L 982.395 238.158182 
" clip-path="url(#pbf186dec7d)" style="fill: none; stroke-dasharray: 2.96,1.28; stroke-dashoffset: 0; stroke: #b0b0b0; stroke-opacity: 0.3; stroke-width: 0.8"/>
     </g>
     <g id="line2d_24">
      <g>
       <use xlink:href="#m317e85c246" x="63.4025" y="238.158182" style="stroke: #000000; stroke-width: 0.8"/>
      </g>
     </g>
     <g id="text_13">
      <!-- -0.50 -->
      <g transform="translate(28.9025 241.939432) scale(0.11 -0.11)">
       <use xlink:href="#SimHei-2d"/>
       <use xlink:href="#SimHei-30" transform="translate(50 0)"/>
       <use xlink:href="#SimHei-2e" transform="translate(100 0)"/>
       <use xlink:href="#SimHei-35" transform="translate(150 0)"/>
       <use xlink:href="#SimHei-30" transform="translate(200 0)"/>
      </g>
     </g>
    </g>
    <g id="ytick_4">
     <g id="line2d_25">
      <path d="M 63.4025 205.483466 
L 982.395 205.483466 
" clip-path="url(#pbf186dec7d)" style="fill: none; stroke-dasharray: 2.96,1.28; stroke-dashoffset: 0; stroke: #b0b0b0; stroke-opacity: 0.3; stroke-width: 0.8"/>
     </g>
     <g id="line2d_26">
      <g>
       <use xlink:href="#m317e85c246" x="63.4025" y="205.483466" style="stroke: #000000; stroke-width: 0.8"/>
      </g>
     </g>
     <g id="text_14">
      <!-- -0.25 -->
      <g transform="translate(28.9025 209.264716) scale(0.11 -0.11)">
       <use xlink:href="#SimHei-2d"/>
       <use xlink:href="#SimHei-30" transform="translate(50 0)"/>
       <use xlink:href="#SimHei-2e" transform="translate(100 0)"/>
       <use xlink:href="#SimHei-32" transform="translate(150 0)"/>
       <use xlink:href="#SimHei-35" transform="translate(200 0)"/>
      </g>
     </g>
    </g>
    <g id="ytick_5">
     <g id="line2d_27">
      <path d="M 63.4025 172.80875 
L 982.395 172.80875 
" clip-path="url(#pbf186dec7d)" style="fill: none; stroke-dasharray: 2.96,1.28; stroke-dashoffset: 0; stroke: #b0b0b0; stroke-opacity: 0.3; stroke-width: 0.8"/>
     </g>
     <g id="line2d_28">
      <g>
       <use xlink:href="#m317e85c246" x="63.4025" y="172.80875" style="stroke: #000000; stroke-width: 0.8"/>
      </g>
     </g>
     <g id="text_15">
      <!-- 0.00 -->
      <g transform="translate(34.4025 176.59) scale(0.11 -0.11)">
       <use xlink:href="#SimHei-30"/>
       <use xlink:href="#SimHei-2e" transform="translate(50 0)"/>
       <use xlink:href="#SimHei-30" transform="translate(100 0)"/>
       <use xlink:href="#SimHei-30" transform="translate(150 0)"/>
      </g>
     </g>
    </g>
    <g id="ytick_6">
     <g id="line2d_29">
      <path d="M 63.4025 140.134034 
L 982.395 140.134034 
" clip-path="url(#pbf186dec7d)" style="fill: none; stroke-dasharray: 2.96,1.28; stroke-dashoffset: 0; stroke: #b0b0b0; stroke-opacity: 0.3; stroke-width: 0.8"/>
     </g>
     <g id="line2d_30">
      <g>
       <use xlink:href="#m317e85c246" x="63.4025" y="140.134034" style="stroke: #000000; stroke-width: 0.8"/>
      </g>
     </g>
     <g id="text_16">
      <!-- 0.25 -->
      <g transform="translate(34.4025 143.915284) scale(0.11 -0.11)">
       <use xlink:href="#SimHei-30"/>
       <use xlink:href="#SimHei-2e" transform="translate(50 0)"/>
       <use xlink:href="#SimHei-32" transform="translate(100 0)"/>
       <use xlink:href="#SimHei-35" transform="translate(150 0)"/>
      </g>
     </g>
    </g>
    <g id="ytick_7">
     <g id="line2d_31">
      <path d="M 63.4025 107.459318 
L 982.395 107.459318 
" clip-path="url(#pbf186dec7d)" style="fill: none; stroke-dasharray: 2.96,1.28; stroke-dashoffset: 0; stroke: #b0b0b0; stroke-opacity: 0.3; stroke-width: 0.8"/>
     </g>
     <g id="line2d_32">
      <g>
       <use xlink:href="#m317e85c246" x="63.4025" y="107.459318" style="stroke: #000000; stroke-width: 0.8"/>
      </g>
     </g>
     <g id="text_17">
      <!-- 0.50 -->
      <g transform="translate(34.4025 111.240568) scale(0.11 -0.11)">
       <use xlink:href="#SimHei-30"/>
       <use xlink:href="#SimHei-2e" transform="translate(50 0)"/>
       <use xlink:href="#SimHei-35" transform="translate(100 0)"/>
       <use xlink:href="#SimHei-30" transform="translate(150 0)"/>
      </g>
     </g>
    </g>
    <g id="ytick_8">
     <g id="line2d_33">
      <path d="M 63.4025 74.784602 
L 982.395 74.784602 
" clip-path="url(#pbf186dec7d)" style="fill: none; stroke-dasharray: 2.96,1.28; stroke-dashoffset: 0; stroke: #b0b0b0; stroke-opacity: 0.3; stroke-width: 0.8"/>
     </g>
     <g id="line2d_34">
      <g>
       <use xlink:href="#m317e85c246" x="63.4025" y="74.784602" style="stroke: #000000; stroke-width: 0.8"/>
      </g>
     </g>
     <g id="text_18">
      <!-- 0.75 -->
      <g transform="translate(34.4025 78.565852) scale(0.11 -0.11)">
       <use xlink:href="#SimHei-30"/>
       <use xlink:href="#SimHei-2e" transform="translate(50 0)"/>
       <use xlink:href="#SimHei-37" transform="translate(100 0)"/>
       <use xlink:href="#SimHei-35" transform="translate(150 0)"/>
      </g>
     </g>
    </g>
    <g id="ytick_9">
     <g id="line2d_35">
      <path d="M 63.4025 42.109886 
L 982.395 42.109886 
" clip-path="url(#pbf186dec7d)" style="fill: none; stroke-dasharray: 2.96,1.28; stroke-dashoffset: 0; stroke: #b0b0b0; stroke-opacity: 0.3; stroke-width: 0.8"/>
     </g>
     <g id="line2d_36">
      <g>
       <use xlink:href="#m317e85c246" x="63.4025" y="42.109886" style="stroke: #000000; stroke-width: 0.8"/>
      </g>
     </g>
     <g id="text_19">
      <!-- 1.00 -->
      <g transform="translate(34.4025 45.891136) scale(0.11 -0.11)">
       <use xlink:href="#SimHei-31"/>
       <use xlink:href="#SimHei-2e" transform="translate(50 0)"/>
       <use xlink:href="#SimHei-30" transform="translate(100 0)"/>
       <use xlink:href="#SimHei-30" transform="translate(150 0)"/>
      </g>
     </g>
    </g>
    <g id="text_20">
     <!-- 情绪状态 E_t -->
     <g transform="translate(23.175938 211.80875) rotate(-90) scale(0.13 -0.13)">
      <defs>
       <path id="SimHei-60c5" d="M 2775 1475 
Q 2775 2050 2750 2525 
L 5600 2525 
Q 5575 2100 5575 1725 
L 5575 -150 
Q 5575 -425 5375 -500 
Q 5175 -575 4875 -625 
Q 4850 -400 4700 -150 
Q 5050 -150 5100 -75 
Q 5150 0 5150 475 
L 3225 475 
L 3225 -625 
L 2750 -625 
Q 2775 -50 2775 375 
L 2775 1475 
z
M 2375 3250 
Q 2975 3225 3475 3225 
L 3975 3225 
L 3975 3625 
L 3500 3625 
Q 3075 3625 2625 3600 
L 2625 4025 
Q 3075 4000 3500 4000 
L 3975 4000 
L 3975 4350 
L 3450 4350 
Q 3050 4350 2475 4325 
L 2475 4750 
Q 3075 4725 3450 4725 
L 3975 4725 
Q 3975 4975 3950 5225 
L 4475 5225 
Q 4450 4975 4450 4725 
L 5125 4725 
Q 5550 4725 5925 4750 
L 5925 4325 
Q 5550 4350 5125 4350 
L 4450 4350 
L 4450 4000 
L 4925 4000 
Q 5325 4000 5750 4025 
L 5750 3600 
Q 5300 3625 4925 3625 
L 4450 3625 
L 4450 3225 
L 5175 3225 
Q 5775 3225 6150 3250 
L 6150 2825 
Q 5775 2850 5150 2850 
L 3500 2850 
Q 2850 2850 2375 2825 
L 2375 3250 
z
M 1675 5225 
Q 1650 4800 1650 4400 
L 1650 425 
Q 1650 -100 1675 -600 
L 1150 -600 
Q 1200 -100 1200 425 
L 1200 4325 
Q 1200 4825 1150 5225 
L 1675 5225 
z
M 5125 850 
L 5125 1325 
L 3225 1325 
L 3225 850 
L 5125 850 
z
M 5125 1700 
L 5125 2150 
L 3225 2150 
L 3225 1700 
L 5125 1700 
z
M 1050 3900 
Q 1000 3675 725 2275 
Q 500 2350 250 2375 
Q 425 2750 575 3975 
Q 800 3925 1050 3900 
z
M 1975 3125 
Q 1925 3425 1775 3975 
Q 1950 4000 2200 4075 
Q 2350 3550 2450 3275 
Q 2175 3200 1975 3125 
z
" transform="scale(0.015625)"/>
       <path id="SimHei-7eea" d="M 3700 4375 
Q 3700 4700 3675 5175 
L 4175 5175 
Q 4150 4775 4150 4375 
Q 4350 4375 4750 4400 
L 4750 3975 
Q 4375 4000 4150 4000 
L 4150 3200 
L 4325 3200 
Q 4625 3575 4900 4000 
Q 5175 4425 5350 4825 
Q 5600 4625 5925 4500 
Q 5675 4250 5387 3850 
Q 5100 3450 4900 3200 
L 5275 3200 
Q 5725 3200 6200 3225 
L 6200 2800 
Q 5750 2825 5275 2825 
L 4625 2825 
Q 4325 2525 4075 2200 
L 5625 2200 
Q 5600 1825 5600 1175 
L 5600 400 
Q 5600 125 5625 -475 
L 5150 -475 
L 5150 -200 
L 3450 -200 
L 3450 -600 
L 2975 -600 
Q 3000 -50 3000 425 
L 3000 1275 
Q 2850 1150 2525 850 
Q 2375 1025 2175 1200 
Q 2750 1625 3000 1850 
Q 3000 2000 2975 2200 
L 3425 2200 
Q 3750 2475 4025 2825 
L 3475 2825 
Q 2925 2825 2475 2800 
L 2475 3225 
Q 2925 3200 3475 3200 
L 3700 3200 
L 3700 4000 
Q 3175 4000 2825 3975 
L 2825 4400 
Q 3250 4375 3700 4375 
z
M 1950 4850 
Q 1725 4600 1487 4125 
Q 1250 3650 950 3125 
L 1700 3125 
Q 1950 3525 2125 4050 
Q 2350 3925 2700 3850 
Q 2575 3725 2250 3212 
Q 1925 2700 1250 1650 
Q 1900 1725 2400 1775 
Q 2325 1525 2300 1300 
Q 1925 1300 1500 1262 
Q 1075 1225 650 1100 
Q 600 1325 525 1600 
Q 700 1650 975 1975 
Q 1250 2300 1500 2750 
Q 900 2750 450 2600 
Q 375 2850 250 3150 
Q 525 3300 825 3875 
Q 1125 4450 1325 5075 
Q 1600 4950 1950 4850 
z
M 5150 1200 
L 5150 1825 
L 3500 1825 
L 3500 1200 
L 5150 1200 
z
M 2475 675 
Q 2425 425 2450 225 
Q 2075 175 1537 50 
Q 1000 -75 475 -250 
Q 375 75 225 300 
Q 900 375 1312 450 
Q 1725 525 2475 675 
z
M 5150 250 
L 5150 775 
L 3500 775 
L 3500 250 
L 5150 250 
z
" transform="scale(0.015625)"/>
       <path id="SimHei-72b6" d="M 2225 -275 
Q 2675 25 2975 475 
Q 3275 925 3450 1350 
Q 3625 1775 3700 2175 
Q 3775 2575 3800 2875 
L 3225 2875 
Q 2850 2875 2500 2850 
L 2500 3325 
Q 2850 3300 3200 3300 
L 3825 3300 
Q 3825 3975 3812 4375 
Q 3800 4775 3775 5075 
L 4425 5075 
Q 4350 4750 4337 4412 
Q 4325 4075 4325 3300 
L 5350 3300 
Q 5625 3300 5975 3325 
L 5975 2850 
Q 5625 2875 5350 2875 
L 4375 2875 
Q 4675 1450 5012 962 
Q 5350 475 5625 262 
Q 5900 50 6125 -75 
Q 5775 -225 5625 -525 
Q 5225 -200 4987 112 
Q 4750 425 4587 725 
Q 4425 1025 4312 1337 
Q 4200 1650 4125 2000 
Q 4000 1400 3812 975 
Q 3625 550 3425 237 
Q 3225 -75 2750 -625 
Q 2525 -400 2225 -275 
z
M 2225 5200 
Q 2200 4825 2200 4250 
L 2200 775 
Q 2200 50 2225 -625 
L 1675 -625 
Q 1700 75 1700 775 
L 1700 1950 
Q 1525 1750 1200 1350 
Q 875 950 700 750 
Q 500 1000 275 1150 
Q 575 1375 912 1712 
Q 1250 2050 1700 2600 
L 1700 4250 
Q 1700 4825 1675 5200 
L 2225 5200 
z
M 625 4325 
Q 800 4125 1000 3875 
Q 1200 3625 1375 3375 
Q 1175 3225 1050 3075 
Q 850 3350 250 4050 
Q 400 4175 625 4325 
z
M 5475 3650 
Q 5250 3975 4700 4475 
Q 4900 4625 5025 4750 
Q 5250 4575 5425 4387 
Q 5600 4200 5825 3975 
Q 5625 3800 5475 3650 
z
" transform="scale(0.015625)"/>
       <path id="SimHei-6001" d="M 2575 4325 
Q 2700 4800 2725 5250 
Q 3075 5125 3350 5100 
Q 3225 4875 3100 4325 
L 5025 4325 
Q 5375 4325 5825 4375 
L 5825 3850 
Q 5350 3875 5000 3875 
L 3975 3875 
Q 4225 3300 4575 2987 
Q 4925 2675 5250 2525 
Q 5575 2375 6100 2275 
Q 5800 2075 5675 1775 
Q 4900 2100 4525 2412 
Q 4150 2725 3900 3075 
Q 3650 3425 3500 3875 
L 2975 3875 
Q 2675 3200 2187 2687 
Q 1700 2175 725 1625 
Q 650 1850 300 2075 
Q 900 2275 1512 2750 
Q 2125 3225 2425 3875 
L 1300 3875 
Q 900 3875 450 3850 
L 450 4375 
Q 875 4325 1300 4325 
L 2575 4325 
z
M 2525 1350 
Q 2500 875 2500 575 
Q 2500 300 2512 150 
Q 2525 0 2800 0 
L 3825 0 
Q 4025 -25 4175 62 
Q 4325 150 4400 625 
Q 4650 450 4975 375 
Q 4775 -150 4625 -312 
Q 4475 -475 4000 -450 
L 2500 -450 
Q 2050 -400 2012 -162 
Q 1975 75 1975 425 
Q 1975 800 1950 1350 
L 2525 1350 
z
M 1425 1175 
Q 1175 450 825 -325 
Q 625 -175 325 -125 
Q 775 625 875 1375 
Q 1175 1250 1425 1175 
z
M 5175 1525 
Q 5600 950 6050 350 
Q 5800 175 5600 0 
Q 5225 700 4750 1250 
Q 5000 1350 5175 1525 
z
M 2700 3050 
Q 3175 2675 3500 2325 
Q 3275 2175 3100 1975 
Q 2825 2350 2350 2700 
L 2700 3050 
z
M 3375 1750 
Q 3625 1350 3825 925 
Q 3625 800 3375 675 
Q 3200 1175 2950 1525 
Q 3175 1600 3375 1750 
z
" transform="scale(0.015625)"/>
       <path id="SimHei-20" transform="scale(0.015625)"/>
       <path id="SimHei-45" d="M 2900 125 
L 350 125 
L 350 4400 
L 2775 4400 
L 2775 3925 
L 925 3925 
L 925 2600 
L 2625 2600 
L 2625 2125 
L 925 2125 
L 925 600 
L 2900 600 
L 2900 125 
z
" transform="scale(0.015625)"/>
       <path id="SimHei-5f" d="M 3150 -850 
L 0 -850 
L 0 -550 
L 3150 -550 
L 3150 -850 
z
" transform="scale(0.015625)"/>
       <path id="SimHei-74" d="M 2750 200 
Q 2625 150 2462 112 
Q 2300 75 2025 75 
Q 1575 75 1300 325 
Q 1025 575 1025 1025 
L 1025 2525 
L 175 2525 
L 175 2925 
L 1025 2925 
L 1025 3900 
L 1525 3900 
L 1525 2925 
L 2550 2925 
L 2550 2525 
L 1525 2525 
L 1525 1000 
Q 1525 800 1625 662 
Q 1725 525 2000 525 
Q 2275 525 2450 575 
Q 2625 625 2750 700 
L 2750 200 
z
" transform="scale(0.015625)"/>
      </defs>
      <use xlink:href="#SimHei-60c5"/>
      <use xlink:href="#SimHei-7eea" transform="translate(100 0)"/>
      <use xlink:href="#SimHei-72b6" transform="translate(200 0)"/>
      <use xlink:href="#SimHei-6001" transform="translate(300 0)"/>
      <use xlink:href="#SimHei-20" transform="translate(400 0)"/>
      <use xlink:href="#SimHei-45" transform="translate(450 0)"/>
      <use xlink:href="#SimHei-5f" transform="translate(500 0)"/>
      <use xlink:href="#SimHei-74" transform="translate(550 0)"/>
     </g>
    </g>
   </g>
   <g id="line2d_37">
    <path d="M 63.4025 280.914235 
L 65.240485 280.914235 
L 66.159478 278.884972 
L 67.07847 280.90518 
L 67.997463 280.914235 
L 68.916455 270.386532 
L 69.835448 194.576111 
L 70.75444 280.914235 
L 71.673433 280.914235 
L 72.592425 241.0249 
L 73.511418 280.914235 
L 75.349403 280.914235 
L 76.268395 274.920126 
L 77.187387 280.620658 
L 78.10638 280.914235 
L 79.025373 280.914235 
L 79.944365 278.477701 
L 80.863358 280.914235 
L 82.701343 280.914235 
L 83.620335 204.197472 
L 84.539328 280.914235 
L 93.729253 280.914235 
L 94.648245 262.784357 
L 95.567238 280.914235 
L 96.48623 280.914235 
L 97.405223 268.498185 
L 98.324215 280.802493 
L 100.1622 280.914235 
L 101.081193 279.732642 
L 102.000185 280.914235 
L 102.919178 241.023409 
L 103.83817 272.5308 
L 104.757163 280.914235 
L 108.433133 280.914235 
L 109.352125 280.69684 
L 110.271118 280.914235 
L 111.19011 280.914235 
L 112.109103 279.677642 
L 113.028095 280.914235 
L 113.947088 118.287493 
L 114.86608 280.914235 
L 117.623058 280.909547 
L 118.54205 218.543016 
L 119.461043 280.914235 
L 120.380035 270.395758 
L 121.299028 280.914235 
L 136.002908 280.914235 
L 136.9219 217.922063 
L 137.840892 280.914177 
L 138.759885 280.914235 
L 139.678877 174.585767 
L 140.59787 280.914235 
L 142.435855 280.914235 
L 143.354848 178.746406 
L 144.27384 280.849243 
L 146.111825 280.914235 
L 148.868803 280.914235 
L 149.787795 280.450856 
L 150.706788 177.991861 
L 151.62578 280.914235 
L 158.058728 280.914235 
L 158.97772 190.930984 
L 159.896713 280.889874 
L 164.491675 280.914235 
L 165.410668 279.935221 
L 166.32966 280.914235 
L 176.438578 280.913947 
L 177.35757 176.435994 
L 178.276563 280.914235 
L 188.38548 280.914235 
L 189.304473 279.594155 
L 190.223465 280.914235 
L 195.73742 280.914235 
L 196.656413 204.197481 
L 197.575405 280.914235 
L 198.494398 280.914235 
L 199.41339 273.142243 
L 200.332383 280.914235 
L 203.08936 280.914235 
L 204.008353 279.332363 
L 204.927345 280.914235 
L 213.198278 280.914235 
L 214.11727 280.715886 
L 215.036263 280.914235 
L 216.874248 280.907563 
L 217.79324 250.220527 
L 218.712233 280.914235 
L 228.82115 280.914235 
L 229.740143 241.0249 
L 230.659135 280.914235 
L 235.254098 280.914235 
L 236.17309 260.862814 
L 237.092083 280.914235 
L 238.011075 245.76377 
L 238.930068 271.187741 
L 239.84906 280.914235 
L 244.444023 280.914235 
L 245.363015 240.760971 
L 246.282008 280.914235 
L 250.87697 280.914235 
L 251.795963 218.543016 
L 252.714955 280.914235 
L 257.309918 280.914235 
L 258.22891 194.576184 
L 259.147903 280.914235 
L 273.851783 280.914235 
L 274.770775 218.189833 
L 275.689768 280.914235 
L 281.203723 280.914235 
L 282.122715 273.976115 
L 283.041708 280.891211 
L 286.717678 280.914235 
L 287.63667 187.977295 
L 288.555663 218.542711 
L 289.474655 280.914235 
L 294.069618 280.914235 
L 294.98861 274.031605 
L 295.907603 280.416812 
L 296.826595 280.914235 
L 297.745588 280.914235 
L 298.66458 280.69684 
L 299.583573 280.914235 
L 308.773498 280.914235 
L 309.69249 204.197306 
L 310.611483 280.914235 
L 314.287453 280.914235 
L 315.206445 241.0249 
L 316.125438 278.884972 
L 317.04443 204.197481 
L 317.963423 218.543016 
L 318.882415 280.914235 
L 322.558385 280.914235 
L 323.477378 180.215792 
L 324.39637 280.914235 
L 328.07234 280.914235 
L 328.991332 276.570604 
L 329.910325 280.819138 
L 331.74831 280.914235 
L 332.667303 272.529896 
L 333.586295 280.914235 
L 336.343273 280.914232 
L 337.262265 279.594155 
L 338.181258 280.914235 
L 344.614205 280.914235 
L 345.533198 280.369684 
L 346.45219 280.914235 
L 354.723123 280.914235 
L 355.642115 130.620332 
L 356.561108 280.914235 
L 366.670025 280.914235 
L 367.589018 276.570604 
L 368.50801 278.990555 
L 369.427003 280.914235 
L 370.345995 280.914235 
L 371.264988 273.976115 
L 372.18398 280.914235 
L 374.940958 280.911057 
L 375.85995 280.69684 
L 376.778943 280.914235 
L 383.21189 280.914235 
L 384.130883 280.235118 
L 385.049875 280.914235 
L 385.968868 280.914235 
L 386.88786 279.935221 
L 387.806853 280.914235 
L 390.56383 280.914235 
L 391.482823 279.330005 
L 392.401815 280.914235 
L 394.2398 280.914235 
L 395.158793 273.976115 
L 396.077785 280.914235 
L 396.996778 280.826453 
L 398.834763 280.914235 
L 402.510733 280.914235 
L 403.429725 280.793547 
L 404.348718 280.914235 
L 405.26771 278.477701 
L 406.186703 280.914235 
L 420.890583 280.914235 
L 421.809575 177.990993 
L 422.728568 280.914232 
L 423.64756 218.543016 
L 424.566553 280.914235 
L 428.242523 280.914235 
L 429.161515 143.883432 
L 430.080508 280.913978 
L 431.918493 280.914235 
L 432.837485 262.784357 
L 433.756478 280.914235 
L 437.432448 280.914235 
L 438.35144 204.193565 
L 439.270433 280.914235 
L 447.541365 280.914235 
L 448.460358 183.403434 
L 449.37935 280.914235 
L 452.136328 280.914235 
L 453.05532 280.369684 
L 453.974313 280.914235 
L 454.893305 280.914235 
L 455.812298 273.138878 
L 456.73129 280.914235 
L 460.40726 280.914232 
L 461.326253 270.395758 
L 462.245245 280.91408 
L 465.921215 280.914235 
L 466.840208 227.950813 
L 467.7592 280.914233 
L 475.11114 280.914235 
L 476.030133 218.543016 
L 476.949125 280.913968 
L 481.544088 280.914235 
L 482.46308 271.536087 
L 483.382073 187.977295 
L 484.301065 280.914235 
L 485.220058 187.977295 
L 486.13905 280.914235 
L 494.409983 280.914235 
L 495.328975 204.197481 
L 496.247968 280.914235 
L 499.004945 280.914235 
L 499.923938 241.024899 
L 500.84293 280.914235 
L 507.275878 280.914235 
L 508.19487 279.015875 
L 509.113863 280.914235 
L 512.789833 280.914235 
L 513.708825 250.22495 
L 514.627818 280.914235 
L 516.465803 280.914235 
L 517.384795 280.793547 
L 518.303788 280.914235 
L 521.060765 280.913947 
L 521.979758 137.870468 
L 522.89875 280.914224 
L 525.655728 280.914235 
L 526.57472 218.543016 
L 527.493713 280.914235 
L 534.845653 280.914235 
L 535.764645 204.196796 
L 536.683638 280.914176 
L 537.60263 203.714655 
L 538.521623 280.914235 
L 539.440615 218.543016 
L 540.359608 280.914235 
L 552.30651 280.914235 
L 553.225503 201.362749 
L 554.144495 280.914182 
L 559.65845 280.914235 
L 560.577443 180.180017 
L 561.496435 280.914235 
L 565.172405 280.914235 
L 566.091398 270.280182 
L 567.01039 204.197481 
L 567.929383 280.914235 
L 577.119308 280.914025 
L 578.0383 194.571002 
L 578.957293 280.914235 
L 583.552255 280.914221 
L 584.471248 280.793547 
L 585.39024 280.914235 
L 589.06621 280.914235 
L 589.985203 177.923785 
L 590.904195 252.667124 
L 591.823188 280.810022 
L 592.74218 280.914235 
L 593.661173 262.784357 
L 594.580165 280.914235 
L 599.175128 280.914235 
L 600.09412 280.4438 
L 601.013113 280.914235 
L 627.663895 280.914235 
L 628.582888 278.808979 
L 629.50188 278.477701 
L 630.420873 280.914235 
L 635.934828 280.914235 
L 637.772813 280.896986 
L 638.691805 262.784357 
L 639.610798 280.914235 
L 643.286768 280.914235 
L 645.124753 204.197481 
L 646.962738 280.914235 
L 647.88173 217.4527 
L 648.800723 280.914235 
L 651.5577 280.914235 
L 652.476693 273.422309 
L 653.395685 280.369684 
L 654.314678 280.914235 
L 655.23367 280.914235 
L 656.152663 264.021316 
L 657.071655 280.892042 
L 660.747625 280.914235 
L 661.666618 234.560827 
L 662.58561 270.395676 
L 663.504603 280.914235 
L 665.342588 280.914235 
L 666.26158 262.784357 
L 667.180573 280.914235 
L 668.099565 279.935221 
L 669.018558 204.197481 
L 669.93755 280.914235 
L 683.722438 280.914235 
L 684.64143 218.543016 
L 685.560423 241.024893 
L 686.479415 280.914232 
L 687.398408 280.914235 
L 688.3174 253.16084 
L 689.236393 280.914235 
L 690.155385 280.899862 
L 691.074378 278.477701 
L 691.99337 280.914235 
L 698.426318 280.914235 
L 699.34531 183.321112 
L 700.264303 280.914235 
L 705.778258 280.866124 
L 706.69725 204.197481 
L 707.616243 241.0249 
L 708.535235 246.611788 
L 709.454228 187.796798 
L 710.37322 280.914235 
L 711.292213 241.0249 
L 712.211205 280.914235 
L 713.130198 280.869746 
L 714.04919 59.601328 
L 714.968183 280.909007 
L 717.72516 280.913609 
L 718.644153 194.576175 
L 719.563145 280.914235 
L 721.40113 280.914235 
L 722.320123 280.562033 
L 723.239115 280.914235 
L 724.158108 280.766992 
L 725.0771 280.914235 
L 736.10501 280.914235 
L 737.024003 216.737894 
L 737.942995 275.095516 
L 738.861988 280.914235 
L 739.78098 280.914235 
L 740.699973 280.620661 
L 741.618965 241.02201 
L 742.537958 280.69684 
L 743.45695 280.914235 
L 744.375943 280.914235 
L 745.294935 280.369684 
L 746.213928 280.914235 
L 754.48486 280.914235 
L 755.403853 175.347405 
L 756.322845 280.914235 
L 761.8368 280.914235 
L 762.755793 272.326598 
L 763.674785 280.914226 
L 770.107733 280.914235 
L 771.026725 262.784357 
L 771.945718 280.914235 
L 782.973628 280.914235 
L 783.89262 272.08782 
L 784.811613 280.909577 
L 787.56859 280.914235 
L 788.487583 280.658109 
L 789.406575 280.914228 
L 794.001538 280.914235 
L 794.92053 204.197481 
L 795.839523 280.914235 
L 796.758515 280.914235 
L 797.677508 276.570604 
L 798.5965 280.914235 
L 799.515493 280.914235 
L 800.434485 241.0249 
L 801.353478 280.914235 
L 812.381388 280.914235 
L 813.30038 204.190947 
L 814.219373 280.666422 
L 815.138365 280.914235 
L 822.490305 280.914235 
L 823.409298 183.309929 
L 824.32829 280.914235 
L 825.247283 280.914235 
L 826.166275 204.197481 
L 827.085268 262.784357 
L 828.00426 280.914235 
L 828.923253 280.914235 
L 829.842245 279.935221 
L 830.761238 280.914235 
L 835.3562 280.914235 
L 836.275193 273.976115 
L 837.194185 280.914235 
L 838.113178 280.914235 
L 839.03217 278.477477 
L 839.951163 280.914235 
L 850.06008 280.914235 
L 850.979073 218.362455 
L 851.898065 280.914235 
L 854.655043 280.914235 
L 855.574035 204.197481 
L 856.493028 280.914235 
L 858.331013 280.914235 
L 859.250005 203.931385 
L 860.168998 251.489664 
L 861.08799 280.914233 
L 867.520938 280.914235 
L 868.43993 174.559833 
L 869.358923 280.369684 
L 870.277915 280.914235 
L 871.196908 280.836244 
L 873.034893 280.914234 
L 877.629855 280.914235 
L 878.548848 280.511914 
L 879.46784 280.914235 
L 889.576758 280.914235 
L 890.49575 218.542991 
L 891.414743 280.914235 
L 893.252728 280.914235 
L 894.17172 280.69684 
L 895.090713 280.914235 
L 897.84769 280.914235 
L 898.766683 280.562033 
L 899.685675 280.914235 
L 900.604668 204.197481 
L 901.52366 280.914235 
L 902.442653 174.888401 
L 903.361645 280.914235 
L 904.280638 279.38635 
L 905.19963 280.914223 
L 907.956608 280.914232 
L 908.8756 270.395758 
L 909.794593 280.914235 
L 912.55157 280.882831 
L 913.470563 279.935195 
L 914.389555 280.914235 
L 922.660488 280.914235 
L 923.57948 278.477701 
L 924.498473 280.914235 
L 938.28336 280.914235 
L 939.202353 236.914431 
L 940.121345 280.914185 
L 946.554293 280.91293 
L 947.473285 270.395758 
L 948.392278 280.914235 
L 977.800038 280.903596 
L 978.71903 278.716192 
L 979.638023 280.914235 
L 981.476008 280.914235 
L 981.476008 280.914235 
" clip-path="url(#pbf186dec7d)" style="fill: none; stroke: #e67e22; stroke-opacity: 0.85; stroke-width: 1.2; stroke-linecap: square"/>
   </g>
   <g id="line2d_38">
    <path d="M 63.4025 274.868744 
L 64.321493 278.297124 
L 65.240485 280.308894 
L 66.159478 280.914235 
L 67.997463 280.914235 
L 68.916455 281.270416 
L 69.835448 263.825255 
L 70.75444 280.913906 
L 71.673433 280.385535 
L 72.592425 280.914222 
L 73.511418 280.849243 
L 74.43041 194.576184 
L 75.349403 280.914235 
L 82.701343 280.914135 
L 83.620335 187.977295 
L 84.539328 280.914235 
L 86.377313 280.914235 
L 87.296305 275.095542 
L 88.215298 275.177127 
L 89.13429 280.914235 
L 90.053283 277.259721 
L 90.972275 280.914235 
L 91.891268 273.142243 
L 92.81026 280.914235 
L 93.729253 280.914235 
L 94.648245 223.036844 
L 95.567238 280.914235 
L 100.1622 280.896986 
L 101.081193 280.369684 
L 102.000185 259.333052 
L 102.919178 279.935221 
L 103.83817 280.914171 
L 104.757163 280.914235 
L 105.676155 279.644679 
L 106.595148 251.27505 
L 107.51414 280.914226 
L 108.433133 280.914235 
L 109.352125 65.316819 
L 110.271118 280.914233 
L 111.19011 280.912677 
L 112.109103 268.155332 
L 113.028095 231.065457 
L 113.947088 280.910939 
L 116.704065 280.914235 
L 117.623058 204.197481 
L 118.54205 280.911755 
L 119.461043 241.024261 
L 120.380035 280.913533 
L 124.056005 280.911883 
L 124.974998 277.149017 
L 125.89399 280.79473 
L 126.812983 280.914216 
L 127.731975 280.914221 
L 128.650968 114.688887 
L 129.56996 237.235386 
L 130.488953 280.914215 
L 134.164923 280.914235 
L 135.083915 280.793547 
L 136.002908 280.914234 
L 136.9219 280.914235 
L 137.840892 134.63403 
L 138.759885 280.914234 
L 141.516863 280.914235 
L 142.435855 194.576184 
L 143.354848 280.914235 
L 144.27384 278.986119 
L 145.192833 280.914232 
L 146.111825 241.0249 
L 147.030818 267.048406 
L 147.94981 248.407465 
L 148.868803 280.914235 
L 149.787795 56.836377 
L 150.706788 218.542925 
L 151.62578 280.914235 
L 152.544773 280.740932 
L 153.463765 240.913656 
L 154.382758 280.914235 
L 155.30175 280.815602 
L 157.139735 280.914235 
L 158.97772 280.914228 
L 159.896713 240.731383 
L 160.815705 280.860699 
L 162.65369 280.914235 
L 163.572683 280.836288 
L 164.491675 218.543016 
L 165.410668 280.914235 
L 169.086638 280.914232 
L 170.00563 280.793547 
L 170.924623 280.914235 
L 172.762608 280.914235 
L 173.6816 278.477701 
L 174.600593 280.914235 
L 179.195555 280.914235 
L 180.114548 266.174667 
L 181.03354 280.914235 
L 185.628503 280.914235 
L 186.547495 280.586143 
L 187.466488 256.790754 
L 190.223465 280.914235 
L 192.980443 280.914235 
L 193.899435 218.543016 
L 194.818428 280.914235 
L 195.73742 270.395754 
L 196.656413 280.69684 
L 197.575405 179.823612 
L 198.494398 274.910546 
L 199.41339 280.914235 
L 205.846338 280.914235 
L 206.76533 63.984701 
L 207.684323 151.670891 
L 208.603315 280.61769 
L 209.522308 280.914235 
L 210.4413 262.605025 
L 211.360293 266.22735 
L 212.279285 280.913922 
L 232.49712 280.914235 
L 233.416113 278.87868 
L 234.335105 280.914235 
L 235.254098 252.081591 
L 236.17309 273.142115 
L 237.092083 280.914235 
L 238.011075 267.554002 
L 238.930068 280.562017 
L 239.84906 280.914235 
L 240.768053 280.914232 
L 241.687045 241.0249 
L 242.606038 280.696839 
L 243.52503 280.914235 
L 245.363015 280.914235 
L 246.282008 280.751893 
L 247.201 278.884972 
L 248.119993 280.914225 
L 249.038985 144.763605 
L 249.957978 280.914232 
L 252.714955 280.914235 
L 253.633948 280.517896 
L 254.55294 279.534655 
L 255.471933 280.914228 
L 259.147903 280.914235 
L 260.066895 271.470877 
L 260.985888 280.914235 
L 264.661857 280.914235 
L 265.58085 280.914235 
L 266.499842 280.369681 
L 267.418835 280.913947 
L 272.013798 280.914235 
L 272.93279 241.930607 
L 273.851783 280.914235 
L 274.770775 178.772385 
L 275.689768 280.914235 
L 276.60876 262.784357 
L 277.527753 280.911057 
L 278.446745 280.659826 
L 279.365738 280.910973 
L 284.879693 280.914235 
L 285.798685 278.477701 
L 286.717678 280.914235 
L 288.555663 280.914219 
L 289.474655 180.217079 
L 290.393648 280.739134 
L 291.31264 280.914128 
L 292.231633 280.914185 
L 293.150625 279.935194 
L 294.069618 280.914235 
L 294.98861 280.914235 
L 295.907603 241.0249 
L 296.826595 262.699901 
L 297.745588 280.914235 
L 301.421558 280.914235 
L 302.34055 280.089874 
L 303.259543 280.914194 
L 307.854505 280.914235 
L 308.773498 241.0249 
L 309.69249 280.914235 
L 312.449468 280.884039 
L 313.36846 270.10333 
L 314.287453 123.761976 
L 315.206445 280.914235 
L 317.963423 280.914171 
L 318.882415 270.395749 
L 319.801408 280.914235 
L 323.477378 280.90803 
L 324.39637 259.009129 
L 325.315362 280.914233 
L 326.234355 280.913549 
L 327.153347 253.16084 
L 328.07234 280.910626 
L 328.991332 279.844514 
L 329.910325 280.914235 
L 330.829318 280.906377 
L 331.74831 218.542109 
L 332.667303 280.914003 
L 336.343273 280.914235 
L 337.262265 241.023919 
L 338.181258 280.914235 
L 340.019243 280.914235 
L 340.938235 271.624337 
L 341.857228 280.914235 
L 344.614205 280.914235 
L 345.533198 279.594155 
L 346.45219 280.865907 
L 347.371183 270.395758 
L 348.290175 280.914235 
L 349.209168 280.914235 
L 350.12816 254.198644 
L 351.047153 280.914235 
L 352.885138 280.914235 
L 353.80413 277.380944 
L 354.723123 280.914235 
L 355.642115 280.914235 
L 356.561108 280.311356 
L 357.4801 280.914226 
L 361.15607 280.914235 
L 362.075063 279.13554 
L 362.994055 280.913571 
L 365.751033 280.91193 
L 366.670025 278.601296 
L 367.589018 261.564471 
L 368.50801 280.91423 
L 369.427003 274.380873 
L 370.345995 280.911057 
L 371.264988 204.197481 
L 372.18398 204.197481 
L 373.102973 280.914235 
L 374.021965 281.327351 
L 374.940958 280.914235 
L 376.778943 280.912989 
L 377.697935 280.687016 
L 378.616928 280.914235 
L 383.21189 280.897023 
L 384.130883 257.222134 
L 385.049875 280.709972 
L 385.968868 250.534386 
L 386.88786 280.914235 
L 390.56383 280.914235 
L 391.482823 53.080282 
L 392.401815 280.914235 
L 393.320808 275.760806 
L 394.2398 280.914235 
L 395.158793 280.914235 
L 396.077785 256.014984 
L 396.996778 280.91412 
L 397.91577 280.914235 
L 398.834763 241.0249 
L 399.753755 280.914235 
L 403.429725 280.914235 
L 404.348718 279.594155 
L 405.26771 280.914235 
L 406.186703 280.914235 
L 407.105695 274.791526 
L 408.024688 280.914235 
L 414.457635 280.914235 
L 415.376628 241.0249 
L 416.29562 280.914235 
L 417.214613 279.68465 
L 418.133605 280.914235 
L 426.404538 280.912927 
L 427.32353 280.69684 
L 428.242523 278.882807 
L 429.161515 280.914235 
L 430.080508 280.914235 
L 430.9995 274.61477 
L 431.918493 280.914235 
L 432.837485 280.658088 
L 433.756478 280.914235 
L 438.35144 280.914235 
L 439.270433 276.565451 
L 440.189425 280.914235 
L 445.70338 280.914235 
L 446.622373 87.807879 
L 447.541365 280.823889 
L 449.37935 280.9141 
L 457.650283 280.914235 
L 458.569275 250.224949 
L 459.488268 85.060341 
L 460.40726 280.914221 
L 463.164238 280.908332 
L 464.08323 277.830522 
L 465.002223 280.914235 
L 469.597185 280.908332 
L 470.516178 194.258451 
L 471.43517 280.914235 
L 472.354163 280.914228 
L 473.273155 256.872215 
L 474.192148 163.556739 
L 475.11114 280.914235 
L 482.46308 280.914235 
L 483.382073 262.784354 
L 484.301065 278.453391 
L 485.220058 280.914235 
L 487.977035 280.914225 
L 488.896028 280.781676 
L 491.653005 280.914235 
L 492.571998 193.850359 
L 493.49099 280.914237 
L 495.328975 280.898684 
L 496.247968 279.619105 
L 497.16696 280.914235 
L 498.085953 274.250812 
L 499.004945 280.914235 
L 499.923938 281.00596 
L 501.761923 280.914235 
L 502.680915 209.025706 
L 503.599908 272.598504 
L 504.5189 246.561244 
L 505.437893 276.375572 
L 506.356885 280.914235 
L 508.19487 280.914235 
L 509.113863 280.540987 
L 510.032855 280.914235 
L 514.627818 280.90512 
L 515.54681 273.976115 
L 516.465803 280.914235 
L 517.384795 280.914235 
L 518.303788 280.006404 
L 519.22278 280.201485 
L 520.141773 280.914229 
L 521.060765 279.510573 
L 521.979758 280.896863 
L 524.736735 280.914235 
L 525.655728 279.135683 
L 526.57472 114.947445 
L 527.493713 280.882518 
L 531.169683 280.913982 
L 534.845653 280.914233 
L 535.764645 277.669332 
L 536.683638 280.620661 
L 537.60263 280.914235 
L 538.521623 280.914211 
L 539.440615 278.472546 
L 540.359608 280.914235 
L 541.2786 253.16084 
L 542.197593 280.914235 
L 555.98248 280.914235 
L 556.901473 262.277286 
L 557.820465 280.909011 
L 558.739458 240.950355 
L 559.65845 280.914235 
L 560.577443 149.144541 
L 561.496435 280.914235 
L 562.415428 280.564944 
L 563.33442 280.620657 
L 564.253413 271.234374 
L 565.172405 280.819742 
L 567.01039 280.914235 
L 569.767368 280.914235 
L 570.68636 167.734245 
L 571.605353 266.785292 
L 572.524345 280.914235 
L 573.443338 144.31949 
L 574.36233 280.914234 
L 575.281323 100.135574 
L 576.200315 280.913947 
L 578.957293 280.913604 
L 579.876285 204.197481 
L 580.795278 268.04391 
L 581.71427 280.914235 
L 583.552255 280.914171 
L 584.471248 276.570604 
L 585.39024 280.833214 
L 586.309233 280.914235 
L 587.228225 256.323533 
L 588.147218 280.914235 
L 589.06621 280.914235 
L 589.985203 280.793547 
L 590.904195 280.914221 
L 595.499158 280.914235 
L 596.41815 266.883533 
L 597.337143 280.914233 
L 598.256135 273.173786 
L 599.175128 271.544076 
L 600.09412 280.914235 
L 601.013113 280.913959 
L 601.932105 280.605313 
L 602.851098 277.039774 
L 603.77009 280.914235 
L 605.608075 280.914235 
L 606.527068 277.462024 
L 607.44606 280.914235 
L 608.365053 243.58777 
L 609.284045 62.405825 
L 610.203038 257.218055 
L 611.12203 280.914235 
L 612.041023 280.793474 
L 612.960015 280.91293 
L 616.635985 280.914235 
L 617.554978 237.753462 
L 618.47397 82.040885 
L 619.392963 280.893217 
L 620.311955 277.863014 
L 621.230948 168.301514 
L 622.14994 280.914235 
L 623.987925 280.871265 
L 624.906918 279.935221 
L 625.82591 280.906214 
L 626.744903 259.351613 
L 627.663895 280.914235 
L 631.339865 280.914223 
L 632.258858 260.094789 
L 633.17785 280.914235 
L 635.934828 280.913947 
L 636.85382 194.576184 
L 637.772813 280.646357 
L 638.691805 280.914235 
L 643.286768 280.894725 
L 644.20576 255.528518 
L 645.124753 280.786816 
L 646.043745 204.183385 
L 646.962738 280.914235 
L 647.88173 240.713161 
L 648.800723 280.914229 
L 651.5577 280.908332 
L 652.476693 280.62063 
L 653.395685 280.913838 
L 654.314678 174.968809 
L 655.23367 280.914235 
L 662.58561 280.914235 
L 663.504603 279.135683 
L 664.423595 280.914235 
L 665.342588 280.805124 
L 667.180573 280.914235 
L 672.694528 280.866124 
L 673.61352 103.147091 
L 674.532513 280.914235 
L 676.370498 280.914235 
L 677.28949 250.224919 
L 678.208483 280.914235 
L 681.884453 280.914235 
L 682.803445 280.914235 
L 683.722438 280.347814 
L 684.64143 280.914235 
L 685.560423 280.914235 
L 686.479415 279.385125 
L 687.398408 280.914235 
L 689.236393 280.914235 
L 690.155385 280.082449 
L 691.074378 280.793547 
L 691.99337 280.553605 
L 692.912363 280.914235 
L 693.831355 280.914223 
L 694.750348 280.786349 
L 695.66934 251.799634 
L 696.588333 277.766253 
L 697.507325 200.853304 
L 698.426318 280.899759 
L 700.264303 280.914235 
L 701.183295 271.154504 
L 702.102288 280.914235 
L 703.02128 280.914235 
L 703.940273 240.538966 
L 704.859265 280.91029 
L 708.535235 280.914115 
L 709.454228 255.068611 
L 710.37322 280.914235 
L 711.292213 218.39902 
L 712.211205 280.914235 
L 713.130198 260.519573 
L 714.04919 280.914235 
L 715.887175 280.914235 
L 716.806168 241.0249 
L 717.72516 218.543016 
L 718.644153 280.914235 
L 722.320123 280.914235 
L 723.239115 94.015443 
L 724.158108 280.91421 
L 729.672063 280.914096 
L 730.591055 280.175202 
L 731.510048 229.395418 
L 732.42904 280.914235 
L 733.348033 280.914235 
L 734.267025 173.998084 
L 735.186018 280.914235 
L 736.10501 270.38302 
L 737.024003 269.872304 
L 737.942995 280.914235 
L 738.861988 162.553846 
L 739.78098 280.914235 
L 740.699973 254.199222 
L 741.618965 273.976071 
L 742.537958 280.899862 
L 746.213928 280.914235 
L 747.13292 262.736624 
L 748.051913 280.882165 
L 748.970905 280.914235 
L 749.889898 224.616879 
L 750.80889 280.914185 
L 752.646875 280.910798 
L 753.565868 228.445727 
L 754.48486 260.179213 
L 755.403853 280.826284 
L 757.241838 280.914235 
L 760.917808 280.914001 
L 761.8368 280.914235 
L 762.755793 98.872369 
L 763.674785 280.914235 
L 774.702695 280.914235 
L 775.621688 279.594154 
L 776.54068 203.681634 
L 777.459673 218.543016 
L 778.378665 274.080032 
L 779.297658 280.914228 
L 780.21665 271.243532 
L 781.135643 280.914235 
L 784.811613 280.914235 
L 785.730605 225.021272 
L 786.649598 280.914235 
L 787.56859 280.888734 
L 788.487583 276.570604 
L 789.406575 280.91293 
L 791.24456 280.914235 
L 792.163553 279.891364 
L 793.082545 275.674156 
L 794.001538 280.913947 
L 799.515493 280.914226 
L 800.434485 241.022916 
L 801.353478 277.028856 
L 802.27247 280.894256 
L 803.191463 280.914235 
L 804.110455 280.093111 
L 805.029448 280.914235 
L 813.30038 280.914235 
L 814.219373 169.84581 
L 815.138365 280.914235 
L 816.057358 271.07114 
L 816.97635 280.914235 
L 817.895343 241.0249 
L 818.814335 280.868246 
L 820.65232 280.914235 
L 821.571313 280.369662 
L 822.490305 280.914235 
L 825.247283 280.914235 
L 826.166275 183.134501 
L 827.085268 280.914235 
L 828.00426 176.435996 
L 828.923253 280.914235 
L 831.68023 280.914235 
L 832.599223 280.660766 
L 833.518215 280.914235 
L 837.194185 280.87018 
L 838.113178 278.477701 
L 839.03217 280.914235 
L 842.70814 280.914235 
L 843.627133 279.179602 
L 844.546125 280.820716 
L 845.465118 237.309102 
L 846.38411 280.793504 
L 847.303103 280.914159 
L 848.222095 280.910421 
L 849.141088 279.686616 
L 850.06008 280.914235 
L 856.493028 280.914235 
L 857.41202 271.878304 
L 858.331013 280.914235 
L 861.08799 280.914235 
L 862.006983 280.660805 
L 862.925975 280.914235 
L 863.844968 280.914235 
L 864.76396 278.477694 
L 865.682953 280.91423 
L 873.953885 280.911057 
L 874.872878 267.017916 
L 875.79187 280.914211 
L 883.14381 280.914235 
L 884.062803 278.47671 
L 884.981795 280.914235 
L 885.900788 280.914235 
L 886.81978 280.013482 
L 887.738773 254.412385 
L 888.657765 103.630681 
L 889.576758 280.914192 
L 891.414743 280.914235 
L 892.333735 204.19724 
L 893.252728 279.504045 
L 894.17172 280.914235 
L 906.118623 280.914235 
L 907.037615 278.311312 
L 907.956608 194.576184 
L 908.8756 280.914235 
L 914.389555 280.914223 
L 915.308548 278.477238 
L 916.22754 280.626494 
L 917.146533 280.914235 
L 918.065525 54.030537 
L 918.984518 265.93217 
L 919.90351 280.914235 
L 920.822503 270.395758 
L 921.741495 280.914235 
L 922.660488 232.386317 
L 923.57948 280.913944 
L 928.174443 280.914235 
L 929.093435 279.958221 
L 930.012428 280.907281 
L 934.60739 280.914235 
L 935.526383 194.576171 
L 936.445375 280.914049 
L 937.364368 280.277318 
L 938.28336 272.081021 
L 939.202353 280.914235 
L 941.040338 280.914235 
L 941.95933 279.931565 
L 942.878323 280.914235 
L 943.797315 280.777386 
L 944.716308 187.977295 
L 945.6353 280.914235 
L 950.230263 280.914234 
L 951.149255 172.474824 
L 952.068248 280.914235 
L 955.744218 280.914235 
L 956.66321 102.914826 
L 957.582203 280.914235 
L 958.501195 280.914235 
L 959.420188 218.000141 
L 960.33918 280.914235 
L 964.934143 280.914235 
L 965.853135 271.109117 
L 966.772128 280.914235 
L 967.69112 73.770042 
L 968.610113 280.914235 
L 970.448098 280.914235 
L 971.36709 246.752043 
L 972.286083 280.914235 
L 973.205075 248.116387 
L 974.124068 280.786575 
L 975.04306 280.914235 
L 975.962053 272.899445 
L 976.881045 280.914235 
L 977.800038 262.711787 
L 978.71903 280.538153 
L 979.638023 279.561502 
L 980.557015 280.911823 
L 981.476008 252.241637 
L 981.476008 252.241637 
" clip-path="url(#pbf186dec7d)" style="fill: none; stroke: #2ecc71; stroke-opacity: 0.85; stroke-width: 1.2; stroke-linecap: square"/>
   </g>
   <g id="line2d_39">
    <path d="M 63.4025 172.80875 
L 982.395 172.80875 
" clip-path="url(#pbf186dec7d)" style="fill: none; stroke: #808080; stroke-opacity: 0.5; stroke-width: 0.5; stroke-linecap: square"/>
   </g>
   <g id="line2d_40">
    <path d="M 63.4025 212.018409 
L 982.395 212.018409 
" clip-path="url(#pbf186dec7d)" style="fill: none; stroke-dasharray: 1.85,0.8; stroke-dashoffset: 0; stroke: #ff0000; stroke-opacity: 0.4; stroke-width: 0.5"/>
   </g>
   <g id="line2d_41">
    <path d="M 63.4025 133.599091 
L 982.395 133.599091 
" clip-path="url(#pbf186dec7d)" style="fill: none; stroke-dasharray: 1.85,0.8; stroke-dashoffset: 0; stroke: #008000; stroke-opacity: 0.4; stroke-width: 0.5"/>
   </g>
   <g id="patch_3">
    <path d="M 63.4025 316.5775 
L 63.4025 29.04 
" style="fill: none; stroke: #000000; stroke-width: 0.8; stroke-linejoin: miter; stroke-linecap: square"/>
   </g>
   <g id="patch_4">
    <path d="M 982.395 316.5775 
L 982.395 29.04 
" style="fill: none; stroke: #000000; stroke-width: 0.8; stroke-linejoin: miter; stroke-linecap: square"/>
   </g>
   <g id="patch_5">
    <path d="M 63.4025 316.5775 
L 982.395 316.5775 
" style="fill: none; stroke: #000000; stroke-width: 0.8; stroke-linejoin: miter; stroke-linecap: square"/>
   </g>
   <g id="patch_6">
    <path d="M 63.4025 29.04 
L 982.395 29.04 
" style="fill: none; stroke: #000000; stroke-width: 0.8; stroke-linejoin: miter; stroke-linecap: square"/>
   </g>
   <g id="text_21">
    <!-- 恐慌阈值 -->
    <g style="fill: #ff0000" transform="translate(81.78235 209.404432) scale(0.08 -0.08)">
     <defs>
      <path id="SimHei-6050" d="M 5075 4925 
Q 5050 4500 5050 4125 
L 5050 2700 
Q 5050 2375 5175 2375 
L 5425 2375 
Q 5550 2375 5650 2975 
Q 5875 2800 6150 2750 
Q 6000 2025 5775 1975 
Q 5550 1925 5325 1925 
Q 5125 1925 4875 1975 
Q 4625 2025 4600 2425 
L 4600 4525 
L 3475 4525 
Q 3500 3950 3412 3187 
Q 3325 2425 2600 1675 
Q 2500 1825 2175 1975 
Q 2575 2275 2800 2712 
Q 3025 3150 3037 3662 
Q 3050 4175 3000 4925 
L 5075 4925 
z
M 2650 4325 
Q 2175 4350 1850 4350 
L 1850 2900 
Q 2125 2950 2725 3100 
Q 2700 2875 2725 2700 
Q 1200 2375 575 2150 
Q 475 2400 375 2625 
Q 750 2675 1400 2825 
L 1400 4350 
Q 950 4350 500 4325 
L 500 4750 
Q 950 4725 1550 4725 
Q 2175 4725 2650 4750 
L 2650 4325 
z
M 2450 1475 
Q 2425 875 2425 550 
Q 2425 225 2462 75 
Q 2500 -75 2775 -75 
L 3900 -75 
Q 4250 -100 4350 112 
Q 4450 325 4450 625 
Q 4725 425 4975 375 
Q 4800 -200 4612 -337 
Q 4425 -475 4050 -475 
L 2525 -475 
Q 1975 -450 1950 50 
L 1950 650 
Q 1950 1000 1925 1475 
L 2450 1475 
z
M 1625 1425 
Q 1225 450 875 -150 
Q 600 0 425 100 
Q 875 750 1200 1650 
Q 1375 1550 1625 1425 
z
M 6000 350 
Q 5725 175 5525 25 
Q 5375 350 4725 1400 
Q 4900 1525 5100 1675 
Q 5775 650 6000 350 
z
M 3275 1925 
Q 3775 1250 4050 850 
Q 3800 700 3625 550 
Q 3400 1000 2925 1650 
Q 3075 1775 3275 1925 
z
M 3875 4025 
Q 4350 3225 4550 2900 
Q 4350 2825 4125 2650 
Q 4000 3000 3500 3800 
Q 3700 3950 3875 4025 
z
" transform="scale(0.015625)"/>
      <path id="SimHei-614c" d="M 4200 3800 
Q 4250 3550 4375 3275 
L 4950 3275 
Q 5400 3275 5875 3300 
L 5875 2850 
Q 5400 2875 4925 2875 
L 3025 2875 
L 3025 2300 
L 4650 2300 
Q 5125 2300 5575 2325 
L 5575 1875 
Q 5125 1900 4650 1900 
L 2575 1900 
Q 2600 2200 2600 2875 
Q 2375 2875 2125 2850 
L 2125 3300 
Q 2625 3275 3050 3275 
L 3825 3275 
Q 3750 3475 3650 3700 
Q 3875 3750 4200 3800 
z
M 1925 4000 
Q 2125 3525 2200 3350 
Q 1975 3275 1775 3150 
Q 1750 3350 1550 3800 
L 1550 475 
Q 1550 0 1575 -550 
L 1100 -550 
Q 1125 0 1125 475 
L 1125 4350 
Q 1125 4800 1100 5150 
L 1600 5150 
Q 1550 4850 1550 4350 
L 1550 3825 
Q 1750 3900 1925 4000 
z
M 3375 4125 
Q 3375 3900 3400 3650 
L 2925 3650 
Q 2950 3950 2950 4125 
Q 2525 4125 2200 4100 
L 2200 4550 
Q 2525 4525 2950 4525 
Q 2950 4800 2925 5200 
L 3400 5200 
Q 3375 4900 3375 4525 
L 4625 4525 
Q 4625 4800 4600 5200 
L 5075 5200 
Q 5050 4775 5050 4525 
Q 5550 4525 5925 4550 
L 5925 4100 
Q 5525 4125 5075 4125 
Q 5075 3925 5100 3675 
L 4625 3675 
Q 4650 3925 4650 4125 
L 3375 4125 
z
M 5200 1525 
Q 5175 1225 5175 875 
L 5175 275 
Q 5175 -25 5275 -25 
L 5500 -25 
Q 5650 -25 5700 525 
Q 5950 400 6175 350 
Q 6050 -200 5887 -312 
Q 5725 -425 5475 -425 
Q 5225 -425 4987 -400 
Q 4750 -375 4750 25 
L 4750 900 
Q 4750 1225 4725 1525 
L 5200 1525 
z
M 3100 1550 
Q 3050 1350 3000 887 
Q 2950 425 2800 25 
Q 2650 -375 2325 -650 
Q 2100 -425 1850 -300 
Q 2325 25 2462 512 
Q 2600 1000 2600 1625 
Q 2800 1575 3100 1550 
z
M 4125 1550 
Q 4100 1275 4100 1000 
L 4100 300 
Q 4100 -50 4125 -350 
L 3625 -350 
Q 3650 -25 3650 300 
L 3650 950 
Q 3650 1250 3625 1550 
L 4125 1550 
z
M 975 3900 
Q 850 2900 675 2150 
Q 450 2200 200 2225 
Q 450 3075 475 3950 
Q 750 3925 975 3900 
z
" transform="scale(0.015625)"/>
      <path id="SimHei-9608" d="M 5225 825 
Q 4925 75 4612 150 
Q 4300 225 3975 800 
Q 3850 600 3687 362 
Q 3525 125 3325 -100 
Q 3150 50 2875 175 
Q 3150 425 3337 687 
Q 3525 950 3700 1250 
Q 3525 1750 3437 2087 
Q 3350 2425 3300 3175 
L 1900 3175 
Q 1675 3175 1350 3150 
L 1350 3550 
Q 1675 3525 1900 3525 
L 3300 3525 
Q 3250 4025 3225 4300 
Q 3425 4275 3775 4275 
Q 3750 3850 3750 3525 
L 4425 3525 
Q 4675 3525 5075 3550 
L 5075 3150 
Q 4675 3175 4425 3175 
L 3750 3175 
Q 3750 2900 3812 2475 
Q 3875 2050 4000 1775 
Q 4075 1975 4137 2237 
Q 4200 2500 4250 2925 
Q 4675 2800 4850 2725 
Q 4700 2550 4562 2112 
Q 4425 1675 4225 1200 
Q 4350 950 4537 787 
Q 4725 625 4850 1100 
Q 5075 925 5225 825 
z
M 5900 4875 
Q 5875 4400 5875 3825 
L 5875 100 
Q 5875 -400 5550 -475 
Q 5225 -550 4850 -625 
Q 4750 -350 4575 -50 
Q 5150 -75 5300 -50 
Q 5450 -25 5450 300 
L 5450 4500 
L 3600 4500 
Q 3050 4500 2400 4475 
L 2400 4900 
Q 3050 4875 3550 4875 
L 5900 4875 
z
M 3050 2725 
Q 2975 2450 2975 2200 
L 2975 1300 
L 1450 1300 
Q 1475 1550 1475 1725 
L 1475 2200 
Q 1475 2425 1450 2725 
L 3050 2725 
z
M 1075 3850 
Q 1050 3475 1050 3100 
L 1050 -575 
L 550 -575 
Q 600 100 600 625 
L 600 2975 
Q 600 3500 550 3850 
L 1075 3850 
z
M 3100 1050 
Q 3075 775 3100 650 
Q 2775 575 2200 450 
Q 1625 325 1325 200 
Q 1200 475 1125 725 
Q 1425 750 1987 850 
Q 2550 950 3100 1050 
z
M 1375 5275 
Q 1650 4900 1975 4375 
Q 1725 4225 1475 4100 
Q 1200 4625 900 5000 
Q 1150 5200 1375 5275 
z
M 2550 1675 
L 2550 2350 
L 1900 2350 
L 1900 1675 
L 2550 1675 
z
M 4500 4400 
Q 4625 4150 4800 3875 
Q 4625 3800 4350 3650 
Q 4225 3925 4075 4175 
Q 4325 4350 4500 4400 
z
" transform="scale(0.015625)"/>
      <path id="SimHei-503c" d="M 3675 4450 
L 3675 5100 
Q 3975 5075 4350 5050 
Q 4225 4875 4200 4450 
L 5125 4450 
Q 5550 4450 5875 4475 
L 5875 4025 
Q 5525 4050 5125 4050 
L 4175 4050 
L 4125 3500 
L 5400 3500 
Q 5375 3200 5375 2700 
L 5375 150 
Q 5875 150 6100 175 
L 6100 -275 
Q 5775 -250 5200 -250 
L 2850 -250 
Q 2275 -250 1900 -275 
L 1900 175 
Q 2125 150 2600 150 
L 2600 2700 
Q 2600 3175 2575 3500 
L 3600 3500 
L 3650 4050 
L 3200 4050 
Q 2575 4050 2225 4025 
L 2225 4475 
Q 2550 4450 3200 4450 
L 3675 4450 
z
M 2225 4900 
Q 2025 4675 1650 3750 
L 1650 450 
Q 1650 -75 1675 -550 
L 1150 -550 
Q 1175 -125 1175 375 
L 1175 2950 
Q 875 2450 625 2150 
Q 425 2425 250 2575 
Q 500 2825 937 3537 
Q 1375 4250 1625 5150 
Q 1975 4975 2225 4900 
z
M 4925 2650 
L 4925 3150 
L 3075 3150 
L 3075 2650 
L 4925 2650 
z
M 4925 150 
L 4925 625 
L 3075 625 
L 3075 150 
L 4925 150 
z
M 4925 1000 
L 4925 1450 
L 3075 1450 
L 3075 1000 
L 4925 1000 
z
M 4925 1825 
L 4925 2275 
L 3075 2275 
L 3075 1825 
L 4925 1825 
z
" transform="scale(0.015625)"/>
     </defs>
     <use xlink:href="#SimHei-6050"/>
     <use xlink:href="#SimHei-614c" transform="translate(100 0)"/>
     <use xlink:href="#SimHei-9608" transform="translate(200 0)"/>
     <use xlink:href="#SimHei-503c" transform="translate(300 0)"/>
    </g>
   </g>
   <g id="text_22">
    <!-- 乐观阈值 -->
    <g style="fill: #008000" transform="translate(81.78235 130.985114) scale(0.08 -0.08)">
     <defs>
      <path id="SimHei-4e50" d="M 3100 2700 
L 3100 3200 
Q 3100 3400 3075 4050 
L 3650 4050 
Q 3625 3525 3625 3200 
L 3625 2700 
L 4925 2700 
Q 5425 2700 5875 2725 
L 5875 2225 
Q 5200 2250 4875 2250 
L 3625 2250 
L 3625 25 
Q 3625 -400 3300 -500 
Q 2975 -600 2375 -650 
Q 2300 -300 2175 -75 
Q 2650 -100 2875 -62 
Q 3100 -25 3100 175 
L 3100 2250 
L 1850 2250 
Q 1125 2225 925 2100 
Q 875 2275 675 2525 
Q 875 2675 962 2912 
Q 1050 3150 1175 4625 
Q 2375 4625 3487 4787 
Q 4600 4950 5100 5100 
Q 5275 4700 5425 4550 
Q 4600 4450 3562 4350 
Q 2525 4250 1675 4200 
Q 1550 3150 1475 2700 
L 3100 2700 
z
M 2425 1500 
Q 2225 1325 1725 787 
Q 1225 250 900 -75 
Q 775 75 500 300 
Q 875 600 1237 987 
Q 1600 1375 1950 1900 
Q 2225 1625 2425 1500 
z
M 4525 1750 
Q 4900 1425 5250 1087 
Q 5600 750 5975 375 
Q 5625 125 5500 -25 
Q 5150 425 4175 1375 
Q 4325 1500 4525 1750 
z
" transform="scale(0.015625)"/>
      <path id="SimHei-89c2" d="M 2600 4750 
Q 2500 3900 2387 3325 
Q 2275 2750 2075 2150 
Q 2425 1625 2800 1000 
Q 2575 825 2350 625 
Q 2100 1200 1800 1675 
Q 1600 1275 1300 912 
Q 1000 550 650 175 
Q 500 375 200 625 
Q 675 950 975 1300 
Q 1275 1650 1500 2100 
Q 1075 2725 625 3200 
Q 850 3375 1025 3525 
Q 1375 3150 1725 2600 
Q 1975 3400 2075 4350 
L 1300 4350 
Q 850 4350 475 4325 
L 475 4775 
Q 825 4750 1275 4750 
L 2600 4750 
z
M 4775 225 
Q 4775 0 4887 -25 
Q 5000 -50 5225 -50 
Q 5475 -50 5537 37 
Q 5600 125 5650 675 
Q 5875 525 6175 450 
Q 6025 -300 5850 -400 
Q 5675 -500 5400 -500 
L 4825 -500 
Q 4525 -500 4425 -325 
Q 4325 -150 4325 50 
L 4325 1600 
Q 4200 1125 3900 687 
Q 3600 250 3187 -87 
Q 2775 -425 2325 -650 
Q 2225 -400 1925 -150 
Q 2625 25 3087 475 
Q 3550 925 3737 1425 
Q 3925 1925 3962 2562 
Q 4000 3200 3975 3875 
Q 4325 3825 4550 3800 
Q 4450 3400 4425 2750 
Q 4400 2100 4325 1700 
L 4825 1700 
Q 4800 1550 4775 1025 
L 4775 225 
z
M 5700 5050 
Q 5675 4650 5675 3350 
Q 5675 2050 5700 1575 
L 5200 1575 
L 5200 4650 
L 3450 4650 
L 3450 1550 
L 2950 1550 
Q 2975 2150 2975 3300 
Q 2975 4475 2950 5050 
L 5700 5050 
z
" transform="scale(0.015625)"/>
     </defs>
     <use xlink:href="#SimHei-4e50"/>
     <use xlink:href="#SimHei-89c2" transform="translate(100 0)"/>
     <use xlink:href="#SimHei-9608" transform="translate(200 0)"/>
     <use xlink:href="#SimHei-503c" transform="translate(300 0)"/>
    </g>
   </g>
   <g id="text_23">
    <!-- Exp_1b vs Exp_2 分销商情绪演化时序对比 -->
    <g transform="translate(389.89875 23.04) scale(0.14 -0.14)">
     <defs>
      <path id="SimHei-78" d="M 2875 125 
L 2275 125 
L 1550 1200 
L 825 125 
L 225 125 
L 1250 1550 
L 300 2925 
L 900 2925 
L 1550 1875 
L 2200 2925 
L 2800 2925 
L 1850 1550 
L 2875 125 
z
" transform="scale(0.015625)"/>
      <path id="SimHei-70" d="M 2825 1525 
Q 2825 800 2475 425 
Q 2125 50 1625 50 
Q 1350 50 1150 162 
Q 950 275 800 500 
L 800 -800 
L 300 -800 
L 300 2925 
L 800 2925 
L 800 2550 
Q 950 2775 1150 2875 
Q 1350 2975 1625 2975 
Q 2125 2975 2475 2612 
Q 2825 2250 2825 1525 
z
M 2275 1525 
Q 2275 2000 2087 2262 
Q 1900 2525 1525 2525 
Q 1225 2525 1012 2262 
Q 800 2000 800 1525 
Q 800 1050 1012 775 
Q 1225 500 1525 500 
Q 1900 500 2087 775 
Q 2275 1050 2275 1525 
z
" transform="scale(0.015625)"/>
      <path id="SimHei-62" d="M 2825 1525 
Q 2825 800 2475 437 
Q 2125 75 1625 75 
Q 1350 75 1150 175 
Q 950 275 800 500 
L 800 125 
L 300 125 
L 300 4400 
L 800 4400 
L 800 2550 
Q 950 2775 1150 2887 
Q 1350 3000 1625 3000 
Q 2125 3000 2475 2625 
Q 2825 2250 2825 1525 
z
M 2275 1525 
Q 2275 2000 2087 2275 
Q 1900 2550 1525 2550 
Q 1225 2550 1012 2275 
Q 800 2000 800 1525 
Q 800 1050 1012 787 
Q 1225 525 1525 525 
Q 1900 525 2087 787 
Q 2275 1050 2275 1525 
z
" transform="scale(0.015625)"/>
      <path id="SimHei-76" d="M 2875 2925 
L 1825 75 
L 1275 75 
L 225 2925 
L 750 2925 
L 1525 750 
L 1575 750 
L 2350 2925 
L 2875 2925 
z
" transform="scale(0.015625)"/>
      <path id="SimHei-73" d="M 2750 900 
Q 2750 500 2437 287 
Q 2125 75 1650 75 
Q 1050 75 725 312 
Q 400 550 400 1000 
L 900 1000 
Q 900 700 1112 600 
Q 1325 500 1625 500 
Q 1925 500 2075 612 
Q 2225 725 2225 900 
Q 2225 1025 2100 1150 
Q 1975 1275 1475 1350 
Q 900 1425 687 1637 
Q 475 1850 475 2200 
Q 475 2500 762 2737 
Q 1050 2975 1600 2975 
Q 2100 2975 2387 2750 
Q 2675 2525 2675 2150 
L 2175 2150 
Q 2175 2375 2012 2462 
Q 1850 2550 1600 2550 
Q 1275 2550 1137 2437 
Q 1000 2325 1000 2175 
Q 1000 2000 1125 1900 
Q 1250 1800 1650 1750 
Q 2300 1650 2525 1437 
Q 2750 1225 2750 900 
z
" transform="scale(0.015625)"/>
      <path id="SimHei-5206" d="M 1000 -650 
Q 825 -375 575 -225 
Q 975 -75 1300 137 
Q 1625 350 1875 662 
Q 2125 975 2250 1350 
Q 2375 1725 2425 2275 
Q 1850 2275 1500 2250 
L 1500 2775 
Q 1900 2750 2525 2750 
L 5025 2750 
Q 4975 2375 4950 2100 
L 4750 250 
Q 4700 -200 4350 -350 
Q 4000 -500 3575 -525 
Q 3550 -275 3325 50 
Q 3850 25 4037 87 
Q 4225 150 4275 525 
L 4450 2275 
L 2950 2275 
Q 2875 1625 2737 1187 
Q 2600 750 2350 425 
Q 2100 100 1750 -175 
Q 1400 -450 1000 -650 
z
M 3950 5175 
Q 4125 4650 4662 3975 
Q 5200 3300 6175 2800 
Q 5975 2625 5775 2275 
Q 5325 2600 4987 2887 
Q 4650 3175 4425 3425 
Q 4200 3675 3925 4137 
Q 3650 4600 3475 5000 
Q 3750 5075 3950 5175 
z
M 2700 4825 
Q 2475 4425 2325 4125 
Q 2175 3825 2025 3587 
Q 1875 3350 1575 2950 
Q 1275 2550 850 2125 
Q 625 2350 400 2475 
Q 900 2925 1187 3300 
Q 1475 3675 1737 4112 
Q 2000 4550 2200 5075 
Q 2400 4925 2700 4825 
z
" transform="scale(0.015625)"/>
      <path id="SimHei-9500" d="M 4175 4325 
Q 4175 4700 4150 5125 
L 4650 5125 
Q 4625 4850 4625 4325 
L 4625 3225 
L 5825 3225 
Q 5800 2850 5800 2225 
L 5800 50 
Q 5800 -300 5562 -375 
Q 5325 -450 4925 -525 
Q 4875 -275 4700 -25 
Q 5275 0 5300 112 
Q 5325 225 5325 825 
L 3575 825 
L 3575 -450 
L 3100 -450 
Q 3125 75 3125 400 
L 3125 2175 
Q 3125 2800 3100 3225 
L 4175 3225 
L 4175 4325 
z
M 2350 2700 
Q 2025 2725 1700 2725 
L 1700 1975 
Q 2125 1975 2600 2000 
L 2600 1550 
Q 2125 1575 1700 1575 
L 1700 425 
Q 1925 575 2250 925 
Q 2325 700 2500 475 
Q 2250 300 1975 87 
Q 1700 -125 1400 -450 
Q 1275 -225 1075 -50 
Q 1225 100 1250 400 
L 1250 1575 
Q 950 1575 525 1550 
L 525 2000 
Q 950 1975 1250 1975 
L 1250 2725 
Q 950 2725 750 2700 
L 750 3150 
Q 1075 3125 1500 3125 
Q 1950 3125 2350 3150 
L 2350 2700 
z
M 625 3075 
Q 450 3275 225 3375 
Q 600 3750 875 4200 
Q 1150 4650 1325 5125 
Q 1675 4925 1875 4850 
Q 1550 4400 1450 4200 
Q 2075 4200 2500 4225 
L 2500 3750 
Q 2075 3775 1200 3775 
Q 825 3275 625 3075 
z
M 5325 2200 
L 5325 2850 
L 3575 2850 
L 3575 2200 
L 5325 2200 
z
M 5325 1200 
L 5325 1825 
L 3575 1825 
L 3575 1200 
L 5325 1200 
z
M 6050 4550 
Q 5850 4300 5450 3525 
Q 5225 3650 4975 3725 
Q 5250 4050 5525 4775 
Q 5725 4650 6050 4550 
z
M 3200 4775 
Q 3600 4150 3800 3800 
Q 3575 3700 3350 3550 
Q 3175 3950 2775 4525 
Q 3025 4625 3200 4775 
z
" transform="scale(0.015625)"/>
      <path id="SimHei-5546" d="M 3150 5225 
Q 3475 4725 3550 4525 
L 4975 4525 
Q 5475 4525 5975 4550 
L 5975 4100 
Q 5475 4125 4975 4125 
L 2100 4125 
Q 2575 3625 2675 3475 
Q 2500 3400 2300 3250 
L 3650 3250 
Q 3800 3650 3950 4100 
Q 4200 4000 4525 3925 
Q 4350 3700 4125 3250 
L 5525 3250 
Q 5500 2950 5500 2425 
L 5500 -50 
Q 5500 -350 5225 -475 
Q 4950 -600 4475 -675 
Q 4450 -375 4275 -125 
Q 4775 -150 4900 -75 
Q 5025 0 5025 175 
L 5025 2900 
L 1375 2900 
L 1375 -600 
L 875 -600 
Q 900 50 900 325 
L 900 2475 
Q 900 2725 875 3250 
L 2250 3250 
Q 2075 3550 1675 3875 
Q 1875 3975 2050 4125 
L 1475 4125 
Q 900 4125 475 4100 
L 475 4550 
Q 900 4525 1450 4525 
L 3000 4525 
Q 2925 4775 2675 5050 
Q 2925 5125 3150 5225 
z
M 2600 2650 
Q 2850 2475 3075 2350 
Q 2825 2225 2350 1675 
L 4250 1675 
Q 4225 1350 4225 975 
Q 4225 600 4250 225 
L 2300 225 
Q 2325 600 2325 950 
Q 2325 1325 2300 1625 
Q 2125 1475 1950 1350 
Q 1825 1525 1575 1625 
Q 2350 2225 2600 2650 
z
M 3750 600 
L 3750 1300 
L 2775 1300 
L 2775 600 
L 3750 600 
z
M 3775 2675 
Q 4475 2225 4900 1850 
Q 4675 1725 4525 1525 
Q 4275 1825 3475 2350 
Q 3650 2475 3775 2675 
z
" transform="scale(0.015625)"/>
      <path id="SimHei-6f14" d="M 4475 3575 
Q 4825 3575 5250 3600 
L 5250 3200 
Q 4850 3225 4475 3225 
L 4175 3225 
L 4175 2700 
L 5675 2700 
Q 5650 2375 5650 2000 
L 5650 1275 
Q 5650 975 5675 625 
L 4750 625 
Q 5025 475 5375 250 
Q 5725 25 6100 -250 
Q 5925 -450 5800 -650 
Q 5425 -350 5075 -112 
Q 4725 125 4425 300 
Q 4600 500 4675 625 
L 2300 625 
Q 2325 975 2325 1275 
L 2325 2000 
Q 2325 2375 2300 2700 
L 3750 2700 
L 3750 3225 
L 3475 3225 
Q 3125 3225 2700 3200 
L 2700 3600 
Q 3150 3575 3450 3575 
L 4475 3575 
z
M 3850 5275 
Q 4125 4825 4275 4475 
L 6100 4475 
Q 6075 4175 6075 3925 
Q 6075 3700 6100 3400 
L 5600 3400 
L 5600 4125 
L 2425 4125 
L 2425 3450 
L 1925 3450 
Q 1950 3750 1950 3975 
Q 1950 4200 1925 4475 
L 3725 4475 
Q 3625 4775 3375 5100 
Q 3650 5175 3850 5275 
z
M 1775 1325 
Q 1500 850 1337 575 
Q 1175 300 1025 37 
Q 875 -225 700 -550 
Q 500 -350 275 -175 
Q 600 200 900 737 
Q 1200 1275 1400 1700 
Q 1575 1500 1775 1325 
z
M 3600 225 
Q 3425 125 3012 -162 
Q 2600 -450 2175 -700 
Q 2025 -500 1850 -350 
Q 2200 -200 2537 12 
Q 2875 225 3200 550 
Q 3375 375 3600 225 
z
M 525 3425 
Q 1275 2975 1550 2750 
Q 1400 2550 1275 2325 
Q 1050 2550 275 3050 
Q 400 3200 525 3425 
z
M 725 5025 
Q 1475 4575 1750 4375 
Q 1575 4225 1475 3975 
Q 750 4550 475 4650 
Q 650 4875 725 5025 
z
M 5200 975 
L 5200 1475 
L 4175 1475 
L 4175 975 
L 5200 975 
z
M 5200 1850 
L 5200 2350 
L 4175 2350 
L 4175 1850 
L 5200 1850 
z
M 3750 1850 
L 3750 2350 
L 2750 2350 
L 2750 1850 
L 3750 1850 
z
M 3750 975 
L 3750 1475 
L 2750 1475 
L 2750 975 
L 3750 975 
z
" transform="scale(0.015625)"/>
      <path id="SimHei-5316" d="M 3925 5025 
Q 3900 4900 3900 4400 
L 3900 2625 
Q 4375 3025 4775 3450 
Q 5175 3875 5400 4300 
Q 5600 4100 5900 3925 
Q 5700 3700 5225 3212 
Q 4750 2725 4487 2512 
Q 4225 2300 3900 2025 
L 3900 450 
Q 3900 50 4225 50 
L 5200 50 
Q 5400 75 5462 262 
Q 5525 450 5575 850 
Q 5800 650 6150 600 
Q 6000 -100 5825 -250 
Q 5650 -400 5350 -400 
L 3950 -400 
Q 3425 -400 3400 200 
L 3400 1675 
Q 3225 1525 2962 1350 
Q 2700 1175 2375 975 
Q 2225 1225 2025 1400 
Q 2350 1550 2737 1787 
Q 3125 2025 3400 2250 
L 3400 4500 
Q 3400 4800 3375 5025 
L 3925 5025 
z
M 2400 4850 
Q 2175 4550 2075 4337 
Q 1975 4125 1825 3775 
L 1825 675 
Q 1825 -75 1850 -550 
L 1325 -550 
Q 1350 -125 1350 650 
L 1350 3050 
Q 1125 2725 962 2525 
Q 800 2325 675 2175 
Q 500 2375 275 2525 
Q 625 2850 875 3212 
Q 1125 3575 1312 3912 
Q 1500 4250 1625 4575 
Q 1750 4900 1825 5100 
Q 1975 4975 2400 4850 
z
" transform="scale(0.015625)"/>
      <path id="SimHei-65f6" d="M 2525 4575 
Q 2500 3675 2500 2400 
Q 2500 1125 2525 400 
L 2000 400 
L 2000 875 
L 1000 875 
L 1000 50 
L 475 50 
Q 500 1200 500 2350 
Q 500 3525 475 4575 
L 2525 4575 
z
M 4875 3825 
Q 4875 4575 4850 5225 
L 5400 5225 
Q 5375 4575 5375 3825 
Q 5750 3825 6175 3850 
L 6175 3375 
Q 5750 3400 5375 3400 
L 5375 50 
Q 5375 -325 5075 -425 
Q 4775 -525 4300 -575 
Q 4300 -275 4025 0 
Q 4500 -50 4687 -25 
Q 4875 0 4875 300 
L 4875 3400 
Q 3625 3400 2775 3375 
L 2775 3850 
Q 3575 3825 4875 3825 
z
M 2000 1300 
L 2000 2550 
L 1000 2550 
L 1000 1300 
L 2000 1300 
z
M 2000 2975 
L 2000 4150 
L 1000 4150 
L 1000 2975 
L 2000 2975 
z
M 3550 2725 
Q 3875 2200 4175 1600 
Q 3925 1525 3650 1375 
Q 3450 1975 3075 2500 
Q 3300 2600 3550 2725 
z
" transform="scale(0.015625)"/>
      <path id="SimHei-5e8f" d="M 4000 2075 
L 5975 2075 
Q 5750 1525 5575 1025 
Q 5325 1100 5050 1150 
Q 5175 1450 5275 1700 
L 4050 1700 
L 4050 150 
Q 4050 -375 3762 -462 
Q 3475 -550 2950 -575 
Q 2875 -300 2750 0 
Q 3350 -75 3475 25 
Q 3600 125 3575 375 
L 3575 1700 
L 2450 1700 
Q 2050 1700 1675 1675 
L 1675 2100 
Q 2100 2075 2425 2075 
L 3675 2075 
Q 3325 2400 2875 2775 
Q 2975 2875 3250 3100 
Q 3400 2975 3725 2725 
L 4575 3275 
L 3000 3275 
Q 2400 3275 1950 3250 
L 1950 3700 
Q 2400 3675 3000 3675 
L 5400 3675 
L 5400 3250 
Q 4700 2875 4025 2450 
L 4275 2250 
L 4000 2075 
z
M 3725 5275 
Q 3825 4925 3925 4525 
L 4850 4525 
Q 5425 4525 6000 4550 
L 6000 4125 
Q 5425 4150 4850 4150 
L 1400 4150 
Q 1400 2750 1362 2137 
Q 1325 1525 1200 887 
Q 1075 250 775 -350 
Q 625 -250 250 -125 
Q 475 300 600 700 
Q 725 1100 800 1637 
Q 875 2175 875 2825 
Q 875 3500 850 4525 
L 3350 4525 
Q 3275 4825 3150 5150 
Q 3425 5200 3725 5275 
z
" transform="scale(0.015625)"/>
      <path id="SimHei-5bf9" d="M 525 4250 
Q 900 4225 1400 4225 
L 2825 4225 
Q 2575 2625 2200 1750 
Q 2825 875 3125 400 
Q 2950 275 2725 75 
Q 2200 975 1950 1300 
Q 1650 775 1350 425 
Q 1050 75 600 -350 
Q 425 -125 200 -25 
Q 625 275 975 675 
Q 1325 1075 1650 1700 
Q 1050 2425 550 2900 
Q 700 3025 900 3225 
Q 1625 2425 1875 2150 
Q 2200 3050 2300 3825 
L 1400 3825 
Q 900 3825 525 3800 
L 525 4250 
z
M 2925 3700 
Q 3525 3675 3750 3675 
L 4825 3675 
L 4825 4425 
Q 4825 4750 4775 5125 
L 5350 5125 
Q 5325 4825 5325 4375 
L 5325 3675 
Q 5575 3675 6150 3700 
L 6150 3250 
Q 5575 3275 5325 3275 
L 5325 125 
Q 5350 -350 5012 -475 
Q 4675 -600 4250 -650 
Q 4175 -350 4025 -100 
Q 4575 -100 4712 -37 
Q 4850 25 4825 325 
L 4825 3275 
L 3775 3275 
Q 3550 3275 2925 3225 
L 2925 3700 
z
M 3450 2725 
Q 3875 1975 4175 1325 
Q 3850 1200 3700 1075 
Q 3475 1750 3050 2475 
Q 3225 2550 3450 2725 
z
" transform="scale(0.015625)"/>
      <path id="SimHei-6bd4" d="M 3775 5100 
Q 3750 4575 3750 4100 
L 3750 3050 
Q 4925 3600 5475 4175 
Q 5675 3900 5900 3675 
Q 5600 3500 5037 3187 
Q 4475 2875 3750 2550 
L 3750 450 
Q 3750 100 4050 100 
L 5000 100 
Q 5175 100 5262 250 
Q 5350 400 5450 900 
Q 5650 775 6025 675 
Q 5850 0 5650 -175 
Q 5450 -350 5225 -350 
L 3900 -350 
Q 3250 -350 3250 275 
L 3250 4000 
Q 3250 4550 3225 5100 
L 3775 5100 
z
M 1275 4975 
Q 1250 4575 1250 4000 
L 1250 3150 
L 1850 3150 
Q 2325 3150 2875 3175 
L 2875 2650 
Q 2325 2675 1850 2675 
L 1250 2675 
L 1250 475 
Q 1650 650 1962 812 
Q 2275 975 2850 1275 
Q 2900 950 2950 750 
Q 2375 475 1762 175 
Q 1150 -125 925 -325 
Q 750 -100 575 200 
Q 700 300 750 600 
L 750 3950 
Q 750 4550 725 4975 
L 1275 4975 
z
" transform="scale(0.015625)"/>
     </defs>
     <use xlink:href="#SimHei-45"/>
     <use xlink:href="#SimHei-78" transform="translate(50 0)"/>
     <use xlink:href="#SimHei-70" transform="translate(100 0)"/>
     <use xlink:href="#SimHei-5f" transform="translate(150 0)"/>
     <use xlink:href="#SimHei-31" transform="translate(200 0)"/>
     <use xlink:href="#SimHei-62" transform="translate(250 0)"/>
     <use xlink:href="#SimHei-20" transform="translate(300 0)"/>
     <use xlink:href="#SimHei-76" transform="translate(350 0)"/>
     <use xlink:href="#SimHei-73" transform="translate(400 0)"/>
     <use xlink:href="#SimHei-20" transform="translate(450 0)"/>
     <use xlink:href="#SimHei-45" transform="translate(500 0)"/>
     <use xlink:href="#SimHei-78" transform="translate(550 0)"/>
     <use xlink:href="#SimHei-70" transform="translate(600 0)"/>
     <use xlink:href="#SimHei-5f" transform="translate(650 0)"/>
     <use xlink:href="#SimHei-32" transform="translate(700 0)"/>
     <use xlink:href="#SimHei-20" transform="translate(750 0)"/>
     <use xlink:href="#SimHei-5206" transform="translate(800 0)"/>
     <use xlink:href="#SimHei-9500" transform="translate(900 0)"/>
     <use xlink:href="#SimHei-5546" transform="translate(1000 0)"/>
     <use xlink:href="#SimHei-60c5" transform="translate(1100 0)"/>
     <use xlink:href="#SimHei-7eea" transform="translate(1200 0)"/>
     <use xlink:href="#SimHei-6f14" transform="translate(1300 0)"/>
     <use xlink:href="#SimHei-5316" transform="translate(1400 0)"/>
     <use xlink:href="#SimHei-65f6" transform="translate(1500 0)"/>
     <use xlink:href="#SimHei-5e8f" transform="translate(1600 0)"/>
     <use xlink:href="#SimHei-5bf9" transform="translate(1700 0)"/>
     <use xlink:href="#SimHei-6bd4" transform="translate(1800 0)"/>
    </g>
   </g>
   <g id="legend_1">
    <g id="patch_7">
     <path d="M 778.395 66.1025 
L 975.395 66.1025 
Q 977.395 66.1025 977.395 64.1025 
L 977.395 36.04 
Q 977.395 34.04 975.395 34.04 
L 778.395 34.04 
Q 776.395 34.04 776.395 36.04 
L 776.395 64.1025 
Q 776.395 66.1025 778.395 66.1025 
z
" style="fill: #ffffff; opacity: 0.8; stroke: #cccccc; stroke-linejoin: miter"/>
    </g>
    <g id="line2d_42">
     <path d="M 780.395 42.743125 
L 790.395 42.743125 
L 800.395 42.743125 
" style="fill: none; stroke: #e67e22; stroke-opacity: 0.85; stroke-width: 1.2; stroke-linecap: square"/>
    </g>
    <g id="text_24">
     <!-- Exp_1b 分销商 (单智能体+情绪) -->
     <g transform="translate(808.395 46.243125) scale(0.1 -0.1)">
      <defs>
       <path id="SimHei-28" d="M 2975 -200 
L 2700 -475 
Q 2075 125 1762 775 
Q 1450 1425 1450 2250 
Q 1450 3075 1762 3725 
Q 2075 4375 2700 5000 
L 2975 4725 
Q 2400 4175 2112 3587 
Q 1825 3000 1825 2250 
Q 1825 1500 2112 912 
Q 2400 325 2975 -200 
z
" transform="scale(0.015625)"/>
       <path id="SimHei-5355" d="M 5275 4075 
L 5275 1525 
L 3400 1525 
L 3400 925 
L 5050 925 
Q 5600 925 6000 950 
L 6000 450 
Q 5575 475 5050 475 
L 3400 475 
Q 3400 -300 3425 -625 
L 2875 -625 
Q 2925 -300 2925 475 
L 1300 475 
Q 700 475 425 450 
L 425 950 
Q 675 925 1250 925 
L 2925 925 
L 2925 1525 
L 1125 1525 
Q 1150 1950 1150 2750 
Q 1150 3550 1125 4075 
L 3600 4075 
Q 3875 4650 4075 5250 
Q 4325 5125 4650 4975 
Q 4550 4850 4400 4587 
Q 4250 4325 4100 4075 
L 5275 4075 
z
M 4775 1925 
L 4775 2600 
L 3400 2600 
L 3400 1925 
L 4775 1925 
z
M 4775 3000 
L 4775 3650 
L 3400 3650 
L 3400 3000 
L 4775 3000 
z
M 2925 1925 
L 2925 2600 
L 1625 2600 
L 1625 1925 
L 2925 1925 
z
M 2925 3000 
L 2925 3650 
L 1625 3650 
L 1625 3000 
L 2925 3000 
z
M 2100 5225 
Q 2350 4950 2675 4350 
Q 2400 4225 2225 4125 
Q 1975 4675 1725 4975 
Q 1900 5075 2100 5225 
z
" transform="scale(0.015625)"/>
       <path id="SimHei-667a" d="M 5125 1900 
Q 5100 1475 5100 650 
Q 5100 -175 5125 -600 
L 4600 -600 
L 4600 -300 
L 1975 -300 
L 1975 -600 
L 1450 -600 
Q 1475 -200 1475 625 
Q 1475 1475 1450 1900 
L 5125 1900 
z
M 1925 5050 
Q 1750 4875 1550 4575 
Q 2900 4575 3425 4600 
L 3425 4150 
Q 2875 4175 2425 4175 
Q 2425 3950 2400 3600 
Q 3200 3600 3575 3625 
L 3575 3175 
Q 3200 3200 2325 3200 
L 2275 3025 
Q 3050 2725 3500 2500 
Q 3300 2225 3200 2050 
Q 2650 2450 2075 2650 
Q 1650 2100 950 1700 
Q 800 1900 575 2075 
Q 1000 2250 1362 2575 
Q 1725 2900 1825 3200 
Q 900 3200 500 3175 
L 500 3625 
Q 900 3600 1925 3600 
Q 1975 3925 1950 4175 
L 1375 4175 
Q 1225 3900 1025 3650 
Q 750 3800 600 3900 
Q 800 4125 1062 4550 
Q 1325 4975 1400 5250 
Q 1600 5150 1925 5050 
z
M 3800 2400 
Q 3825 2800 3825 3475 
Q 3825 4175 3800 4575 
L 5775 4575 
Q 5750 4275 5750 3525 
Q 5750 2775 5775 2400 
L 3800 2400 
z
M 4600 1000 
L 4600 1550 
L 1975 1550 
L 1975 1000 
L 4600 1000 
z
M 4600 100 
L 4600 625 
L 1975 625 
L 1975 100 
L 4600 100 
z
M 5250 2800 
L 5250 4175 
L 4300 4175 
L 4300 2800 
L 5250 2800 
z
" transform="scale(0.015625)"/>
       <path id="SimHei-80fd" d="M 2025 -150 
Q 2475 -150 2525 -62 
Q 2575 25 2575 200 
L 2575 550 
L 1225 550 
L 1225 -625 
L 750 -625 
Q 775 -125 775 275 
L 775 1950 
Q 775 2400 750 2750 
L 3050 2750 
Q 3025 2375 3025 1925 
L 3025 -175 
Q 3000 -450 2800 -525 
Q 2600 -600 2225 -650 
Q 2175 -425 2025 -150 
z
M 5800 1625 
Q 5700 1600 5212 1375 
Q 4725 1150 4100 950 
L 4100 250 
Q 4100 -50 4375 -50 
L 5275 -50 
Q 5475 0 5550 575 
Q 5750 475 6050 375 
Q 5875 -425 5475 -425 
L 4125 -425 
Q 3650 -425 3650 50 
L 3650 1675 
Q 3650 2050 3625 2350 
L 4125 2350 
Q 4100 2050 4100 1700 
L 4100 1375 
Q 4350 1450 4762 1650 
Q 5175 1850 5425 2075 
Q 5650 1775 5800 1625 
z
M 4100 4100 
Q 4450 4250 4775 4412 
Q 5100 4575 5425 4825 
Q 5625 4575 5775 4400 
Q 5625 4350 5137 4112 
Q 4650 3875 4100 3700 
L 4100 3325 
Q 4100 3025 4450 3025 
L 5175 3025 
Q 5425 3025 5500 3675 
Q 5750 3550 6000 3450 
Q 5825 2650 5375 2650 
L 4250 2650 
Q 3650 2650 3650 3200 
L 3650 4475 
Q 3650 4775 3625 5125 
L 4125 5125 
Q 4100 4950 4100 4400 
L 4100 4100 
z
M 3025 3075 
Q 2950 3200 2825 3350 
Q 2000 3300 1450 3250 
Q 900 3200 625 3125 
Q 550 3425 450 3650 
Q 625 3725 987 4187 
Q 1350 4650 1575 5175 
Q 1700 5075 1850 5025 
Q 2000 4975 2175 4900 
Q 1975 4750 1762 4450 
Q 1550 4150 1075 3600 
Q 2125 3650 2625 3675 
Q 2325 4075 2200 4200 
Q 2375 4300 2600 4475 
Q 2800 4200 2987 3975 
Q 3175 3750 3475 3400 
Q 3200 3200 3025 3075 
z
M 2575 950 
L 2575 1475 
L 1225 1475 
L 1225 950 
L 2575 950 
z
M 2575 1875 
L 2575 2350 
L 1225 2350 
L 1225 1875 
L 2575 1875 
z
" transform="scale(0.015625)"/>
       <path id="SimHei-4f53" d="M 3650 3850 
Q 3650 4750 3625 5125 
L 4125 5125 
Q 4100 4775 4100 3850 
L 5200 3850 
Q 5700 3850 5925 3875 
L 5925 3425 
Q 5700 3450 5200 3450 
L 4525 3450 
Q 4925 1850 6200 1200 
Q 5925 1050 5775 775 
Q 4425 1800 4100 3425 
L 4100 1025 
Q 4825 1025 5050 1050 
L 5050 600 
Q 4825 625 4100 625 
Q 4100 75 4125 -575 
L 3625 -575 
Q 3650 100 3650 625 
Q 3200 625 2700 600 
L 2700 1050 
Q 3200 1025 3650 1025 
L 3650 3450 
Q 3375 1800 2000 650 
Q 1850 875 1550 1025 
Q 2850 1875 3200 3450 
L 2675 3450 
Q 2275 3450 1975 3425 
L 1975 3875 
Q 2275 3850 2675 3850 
L 3650 3850 
z
M 2000 4900 
Q 1825 4675 1525 3775 
L 1525 575 
Q 1525 -200 1550 -550 
L 1050 -550 
Q 1075 -225 1075 550 
L 1075 2900 
Q 950 2625 575 2050 
Q 450 2275 225 2425 
Q 525 2725 925 3612 
Q 1325 4500 1425 5125 
Q 1700 5000 2000 4900 
z
" transform="scale(0.015625)"/>
       <path id="SimHei-2b" d="M 3000 2125 
L 1775 2125 
L 1775 900 
L 1350 900 
L 1350 2125 
L 125 2125 
L 125 2525 
L 1350 2525 
L 1350 3750 
L 1775 3750 
L 1775 2525 
L 3000 2525 
L 3000 2125 
z
" transform="scale(0.015625)"/>
       <path id="SimHei-29" d="M 1675 2250 
Q 1675 1425 1362 775 
Q 1050 125 425 -475 
L 150 -200 
Q 725 325 1012 912 
Q 1300 1500 1300 2250 
Q 1300 3000 1012 3587 
Q 725 4175 150 4725 
L 425 5000 
Q 1050 4375 1362 3725 
Q 1675 3075 1675 2250 
z
" transform="scale(0.015625)"/>
      </defs>
      <use xlink:href="#SimHei-45"/>
      <use xlink:href="#SimHei-78" transform="translate(50 0)"/>
      <use xlink:href="#SimHei-70" transform="translate(100 0)"/>
      <use xlink:href="#SimHei-5f" transform="translate(150 0)"/>
      <use xlink:href="#SimHei-31" transform="translate(200 0)"/>
      <use xlink:href="#SimHei-62" transform="translate(250 0)"/>
      <use xlink:href="#SimHei-20" transform="translate(300 0)"/>
      <use xlink:href="#SimHei-5206" transform="translate(350 0)"/>
      <use xlink:href="#SimHei-9500" transform="translate(450 0)"/>
      <use xlink:href="#SimHei-5546" transform="translate(550 0)"/>
      <use xlink:href="#SimHei-20" transform="translate(650 0)"/>
      <use xlink:href="#SimHei-28" transform="translate(700 0)"/>
      <use xlink:href="#SimHei-5355" transform="translate(750 0)"/>
      <use xlink:href="#SimHei-667a" transform="translate(850 0)"/>
      <use xlink:href="#SimHei-80fd" transform="translate(950 0)"/>
      <use xlink:href="#SimHei-4f53" transform="translate(1050 0)"/>
      <use xlink:href="#SimHei-2b" transform="translate(1150 0)"/>
      <use xlink:href="#SimHei-60c5" transform="translate(1200 0)"/>
      <use xlink:href="#SimHei-7eea" transform="translate(1300 0)"/>
      <use xlink:href="#SimHei-29" transform="translate(1400 0)"/>
     </g>
    </g>
    <g id="line2d_43">
     <path d="M 780.395 57.274375 
L 790.395 57.274375 
L 800.395 57.274375 
" style="fill: none; stroke: #2ecc71; stroke-opacity: 0.85; stroke-width: 1.2; stroke-linecap: square"/>
    </g>
    <g id="text_25">
     <!-- Exp_2 分销商 (多智能体+情绪+协同) -->
     <g transform="translate(808.395 60.774375) scale(0.1 -0.1)">
      <defs>
       <path id="SimHei-591a" d="M 3800 2950 
Q 4000 2750 4275 2650 
Q 4050 2450 3850 2275 
L 5925 2275 
Q 5625 1525 5137 975 
Q 4650 425 4050 125 
Q 3450 -175 2725 -375 
Q 2000 -575 950 -675 
Q 850 -400 650 -150 
Q 1275 -175 2137 -25 
Q 3000 125 3700 450 
Q 3250 900 2950 1175 
Q 3150 1325 3300 1500 
Q 3650 1150 4100 675 
Q 4425 875 4712 1187 
Q 5000 1500 5200 1900 
L 3475 1900 
Q 3225 1700 2775 1412 
Q 2325 1125 1525 775 
Q 1400 1025 1200 1175 
Q 2025 1425 2762 1950 
Q 3500 2475 3800 2950 
z
M 900 1850 
Q 800 2100 575 2325 
Q 1050 2350 1725 2525 
Q 2400 2700 2775 2900 
Q 2475 3300 2100 3600 
Q 2300 3750 2425 3925 
Q 2900 3475 3200 3125 
Q 3575 3350 3875 3612 
Q 4175 3875 4400 4175 
L 2250 4175 
Q 1725 3725 1025 3275 
Q 875 3500 650 3625 
Q 1325 3925 1875 4400 
Q 2425 4875 2600 5225 
Q 2800 5075 3025 4925 
Q 2900 4825 2625 4550 
L 5225 4550 
Q 4500 3500 3800 3025 
Q 3100 2550 2437 2312 
Q 1775 2075 900 1850 
z
" transform="scale(0.015625)"/>
       <path id="SimHei-534f" d="M 3475 3825 
Q 3475 4625 3450 5150 
Q 3725 5075 4050 5050 
Q 3950 4650 3975 3825 
L 5325 3825 
Q 5275 3600 5225 3075 
L 5050 300 
Q 5000 -100 4750 -187 
Q 4500 -275 4050 -375 
Q 3950 -50 3825 175 
Q 4350 200 4462 225 
Q 4575 250 4600 575 
L 4775 3425 
L 3950 3425 
Q 3925 2300 3600 1300 
Q 3275 300 2475 -500 
Q 2325 -300 1875 -150 
Q 2450 150 2925 1075 
Q 3400 2000 3450 3425 
Q 2975 3425 2500 3400 
L 2500 3850 
Q 2975 3825 3475 3825 
z
M 1025 3475 
Q 1025 4675 1000 5075 
L 1550 5075 
Q 1525 4675 1525 3475 
Q 2000 3475 2325 3500 
L 2325 3050 
Q 2000 3075 1525 3075 
L 1525 325 
Q 1525 -25 1550 -575 
L 1000 -575 
Q 1025 -25 1025 325 
L 1025 3075 
Q 525 3075 225 3050 
L 225 3500 
Q 525 3475 1025 3475 
z
M 2975 2500 
Q 2825 2300 2500 1225 
Q 2250 1325 2025 1350 
Q 2375 2275 2425 2625 
Q 2625 2550 2975 2500 
z
M 5725 2675 
Q 6100 1875 6200 1500 
Q 5925 1450 5725 1325 
Q 5575 1850 5300 2475 
Q 5525 2550 5725 2675 
z
" transform="scale(0.015625)"/>
       <path id="SimHei-540c" d="M 5825 4925 
Q 5775 4550 5775 3975 
L 5775 -50 
Q 5775 -400 5525 -487 
Q 5275 -575 4725 -625 
Q 4725 -400 4525 -50 
Q 4925 -50 5100 -12 
Q 5275 25 5275 200 
L 5275 4450 
L 1150 4450 
L 1150 -600 
L 575 -600 
Q 600 -250 625 200 
L 625 3975 
Q 625 4575 600 4925 
L 5825 4925 
z
M 4375 2550 
Q 4325 2275 4325 1700 
Q 4325 1150 4375 725 
L 2025 725 
Q 2050 1175 2050 1750 
Q 2050 2325 2025 2550 
L 4375 2550 
z
M 4100 3750 
Q 4600 3750 4825 3775 
L 4825 3275 
Q 4575 3300 4075 3300 
L 2450 3300 
Q 1850 3300 1600 3275 
L 1600 3775 
Q 1875 3750 2475 3750 
L 4100 3750 
z
M 3875 1150 
L 3875 2150 
L 2525 2150 
L 2525 1150 
L 3875 1150 
z
" transform="scale(0.015625)"/>
      </defs>
      <use xlink:href="#SimHei-45"/>
      <use xlink:href="#SimHei-78" transform="translate(50 0)"/>
      <use xlink:href="#SimHei-70" transform="translate(100 0)"/>
      <use xlink:href="#SimHei-5f" transform="translate(150 0)"/>
      <use xlink:href="#SimHei-32" transform="translate(200 0)"/>
      <use xlink:href="#SimHei-20" transform="translate(250 0)"/>
      <use xlink:href="#SimHei-5206" transform="translate(300 0)"/>
      <use xlink:href="#SimHei-9500" transform="translate(400 0)"/>
      <use xlink:href="#SimHei-5546" transform="translate(500 0)"/>
      <use xlink:href="#SimHei-20" transform="translate(600 0)"/>
      <use xlink:href="#SimHei-28" transform="translate(650 0)"/>
      <use xlink:href="#SimHei-591a" transform="translate(700 0)"/>
      <use xlink:href="#SimHei-667a" transform="translate(800 0)"/>
      <use xlink:href="#SimHei-80fd" transform="translate(900 0)"/>
      <use xlink:href="#SimHei-4f53" transform="translate(1000 0)"/>
      <use xlink:href="#SimHei-2b" transform="translate(1100 0)"/>
      <use xlink:href="#SimHei-60c5" transform="translate(1150 0)"/>
      <use xlink:href="#SimHei-7eea" transform="translate(1250 0)"/>
      <use xlink:href="#SimHei-2b" transform="translate(1350 0)"/>
      <use xlink:href="#SimHei-534f" transform="translate(1400 0)"/>
      <use xlink:href="#SimHei-540c" transform="translate(1500 0)"/>
      <use xlink:href="#SimHei-29" transform="translate(1600 0)"/>
     </g>
    </g>
   </g>
  </g>
 </g>
 <defs>
  <clipPath id="pbf186dec7d">
   <rect x="63.4025" y="29.04" width="918.9925" height="287.5375"/>
  </clipPath>
 </defs>
</svg>
