<?xml version="1.0" encoding="utf-8" standalone="no"?>
<!DOCTYPE svg PUBLIC "-//W3C//DTD SVG 1.1//EN"
  "http://www.w3.org/Graphics/SVG/1.1/DTD/svg11.dtd">
<svg xmlns:xlink="http://www.w3.org/1999/xlink" width="854.06625pt" height="350.475625pt" viewBox="0 0 854.06625 350.475625" xmlns="http://www.w3.org/2000/svg" version="1.1">
 <metadata>
  <rdf:RDF xmlns:dc="http://purl.org/dc/elements/1.1/" xmlns:cc="http://creativecommons.org/ns#" xmlns:rdf="http://www.w3.org/1999/02/22-rdf-syntax-ns#">
   <cc:Work>
    <dc:type rdf:resource="http://purl.org/dc/dcmitype/StillImage"/>
    <dc:date>2026-07-07T22:53:37.189396</dc:date>
    <dc:format>image/svg+xml</dc:format>
    <dc:creator>
     <cc:Agent>
      <dc:title>Matplotlib v3.10.9, https://matplotlib.org/</dc:title>
     </cc:Agent>
    </dc:creator>
   </cc:Work>
  </rdf:RDF>
 </metadata>
 <defs>
  <style type="text/css">*{stroke-linejoin: round; stroke-linecap: butt}</style>
 </defs>
 <g id="figure_1">
  <g id="patch_1">
   <path d="M 0 350.475625 
L 854.06625 350.475625 
L 854.06625 0 
L 0 0 
z
" style="fill: #ffffff"/>
  </g>
  <g id="axes_1">
   <g id="patch_2">
    <path d="M 45.7625 312.135 
L 846.86625 312.135 
L 846.86625 24.575 
L 45.7625 24.575 
z
" style="fill: #ffffff"/>
   </g>
   <g id="matplotlib.axis_1">
    <g id="xtick_1">
     <g id="line2d_1">
      <path d="M 82.176307 312.135 
L 82.176307 24.575 
" clip-path="url(#pa9a7244cbb)" style="fill: none; stroke-dasharray: 2.96,1.28; stroke-dashoffset: 0; stroke: #b0b0b0; stroke-opacity: 0.3; stroke-width: 0.8"/>
     </g>
     <g id="line2d_2">
      <defs>
       <path id="m3fda04f252" d="M 0 0 
L 0 3.5 
" style="stroke: #000000; stroke-width: 0.8"/>
      </defs>
      <g>
       <use xlink:href="#m3fda04f252" x="82.176307" y="312.135" style="stroke: #000000; stroke-width: 0.8"/>
      </g>
     </g>
     <g id="text_1">
      <!-- 0 -->
      <g transform="translate(79.426307 326.6975) scale(0.11 -0.11)">
       <defs>
        <path id="SimHei-30" d="M 225 2537 
Q 250 3200 412 3587 
Q 575 3975 875 4225 
Q 1175 4475 1612 4475 
Q 2050 4475 2375 4112 
Q 2700 3750 2800 3200 
Q 2900 2650 2862 1937 
Q 2825 1225 2612 775 
Q 2400 325 1975 150 
Q 1550 -25 1125 187 
Q 700 400 525 750 
Q 350 1100 275 1487 
Q 200 1875 225 2537 
z
M 750 2687 
Q 675 2000 800 1462 
Q 925 925 1212 700 
Q 1500 475 1800 612 
Q 2100 750 2237 1162 
Q 2375 1575 2375 2062 
Q 2375 2550 2337 2950 
Q 2300 3350 2112 3675 
Q 1925 4000 1612 4012 
Q 1300 4025 1062 3700 
Q 825 3375 750 2687 
z
" transform="scale(0.015625)"/>
       </defs>
       <use xlink:href="#SimHei-30"/>
      </g>
     </g>
    </g>
    <g id="xtick_2">
     <g id="line2d_3">
      <path d="M 173.668284 312.135 
L 173.668284 24.575 
" clip-path="url(#pa9a7244cbb)" style="fill: none; stroke-dasharray: 2.96,1.28; stroke-dashoffset: 0; stroke: #b0b0b0; stroke-opacity: 0.3; stroke-width: 0.8"/>
     </g>
     <g id="line2d_4">
      <g>
       <use xlink:href="#m3fda04f252" x="173.668284" y="312.135" style="stroke: #000000; stroke-width: 0.8"/>
      </g>
     </g>
     <g id="text_2">
      <!-- 25 -->
      <g transform="translate(168.168284 326.6975) scale(0.11 -0.11)">
       <defs>
        <path id="SimHei-32" d="M 300 250 
Q 325 625 650 925 
Q 975 1225 1475 1862 
Q 1975 2500 2125 2850 
Q 2275 3200 2237 3450 
Q 2200 3700 2000 3862 
Q 1800 4025 1537 4000 
Q 1275 3975 1037 3800 
Q 800 3625 675 3275 
L 200 3350 
Q 400 3925 712 4187 
Q 1025 4450 1450 4475 
Q 1700 4500 1900 4462 
Q 2100 4425 2312 4287 
Q 2525 4150 2662 3875 
Q 2800 3600 2762 3212 
Q 2725 2825 2375 2287 
Q 2025 1750 1025 600 
L 2825 600 
L 2825 150 
L 300 150 
L 300 250 
z
" transform="scale(0.015625)"/>
        <path id="SimHei-35" d="M 550 1325 
Q 725 650 1150 575 
Q 1575 500 1837 662 
Q 2100 825 2212 1087 
Q 2325 1350 2312 1675 
Q 2300 2000 2137 2225 
Q 1975 2450 1725 2525 
Q 1475 2600 1162 2525 
Q 850 2450 650 2175 
L 225 2225 
Q 275 2375 700 4375 
L 2675 4375 
L 2675 3925 
L 1075 3925 
Q 950 3250 825 2850 
Q 1200 3025 1525 3012 
Q 1850 3000 2150 2862 
Q 2450 2725 2587 2487 
Q 2725 2250 2787 2012 
Q 2850 1775 2837 1500 
Q 2825 1225 2725 937 
Q 2625 650 2425 462 
Q 2225 275 1937 162 
Q 1650 50 1275 75 
Q 900 100 562 350 
Q 225 600 100 1200 
L 550 1325 
z
" transform="scale(0.015625)"/>
       </defs>
       <use xlink:href="#SimHei-32"/>
       <use xlink:href="#SimHei-35" transform="translate(50 0)"/>
      </g>
     </g>
    </g>
    <g id="xtick_3">
     <g id="line2d_5">
      <path d="M 265.160261 312.135 
L 265.160261 24.575 
" clip-path="url(#pa9a7244cbb)" style="fill: none; stroke-dasharray: 2.96,1.28; stroke-dashoffset: 0; stroke: #b0b0b0; stroke-opacity: 0.3; stroke-width: 0.8"/>
     </g>
     <g id="line2d_6">
      <g>
       <use xlink:href="#m3fda04f252" x="265.160261" y="312.135" style="stroke: #000000; stroke-width: 0.8"/>
      </g>
     </g>
     <g id="text_3">
      <!-- 50 -->
      <g transform="translate(259.660261 326.6975) scale(0.11 -0.11)">
       <use xlink:href="#SimHei-35"/>
       <use xlink:href="#SimHei-30" transform="translate(50 0)"/>
      </g>
     </g>
    </g>
    <g id="xtick_4">
     <g id="line2d_7">
      <path d="M 356.652238 312.135 
L 356.652238 24.575 
" clip-path="url(#pa9a7244cbb)" style="fill: none; stroke-dasharray: 2.96,1.28; stroke-dashoffset: 0; stroke: #b0b0b0; stroke-opacity: 0.3; stroke-width: 0.8"/>
     </g>
     <g id="line2d_8">
      <g>
       <use xlink:href="#m3fda04f252" x="356.652238" y="312.135" style="stroke: #000000; stroke-width: 0.8"/>
      </g>
     </g>
     <g id="text_4">
      <!-- 75 -->
      <g transform="translate(351.152238 326.6975) scale(0.11 -0.11)">
       <defs>
        <path id="SimHei-37" d="M 850 150 
Q 1300 2050 2425 3925 
L 275 3925 
L 275 4375 
L 2950 4375 
L 2950 3950 
Q 1775 2050 1400 150 
L 850 150 
z
" transform="scale(0.015625)"/>
       </defs>
       <use xlink:href="#SimHei-37"/>
       <use xlink:href="#SimHei-35" transform="translate(50 0)"/>
      </g>
     </g>
    </g>
    <g id="xtick_5">
     <g id="line2d_9">
      <path d="M 448.144215 312.135 
L 448.144215 24.575 
" clip-path="url(#pa9a7244cbb)" style="fill: none; stroke-dasharray: 2.96,1.28; stroke-dashoffset: 0; stroke: #b0b0b0; stroke-opacity: 0.3; stroke-width: 0.8"/>
     </g>
     <g id="line2d_10">
      <g>
       <use xlink:href="#m3fda04f252" x="448.144215" y="312.135" style="stroke: #000000; stroke-width: 0.8"/>
      </g>
     </g>
     <g id="text_5">
      <!-- 100 -->
      <g transform="translate(439.894215 326.6975) scale(0.11 -0.11)">
       <defs>
        <path id="SimHei-31" d="M 1400 3600 
Q 1075 3275 575 2975 
L 575 3450 
Q 1200 3875 1600 4450 
L 1900 4450 
L 1900 150 
L 1400 150 
L 1400 3600 
z
" transform="scale(0.015625)"/>
       </defs>
       <use xlink:href="#SimHei-31"/>
       <use xlink:href="#SimHei-30" transform="translate(50 0)"/>
       <use xlink:href="#SimHei-30" transform="translate(100 0)"/>
      </g>
     </g>
    </g>
    <g id="xtick_6">
     <g id="line2d_11">
      <path d="M 539.636191 312.135 
L 539.636191 24.575 
" clip-path="url(#pa9a7244cbb)" style="fill: none; stroke-dasharray: 2.96,1.28; stroke-dashoffset: 0; stroke: #b0b0b0; stroke-opacity: 0.3; stroke-width: 0.8"/>
     </g>
     <g id="line2d_12">
      <g>
       <use xlink:href="#m3fda04f252" x="539.636191" y="312.135" style="stroke: #000000; stroke-width: 0.8"/>
      </g>
     </g>
     <g id="text_6">
      <!-- 125 -->
      <g transform="translate(531.386191 326.6975) scale(0.11 -0.11)">
       <use xlink:href="#SimHei-31"/>
       <use xlink:href="#SimHei-32" transform="translate(50 0)"/>
       <use xlink:href="#SimHei-35" transform="translate(100 0)"/>
      </g>
     </g>
    </g>
    <g id="xtick_7">
     <g id="line2d_13">
      <path d="M 631.128168 312.135 
L 631.128168 24.575 
" clip-path="url(#pa9a7244cbb)" style="fill: none; stroke-dasharray: 2.96,1.28; stroke-dashoffset: 0; stroke: #b0b0b0; stroke-opacity: 0.3; stroke-width: 0.8"/>
     </g>
     <g id="line2d_14">
      <g>
       <use xlink:href="#m3fda04f252" x="631.128168" y="312.135" style="stroke: #000000; stroke-width: 0.8"/>
      </g>
     </g>
     <g id="text_7">
      <!-- 150 -->
      <g transform="translate(622.878168 326.6975) scale(0.11 -0.11)">
       <use xlink:href="#SimHei-31"/>
       <use xlink:href="#SimHei-35" transform="translate(50 0)"/>
       <use xlink:href="#SimHei-30" transform="translate(100 0)"/>
      </g>
     </g>
    </g>
    <g id="xtick_8">
     <g id="line2d_15">
      <path d="M 722.620145 312.135 
L 722.620145 24.575 
" clip-path="url(#pa9a7244cbb)" style="fill: none; stroke-dasharray: 2.96,1.28; stroke-dashoffset: 0; stroke: #b0b0b0; stroke-opacity: 0.3; stroke-width: 0.8"/>
     </g>
     <g id="line2d_16">
      <g>
       <use xlink:href="#m3fda04f252" x="722.620145" y="312.135" style="stroke: #000000; stroke-width: 0.8"/>
      </g>
     </g>
     <g id="text_8">
      <!-- 175 -->
      <g transform="translate(714.370145 326.6975) scale(0.11 -0.11)">
       <use xlink:href="#SimHei-31"/>
       <use xlink:href="#SimHei-37" transform="translate(50 0)"/>
       <use xlink:href="#SimHei-35" transform="translate(100 0)"/>
      </g>
     </g>
    </g>
    <g id="xtick_9">
     <g id="line2d_17">
      <path d="M 814.112122 312.135 
L 814.112122 24.575 
" clip-path="url(#pa9a7244cbb)" style="fill: none; stroke-dasharray: 2.96,1.28; stroke-dashoffset: 0; stroke: #b0b0b0; stroke-opacity: 0.3; stroke-width: 0.8"/>
     </g>
     <g id="line2d_18">
      <g>
       <use xlink:href="#m3fda04f252" x="814.112122" y="312.135" style="stroke: #000000; stroke-width: 0.8"/>
      </g>
     </g>
     <g id="text_9">
      <!-- 200 -->
      <g transform="translate(805.862122 326.6975) scale(0.11 -0.11)">
       <use xlink:href="#SimHei-32"/>
       <use xlink:href="#SimHei-30" transform="translate(50 0)"/>
       <use xlink:href="#SimHei-30" transform="translate(100 0)"/>
      </g>
     </g>
    </g>
    <g id="text_10">
     <!-- 时间步 (滑动窗口=200) -->
     <g transform="translate(383.314375 341.775625) scale(0.12 -0.12)">
      <defs>
       <path id="SimHei-65f6" d="M 2525 4575 
Q 2500 3675 2500 2400 
Q 2500 1125 2525 400 
L 2000 400 
L 2000 875 
L 1000 875 
L 1000 50 
L 475 50 
Q 500 1200 500 2350 
Q 500 3525 475 4575 
L 2525 4575 
z
M 4875 3825 
Q 4875 4575 4850 5225 
L 5400 5225 
Q 5375 4575 5375 3825 
Q 5750 3825 6175 3850 
L 6175 3375 
Q 5750 3400 5375 3400 
L 5375 50 
Q 5375 -325 5075 -425 
Q 4775 -525 4300 -575 
Q 4300 -275 4025 0 
Q 4500 -50 4687 -25 
Q 4875 0 4875 300 
L 4875 3400 
Q 3625 3400 2775 3375 
L 2775 3850 
Q 3575 3825 4875 3825 
z
M 2000 1300 
L 2000 2550 
L 1000 2550 
L 1000 1300 
L 2000 1300 
z
M 2000 2975 
L 2000 4150 
L 1000 4150 
L 1000 2975 
L 2000 2975 
z
M 3550 2725 
Q 3875 2200 4175 1600 
Q 3925 1525 3650 1375 
Q 3450 1975 3075 2500 
Q 3300 2600 3550 2725 
z
" transform="scale(0.015625)"/>
       <path id="SimHei-95f4" d="M 4450 3550 
Q 4425 3075 4425 2725 
L 4425 1400 
Q 4425 1075 4450 625 
L 1925 625 
Q 1950 1075 1950 1425 
L 1950 2725 
Q 1950 3075 1925 3550 
L 4450 3550 
z
M 5800 4875 
Q 5775 4400 5775 3925 
L 5775 250 
Q 5800 -325 5462 -450 
Q 5125 -575 4725 -625 
Q 4700 -325 4525 -25 
Q 5000 -50 5137 25 
Q 5275 100 5275 350 
L 5275 4450 
L 3775 4450 
Q 3175 4450 2650 4425 
L 2650 4900 
Q 3175 4875 3775 4875 
L 5800 4875 
z
M 550 -525 
Q 600 -25 600 525 
L 600 3150 
Q 600 3675 550 4025 
L 1125 4025 
Q 1100 3650 1100 3300 
L 1100 500 
Q 1100 0 1125 -525 
L 550 -525 
z
M 3950 1025 
L 3950 1950 
L 2425 1950 
L 2425 1025 
L 3950 1025 
z
M 3950 2350 
L 3950 3150 
L 2425 3150 
L 2425 2350 
L 3950 2350 
z
M 1525 5300 
Q 1750 5000 2225 4350 
Q 1950 4225 1700 4075 
Q 1450 4575 1075 5025 
Q 1350 5225 1525 5300 
z
" transform="scale(0.015625)"/>
       <path id="SimHei-6b65" d="M 4800 4250 
Q 5150 4250 5550 4275 
L 5550 3825 
Q 5150 3850 4800 3850 
L 3700 3850 
L 3700 3000 
L 5125 3000 
Q 5675 3000 6100 3025 
L 6100 2550 
Q 5675 2575 5125 2575 
L 1475 2575 
Q 1050 2575 475 2525 
L 475 3025 
Q 1050 3000 1475 3000 
L 1725 3000 
L 1725 3775 
Q 1725 4225 1700 4500 
L 2225 4500 
Q 2200 4175 2200 3775 
L 2200 3000 
L 3225 3000 
Q 3225 4750 3200 5100 
L 3725 5100 
Q 3700 4750 3700 4250 
L 4800 4250 
z
M 3725 2400 
Q 3700 1975 3700 1600 
L 3700 450 
Q 4250 750 4725 1225 
Q 5200 1700 5400 2050 
Q 5650 1825 5900 1700 
Q 5675 1475 5362 1150 
Q 5050 825 4537 437 
Q 4025 50 3212 -225 
Q 2400 -500 800 -650 
Q 725 -400 500 -150 
Q 1275 -150 2100 -25 
Q 2925 100 3225 275 
L 3225 1600 
Q 3225 1975 3200 2400 
L 3725 2400 
z
M 2600 1875 
Q 2275 1600 1975 1275 
Q 1675 950 1075 400 
Q 875 600 700 725 
Q 1175 1075 1562 1512 
Q 1950 1950 2125 2200 
Q 2325 2025 2600 1875 
z
" transform="scale(0.015625)"/>
       <path id="SimHei-20" transform="scale(0.015625)"/>
       <path id="SimHei-28" d="M 2975 -200 
L 2700 -475 
Q 2075 125 1762 775 
Q 1450 1425 1450 2250 
Q 1450 3075 1762 3725 
Q 2075 4375 2700 5000 
L 2975 4725 
Q 2400 4175 2112 3587 
Q 1825 3000 1825 2250 
Q 1825 1500 2112 912 
Q 2400 325 2975 -200 
z
" transform="scale(0.015625)"/>
       <path id="SimHei-6ed1" d="M 5350 5100 
Q 5325 4725 5325 4400 
L 5325 3325 
L 6125 3325 
Q 6100 3050 6100 2775 
Q 6100 2500 6125 2275 
L 5650 2275 
L 5650 2925 
L 2150 2925 
L 2150 2275 
L 1700 2275 
Q 1725 2550 1725 2800 
Q 1725 3075 1700 3325 
L 2475 3325 
L 2475 4375 
Q 2475 4675 2450 5100 
L 5350 5100 
z
M 5275 2500 
Q 5250 2150 5250 1725 
L 5250 -75 
Q 5250 -375 5025 -475 
Q 4800 -575 4375 -625 
Q 4375 -400 4225 -75 
Q 4775 -175 4775 75 
L 4775 425 
L 3000 425 
L 3000 -625 
L 2525 -625 
Q 2550 -125 2550 225 
L 2550 1750 
Q 2550 2125 2525 2500 
L 5275 2500 
z
M 4300 4225 
L 4300 3325 
L 4900 3325 
L 4900 4700 
L 2925 4700 
L 2925 4225 
L 4300 4225 
z
M 1675 1900 
Q 1525 1675 1375 1262 
Q 1225 850 1062 437 
Q 900 25 775 -300 
Q 500 -100 200 50 
Q 375 250 525 525 
Q 675 800 875 1275 
Q 1075 1750 1175 2125 
Q 1375 2000 1675 1900 
z
M 4775 1625 
L 4775 2125 
L 3000 2125 
L 3000 1625 
L 4775 1625 
z
M 4775 800 
L 4775 1250 
L 3000 1250 
L 3000 800 
L 4775 800 
z
M 950 5125 
Q 1100 5025 1362 4825 
Q 1625 4625 1850 4450 
Q 1700 4275 1550 4000 
Q 1325 4225 1112 4400 
Q 900 4575 650 4725 
Q 825 4950 950 5125 
z
M 1000 3375 
Q 1225 3225 1475 3025 
Q 1325 2875 1175 2625 
Q 950 2800 750 2950 
Q 550 3100 250 3275 
L 550 3675 
L 1000 3375 
z
M 3900 3325 
L 3900 3825 
L 2925 3825 
L 2925 3325 
L 3900 3325 
z
" transform="scale(0.015625)"/>
       <path id="SimHei-52a8" d="M 4125 5150 
Q 4425 5075 4700 5075 
Q 4650 4825 4637 4512 
Q 4625 4200 4625 3750 
L 6025 3750 
Q 6000 3425 5975 3025 
L 5850 175 
Q 5775 -325 5437 -437 
Q 5100 -550 4675 -600 
Q 4600 -300 4425 -50 
Q 4975 -75 5175 12 
Q 5375 100 5375 350 
L 5525 3325 
L 4625 3325 
Q 4575 2225 4462 1650 
Q 4350 1075 4112 587 
Q 3875 100 3150 -675 
Q 2900 -425 2700 -350 
Q 3175 25 3475 437 
Q 3775 850 3900 1287 
Q 4025 1725 4075 2200 
Q 4125 2675 4150 3325 
L 3725 3325 
Q 3450 3325 3075 3300 
L 3075 3775 
Q 3450 3750 3775 3750 
L 4150 3750 
L 4150 4450 
Q 4150 4800 4125 5150 
z
M 275 3025 
Q 650 3000 1175 3000 
L 2125 3000 
Q 2575 3000 3150 3025 
L 3150 2575 
Q 2575 2600 2150 2600 
L 1875 2600 
Q 1725 2200 1537 1750 
Q 1350 1300 1100 850 
Q 2075 950 2575 1050 
Q 2450 1350 2175 1800 
Q 2450 1950 2575 2050 
Q 2825 1600 3000 1287 
Q 3175 975 3375 525 
Q 3175 400 2925 275 
Q 2825 500 2750 650 
Q 1950 525 1462 450 
Q 975 375 625 250 
Q 525 500 375 725 
Q 700 925 962 1525 
Q 1225 2125 1350 2600 
L 1175 2600 
Q 650 2600 275 2575 
L 275 3025 
z
M 2000 4425 
Q 2425 4425 2950 4450 
L 2950 3975 
Q 2425 4000 2000 4000 
L 1400 4000 
Q 1000 4000 625 3975 
L 625 4450 
Q 975 4425 1375 4425 
L 2000 4425 
z
" transform="scale(0.015625)"/>
       <path id="SimHei-7a97" d="M 3300 3400 
Q 3050 3125 2875 2825 
L 5425 2825 
Q 5400 2300 5400 1875 
L 5400 425 
Q 5400 -25 5425 -600 
L 4925 -600 
L 4925 -250 
L 1500 -250 
L 1500 -600 
L 1000 -600 
Q 1025 -25 1025 500 
L 1025 1800 
Q 1025 2225 1000 2825 
L 2400 2825 
Q 2700 3325 2775 3600 
Q 3050 3500 3300 3400 
z
M 4925 150 
L 4925 2450 
L 1500 2450 
L 1500 150 
L 4925 150 
z
M 3225 5300 
Q 3375 4775 3425 4575 
L 5900 4575 
Q 5875 4300 5875 4075 
Q 5875 3850 5900 3600 
L 5425 3600 
L 5425 4175 
L 1025 4175 
L 1025 3500 
L 500 3500 
Q 525 3725 525 4000 
Q 525 4300 500 4575 
L 2900 4575 
Q 2800 4900 2700 5125 
Q 2900 5175 3225 5300 
z
M 4150 425 
Q 3975 350 3700 175 
Q 3475 450 3300 575 
Q 2900 425 2612 362 
Q 2325 300 2025 225 
Q 1975 450 1825 650 
Q 2150 675 2425 737 
Q 2700 800 2950 875 
Q 2725 1025 2475 1225 
Q 2625 1325 2775 1475 
Q 3025 1250 3350 1050 
Q 3700 1250 3900 1575 
L 2525 1575 
Q 2250 1325 1925 1100 
Q 1800 1300 1625 1400 
Q 1950 1600 2200 1825 
Q 2450 2050 2650 2375 
Q 2900 2225 3125 2125 
Q 3000 2025 2900 1925 
L 4625 1925 
Q 4400 1500 4200 1262 
Q 4000 1025 3700 800 
Q 3975 600 4150 425 
z
M 3900 4100 
Q 4175 4000 4625 3825 
Q 5075 3650 5675 3400 
Q 5550 3175 5450 2950 
Q 4825 3275 4425 3425 
Q 4025 3575 3650 3700 
Q 3775 3850 3900 4100 
z
M 2625 3650 
Q 2250 3500 1900 3350 
L 900 2900 
Q 800 3125 675 3300 
Q 1075 3425 1512 3625 
Q 1950 3825 2350 4075 
Q 2475 3825 2625 3650 
z
" transform="scale(0.015625)"/>
       <path id="SimHei-53e3" d="M 5425 4300 
Q 5400 3775 5400 3175 
L 5400 550 
Q 5400 100 5425 -425 
L 4900 -425 
L 4900 100 
L 1525 100 
L 1525 -425 
L 1000 -425 
Q 1025 0 1025 550 
L 1025 3175 
Q 1025 3775 1000 4300 
L 5425 4300 
z
M 4900 525 
L 4900 3875 
L 1525 3875 
L 1525 525 
L 4900 525 
z
" transform="scale(0.015625)"/>
       <path id="SimHei-3d" d="M 2975 2900 
L 125 2900 
L 125 3300 
L 2975 3300 
L 2975 2900 
z
M 2975 1375 
L 125 1375 
L 125 1775 
L 2975 1775 
L 2975 1375 
z
" transform="scale(0.015625)"/>
       <path id="SimHei-29" d="M 1675 2250 
Q 1675 1425 1362 775 
Q 1050 125 425 -475 
L 150 -200 
Q 725 325 1012 912 
Q 1300 1500 1300 2250 
Q 1300 3000 1012 3587 
Q 725 4175 150 4725 
L 425 5000 
Q 1050 4375 1362 3725 
Q 1675 3075 1675 2250 
z
" transform="scale(0.015625)"/>
      </defs>
      <use xlink:href="#SimHei-65f6"/>
      <use xlink:href="#SimHei-95f4" transform="translate(100 0)"/>
      <use xlink:href="#SimHei-6b65" transform="translate(200 0)"/>
      <use xlink:href="#SimHei-20" transform="translate(300 0)"/>
      <use xlink:href="#SimHei-28" transform="translate(350 0)"/>
      <use xlink:href="#SimHei-6ed1" transform="translate(400 0)"/>
      <use xlink:href="#SimHei-52a8" transform="translate(500 0)"/>
      <use xlink:href="#SimHei-7a97" transform="translate(600 0)"/>
      <use xlink:href="#SimHei-53e3" transform="translate(700 0)"/>
      <use xlink:href="#SimHei-3d" transform="translate(800 0)"/>
      <use xlink:href="#SimHei-32" transform="translate(850 0)"/>
      <use xlink:href="#SimHei-30" transform="translate(900 0)"/>
      <use xlink:href="#SimHei-30" transform="translate(950 0)"/>
      <use xlink:href="#SimHei-29" transform="translate(1000 0)"/>
     </g>
    </g>
   </g>
   <g id="matplotlib.axis_2">
    <g id="ytick_1">
     <g id="line2d_19">
      <path d="M 45.7625 308.594662 
L 846.86625 308.594662 
" clip-path="url(#pa9a7244cbb)" style="fill: none; stroke-dasharray: 2.96,1.28; stroke-dashoffset: 0; stroke: #b0b0b0; stroke-opacity: 0.3; stroke-width: 0.8"/>
     </g>
     <g id="line2d_20">
      <defs>
       <path id="mdae90a3435" d="M 0 0 
L -3.5 0 
" style="stroke: #000000; stroke-width: 0.8"/>
      </defs>
      <g>
       <use xlink:href="#mdae90a3435" x="45.7625" y="308.594662" style="stroke: #000000; stroke-width: 0.8"/>
      </g>
     </g>
     <g id="text_11">
      <!-- 0 -->
      <g transform="translate(33.2625 312.375912) scale(0.11 -0.11)">
       <use xlink:href="#SimHei-30"/>
      </g>
     </g>
    </g>
    <g id="ytick_2">
     <g id="line2d_21">
      <path d="M 45.7625 269.704796 
L 846.86625 269.704796 
" clip-path="url(#pa9a7244cbb)" style="fill: none; stroke-dasharray: 2.96,1.28; stroke-dashoffset: 0; stroke: #b0b0b0; stroke-opacity: 0.3; stroke-width: 0.8"/>
     </g>
     <g id="line2d_22">
      <g>
       <use xlink:href="#mdae90a3435" x="45.7625" y="269.704796" style="stroke: #000000; stroke-width: 0.8"/>
      </g>
     </g>
     <g id="text_12">
      <!-- 25 -->
      <g transform="translate(27.7625 273.486046) scale(0.11 -0.11)">
       <use xlink:href="#SimHei-32"/>
       <use xlink:href="#SimHei-35" transform="translate(50 0)"/>
      </g>
     </g>
    </g>
    <g id="ytick_3">
     <g id="line2d_23">
      <path d="M 45.7625 230.814931 
L 846.86625 230.814931 
" clip-path="url(#pa9a7244cbb)" style="fill: none; stroke-dasharray: 2.96,1.28; stroke-dashoffset: 0; stroke: #b0b0b0; stroke-opacity: 0.3; stroke-width: 0.8"/>
     </g>
     <g id="line2d_24">
      <g>
       <use xlink:href="#mdae90a3435" x="45.7625" y="230.814931" style="stroke: #000000; stroke-width: 0.8"/>
      </g>
     </g>
     <g id="text_13">
      <!-- 50 -->
      <g transform="translate(27.7625 234.596181) scale(0.11 -0.11)">
       <use xlink:href="#SimHei-35"/>
       <use xlink:href="#SimHei-30" transform="translate(50 0)"/>
      </g>
     </g>
    </g>
    <g id="ytick_4">
     <g id="line2d_25">
      <path d="M 45.7625 191.925066 
L 846.86625 191.925066 
" clip-path="url(#pa9a7244cbb)" style="fill: none; stroke-dasharray: 2.96,1.28; stroke-dashoffset: 0; stroke: #b0b0b0; stroke-opacity: 0.3; stroke-width: 0.8"/>
     </g>
     <g id="line2d_26">
      <g>
       <use xlink:href="#mdae90a3435" x="45.7625" y="191.925066" style="stroke: #000000; stroke-width: 0.8"/>
      </g>
     </g>
     <g id="text_14">
      <!-- 75 -->
      <g transform="translate(27.7625 195.706316) scale(0.11 -0.11)">
       <use xlink:href="#SimHei-37"/>
       <use xlink:href="#SimHei-35" transform="translate(50 0)"/>
      </g>
     </g>
    </g>
    <g id="ytick_5">
     <g id="line2d_27">
      <path d="M 45.7625 153.0352 
L 846.86625 153.0352 
" clip-path="url(#pa9a7244cbb)" style="fill: none; stroke-dasharray: 2.96,1.28; stroke-dashoffset: 0; stroke: #b0b0b0; stroke-opacity: 0.3; stroke-width: 0.8"/>
     </g>
     <g id="line2d_28">
      <g>
       <use xlink:href="#mdae90a3435" x="45.7625" y="153.0352" style="stroke: #000000; stroke-width: 0.8"/>
      </g>
     </g>
     <g id="text_15">
      <!-- 100 -->
      <g transform="translate(22.2625 156.81645) scale(0.11 -0.11)">
       <use xlink:href="#SimHei-31"/>
       <use xlink:href="#SimHei-30" transform="translate(50 0)"/>
       <use xlink:href="#SimHei-30" transform="translate(100 0)"/>
      </g>
     </g>
    </g>
    <g id="ytick_6">
     <g id="line2d_29">
      <path d="M 45.7625 114.145335 
L 846.86625 114.145335 
" clip-path="url(#pa9a7244cbb)" style="fill: none; stroke-dasharray: 2.96,1.28; stroke-dashoffset: 0; stroke: #b0b0b0; stroke-opacity: 0.3; stroke-width: 0.8"/>
     </g>
     <g id="line2d_30">
      <g>
       <use xlink:href="#mdae90a3435" x="45.7625" y="114.145335" style="stroke: #000000; stroke-width: 0.8"/>
      </g>
     </g>
     <g id="text_16">
      <!-- 125 -->
      <g transform="translate(22.2625 117.926585) scale(0.11 -0.11)">
       <use xlink:href="#SimHei-31"/>
       <use xlink:href="#SimHei-32" transform="translate(50 0)"/>
       <use xlink:href="#SimHei-35" transform="translate(100 0)"/>
      </g>
     </g>
    </g>
    <g id="ytick_7">
     <g id="line2d_31">
      <path d="M 45.7625 75.255469 
L 846.86625 75.255469 
" clip-path="url(#pa9a7244cbb)" style="fill: none; stroke-dasharray: 2.96,1.28; stroke-dashoffset: 0; stroke: #b0b0b0; stroke-opacity: 0.3; stroke-width: 0.8"/>
     </g>
     <g id="line2d_32">
      <g>
       <use xlink:href="#mdae90a3435" x="45.7625" y="75.255469" style="stroke: #000000; stroke-width: 0.8"/>
      </g>
     </g>
     <g id="text_17">
      <!-- 150 -->
      <g transform="translate(22.2625 79.036719) scale(0.11 -0.11)">
       <use xlink:href="#SimHei-31"/>
       <use xlink:href="#SimHei-35" transform="translate(50 0)"/>
       <use xlink:href="#SimHei-30" transform="translate(100 0)"/>
      </g>
     </g>
    </g>
    <g id="ytick_8">
     <g id="line2d_33">
      <path d="M 45.7625 36.365604 
L 846.86625 36.365604 
" clip-path="url(#pa9a7244cbb)" style="fill: none; stroke-dasharray: 2.96,1.28; stroke-dashoffset: 0; stroke: #b0b0b0; stroke-opacity: 0.3; stroke-width: 0.8"/>
     </g>
     <g id="line2d_34">
      <g>
       <use xlink:href="#mdae90a3435" x="45.7625" y="36.365604" style="stroke: #000000; stroke-width: 0.8"/>
      </g>
     </g>
     <g id="text_18">
      <!-- 175 -->
      <g transform="translate(22.2625 40.146854) scale(0.11 -0.11)">
       <use xlink:href="#SimHei-31"/>
       <use xlink:href="#SimHei-37" transform="translate(50 0)"/>
       <use xlink:href="#SimHei-35" transform="translate(100 0)"/>
      </g>
     </g>
    </g>
    <g id="text_19">
     <!-- 分销商 BWE -->
     <g transform="translate(16.7625 198.355) rotate(-90) scale(0.12 -0.12)">
      <defs>
       <path id="SimHei-5206" d="M 1000 -650 
Q 825 -375 575 -225 
Q 975 -75 1300 137 
Q 1625 350 1875 662 
Q 2125 975 2250 1350 
Q 2375 1725 2425 2275 
Q 1850 2275 1500 2250 
L 1500 2775 
Q 1900 2750 2525 2750 
L 5025 2750 
Q 4975 2375 4950 2100 
L 4750 250 
Q 4700 -200 4350 -350 
Q 4000 -500 3575 -525 
Q 3550 -275 3325 50 
Q 3850 25 4037 87 
Q 4225 150 4275 525 
L 4450 2275 
L 2950 2275 
Q 2875 1625 2737 1187 
Q 2600 750 2350 425 
Q 2100 100 1750 -175 
Q 1400 -450 1000 -650 
z
M 3950 5175 
Q 4125 4650 4662 3975 
Q 5200 3300 6175 2800 
Q 5975 2625 5775 2275 
Q 5325 2600 4987 2887 
Q 4650 3175 4425 3425 
Q 4200 3675 3925 4137 
Q 3650 4600 3475 5000 
Q 3750 5075 3950 5175 
z
M 2700 4825 
Q 2475 4425 2325 4125 
Q 2175 3825 2025 3587 
Q 1875 3350 1575 2950 
Q 1275 2550 850 2125 
Q 625 2350 400 2475 
Q 900 2925 1187 3300 
Q 1475 3675 1737 4112 
Q 2000 4550 2200 5075 
Q 2400 4925 2700 4825 
z
" transform="scale(0.015625)"/>
       <path id="SimHei-9500" d="M 4175 4325 
Q 4175 4700 4150 5125 
L 4650 5125 
Q 4625 4850 4625 4325 
L 4625 3225 
L 5825 3225 
Q 5800 2850 5800 2225 
L 5800 50 
Q 5800 -300 5562 -375 
Q 5325 -450 4925 -525 
Q 4875 -275 4700 -25 
Q 5275 0 5300 112 
Q 5325 225 5325 825 
L 3575 825 
L 3575 -450 
L 3100 -450 
Q 3125 75 3125 400 
L 3125 2175 
Q 3125 2800 3100 3225 
L 4175 3225 
L 4175 4325 
z
M 2350 2700 
Q 2025 2725 1700 2725 
L 1700 1975 
Q 2125 1975 2600 2000 
L 2600 1550 
Q 2125 1575 1700 1575 
L 1700 425 
Q 1925 575 2250 925 
Q 2325 700 2500 475 
Q 2250 300 1975 87 
Q 1700 -125 1400 -450 
Q 1275 -225 1075 -50 
Q 1225 100 1250 400 
L 1250 1575 
Q 950 1575 525 1550 
L 525 2000 
Q 950 1975 1250 1975 
L 1250 2725 
Q 950 2725 750 2700 
L 750 3150 
Q 1075 3125 1500 3125 
Q 1950 3125 2350 3150 
L 2350 2700 
z
M 625 3075 
Q 450 3275 225 3375 
Q 600 3750 875 4200 
Q 1150 4650 1325 5125 
Q 1675 4925 1875 4850 
Q 1550 4400 1450 4200 
Q 2075 4200 2500 4225 
L 2500 3750 
Q 2075 3775 1200 3775 
Q 825 3275 625 3075 
z
M 5325 2200 
L 5325 2850 
L 3575 2850 
L 3575 2200 
L 5325 2200 
z
M 5325 1200 
L 5325 1825 
L 3575 1825 
L 3575 1200 
L 5325 1200 
z
M 6050 4550 
Q 5850 4300 5450 3525 
Q 5225 3650 4975 3725 
Q 5250 4050 5525 4775 
Q 5725 4650 6050 4550 
z
M 3200 4775 
Q 3600 4150 3800 3800 
Q 3575 3700 3350 3550 
Q 3175 3950 2775 4525 
Q 3025 4625 3200 4775 
z
" transform="scale(0.015625)"/>
       <path id="SimHei-5546" d="M 3150 5225 
Q 3475 4725 3550 4525 
L 4975 4525 
Q 5475 4525 5975 4550 
L 5975 4100 
Q 5475 4125 4975 4125 
L 2100 4125 
Q 2575 3625 2675 3475 
Q 2500 3400 2300 3250 
L 3650 3250 
Q 3800 3650 3950 4100 
Q 4200 4000 4525 3925 
Q 4350 3700 4125 3250 
L 5525 3250 
Q 5500 2950 5500 2425 
L 5500 -50 
Q 5500 -350 5225 -475 
Q 4950 -600 4475 -675 
Q 4450 -375 4275 -125 
Q 4775 -150 4900 -75 
Q 5025 0 5025 175 
L 5025 2900 
L 1375 2900 
L 1375 -600 
L 875 -600 
Q 900 50 900 325 
L 900 2475 
Q 900 2725 875 3250 
L 2250 3250 
Q 2075 3550 1675 3875 
Q 1875 3975 2050 4125 
L 1475 4125 
Q 900 4125 475 4100 
L 475 4550 
Q 900 4525 1450 4525 
L 3000 4525 
Q 2925 4775 2675 5050 
Q 2925 5125 3150 5225 
z
M 2600 2650 
Q 2850 2475 3075 2350 
Q 2825 2225 2350 1675 
L 4250 1675 
Q 4225 1350 4225 975 
Q 4225 600 4250 225 
L 2300 225 
Q 2325 600 2325 950 
Q 2325 1325 2300 1625 
Q 2125 1475 1950 1350 
Q 1825 1525 1575 1625 
Q 2350 2225 2600 2650 
z
M 3750 600 
L 3750 1300 
L 2775 1300 
L 2775 600 
L 3750 600 
z
M 3775 2675 
Q 4475 2225 4900 1850 
Q 4675 1725 4525 1525 
Q 4275 1825 3475 2350 
Q 3650 2475 3775 2675 
z
" transform="scale(0.015625)"/>
       <path id="SimHei-42" d="M 2950 1400 
Q 2950 675 2550 400 
Q 2150 125 1525 125 
L 275 125 
L 275 4400 
L 1575 4400 
Q 2200 4400 2512 4075 
Q 2825 3750 2825 3300 
Q 2825 2850 2612 2637 
Q 2400 2425 2175 2350 
Q 2475 2275 2712 2037 
Q 2950 1800 2950 1400 
z
M 2250 3300 
Q 2250 3625 2062 3775 
Q 1875 3925 1600 3925 
L 850 3925 
L 850 2600 
L 1575 2600 
Q 1850 2600 2050 2762 
Q 2250 2925 2250 3300 
z
M 2350 1400 
Q 2350 1800 2087 1962 
Q 1825 2125 1500 2125 
L 850 2125 
L 850 600 
L 1425 600 
Q 1875 600 2112 775 
Q 2350 950 2350 1400 
z
" transform="scale(0.015625)"/>
       <path id="SimHei-57" d="M 3075 4400 
L 2525 75 
L 2025 75 
L 1575 3275 
L 1525 3275 
L 1075 75 
L 575 75 
L 25 4400 
L 575 4400 
L 850 1675 
L 900 1675 
L 1275 4400 
L 1825 4400 
L 2200 1675 
L 2250 1675 
L 2525 4400 
L 3075 4400 
z
" transform="scale(0.015625)"/>
       <path id="SimHei-45" d="M 2900 125 
L 350 125 
L 350 4400 
L 2775 4400 
L 2775 3925 
L 925 3925 
L 925 2600 
L 2625 2600 
L 2625 2125 
L 925 2125 
L 925 600 
L 2900 600 
L 2900 125 
z
" transform="scale(0.015625)"/>
      </defs>
      <use xlink:href="#SimHei-5206"/>
      <use xlink:href="#SimHei-9500" transform="translate(100 0)"/>
      <use xlink:href="#SimHei-5546" transform="translate(200 0)"/>
      <use xlink:href="#SimHei-20" transform="translate(300 0)"/>
      <use xlink:href="#SimHei-42" transform="translate(350 0)"/>
      <use xlink:href="#SimHei-57" transform="translate(400 0)"/>
      <use xlink:href="#SimHei-45" transform="translate(450 0)"/>
     </g>
    </g>
   </g>
   <g id="line2d_35">
    <path d="M 82.176307 37.645909 
L 85.835986 150.777505 
L 89.495665 150.089042 
L 93.155344 154.48742 
L 96.815023 156.058398 
L 100.474702 172.062181 
L 104.134381 246.883715 
L 107.79406 244.992745 
L 111.453739 244.285609 
L 115.113419 246.280414 
L 118.773098 267.617996 
L 122.432777 259.180596 
L 126.092456 257.57299 
L 129.752135 264.143002 
L 133.411814 265.812457 
L 137.071493 264.772443 
L 140.731172 252.588334 
L 144.390851 251.338235 
L 148.05053 244.311995 
L 151.710209 247.379798 
L 155.369888 222.488677 
L 159.029567 223.897685 
L 162.689247 218.680017 
L 166.348926 209.086301 
L 170.008605 222.790222 
L 173.668284 229.498322 
L 177.327963 235.163249 
L 180.987642 209.793897 
L 184.647321 201.965632 
L 188.307 234.66574 
L 191.966679 228.52126 
L 195.626358 229.134609 
L 199.286037 217.624692 
L 202.945716 209.912473 
L 206.605395 203.117662 
L 210.265075 238.236357 
L 213.924754 138.373272 
L 217.584433 128.659517 
L 221.244112 124.997488 
L 224.903791 117.681376 
L 228.56347 121.956114 
L 232.223149 95.988573 
L 235.882828 123.813755 
L 239.542507 139.458455 
L 243.202186 222.021983 
L 246.861865 229.879802 
L 250.521544 229.067834 
L 254.181223 231.502357 
L 257.840903 231.700442 
L 261.500582 262.126114 
L 265.160261 259.570297 
L 268.81994 254.40505 
L 272.479619 244.31166 
L 276.139298 249.294599 
L 279.798977 246.582435 
L 283.458656 249.000304 
L 287.118335 250.051105 
L 290.778014 241.100368 
L 294.437693 249.850721 
L 298.097372 243.36859 
L 301.757051 108.648193 
L 305.416731 115.989038 
L 309.07641 105.633317 
L 312.736089 117.455245 
L 316.395768 85.678983 
L 320.055447 80.628499 
L 323.715126 95.919411 
L 327.374805 83.998075 
L 331.034484 243.406594 
L 334.694163 243.10922 
L 338.353842 226.00161 
L 342.013521 230.166735 
L 345.6732 224.329224 
L 349.332879 204.823848 
L 352.992559 196.969187 
L 356.652238 196.038929 
L 360.311917 200.239234 
L 363.971596 195.975599 
L 367.631275 155.435126 
L 371.290954 166.448733 
L 374.950633 173.597665 
L 378.610312 155.463544 
L 382.269991 169.820536 
L 385.92967 181.377741 
L 389.589349 182.98176 
L 393.249028 142.74134 
L 396.908707 189.230732 
L 400.568387 192.546155 
L 404.228066 193.729733 
L 407.887745 204.025232 
L 411.547424 208.313741 
L 415.207103 229.644155 
L 418.866782 228.507071 
L 422.526461 257.961716 
L 426.18614 244.090926 
L 429.845819 242.147238 
L 437.165177 255.431039 
L 440.824856 255.082685 
L 444.484535 226.62938 
L 448.144215 222.88514 
L 451.803894 215.160363 
L 455.463573 232.952605 
L 459.123252 205.74177 
L 462.782931 192.435285 
L 466.44261 180.952905 
L 470.102289 170.411756 
L 473.761968 194.024795 
L 477.421647 182.909359 
L 481.081326 183.617684 
L 484.741005 169.777885 
L 488.400684 168.162051 
L 492.060363 193.185566 
L 495.720043 209.992756 
L 499.379722 207.973795 
L 503.039401 236.39345 
L 506.69908 224.551177 
L 510.358759 231.057989 
L 514.018438 249.113795 
L 517.678117 239.389293 
L 521.337796 204.379955 
L 524.997475 219.523671 
L 528.657154 216.034153 
L 532.316833 205.306382 
L 535.976512 204.653175 
L 539.636191 192.798178 
L 543.295871 185.993921 
L 546.95555 194.575202 
L 550.615229 235.752558 
L 554.274908 222.26692 
L 557.934587 220.649646 
L 561.594266 225.069302 
L 565.253945 223.373301 
L 568.913624 215.587204 
L 572.573303 234.132938 
L 576.232982 239.450339 
L 579.892661 217.728642 
L 583.55234 219.916364 
L 587.212019 219.920014 
L 590.871699 215.31059 
L 594.531378 222.263955 
L 598.191057 223.626866 
L 601.850736 216.916159 
L 605.510415 186.661393 
L 609.170094 214.244637 
L 612.829773 226.389781 
L 616.489452 173.18898 
L 620.149131 174.017184 
L 623.80881 172.401194 
L 627.468489 181.2776 
L 631.128168 164.025192 
L 634.787847 155.989686 
L 638.447527 175.301503 
L 642.107206 181.981751 
L 645.766885 232.691871 
L 649.426564 181.323144 
L 653.086243 183.617571 
L 656.745922 189.572344 
L 660.405601 195.941848 
L 664.06528 179.339249 
L 667.724959 167.441464 
L 671.384638 161.32512 
L 675.044317 174.657325 
L 678.703996 193.433091 
L 682.363675 201.25843 
L 686.023355 180.021287 
L 689.683034 190.989367 
L 693.342713 182.506304 
L 697.002392 189.569548 
L 700.662071 211.169879 
L 704.32175 200.001972 
L 707.981429 209.135682 
L 711.641108 186.984252 
L 715.300787 204.923158 
L 718.960466 203.298231 
L 722.620145 200.839127 
L 726.279824 213.585237 
L 729.939503 163.8252 
L 733.599183 169.487298 
L 737.258862 172.596464 
L 740.918541 199.469193 
L 744.57822 190.008022 
L 748.237899 194.150906 
L 751.897578 193.648745 
L 755.557257 194.138356 
L 759.216936 249.413005 
L 762.876615 236.493512 
L 766.536294 227.132403 
L 770.195973 227.373636 
L 773.855652 227.19276 
L 777.515331 230.499551 
L 781.175011 216.356153 
L 784.83469 229.761862 
L 788.494369 212.142474 
L 792.154048 210.847807 
L 795.813727 221.927008 
L 799.473406 208.493067 
L 803.133085 213.707484 
L 806.792764 187.542393 
L 810.452443 199.643057 
L 810.452443 199.643057 
" clip-path="url(#pa9a7244cbb)" style="fill: none; stroke: #e74c3c; stroke-opacity: 0.8; stroke-width: 1.5; stroke-linecap: square"/>
   </g>
   <g id="line2d_36">
    <path d="M 82.176307 292.246966 
L 85.835986 292.987163 
L 89.495665 292.243336 
L 93.155344 291.88258 
L 96.815023 290.600827 
L 100.474702 288.074939 
L 104.134381 286.207006 
L 107.79406 288.038066 
L 111.453739 289.366324 
L 115.113419 289.107692 
L 118.773098 290.580457 
L 122.432777 290.167953 
L 129.752135 290.541563 
L 133.411814 291.787414 
L 137.071493 289.691214 
L 140.731172 288.288995 
L 144.390851 288.349482 
L 148.05053 286.682202 
L 151.710209 287.501915 
L 159.029567 289.625443 
L 162.689247 288.634855 
L 166.348926 292.491804 
L 173.668284 292.990702 
L 177.327963 293.73218 
L 180.987642 293.891734 
L 184.647321 293.364953 
L 188.307 293.807812 
L 191.966679 293.02112 
L 195.626358 291.346802 
L 199.286037 291.656577 
L 202.945716 292.560457 
L 206.605395 292.5216 
L 210.265075 292.120923 
L 213.924754 292.11622 
L 217.584433 289.919749 
L 221.244112 290.593561 
L 224.903791 292.324686 
L 228.56347 292.867713 
L 232.223149 291.690587 
L 235.882828 292.15554 
L 239.542507 292.381572 
L 243.202186 293.018843 
L 246.861865 293.451244 
L 250.521544 292.931144 
L 254.181223 293.569085 
L 257.840903 292.805045 
L 265.160261 292.263757 
L 268.81994 290.951095 
L 272.479619 290.090915 
L 276.139298 291.803842 
L 279.798977 291.611441 
L 283.458656 290.322417 
L 287.118335 291.787996 
L 290.778014 290.993972 
L 294.437693 291.977302 
L 301.757051 293.226614 
L 305.416731 294.290455 
L 309.07641 291.928338 
L 312.736089 292.597597 
L 316.395768 293.964223 
L 320.055447 294.81833 
L 323.715126 294.840611 
L 327.374805 292.558961 
L 331.034484 293.475252 
L 334.694163 291.943815 
L 338.353842 292.275391 
L 342.013521 292.808275 
L 345.6732 292.659686 
L 349.332879 291.331344 
L 352.992559 291.023696 
L 356.652238 291.397095 
L 360.311917 291.33516 
L 363.971596 291.586119 
L 367.631275 292.61316 
L 374.950633 291.134602 
L 378.610312 289.178982 
L 382.269991 289.384904 
L 385.92967 289.071455 
L 389.589349 289.82249 
L 393.249028 288.589179 
L 400.568387 286.746793 
L 404.228066 286.803958 
L 407.887745 287.742256 
L 411.547424 288.011322 
L 415.207103 287.448333 
L 418.866782 288.496476 
L 422.526461 287.074434 
L 426.18614 288.448406 
L 429.845819 289.350816 
L 433.505498 287.649864 
L 437.165177 286.465338 
L 440.824856 287.610669 
L 444.484535 288.479299 
L 448.144215 290.190445 
L 451.803894 290.213049 
L 455.463573 291.00335 
L 459.123252 289.899245 
L 462.782931 290.17989 
L 466.44261 291.508519 
L 470.102289 292.972897 
L 473.761968 292.704148 
L 477.421647 292.082582 
L 481.081326 291.747113 
L 484.741005 291.257737 
L 488.400684 292.339378 
L 492.060363 292.848721 
L 495.720043 291.602693 
L 499.379722 291.988402 
L 503.039401 291.893828 
L 506.69908 290.655101 
L 510.358759 290.483596 
L 514.018438 290.021586 
L 517.678117 291.592671 
L 521.337796 288.97649 
L 524.997475 291.258084 
L 528.657154 290.768678 
L 532.316833 290.120542 
L 535.976512 288.649082 
L 539.636191 289.197913 
L 543.295871 290.734909 
L 546.95555 289.918426 
L 550.615229 289.845182 
L 554.274908 290.102511 
L 557.934587 289.687635 
L 561.594266 291.001837 
L 565.253945 292.873736 
L 568.913624 293.757386 
L 572.573303 294.046071 
L 576.232982 294.623018 
L 579.892661 295.775175 
L 583.55234 295.171422 
L 587.212019 293.84857 
L 590.871699 294.31874 
L 594.531378 291.797126 
L 598.191057 291.541204 
L 601.850736 289.863504 
L 605.510415 290.509802 
L 609.170094 288.946231 
L 612.829773 290.176066 
L 616.489452 291.258588 
L 620.149131 290.161712 
L 623.80881 290.588983 
L 627.468489 292.308989 
L 631.128168 293.264552 
L 634.787847 292.342018 
L 638.447527 293.328454 
L 642.107206 292.057138 
L 645.766885 292.069092 
L 649.426564 292.346497 
L 653.086243 292.333168 
L 656.745922 292.022229 
L 660.405601 292.859937 
L 664.06528 290.825057 
L 667.724959 290.626353 
L 671.384638 291.015199 
L 678.703996 293.34459 
L 682.363675 292.307621 
L 686.023355 293.572533 
L 689.683034 291.864666 
L 693.342713 291.674298 
L 697.002392 291.981675 
L 700.662071 291.167507 
L 704.32175 289.69192 
L 707.981429 288.563612 
L 711.641108 290.266255 
L 715.300787 288.24088 
L 718.960466 288.534079 
L 722.620145 290.055621 
L 726.279824 290.111019 
L 729.939503 291.35693 
L 733.599183 291.937127 
L 737.258862 291.661085 
L 740.918541 291.171106 
L 744.57822 292.713829 
L 748.237899 293.387447 
L 751.897578 292.204545 
L 755.557257 291.644909 
L 759.216936 290.826388 
L 766.536294 289.608511 
L 770.195973 289.321238 
L 773.855652 289.232568 
L 777.515331 290.710361 
L 781.175011 290.214637 
L 784.83469 291.370684 
L 799.473406 292.048788 
L 803.133085 292.353989 
L 810.452443 292.611815 
L 810.452443 292.611815 
" clip-path="url(#pa9a7244cbb)" style="fill: none; stroke: #3498db; stroke-opacity: 0.8; stroke-width: 1.5; stroke-linecap: square"/>
   </g>
   <g id="line2d_37">
    <path d="M 82.176307 292.198043 
L 85.835986 292.127269 
L 89.495665 294.57143 
L 93.155344 294.515965 
L 96.815023 295.293431 
L 100.474702 295.633494 
L 104.134381 294.460741 
L 107.79406 294.053415 
L 111.453739 296.808148 
L 115.113419 297.755176 
L 118.773098 297.478126 
L 122.432777 297.423681 
L 126.092456 296.990728 
L 129.752135 297.908408 
L 133.411814 297.745314 
L 137.071493 298.494521 
L 140.731172 296.153399 
L 144.390851 295.468547 
L 148.05053 293.765131 
L 151.710209 293.980397 
L 159.029567 294.985883 
L 162.689247 293.604219 
L 166.348926 293.445732 
L 170.008605 295.22606 
L 177.327963 295.99454 
L 180.987642 297.37597 
L 184.647321 295.858219 
L 188.307 296.484768 
L 191.966679 296.735692 
L 195.626358 296.165157 
L 199.286037 296.856004 
L 202.945716 295.381916 
L 206.605395 295.882727 
L 210.265075 295.165941 
L 213.924754 294.175494 
L 217.584433 294.668464 
L 221.244112 293.856989 
L 228.56347 292.46042 
L 232.223149 295.195758 
L 235.882828 295.606288 
L 239.542507 296.766854 
L 243.202186 296.657857 
L 246.861865 296.379286 
L 250.521544 296.412329 
L 254.181223 296.812794 
L 257.840903 297.084476 
L 261.500582 296.113745 
L 265.160261 294.923977 
L 268.81994 293.079694 
L 272.479619 295.755929 
L 276.139298 296.713082 
L 279.798977 296.674605 
L 283.458656 296.134427 
L 287.118335 296.58621 
L 290.778014 296.589636 
L 298.097372 297.627689 
L 301.757051 296.093845 
L 309.07641 294.247112 
L 312.736089 294.771242 
L 316.395768 293.91573 
L 320.055447 294.378284 
L 323.715126 294.625542 
L 327.374805 294.337369 
L 331.034484 294.465829 
L 334.694163 294.29527 
L 338.353842 295.076722 
L 342.013521 294.965881 
L 345.6732 295.167003 
L 349.332879 296.343657 
L 356.652238 293.840077 
L 360.311917 293.914905 
L 363.971596 294.187173 
L 367.631275 294.642216 
L 371.290954 294.151536 
L 374.950633 295.971782 
L 378.610312 295.822279 
L 382.269991 295.478709 
L 385.92967 295.776764 
L 389.589349 296.560991 
L 393.249028 296.10298 
L 396.908707 295.339234 
L 400.568387 295.988105 
L 404.228066 295.475395 
L 407.887745 295.162818 
L 411.547424 296.226988 
L 415.207103 297.059412 
L 418.866782 296.767559 
L 422.526461 297.428763 
L 426.18614 297.329409 
L 429.845819 297.424956 
L 433.505498 296.449641 
L 437.165177 296.709027 
L 440.824856 296.000819 
L 444.484535 298.39715 
L 448.144215 299.064091 
L 451.803894 298.336562 
L 455.463573 298.323917 
L 459.123252 297.605128 
L 462.782931 298.082762 
L 466.44261 297.657663 
L 470.102289 297.67797 
L 473.761968 294.145085 
L 477.421647 290.397132 
L 481.081326 290.475647 
L 484.741005 292.687785 
L 488.400684 293.024707 
L 492.060363 294.735662 
L 495.720043 293.655216 
L 499.379722 294.961216 
L 503.039401 296.603373 
L 510.358759 298.127683 
L 514.018438 297.884797 
L 517.678117 297.475673 
L 521.337796 296.451217 
L 524.997475 296.885084 
L 532.316833 296.275078 
L 535.976512 293.373616 
L 539.636191 293.392402 
L 543.295871 292.60476 
L 546.95555 294.974938 
L 550.615229 294.614765 
L 554.274908 294.802578 
L 557.934587 296.071138 
L 561.594266 295.995138 
L 565.253945 296.501555 
L 568.913624 296.141393 
L 572.573303 297.165367 
L 576.232982 296.088662 
L 579.892661 296.712406 
L 583.55234 297.611488 
L 587.212019 296.172822 
L 590.871699 297.069605 
L 594.531378 295.962633 
L 598.191057 296.421566 
L 601.850736 295.900627 
L 605.510415 295.03047 
L 609.170094 294.62054 
L 612.829773 293.235848 
L 616.489452 294.03506 
L 620.149131 292.858398 
L 623.80881 294.08579 
L 627.468489 293.616665 
L 631.128168 293.731561 
L 634.787847 293.104233 
L 638.447527 293.036913 
L 642.107206 293.700221 
L 645.766885 294.040513 
L 649.426564 294.996523 
L 653.086243 294.037932 
L 656.745922 294.437028 
L 660.405601 294.135818 
L 664.06528 295.24643 
L 667.724959 296.964544 
L 671.384638 295.849806 
L 675.044317 296.374218 
L 678.703996 294.946419 
L 682.363675 294.302868 
L 686.023355 295.93996 
L 689.683034 295.406751 
L 693.342713 295.408572 
L 697.002392 295.908382 
L 700.662071 295.816985 
L 704.32175 294.845526 
L 707.981429 294.828975 
L 711.641108 295.991777 
L 715.300787 295.263169 
L 718.960466 295.604859 
L 722.620145 295.437107 
L 726.279824 293.586737 
L 729.939503 293.023627 
L 733.599183 293.750835 
L 737.258862 294.23894 
L 740.918541 293.754101 
L 744.57822 292.853259 
L 748.237899 293.376431 
L 751.897578 293.512044 
L 755.557257 294.194365 
L 759.216936 296.451032 
L 762.876615 295.904322 
L 766.536294 296.00476 
L 770.195973 295.158532 
L 773.855652 295.41954 
L 777.515331 294.562611 
L 781.175011 294.667408 
L 784.83469 295.835808 
L 788.494369 294.968371 
L 792.154048 295.744567 
L 795.813727 294.80588 
L 799.473406 294.73761 
L 803.133085 294.922966 
L 806.792764 295.753838 
L 810.452443 295.245309 
L 810.452443 295.245309 
" clip-path="url(#pa9a7244cbb)" style="fill: none; stroke: #2ecc71; stroke-opacity: 0.8; stroke-width: 1.5; stroke-linecap: square"/>
   </g>
   <g id="patch_3">
    <path d="M 45.7625 312.135 
L 45.7625 24.575 
" style="fill: none; stroke: #000000; stroke-width: 0.8; stroke-linejoin: miter; stroke-linecap: square"/>
   </g>
   <g id="patch_4">
    <path d="M 846.86625 312.135 
L 846.86625 24.575 
" style="fill: none; stroke: #000000; stroke-width: 0.8; stroke-linejoin: miter; stroke-linecap: square"/>
   </g>
   <g id="patch_5">
    <path d="M 45.7625 312.135 
L 846.86625 312.135 
" style="fill: none; stroke: #000000; stroke-width: 0.8; stroke-linejoin: miter; stroke-linecap: square"/>
   </g>
   <g id="patch_6">
    <path d="M 45.7625 24.575 
L 846.86625 24.575 
" style="fill: none; stroke: #000000; stroke-width: 0.8; stroke-linejoin: miter; stroke-linecap: square"/>
   </g>
   <g id="text_20">
    <!-- P0修改版: 分销商牛鞭效应时间序列对比 -->
    <g transform="translate(320.314375 18.575) scale(0.14 -0.14)">
     <defs>
      <path id="SimHei-50" d="M 2950 3100 
Q 2950 2500 2600 2150 
Q 2250 1800 1625 1800 
L 900 1800 
L 900 125 
L 325 125 
L 325 4400 
L 1625 4400 
Q 2250 4400 2600 4050 
Q 2950 3700 2950 3100 
z
M 2375 3100 
Q 2375 3575 2150 3750 
Q 1925 3925 1475 3925 
L 900 3925 
L 900 2275 
L 1475 2275 
Q 1925 2275 2150 2450 
Q 2375 2625 2375 3100 
z
" transform="scale(0.015625)"/>
      <path id="SimHei-4fee" d="M 4150 5075 
Q 3925 4850 3825 4575 
L 5600 4575 
Q 5425 4225 5225 3887 
Q 5025 3550 4725 3250 
Q 5475 2775 6200 2800 
Q 6000 2625 5925 2300 
Q 5050 2450 4400 2950 
Q 3450 2350 2750 2150 
Q 2650 2375 2375 2600 
Q 3150 2725 4050 3250 
Q 3725 3500 3450 3900 
Q 3225 3525 2925 3125 
Q 2750 3275 2525 3375 
Q 2900 3775 3200 4375 
Q 3500 4975 3550 5300 
Q 3800 5175 4150 5075 
z
M 2000 5000 
Q 1825 4875 1475 3825 
L 1475 600 
Q 1475 -200 1500 -550 
L 1025 -550 
Q 1050 -50 1050 525 
L 1050 3125 
Q 925 2800 600 2300 
Q 500 2425 225 2650 
Q 450 2875 862 3700 
Q 1275 4525 1425 5225 
Q 1600 5125 2000 5000 
z
M 6100 700 
Q 5800 575 4950 125 
Q 4100 -325 2775 -675 
Q 2700 -425 2425 -225 
Q 3550 50 4387 400 
Q 5225 750 5675 1125 
Q 5925 825 6100 700 
z
M 2325 3950 
Q 2300 3675 2300 3325 
L 2300 1200 
Q 2300 875 2325 625 
L 1850 625 
Q 1875 900 1875 1200 
L 1875 3325 
Q 1875 3650 1850 3950 
L 2325 3950 
z
M 5425 1525 
Q 4775 1100 4175 775 
Q 3575 450 3250 275 
Q 3000 600 2825 700 
Q 3250 800 3875 1112 
Q 4500 1425 4975 1900 
Q 5275 1625 5425 1525 
z
M 4825 2200 
Q 4400 1975 3250 1325 
Q 3125 1525 2900 1725 
Q 4100 2175 4425 2575 
Q 4650 2325 4825 2200 
z
M 4400 3500 
Q 4675 3825 4900 4200 
L 3725 4200 
Q 4100 3700 4400 3500 
z
" transform="scale(0.015625)"/>
      <path id="SimHei-6539" d="M 4600 900 
Q 4850 575 5337 250 
Q 5825 -75 6175 -200 
Q 6000 -325 5775 -675 
Q 5450 -475 5087 -200 
Q 4725 75 4275 525 
Q 3850 125 3387 -150 
Q 2925 -425 2350 -675 
Q 2250 -450 2000 -225 
Q 2525 -75 3087 225 
Q 3650 525 4025 950 
Q 3825 1250 3600 1675 
Q 3375 2100 3175 2500 
L 3050 2325 
Q 2800 2500 2650 2600 
Q 2900 2900 3237 3562 
Q 3575 4225 3800 5125 
Q 4100 4975 4350 4950 
Q 4200 4700 4075 4387 
Q 3950 4075 3825 3775 
L 5075 3775 
Q 5600 3775 5950 3800 
L 5950 3350 
Q 5700 3375 5300 3375 
Q 5150 1850 4600 900 
z
M 2600 4500 
Q 2575 3925 2575 3350 
Q 2575 2775 2600 2275 
L 1125 2275 
L 1125 325 
Q 2050 825 2500 1175 
Q 2550 875 2650 700 
Q 2175 425 1725 150 
Q 1275 -125 800 -450 
Q 650 -225 450 -25 
Q 675 175 650 500 
L 650 1875 
Q 650 2225 625 2675 
L 2125 2675 
L 2125 4100 
L 1300 4100 
Q 875 4100 425 4075 
L 425 4525 
Q 875 4500 1300 4500 
L 2600 4500 
z
M 3200 2575 
Q 3425 2650 3575 2750 
Q 3750 2325 3950 1937 
Q 4150 1550 4325 1300 
Q 4725 2050 4825 3375 
L 3675 3375 
Q 3450 2975 3200 2575 
z
" transform="scale(0.015625)"/>
      <path id="SimHei-7248" d="M 5650 5050 
Q 5775 4725 5925 4550 
Q 5425 4500 4887 4437 
Q 4350 4375 3575 4325 
L 3575 3400 
L 5700 3400 
Q 5600 2575 5437 1825 
Q 5275 1075 4950 500 
Q 5175 275 5487 87 
Q 5800 -100 6100 -200 
Q 5900 -350 5700 -650 
Q 5425 -475 5150 -262 
Q 4875 -50 4675 150 
Q 4275 -275 3625 -675 
Q 3450 -475 3225 -275 
Q 3875 -25 4375 550 
Q 4150 975 3975 1525 
Q 3825 2050 3725 3025 
L 3575 3025 
Q 3550 1750 3400 1025 
Q 3250 300 2900 -325 
Q 2650 -125 2450 -75 
Q 2700 225 2875 775 
Q 3050 1325 3100 1950 
Q 3150 2600 3150 3400 
Q 3150 4225 3100 4725 
Q 3800 4700 4512 4800 
Q 5225 4900 5650 5050 
z
M 1275 4900 
Q 1225 4500 1225 4150 
L 1225 3275 
L 1850 3275 
L 1850 4450 
Q 1850 4725 1825 5050 
L 2300 5050 
Q 2275 4775 2275 4450 
L 2275 3275 
Q 2575 3275 2800 3300 
L 2800 2875 
Q 2525 2900 2225 2900 
L 1225 2900 
L 1225 2075 
L 2425 2075 
Q 2400 1725 2400 1100 
L 2400 -450 
L 1950 -450 
Q 1975 425 1975 1700 
L 1225 1700 
Q 1200 1125 1100 587 
Q 1000 50 775 -525 
Q 600 -400 300 -300 
Q 800 575 800 2375 
Q 800 4200 775 4975 
Q 1025 4925 1275 4900 
z
M 4150 3025 
Q 4225 2350 4350 1800 
Q 4500 1225 4675 925 
Q 5025 1700 5175 3025 
L 4150 3025 
z
" transform="scale(0.015625)"/>
      <path id="SimHei-3a" d="M 1825 2425 
L 1250 2425 
L 1250 2975 
L 1825 2975 
L 1825 2425 
z
M 1825 125 
L 1250 125 
L 1250 675 
L 1825 675 
L 1825 125 
z
" transform="scale(0.015625)"/>
      <path id="SimHei-725b" d="M 400 1950 
Q 1475 1925 2100 1925 
L 3200 1925 
L 3200 3425 
L 1700 3425 
Q 1425 2825 1150 2425 
Q 950 2550 650 2650 
Q 1125 3250 1375 3912 
Q 1625 4575 1650 4925 
Q 1900 4825 2200 4750 
Q 2100 4550 1850 3850 
L 3200 3850 
L 3200 4525 
Q 3200 4650 3175 5200 
L 3725 5200 
Q 3700 4775 3700 4525 
L 3700 3850 
L 4625 3850 
Q 5100 3850 5550 3875 
L 5550 3400 
Q 5150 3400 4625 3425 
L 3700 3425 
L 3700 1925 
L 4350 1925 
Q 5100 1925 6075 1950 
L 6075 1475 
Q 5125 1500 4350 1500 
L 3700 1500 
L 3700 125 
Q 3700 -125 3725 -650 
L 3175 -650 
Q 3200 275 3200 1325 
L 3200 1500 
L 2050 1500 
Q 1325 1475 400 1475 
L 400 1950 
z
" transform="scale(0.015625)"/>
      <path id="SimHei-97ad" d="M 5175 4750 
Q 5575 4750 5900 4775 
L 5900 4325 
Q 5550 4350 4975 4350 
L 4975 3800 
L 5950 3800 
Q 5925 3500 5925 2675 
Q 5925 1875 5950 1525 
L 4975 1525 
Q 4950 825 4825 450 
Q 5100 250 5400 112 
Q 5700 -25 6200 -100 
Q 6000 -300 5925 -575 
Q 5475 -400 5112 -212 
Q 4750 -25 4625 75 
Q 4325 -325 3775 -675 
Q 3675 -450 3450 -275 
Q 4075 50 4300 375 
Q 4025 650 3650 1175 
Q 3850 1250 4000 1400 
Q 4250 1000 4475 750 
Q 4550 875 4575 1525 
L 3600 1525 
Q 3625 1875 3625 2675 
Q 3625 3475 3600 3800 
L 4575 3800 
L 4575 4350 
Q 4100 4350 3750 4325 
L 3750 4775 
Q 4075 4750 4425 4750 
L 5175 4750 
z
M 800 4475 
Q 800 4875 775 5150 
L 1250 5150 
Q 1200 4875 1200 4475 
L 1875 4475 
Q 1875 4875 1850 5150 
L 2325 5150 
Q 2275 4925 2275 4475 
Q 2450 4475 2750 4500 
L 2750 4075 
Q 2450 4100 2250 4100 
Q 2250 3525 2275 3200 
L 1725 3200 
L 1725 2750 
L 2525 2750 
Q 2500 2425 2500 2075 
Q 2500 1750 2525 1425 
L 1700 1425 
L 1700 900 
L 1975 900 
Q 2300 900 2650 925 
L 2650 500 
Q 2275 525 1975 525 
L 1700 525 
L 1700 175 
Q 1700 -325 1725 -625 
L 1300 -625 
Q 1325 -300 1325 175 
L 1325 525 
L 900 525 
Q 625 525 275 500 
L 275 925 
Q 600 900 900 900 
L 1325 900 
L 1325 1425 
L 500 1425 
Q 525 1775 525 2100 
Q 525 2425 500 2750 
L 1350 2750 
L 1350 3200 
L 775 3200 
Q 800 3550 800 4075 
Q 550 4075 275 4050 
L 275 4500 
Q 575 4475 800 4475 
z
M 2625 2750 
Q 2475 2975 2300 3075 
Q 2625 3500 2862 4137 
Q 3100 4775 3200 5225 
Q 3500 5100 3750 5025 
Q 3600 4875 3512 4625 
Q 3425 4375 3300 4050 
L 3300 375 
Q 3300 -250 3325 -625 
L 2900 -625 
Q 2925 -250 2925 375 
L 2925 3350 
Q 2775 3000 2625 2750 
z
M 1875 3550 
L 1875 4075 
L 1175 4075 
L 1175 3550 
L 1875 3550 
z
M 4575 2825 
L 4575 3450 
L 4000 3450 
L 4000 2825 
L 4575 2825 
z
M 5550 2825 
L 5550 3450 
L 4975 3450 
L 4975 2825 
L 5550 2825 
z
M 5550 1875 
L 5550 2475 
L 4975 2475 
L 4975 1875 
L 5550 1875 
z
M 4575 1875 
L 4575 2475 
L 4000 2475 
L 4000 1875 
L 4575 1875 
z
M 1325 1775 
L 1325 2400 
L 875 2400 
L 875 1775 
L 1325 1775 
z
M 2125 1775 
L 2125 2400 
L 1700 2400 
L 1700 1775 
L 2125 1775 
z
" transform="scale(0.015625)"/>
      <path id="SimHei-6548" d="M 3500 2400 
Q 3400 2675 3200 2900 
Q 3500 3350 3750 4025 
Q 4000 4700 4100 5300 
Q 4400 5150 4750 5075 
Q 4625 4950 4500 4687 
Q 4375 4425 4225 4025 
Q 5800 4025 6150 4050 
L 6150 3625 
Q 5850 3650 5475 3650 
Q 5450 2925 5300 2137 
Q 5150 1350 4825 800 
Q 4900 575 5312 275 
Q 5725 -25 6175 -175 
Q 5875 -350 5775 -650 
Q 5350 -425 5050 -162 
Q 4750 100 4500 425 
Q 4175 125 3837 -112 
Q 3500 -350 2850 -700 
Q 2725 -425 2425 -250 
Q 2750 -200 3325 137 
Q 3900 475 4200 800 
Q 4000 1225 3887 1675 
Q 3775 2125 3675 2700 
L 3500 2400 
z
M 1100 2225 
Q 1525 1875 1925 1575 
Q 2125 1900 2200 2400 
Q 2450 2275 2700 2200 
Q 2475 1625 2300 1250 
L 3000 550 
Q 2775 375 2575 175 
Q 2400 450 2025 825 
Q 1825 600 1550 312 
Q 1275 25 700 -425 
Q 500 -175 250 -25 
Q 575 125 950 400 
Q 1325 675 1675 1175 
Q 1325 1475 850 1875 
L 1100 2225 
z
M 4075 2950 
Q 4100 2700 4212 2187 
Q 4325 1675 4525 1225 
Q 4775 1700 4887 2475 
Q 5000 3250 4975 3650 
L 4100 3650 
Q 3900 3125 3725 2850 
Q 3900 2850 4075 2950 
z
M 2500 4200 
Q 2875 4200 3175 4225 
L 3175 3800 
Q 2875 3825 2525 3825 
L 1000 3825 
Q 600 3825 275 3800 
L 275 4225 
Q 600 4200 1000 4200 
L 2500 4200 
z
M 1125 3650 
Q 1400 3500 1625 3325 
Q 1525 3250 1300 2900 
Q 1050 2525 675 2000 
Q 450 2150 225 2275 
Q 550 2575 787 2975 
Q 1025 3375 1125 3650 
z
M 2475 3625 
Q 2625 3400 2850 3100 
Q 3075 2800 3250 2575 
Q 3025 2450 2825 2275 
Q 2325 3000 2075 3325 
Q 2275 3425 2475 3625 
z
M 1825 5250 
Q 2025 4875 2175 4475 
Q 1950 4375 1700 4275 
Q 1550 4650 1350 5075 
Q 1575 5150 1825 5250 
z
" transform="scale(0.015625)"/>
      <path id="SimHei-5e94" d="M 3525 5275 
Q 3700 4825 3850 4400 
L 4750 4400 
Q 5275 4400 5850 4425 
L 5850 3975 
Q 5275 4000 4750 4000 
L 1475 4000 
Q 1475 2525 1425 1900 
Q 1375 1275 1237 625 
Q 1100 -25 750 -625 
Q 575 -400 300 -250 
Q 625 175 800 937 
Q 975 1700 1000 2575 
Q 1025 3450 1000 4400 
L 3250 4400 
Q 3175 4750 3000 5100 
Q 3250 5150 3525 5275 
z
M 5625 3125 
Q 5375 2575 5187 2050 
Q 5000 1525 4450 225 
L 5150 225 
Q 5500 225 5925 250 
L 5925 -275 
Q 5500 -250 5150 -250 
L 2475 -250 
Q 2050 -250 1450 -275 
L 1450 250 
Q 2025 225 2475 225 
L 3950 225 
Q 4325 1000 4612 1850 
Q 4900 2700 5025 3350 
Q 5350 3175 5625 3125 
z
M 2100 2850 
Q 2750 1825 3075 1050 
Q 2900 950 2650 800 
Q 2150 1925 1700 2575 
Q 1925 2750 2100 2850 
z
M 3300 3425 
Q 3800 2550 4175 1700 
Q 3950 1575 3700 1450 
Q 3400 2300 2900 3200 
Q 3100 3275 3300 3425 
z
" transform="scale(0.015625)"/>
      <path id="SimHei-5e8f" d="M 4000 2075 
L 5975 2075 
Q 5750 1525 5575 1025 
Q 5325 1100 5050 1150 
Q 5175 1450 5275 1700 
L 4050 1700 
L 4050 150 
Q 4050 -375 3762 -462 
Q 3475 -550 2950 -575 
Q 2875 -300 2750 0 
Q 3350 -75 3475 25 
Q 3600 125 3575 375 
L 3575 1700 
L 2450 1700 
Q 2050 1700 1675 1675 
L 1675 2100 
Q 2100 2075 2425 2075 
L 3675 2075 
Q 3325 2400 2875 2775 
Q 2975 2875 3250 3100 
Q 3400 2975 3725 2725 
L 4575 3275 
L 3000 3275 
Q 2400 3275 1950 3250 
L 1950 3700 
Q 2400 3675 3000 3675 
L 5400 3675 
L 5400 3250 
Q 4700 2875 4025 2450 
L 4275 2250 
L 4000 2075 
z
M 3725 5275 
Q 3825 4925 3925 4525 
L 4850 4525 
Q 5425 4525 6000 4550 
L 6000 4125 
Q 5425 4150 4850 4150 
L 1400 4150 
Q 1400 2750 1362 2137 
Q 1325 1525 1200 887 
Q 1075 250 775 -350 
Q 625 -250 250 -125 
Q 475 300 600 700 
Q 725 1100 800 1637 
Q 875 2175 875 2825 
Q 875 3500 850 4525 
L 3350 4525 
Q 3275 4825 3150 5150 
Q 3425 5200 3725 5275 
z
" transform="scale(0.015625)"/>
      <path id="SimHei-5217" d="M 2950 4800 
Q 3525 4800 3825 4825 
L 3825 4400 
Q 3525 4425 2800 4425 
L 2125 4425 
Q 2075 4125 1925 3500 
L 3425 3500 
Q 3300 2500 3100 1862 
Q 2900 1225 2575 762 
Q 2250 300 1850 -12 
Q 1450 -325 925 -675 
Q 725 -375 475 -150 
Q 1125 125 1550 437 
Q 1975 750 2250 1225 
Q 2100 1350 1862 1550 
Q 1625 1750 1400 1925 
L 1750 2325 
Q 1925 2200 2100 2037 
Q 2275 1875 2500 1650 
Q 2650 2025 2737 2337 
Q 2825 2650 2875 3100 
L 1775 3100 
Q 1600 2650 1350 2237 
Q 1100 1825 775 1525 
Q 600 1675 325 1850 
Q 600 2125 825 2462 
Q 1050 2800 1200 3125 
Q 1350 3450 1425 3775 
Q 1500 4100 1550 4425 
L 1100 4425 
Q 575 4425 375 4400 
L 375 4825 
Q 575 4800 1125 4800 
L 2950 4800 
z
M 5975 5050 
Q 5925 4675 5925 4250 
L 5925 50 
Q 5925 -275 5737 -400 
Q 5550 -525 4900 -625 
Q 4825 -250 4650 25 
Q 5150 0 5287 25 
Q 5425 50 5425 325 
L 5425 4250 
Q 5425 4650 5400 5050 
L 5975 5050 
z
M 4725 4300 
Q 4675 4000 4675 3450 
L 4675 1650 
Q 4675 1200 4700 850 
L 4100 850 
Q 4150 1200 4150 1650 
L 4150 3550 
Q 4150 3975 4100 4300 
L 4725 4300 
z
" transform="scale(0.015625)"/>
      <path id="SimHei-5bf9" d="M 525 4250 
Q 900 4225 1400 4225 
L 2825 4225 
Q 2575 2625 2200 1750 
Q 2825 875 3125 400 
Q 2950 275 2725 75 
Q 2200 975 1950 1300 
Q 1650 775 1350 425 
Q 1050 75 600 -350 
Q 425 -125 200 -25 
Q 625 275 975 675 
Q 1325 1075 1650 1700 
Q 1050 2425 550 2900 
Q 700 3025 900 3225 
Q 1625 2425 1875 2150 
Q 2200 3050 2300 3825 
L 1400 3825 
Q 900 3825 525 3800 
L 525 4250 
z
M 2925 3700 
Q 3525 3675 3750 3675 
L 4825 3675 
L 4825 4425 
Q 4825 4750 4775 5125 
L 5350 5125 
Q 5325 4825 5325 4375 
L 5325 3675 
Q 5575 3675 6150 3700 
L 6150 3250 
Q 5575 3275 5325 3275 
L 5325 125 
Q 5350 -350 5012 -475 
Q 4675 -600 4250 -650 
Q 4175 -350 4025 -100 
Q 4575 -100 4712 -37 
Q 4850 25 4825 325 
L 4825 3275 
L 3775 3275 
Q 3550 3275 2925 3225 
L 2925 3700 
z
M 3450 2725 
Q 3875 1975 4175 1325 
Q 3850 1200 3700 1075 
Q 3475 1750 3050 2475 
Q 3225 2550 3450 2725 
z
" transform="scale(0.015625)"/>
      <path id="SimHei-6bd4" d="M 3775 5100 
Q 3750 4575 3750 4100 
L 3750 3050 
Q 4925 3600 5475 4175 
Q 5675 3900 5900 3675 
Q 5600 3500 5037 3187 
Q 4475 2875 3750 2550 
L 3750 450 
Q 3750 100 4050 100 
L 5000 100 
Q 5175 100 5262 250 
Q 5350 400 5450 900 
Q 5650 775 6025 675 
Q 5850 0 5650 -175 
Q 5450 -350 5225 -350 
L 3900 -350 
Q 3250 -350 3250 275 
L 3250 4000 
Q 3250 4550 3225 5100 
L 3775 5100 
z
M 1275 4975 
Q 1250 4575 1250 4000 
L 1250 3150 
L 1850 3150 
Q 2325 3150 2875 3175 
L 2875 2650 
Q 2325 2675 1850 2675 
L 1250 2675 
L 1250 475 
Q 1650 650 1962 812 
Q 2275 975 2850 1275 
Q 2900 950 2950 750 
Q 2375 475 1762 175 
Q 1150 -125 925 -325 
Q 750 -100 575 200 
Q 700 300 750 600 
L 750 3950 
Q 750 4550 725 4975 
L 1275 4975 
z
" transform="scale(0.015625)"/>
     </defs>
     <use xlink:href="#SimHei-50"/>
     <use xlink:href="#SimHei-30" transform="translate(50 0)"/>
     <use xlink:href="#SimHei-4fee" transform="translate(100 0)"/>
     <use xlink:href="#SimHei-6539" transform="translate(200 0)"/>
     <use xlink:href="#SimHei-7248" transform="translate(300 0)"/>
     <use xlink:href="#SimHei-3a" transform="translate(400 0)"/>
     <use xlink:href="#SimHei-20" transform="translate(450 0)"/>
     <use xlink:href="#SimHei-5206" transform="translate(500 0)"/>
     <use xlink:href="#SimHei-9500" transform="translate(600 0)"/>
     <use xlink:href="#SimHei-5546" transform="translate(700 0)"/>
     <use xlink:href="#SimHei-725b" transform="translate(800 0)"/>
     <use xlink:href="#SimHei-97ad" transform="translate(900 0)"/>
     <use xlink:href="#SimHei-6548" transform="translate(1000 0)"/>
     <use xlink:href="#SimHei-5e94" transform="translate(1100 0)"/>
     <use xlink:href="#SimHei-65f6" transform="translate(1200 0)"/>
     <use xlink:href="#SimHei-95f4" transform="translate(1300 0)"/>
     <use xlink:href="#SimHei-5e8f" transform="translate(1400 0)"/>
     <use xlink:href="#SimHei-5217" transform="translate(1500 0)"/>
     <use xlink:href="#SimHei-5bf9" transform="translate(1600 0)"/>
     <use xlink:href="#SimHei-6bd4" transform="translate(1700 0)"/>
    </g>
   </g>
   <g id="legend_1">
    <g id="patch_7">
     <path d="M 710.46625 79.446094 
L 839.16625 79.446094 
Q 841.36625 79.446094 841.36625 77.246094 
L 841.36625 32.275 
Q 841.36625 30.075 839.16625 30.075 
L 710.46625 30.075 
Q 708.26625 30.075 708.26625 32.275 
L 708.26625 77.246094 
Q 708.26625 79.446094 710.46625 79.446094 
z
" style="fill: #ffffff; opacity: 0.8; stroke: #cccccc; stroke-linejoin: miter"/>
    </g>
    <g id="line2d_38">
     <path d="M 712.66625 38.325 
L 723.66625 38.325 
L 734.66625 38.325 
" style="fill: none; stroke: #e74c3c; stroke-opacity: 0.8; stroke-width: 1.5; stroke-linecap: square"/>
    </g>
    <g id="text_21">
     <!-- Baseline-P0 -->
     <g transform="translate(743.46625 42.175) scale(0.11 -0.11)">
      <defs>
       <path id="SimHei-61" d="M 2875 125 
L 2275 125 
Q 2225 175 2200 262 
Q 2175 350 2175 475 
Q 2000 275 1750 175 
Q 1500 75 1225 75 
Q 825 75 550 275 
Q 275 475 275 850 
Q 275 1225 525 1450 
Q 775 1675 1300 1750 
Q 1650 1800 1912 1875 
Q 2175 1950 2175 2075 
Q 2175 2225 2062 2375 
Q 1950 2525 1575 2525 
Q 1275 2525 1137 2412 
Q 1000 2300 950 2100 
L 400 2100 
Q 450 2500 762 2737 
Q 1075 2975 1575 2975 
Q 2125 2975 2400 2725 
Q 2675 2475 2675 2025 
L 2675 650 
Q 2675 500 2725 375 
Q 2775 250 2875 125 
z
M 2175 1050 
L 2175 1550 
Q 2025 1500 1887 1462 
Q 1750 1425 1425 1375 
Q 1050 1325 937 1200 
Q 825 1075 825 900 
Q 825 750 937 637 
Q 1050 525 1275 525 
Q 1500 525 1762 650 
Q 2025 775 2175 1050 
z
" transform="scale(0.015625)"/>
       <path id="SimHei-73" d="M 2750 900 
Q 2750 500 2437 287 
Q 2125 75 1650 75 
Q 1050 75 725 312 
Q 400 550 400 1000 
L 900 1000 
Q 900 700 1112 600 
Q 1325 500 1625 500 
Q 1925 500 2075 612 
Q 2225 725 2225 900 
Q 2225 1025 2100 1150 
Q 1975 1275 1475 1350 
Q 900 1425 687 1637 
Q 475 1850 475 2200 
Q 475 2500 762 2737 
Q 1050 2975 1600 2975 
Q 2100 2975 2387 2750 
Q 2675 2525 2675 2150 
L 2175 2150 
Q 2175 2375 2012 2462 
Q 1850 2550 1600 2550 
Q 1275 2550 1137 2437 
Q 1000 2325 1000 2175 
Q 1000 2000 1125 1900 
Q 1250 1800 1650 1750 
Q 2300 1650 2525 1437 
Q 2750 1225 2750 900 
z
" transform="scale(0.015625)"/>
       <path id="SimHei-65" d="M 2850 1075 
Q 2800 625 2450 350 
Q 2100 75 1625 75 
Q 1025 75 637 462 
Q 250 850 250 1525 
Q 250 2200 637 2587 
Q 1025 2975 1625 2975 
Q 2150 2975 2487 2637 
Q 2825 2300 2825 1525 
L 800 1525 
Q 800 975 1037 750 
Q 1275 525 1625 525 
Q 1900 525 2075 662 
Q 2250 800 2300 1075 
L 2850 1075 
z
M 2250 1925 
Q 2200 2275 2025 2412 
Q 1850 2550 1575 2550 
Q 1325 2550 1125 2412 
Q 925 2275 825 1925 
L 2250 1925 
z
" transform="scale(0.015625)"/>
       <path id="SimHei-6c" d="M 1825 125 
L 1325 125 
L 1325 4400 
L 1825 4400 
L 1825 125 
z
" transform="scale(0.015625)"/>
       <path id="SimHei-69" d="M 1800 3725 
L 1300 3725 
L 1300 4375 
L 1800 4375 
L 1800 3725 
z
M 1800 125 
L 1300 125 
L 1300 2925 
L 1800 2925 
L 1800 125 
z
" transform="scale(0.015625)"/>
       <path id="SimHei-6e" d="M 2800 125 
L 2300 125 
L 2300 1925 
Q 2300 2225 2150 2400 
Q 2000 2575 1750 2575 
Q 1425 2575 1137 2237 
Q 850 1900 850 1400 
L 850 125 
L 350 125 
L 350 2925 
L 850 2925 
L 850 2400 
Q 1050 2675 1287 2825 
Q 1525 2975 1900 2975 
Q 2350 2975 2575 2725 
Q 2800 2475 2800 2100 
L 2800 125 
z
" transform="scale(0.015625)"/>
       <path id="SimHei-2d" d="M 2975 2125 
L 125 2125 
L 125 2525 
L 2975 2525 
L 2975 2125 
z
" transform="scale(0.015625)"/>
      </defs>
      <use xlink:href="#SimHei-42"/>
      <use xlink:href="#SimHei-61" transform="translate(50 0)"/>
      <use xlink:href="#SimHei-73" transform="translate(100 0)"/>
      <use xlink:href="#SimHei-65" transform="translate(150 0)"/>
      <use xlink:href="#SimHei-6c" transform="translate(200 0)"/>
      <use xlink:href="#SimHei-69" transform="translate(250 0)"/>
      <use xlink:href="#SimHei-6e" transform="translate(300 0)"/>
      <use xlink:href="#SimHei-65" transform="translate(350 0)"/>
      <use xlink:href="#SimHei-2d" transform="translate(400 0)"/>
      <use xlink:href="#SimHei-50" transform="translate(450 0)"/>
      <use xlink:href="#SimHei-30" transform="translate(500 0)"/>
     </g>
    </g>
    <g id="line2d_39">
     <path d="M 712.66625 53.79375 
L 723.66625 53.79375 
L 734.66625 53.79375 
" style="fill: none; stroke: #3498db; stroke-opacity: 0.8; stroke-width: 1.5; stroke-linecap: square"/>
    </g>
    <g id="text_22">
     <!-- Exp_1 (IDMR) -->
     <g transform="translate(743.46625 57.64375) scale(0.11 -0.11)">
      <defs>
       <path id="SimHei-78" d="M 2875 125 
L 2275 125 
L 1550 1200 
L 825 125 
L 225 125 
L 1250 1550 
L 300 2925 
L 900 2925 
L 1550 1875 
L 2200 2925 
L 2800 2925 
L 1850 1550 
L 2875 125 
z
" transform="scale(0.015625)"/>
       <path id="SimHei-70" d="M 2825 1525 
Q 2825 800 2475 425 
Q 2125 50 1625 50 
Q 1350 50 1150 162 
Q 950 275 800 500 
L 800 -800 
L 300 -800 
L 300 2925 
L 800 2925 
L 800 2550 
Q 950 2775 1150 2875 
Q 1350 2975 1625 2975 
Q 2125 2975 2475 2612 
Q 2825 2250 2825 1525 
z
M 2275 1525 
Q 2275 2000 2087 2262 
Q 1900 2525 1525 2525 
Q 1225 2525 1012 2262 
Q 800 2000 800 1525 
Q 800 1050 1012 775 
Q 1225 500 1525 500 
Q 1900 500 2087 775 
Q 2275 1050 2275 1525 
z
" transform="scale(0.015625)"/>
       <path id="SimHei-5f" d="M 3150 -850 
L 0 -850 
L 0 -550 
L 3150 -550 
L 3150 -850 
z
" transform="scale(0.015625)"/>
       <path id="SimHei-49" d="M 1850 125 
L 1275 125 
L 1275 4400 
L 1850 4400 
L 1850 125 
z
" transform="scale(0.015625)"/>
       <path id="SimHei-44" d="M 2925 2250 
Q 2925 1100 2437 612 
Q 1950 125 1125 125 
L 275 125 
L 275 4400 
L 1125 4400 
Q 2050 4400 2487 3900 
Q 2925 3400 2925 2250 
z
M 2325 2250 
Q 2325 3175 2025 3550 
Q 1725 3925 1125 3925 
L 850 3925 
L 850 600 
L 1125 600 
Q 1725 600 2025 962 
Q 2325 1325 2325 2250 
z
" transform="scale(0.015625)"/>
       <path id="SimHei-4d" d="M 2925 125 
L 2425 125 
L 2425 3175 
L 2375 3175 
L 1775 125 
L 1375 125 
L 775 3175 
L 725 3175 
L 725 125 
L 225 125 
L 225 4400 
L 1000 4400 
L 1550 1575 
L 1600 1575 
L 2150 4400 
L 2925 4400 
L 2925 125 
z
" transform="scale(0.015625)"/>
       <path id="SimHei-52" d="M 3000 125 
L 2400 125 
L 1500 1975 
L 850 1975 
L 850 125 
L 275 125 
L 275 4400 
L 1525 4400 
Q 2125 4400 2500 4112 
Q 2875 3825 2875 3175 
Q 2875 2675 2625 2400 
Q 2375 2125 2050 2050 
L 3000 125 
z
M 2300 3175 
Q 2300 3525 2087 3725 
Q 1875 3925 1400 3925 
L 850 3925 
L 850 2450 
L 1550 2450 
Q 1850 2450 2075 2612 
Q 2300 2775 2300 3175 
z
" transform="scale(0.015625)"/>
      </defs>
      <use xlink:href="#SimHei-45"/>
      <use xlink:href="#SimHei-78" transform="translate(50 0)"/>
      <use xlink:href="#SimHei-70" transform="translate(100 0)"/>
      <use xlink:href="#SimHei-5f" transform="translate(150 0)"/>
      <use xlink:href="#SimHei-31" transform="translate(200 0)"/>
      <use xlink:href="#SimHei-20" transform="translate(250 0)"/>
      <use xlink:href="#SimHei-28" transform="translate(300 0)"/>
      <use xlink:href="#SimHei-49" transform="translate(350 0)"/>
      <use xlink:href="#SimHei-44" transform="translate(400 0)"/>
      <use xlink:href="#SimHei-4d" transform="translate(450 0)"/>
      <use xlink:href="#SimHei-52" transform="translate(500 0)"/>
      <use xlink:href="#SimHei-29" transform="translate(550 0)"/>
     </g>
    </g>
    <g id="line2d_40">
     <path d="M 712.66625 69.735156 
L 723.66625 69.735156 
L 734.66625 69.735156 
" style="fill: none; stroke: #2ecc71; stroke-opacity: 0.8; stroke-width: 1.5; stroke-linecap: square"/>
    </g>
    <g id="text_23">
     <!-- Exp_2 (情绪+协同) -->
     <g transform="translate(743.46625 73.585156) scale(0.11 -0.11)">
      <defs>
       <path id="SimHei-60c5" d="M 2775 1475 
Q 2775 2050 2750 2525 
L 5600 2525 
Q 5575 2100 5575 1725 
L 5575 -150 
Q 5575 -425 5375 -500 
Q 5175 -575 4875 -625 
Q 4850 -400 4700 -150 
Q 5050 -150 5100 -75 
Q 5150 0 5150 475 
L 3225 475 
L 3225 -625 
L 2750 -625 
Q 2775 -50 2775 375 
L 2775 1475 
z
M 2375 3250 
Q 2975 3225 3475 3225 
L 3975 3225 
L 3975 3625 
L 3500 3625 
Q 3075 3625 2625 3600 
L 2625 4025 
Q 3075 4000 3500 4000 
L 3975 4000 
L 3975 4350 
L 3450 4350 
Q 3050 4350 2475 4325 
L 2475 4750 
Q 3075 4725 3450 4725 
L 3975 4725 
Q 3975 4975 3950 5225 
L 4475 5225 
Q 4450 4975 4450 4725 
L 5125 4725 
Q 5550 4725 5925 4750 
L 5925 4325 
Q 5550 4350 5125 4350 
L 4450 4350 
L 4450 4000 
L 4925 4000 
Q 5325 4000 5750 4025 
L 5750 3600 
Q 5300 3625 4925 3625 
L 4450 3625 
L 4450 3225 
L 5175 3225 
Q 5775 3225 6150 3250 
L 6150 2825 
Q 5775 2850 5150 2850 
L 3500 2850 
Q 2850 2850 2375 2825 
L 2375 3250 
z
M 1675 5225 
Q 1650 4800 1650 4400 
L 1650 425 
Q 1650 -100 1675 -600 
L 1150 -600 
Q 1200 -100 1200 425 
L 1200 4325 
Q 1200 4825 1150 5225 
L 1675 5225 
z
M 5125 850 
L 5125 1325 
L 3225 1325 
L 3225 850 
L 5125 850 
z
M 5125 1700 
L 5125 2150 
L 3225 2150 
L 3225 1700 
L 5125 1700 
z
M 1050 3900 
Q 1000 3675 725 2275 
Q 500 2350 250 2375 
Q 425 2750 575 3975 
Q 800 3925 1050 3900 
z
M 1975 3125 
Q 1925 3425 1775 3975 
Q 1950 4000 2200 4075 
Q 2350 3550 2450 3275 
Q 2175 3200 1975 3125 
z
" transform="scale(0.015625)"/>
       <path id="SimHei-7eea" d="M 3700 4375 
Q 3700 4700 3675 5175 
L 4175 5175 
Q 4150 4775 4150 4375 
Q 4350 4375 4750 4400 
L 4750 3975 
Q 4375 4000 4150 4000 
L 4150 3200 
L 4325 3200 
Q 4625 3575 4900 4000 
Q 5175 4425 5350 4825 
Q 5600 4625 5925 4500 
Q 5675 4250 5387 3850 
Q 5100 3450 4900 3200 
L 5275 3200 
Q 5725 3200 6200 3225 
L 6200 2800 
Q 5750 2825 5275 2825 
L 4625 2825 
Q 4325 2525 4075 2200 
L 5625 2200 
Q 5600 1825 5600 1175 
L 5600 400 
Q 5600 125 5625 -475 
L 5150 -475 
L 5150 -200 
L 3450 -200 
L 3450 -600 
L 2975 -600 
Q 3000 -50 3000 425 
L 3000 1275 
Q 2850 1150 2525 850 
Q 2375 1025 2175 1200 
Q 2750 1625 3000 1850 
Q 3000 2000 2975 2200 
L 3425 2200 
Q 3750 2475 4025 2825 
L 3475 2825 
Q 2925 2825 2475 2800 
L 2475 3225 
Q 2925 3200 3475 3200 
L 3700 3200 
L 3700 4000 
Q 3175 4000 2825 3975 
L 2825 4400 
Q 3250 4375 3700 4375 
z
M 1950 4850 
Q 1725 4600 1487 4125 
Q 1250 3650 950 3125 
L 1700 3125 
Q 1950 3525 2125 4050 
Q 2350 3925 2700 3850 
Q 2575 3725 2250 3212 
Q 1925 2700 1250 1650 
Q 1900 1725 2400 1775 
Q 2325 1525 2300 1300 
Q 1925 1300 1500 1262 
Q 1075 1225 650 1100 
Q 600 1325 525 1600 
Q 700 1650 975 1975 
Q 1250 2300 1500 2750 
Q 900 2750 450 2600 
Q 375 2850 250 3150 
Q 525 3300 825 3875 
Q 1125 4450 1325 5075 
Q 1600 4950 1950 4850 
z
M 5150 1200 
L 5150 1825 
L 3500 1825 
L 3500 1200 
L 5150 1200 
z
M 2475 675 
Q 2425 425 2450 225 
Q 2075 175 1537 50 
Q 1000 -75 475 -250 
Q 375 75 225 300 
Q 900 375 1312 450 
Q 1725 525 2475 675 
z
M 5150 250 
L 5150 775 
L 3500 775 
L 3500 250 
L 5150 250 
z
" transform="scale(0.015625)"/>
       <path id="SimHei-2b" d="M 3000 2125 
L 1775 2125 
L 1775 900 
L 1350 900 
L 1350 2125 
L 125 2125 
L 125 2525 
L 1350 2525 
L 1350 3750 
L 1775 3750 
L 1775 2525 
L 3000 2525 
L 3000 2125 
z
" transform="scale(0.015625)"/>
       <path id="SimHei-534f" d="M 3475 3825 
Q 3475 4625 3450 5150 
Q 3725 5075 4050 5050 
Q 3950 4650 3975 3825 
L 5325 3825 
Q 5275 3600 5225 3075 
L 5050 300 
Q 5000 -100 4750 -187 
Q 4500 -275 4050 -375 
Q 3950 -50 3825 175 
Q 4350 200 4462 225 
Q 4575 250 4600 575 
L 4775 3425 
L 3950 3425 
Q 3925 2300 3600 1300 
Q 3275 300 2475 -500 
Q 2325 -300 1875 -150 
Q 2450 150 2925 1075 
Q 3400 2000 3450 3425 
Q 2975 3425 2500 3400 
L 2500 3850 
Q 2975 3825 3475 3825 
z
M 1025 3475 
Q 1025 4675 1000 5075 
L 1550 5075 
Q 1525 4675 1525 3475 
Q 2000 3475 2325 3500 
L 2325 3050 
Q 2000 3075 1525 3075 
L 1525 325 
Q 1525 -25 1550 -575 
L 1000 -575 
Q 1025 -25 1025 325 
L 1025 3075 
Q 525 3075 225 3050 
L 225 3500 
Q 525 3475 1025 3475 
z
M 2975 2500 
Q 2825 2300 2500 1225 
Q 2250 1325 2025 1350 
Q 2375 2275 2425 2625 
Q 2625 2550 2975 2500 
z
M 5725 2675 
Q 6100 1875 6200 1500 
Q 5925 1450 5725 1325 
Q 5575 1850 5300 2475 
Q 5525 2550 5725 2675 
z
" transform="scale(0.015625)"/>
       <path id="SimHei-540c" d="M 5825 4925 
Q 5775 4550 5775 3975 
L 5775 -50 
Q 5775 -400 5525 -487 
Q 5275 -575 4725 -625 
Q 4725 -400 4525 -50 
Q 4925 -50 5100 -12 
Q 5275 25 5275 200 
L 5275 4450 
L 1150 4450 
L 1150 -600 
L 575 -600 
Q 600 -250 625 200 
L 625 3975 
Q 625 4575 600 4925 
L 5825 4925 
z
M 4375 2550 
Q 4325 2275 4325 1700 
Q 4325 1150 4375 725 
L 2025 725 
Q 2050 1175 2050 1750 
Q 2050 2325 2025 2550 
L 4375 2550 
z
M 4100 3750 
Q 4600 3750 4825 3775 
L 4825 3275 
Q 4575 3300 4075 3300 
L 2450 3300 
Q 1850 3300 1600 3275 
L 1600 3775 
Q 1875 3750 2475 3750 
L 4100 3750 
z
M 3875 1150 
L 3875 2150 
L 2525 2150 
L 2525 1150 
L 3875 1150 
z
" transform="scale(0.015625)"/>
      </defs>
      <use xlink:href="#SimHei-45"/>
      <use xlink:href="#SimHei-78" transform="translate(50 0)"/>
      <use xlink:href="#SimHei-70" transform="translate(100 0)"/>
      <use xlink:href="#SimHei-5f" transform="translate(150 0)"/>
      <use xlink:href="#SimHei-32" transform="translate(200 0)"/>
      <use xlink:href="#SimHei-20" transform="translate(250 0)"/>
      <use xlink:href="#SimHei-28" transform="translate(300 0)"/>
      <use xlink:href="#SimHei-60c5" transform="translate(350 0)"/>
      <use xlink:href="#SimHei-7eea" transform="translate(450 0)"/>
      <use xlink:href="#SimHei-2b" transform="translate(550 0)"/>
      <use xlink:href="#SimHei-534f" transform="translate(600 0)"/>
      <use xlink:href="#SimHei-540c" transform="translate(700 0)"/>
      <use xlink:href="#SimHei-29" transform="translate(800 0)"/>
     </g>
    </g>
   </g>
  </g>
 </g>
 <defs>
  <clipPath id="pa9a7244cbb">
   <rect x="45.7625" y="24.575" width="801.10375" height="287.56"/>
  </clipPath>
 </defs>
</svg>
